<svg width="36" height="36" viewBox="0 0 36 36" fill="none" xmlns="http://www.w3.org/2000/svg">
<path d="M25.0516 4.3487C23.7985 3.34644 22.4833 2.29616 21.1442 1.14986C20.6365 0.715997 20.0341 0.391824 19.3793 0.200037C18.7244 0.00824953 18.033 -0.0465164 17.3533 0.0395726C16.6946 0.121684 16.063 0.33893 15.5033 0.675966C14.9436 1.013 14.4693 1.4616 14.114 1.99008C12.2143 4.97861 10.8708 8.25047 10.1413 11.6646C9.85588 11.2757 9.60221 10.8669 9.38247 10.4418C9.15683 9.99436 8.81702 9.60644 8.39337 9.31265C7.96971 9.01886 7.47538 8.82833 6.95447 8.75806C6.43356 8.68779 5.90226 8.73996 5.40798 8.90992C4.9137 9.07988 4.47181 9.36234 4.12171 9.73212C1.44878 12.3044 -0.0329111 15.7683 0.000784765 19.3661C-0.0361813 23.0413 1.23376 26.6225 3.60857 29.54C5.98338 32.4575 9.32663 34.5438 13.1064 35.4669C14.5537 35.8096 16.0395 35.9869 17.5319 35.995C15.6248 35.9281 13.7918 35.2829 12.3062 34.1555C11.277 33.4738 10.4116 32.596 9.76622 31.5791C9.12082 30.5623 8.70981 29.429 8.55988 28.253C8.19322 24.9371 9.98347 21.0766 13.8812 16.7795C14.3488 16.2636 14.9301 15.8497 15.5847 15.5665C16.2394 15.2833 16.9517 15.1376 17.6721 15.1395H17.6881C18.4065 15.1401 19.1161 15.288 19.7675 15.5731C20.4189 15.8581 20.9964 16.2734 21.4599 16.79C23.9117 19.5312 26.837 23.5943 26.837 27.3842C26.8335 29.5684 25.9497 31.6699 24.3641 33.2647C22.7785 34.8595 20.6092 35.8288 18.2939 35.977C22.8718 35.8382 27.2125 34.0276 30.3964 30.9287C33.5804 27.8298 35.3576 23.686 35.3515 19.3751C35.3435 12.5784 30.5738 8.76736 25.0516 4.3487Z" fill="#FF002E"/>
</svg>
