<svg xmlns="http://www.w3.org/2000/svg" width="25" height="26" viewBox="0 0 25 26" fill="none">
<path d="M5.37594 3.55206V2.94595C5.35423 2.45352 5.52845 1.97251 5.86058 1.60793C6.19271 1.24335 6.65577 1.0248 7.14868 1H21.4477C21.9406 1.0248 22.4036 1.24335 22.7358 1.60793C23.0679 1.97251 23.2421 2.45352 23.2204 2.94595V18.6464C23.2421 19.1389 23.0679 19.6199 22.7358 19.9845C22.4036 20.349 21.9406 20.5676 21.4477 20.5924H20.8355M2.33088 5.40762H17.7265C18.4616 5.40762 19.0574 6.00272 19.0574 6.73682V23.6708C19.0574 24.4049 18.4616 25 17.7265 25H2.33088C1.59586 25 1 24.4049 1 23.6708V6.73682C1 6.00272 1.59586 5.40762 2.33088 5.40762Z" stroke="#999999" stroke-width="2"/>
</svg>