<svg width="162" height="162" viewBox="0 0 162 162" fill="none" xmlns="http://www.w3.org/2000/svg">
<path fill-rule="evenodd" clip-rule="evenodd" d="M89.9759 160.979C130.228 156.4 161.5 122.227 161.5 80.75C161.5 36.153 125.347 0 80.75 0C36.153 0 0 36.153 0 80.75C0 125.347 36.153 161.5 80.75 161.5C81.689 161.5 82.6243 161.484 83.5555 161.452C83.0551 155.481 80.9308 149.305 77.4015 140.289L75.4437 141.293L73.4009 142.19C70.3439 142.241 70.5477 139.29 71.8215 137.229L75.9994 130.499C56.6767 127.688 41.7229 100.527 41.7229 76.7888C41.7229 51.1294 59.186 30.3424 80.6995 30.3424H80.8014C86.7786 30.3424 92.4384 31.9413 97.497 34.7996C94.1097 35.7579 91.3203 38.4583 90.4215 42.1181C89.0905 47.5378 92.4093 53.0093 97.8344 54.339C99.1614 54.6642 100.492 54.7115 101.763 54.5181C101.772 59.0548 104.861 63.1736 109.47 64.3032C112.521 65.0511 115.589 64.3294 117.926 62.5903C119.129 67.0653 119.778 71.8363 119.778 76.7888C119.778 100.476 104.913 127.599 85.6798 130.499L89.4246 136.987C90.7714 138.796 91.4154 141.551 87.7058 141.036L85.9541 140.495L83.919 139.775C87.4529 148.698 89.5119 154.947 89.9759 160.979Z" fill="white"/>
</svg>
