<svg width="36" height="36" viewBox="0 0 16 18" fill="none" xmlns="http://www.w3.org/2000/svg">
<path d="M2.21759 0C2.12022 0 2.01837 0.0326486 1.94393 0.107082L0.11165 1.93937C-0.0372168 2.08823 -0.0372168 2.32591 0.11165 2.47477L1.5751 3.92632C1.60736 3.98 1.6523 4.02493 1.70598 4.0572L3.84761 6.21073C3.90205 5.98152 4.02408 5.77383 4.20455 5.61583L4.26404 5.55634L3.96659 5.25889L5.26346 3.96201L5.6442 4.35465L6.2153 3.84303L4.06177 1.6895C4.04793 1.66813 4.03199 1.64821 4.01418 1.63002L3.97848 1.60623C3.96029 1.58841 3.94036 1.57247 3.91899 1.55863L2.47934 0.107082C2.40491 0.0326486 2.31496 0 2.21759 0ZM13.7824 0C13.685 0 13.5951 0.0326486 13.5206 0.107082L12.0215 1.60622C11.979 1.63439 11.9426 1.6708 11.9144 1.7133L9.78468 3.84304L10.3558 4.35465L10.7365 3.96202L12.0334 5.25889L11.7359 5.55634L11.7954 5.61583C11.9763 5.77422 12.0979 5.98153 12.1524 6.21073L14.2821 4.0691C14.3358 4.03683 14.3807 3.9919 14.413 3.93823L15.8883 2.47478C16.0372 2.32591 16.0372 2.08824 15.8883 1.93937L14.0561 0.107082C13.9816 0.0326486 13.8798 0 13.7824 0ZM2.21759 0.916142L3.19322 1.90367L1.90824 3.18865L0.920711 2.21302L2.21759 0.916142ZM13.7824 0.916142L15.0793 2.21302L14.0917 3.18865L12.8068 1.90367L13.7824 0.916142ZM3.74053 2.43908L4.71616 3.42661L3.43118 4.71159L2.44365 3.73596L3.74053 2.43908ZM12.2595 2.43908L13.5563 3.73596L12.5688 4.71159L11.2838 3.42661L12.2595 2.43908ZM7.99999 3.42661C7.91052 3.42661 7.8219 3.45897 7.75014 3.5218L4.81134 6.09176H11.1886L8.24985 3.5218C8.17808 3.45897 8.08947 3.42661 7.99999 3.42661ZM4.54959 6.85322L3.81191 17.1093C3.80429 17.2147 3.84704 17.3175 3.919 17.3948C3.99095 17.4721 4.0868 17.5138 4.19265 17.5138H11.8073C11.9128 17.5138 12.0094 17.4721 12.081 17.3948C12.1529 17.3175 12.1957 17.2147 12.1881 17.1093L11.4504 6.85322L4.54959 6.85322ZM7.61926 8.75689H8.38073V9.8991H7.61926V8.75689ZM3.55016 10.0776L0.11165 13.5161C-0.0372168 13.6649 -0.0372168 13.9026 0.11165 14.0515L1.94393 15.8838C2.01818 15.958 2.12012 15.9908 2.21759 15.9908C2.31506 15.9908 2.4051 15.958 2.47934 15.8838L3.19322 15.1699L3.33599 13.1472L2.44365 12.2549L3.43118 11.2793L3.46687 11.303L3.55016 10.0776ZM12.4498 10.0776L12.5331 11.3031L12.5688 11.2793L13.5563 12.2549L12.664 13.1472L12.8068 15.1699L13.5207 15.8838C13.5949 15.9576 13.6849 15.9909 13.7824 15.9909C13.8799 15.9909 13.9818 15.958 14.0561 15.8838L15.8884 14.0515C16.0372 13.9026 16.0372 13.6649 15.8884 13.5161L12.4498 10.0776ZM1.90824 12.8022L3.19322 14.0872L2.21759 15.0747L0.920711 13.7778L1.90824 12.8022ZM14.0917 12.8022L15.0793 13.7778L13.7824 15.0747L12.8068 14.0872L14.0917 12.8022ZM7.99999 13.7064C8.63087 13.7064 9.1422 14.2178 9.1422 14.8486V16.7523H6.85779V14.8486C6.85779 14.2178 7.36912 13.7064 7.99999 13.7064Z" fill="#FF002E"/>
</svg>
