<svg width="36" height="36" viewBox="0 0 36 36" fill="none" xmlns="http://www.w3.org/2000/svg">
<path fill-rule="evenodd" clip-rule="evenodd" d="M20.0569 35.8838C29.0294 34.8631 36 27.2456 36 18C36 8.05887 27.9411 0 18 0C8.05887 0 0 8.05887 0 18C0 27.9411 8.05887 36 18 36C18.2094 36 18.418 35.9964 18.6257 35.9893C18.5141 34.6582 18.0406 33.2817 17.2539 31.2719L16.8175 31.4957L16.3621 31.6956C15.6807 31.707 15.7261 31.0491 16.0101 30.5897L16.9413 29.0896C12.6341 28.4629 9.30078 22.4085 9.30078 17.117C9.30078 11.3972 13.1935 6.76361 17.9891 6.76361H18.0118C19.3441 6.76361 20.6058 7.12002 21.7334 7.75717C20.9783 7.97079 20.3565 8.57272 20.1562 9.38854C19.8595 10.5966 20.5993 11.8163 21.8086 12.1127C22.1044 12.1852 22.4009 12.1957 22.6844 12.1526C22.6864 13.1639 23.3749 14.082 24.4023 14.3338C25.0824 14.5005 25.7663 14.3397 26.2873 13.952C26.5553 14.9495 26.7 16.013 26.7 17.117C26.7 22.3972 23.3866 28.443 19.0992 29.0896L19.934 30.5358C20.2342 30.9391 20.3777 31.5531 19.5508 31.4383L19.1604 31.3178L18.7067 31.1572C19.4944 33.1462 19.9534 34.5392 20.0569 35.8838Z" fill="#FF002E"/>
</svg>
