<svg width="36" height="36" viewBox="0 0 16 20" fill="none" xmlns="http://www.w3.org/2000/svg">
<path d="M16 6.33525V13.1753C15.9996 13.3428 15.933 13.5033 15.8145 13.6217C15.6961 13.7401 15.5356 13.8068 15.3681 13.8072H0.631859C0.464388 13.8068 0.303876 13.7401 0.185455 13.6217C0.067035 13.5033 0.000351463 13.3428 0 13.1753V6.33525C0.000351463 6.16778 0.067035 6.00727 0.185455 5.88885C0.303876 5.77043 0.464388 5.70375 0.631859 5.70339H15.3681C15.5356 5.70375 15.6961 5.77043 15.8145 5.88885C15.933 6.00727 15.9996 6.16778 16 6.33525ZM11.2351 9.75394C11.2338 8.95466 10.9358 8.18434 10.3987 7.5924C9.8616 7.00045 9.12382 6.62908 8.32843 6.55031C7.53303 6.47154 6.73674 6.69098 6.09398 7.16608C5.45123 7.64119 5.00784 8.33808 4.84982 9.12158C4.69179 9.90508 4.8304 10.7194 5.23875 11.4065C5.64709 12.0935 6.29608 12.6045 7.05982 12.8402C7.82356 13.0759 8.64762 13.0195 9.37216 12.682C10.0967 12.3445 10.6701 11.75 10.981 11.0137C11.149 10.6155 11.235 10.1875 11.2338 9.75527L11.2351 9.75394ZM10.9225 3.66016C10.7843 3.79817 10.597 3.87569 10.4017 3.87569C10.2064 3.87569 10.0191 3.79817 9.88094 3.66016L8.73695 2.51616V3.84639C8.73695 4.04184 8.6593 4.22929 8.5211 4.36749C8.3829 4.5057 8.19545 4.58334 8 4.58334C7.80455 4.58334 7.6171 4.5057 7.4789 4.36749C7.3407 4.22929 7.26305 4.04184 7.26305 3.84639V2.51616L6.11906 3.66016C5.98076 3.79828 5.79326 3.87581 5.5978 3.87568C5.40234 3.87556 5.21494 3.79779 5.07682 3.6595C4.9387 3.5212 4.86117 3.3337 4.8613 3.13824C4.86142 2.94278 4.93919 2.75538 5.07749 2.61726L7.47855 0.216197C7.54699 0.14766 7.62828 0.0932883 7.71775 0.0561913C7.80723 0.0190944 7.90314 0 8 0C8.09686 0 8.19277 0.0190944 8.28225 0.0561913C8.37172 0.0932883 8.45301 0.14766 8.52145 0.216197L10.9225 2.61593C10.9911 2.68438 11.0454 2.76566 11.0825 2.85513C11.1196 2.94461 11.1387 3.04052 11.1387 3.13738C11.1387 3.23424 11.1196 3.33015 11.0825 3.41963C11.0454 3.5091 10.9911 3.59172 10.9225 3.66016ZM10.9225 16.892L8.52145 19.2943C8.45301 19.3629 8.37172 19.4173 8.28225 19.4544C8.19277 19.4915 8.09686 19.5105 8 19.5105C7.90314 19.5105 7.80723 19.4915 7.71775 19.4544C7.62828 19.4173 7.54699 19.3629 7.47855 19.2943L5.07749 16.892C4.9472 16.7523 4.87624 16.5675 4.87957 16.3765C4.88289 16.1855 4.96024 16.0033 5.0953 15.8682C5.23037 15.7331 5.4126 15.6558 5.60358 15.6525C5.79456 15.6491 5.97937 15.7201 6.11906 15.8504L7.26305 16.9944V15.6642C7.26305 15.4687 7.3407 15.2813 7.4789 15.1431C7.6171 15.0048 7.80455 14.9272 8 14.9272C8.19545 14.9272 8.3829 15.0048 8.5211 15.1431C8.6593 15.2813 8.73695 15.4687 8.73695 15.6642V16.9944L9.88094 15.8504C9.94843 15.778 10.0298 15.72 10.1202 15.6798C10.2106 15.6395 10.3081 15.6179 10.407 15.6162C10.506 15.6145 10.6042 15.6327 10.6959 15.6698C10.7877 15.7068 10.871 15.762 10.941 15.8319C11.0109 15.9019 11.0661 15.9852 11.1031 16.077C11.1402 16.1687 11.1584 16.2669 11.1567 16.3659C11.155 16.4648 11.1334 16.5623 11.0931 16.6527C11.0529 16.7431 10.9949 16.8245 10.9225 16.892ZM9.52577 10.6013C9.52499 10.7946 9.47346 10.9843 9.37635 11.1515C9.27924 11.3186 9.13994 11.4573 8.9724 11.5537C8.80364 11.661 8.61786 11.7389 8.42301 11.7839V12.1377C8.41696 12.2453 8.36997 12.3465 8.29168 12.4205C8.21339 12.4945 8.10973 12.5357 8.002 12.5357C7.89426 12.5357 7.7906 12.4945 7.71231 12.4205C7.63402 12.3465 7.58703 12.2453 7.58098 12.1377V11.7892C7.45881 11.7636 7.33941 11.7262 7.22448 11.6775C7.03794 11.6004 6.87275 11.4795 6.74293 11.3249C6.67324 11.24 6.63946 11.1312 6.64878 11.0217C6.65809 10.9122 6.70977 10.8107 6.79282 10.7388C6.87586 10.6668 6.98371 10.6301 7.0934 10.6365C7.20309 10.6429 7.30596 10.6918 7.38011 10.7729C7.42203 10.8255 7.47582 10.8675 7.53708 10.8953C7.60639 10.9256 7.67859 10.9487 7.75258 10.9645C7.82983 10.9797 7.90806 10.9895 7.9867 10.9937C8.1728 10.9941 8.35546 10.9435 8.5148 10.8474C8.68374 10.7383 8.68374 10.6452 8.68374 10.6013C8.68296 10.5328 8.65798 10.4669 8.61324 10.4151C8.56307 10.3585 8.50371 10.3108 8.43765 10.2741C8.36902 10.2391 8.29613 10.2131 8.22082 10.1969C8.15086 10.1819 8.07952 10.1743 8.00798 10.1743C7.88636 10.1751 7.76489 10.1658 7.64483 10.1464C7.48208 10.1194 7.32427 10.0682 7.17659 9.99471C7.00428 9.9085 6.85236 9.7865 6.73096 9.63688C6.56314 9.43384 6.47015 9.17931 6.46758 8.9159C6.47146 8.71596 6.52673 8.52038 6.62807 8.34798C6.72941 8.17558 6.87341 8.03216 7.04623 7.93153C7.21106 7.82919 7.39178 7.75502 7.58098 7.71204V7.37283C7.58703 7.26526 7.63402 7.16409 7.71231 7.09008C7.7906 7.01606 7.89426 6.97482 8.002 6.97482C8.10973 6.97482 8.21339 7.01606 8.29168 7.09008C8.36997 7.16409 8.41696 7.26526 8.42301 7.37283V7.72401C8.54782 7.75445 8.66943 7.79677 8.78617 7.85038C8.94335 7.92102 9.08662 8.01923 9.20918 8.14037C9.28838 8.2194 9.33295 8.32665 9.33307 8.43854C9.3332 8.55043 9.28887 8.65778 9.20984 8.73698C9.13082 8.81618 9.02356 8.86075 8.91168 8.86088C8.79979 8.861 8.69244 8.81667 8.61324 8.73765C8.56304 8.68793 8.50451 8.64741 8.44031 8.61793C8.36901 8.58487 8.29459 8.55903 8.21816 8.54077L8.19554 8.53545C8.13574 8.52025 8.07479 8.51002 8.0133 8.50486C7.83158 8.50413 7.65296 8.55188 7.49584 8.6432C7.44366 8.66839 7.399 8.70683 7.36632 8.75469C7.33364 8.80254 7.31409 8.85812 7.30961 8.9159C7.31351 8.98587 7.34013 9.05266 7.38543 9.10612C7.43143 9.162 7.4885 9.20774 7.55304 9.24047C7.62573 9.27635 7.70325 9.30145 7.78317 9.31497C7.85749 9.32702 7.93269 9.3328 8.00798 9.33226C8.13983 9.33163 8.27138 9.34501 8.4004 9.37217C8.54985 9.40488 8.69433 9.45722 8.83006 9.5278C8.98802 9.61284 9.12949 9.72547 9.24776 9.86036C9.42735 10.0655 9.52525 10.3287 9.52577 10.6013Z" fill="#FF002E"/>
</svg>
