<svg xmlns="http://www.w3.org/2000/svg" shape-rendering="geometricPrecision" text-rendering="geometricPrecision" image-rendering="optimizeQuality" fill-rule="evenodd" clip-rule="evenodd" viewBox="0 0 1000 1000"><g fill-rule="nonzero"><path fill="#ff4500" d="M1000 500c0 276.15-223.85 500-500 500S0 776.15 0 500 223.85 0 500 0s500 223.85 500 500z"/><path fill="#fff" d="M614.58 604.18c-28.71 0-52.08-23.36-52.08-52.09 0-28.73 23.37-52.08 52.08-52.08 28.71 0 52.09 23.35 52.09 52.08 0 28.73-23.38 52.09-52.09 52.09zm9.17 85.54c-35.54 35.5-103.67 38.25-123.69 38.25-20.04 0-88.16-2.75-123.66-38.27-5.27-5.27-5.27-13.82 0-19.09s13.83-5.27 19.1 0c22.4 22.42 70.33 30.36 104.56 30.36 34.23 0 82.17-7.94 104.63-30.36 5.27-5.27 13.81-5.25 19.08.02 5.27 5.28 5.25 13.82-.02 19.09zM333.33 552.09c0-28.73 23.38-52.08 52.11-52.08 28.71 0 52.06 23.35 52.06 52.08 0 28.71-23.35 52.06-52.06 52.06-28.73 0-52.11-23.35-52.11-52.06zm499.92-52.08c0-40.27-32.65-72.92-72.92-72.92-19.64 0-37.45 7.81-50.56 20.46-49.85-35.98-118.52-59.21-195-61.87l33.21-156.28 108.52 23.07c1.31 27.6 23.92 49.62 51.83 49.62 28.77 0 52.09-23.33 52.09-52.08 0-28.77-23.32-52.08-52.09-52.08-20.46 0-37.98 11.89-46.5 29.06l-121.18-25.75c-3.36-.75-6.9-.09-9.8 1.81-2.89 1.87-4.91 4.83-5.64 8.21l-37.08 174.37c-77.63 2.15-147.4 25.42-197.88 61.77-13.1-12.56-30.83-20.31-50.42-20.31-40.27 0-72.91 32.65-72.91 72.92 0 29.62 17.68 55.06 43.08 66.48-1.13 7.25-1.75 14.6-1.75 22.06 0 112.17 130.58 203.13 291.67 203.13 161.08 0 291.66-90.96 291.66-203.13 0-7.42-.6-14.73-1.71-21.92 25.55-11.35 43.38-36.89 43.38-66.62z"/></g></svg>