<svg width="36" height="36" viewBox="0 0 36 36" fill="none" xmlns="http://www.w3.org/2000/svg">
<path d="M32.8137 22.0257L23.5713 32.1192C22.446 33.3462 21.0778 34.3256 19.5537 34.9954C18.0295 35.6651 16.3826 36.0104 14.7178 36.0094H9.60204C8.32867 36.0094 7.10745 35.5036 6.20704 34.6032C5.30663 33.7028 4.80078 32.4815 4.80078 31.2082V25.2066C4.80078 23.9332 5.30663 22.712 6.20704 21.8116C7.10745 20.9112 8.32867 20.4053 9.60204 20.4053H18.9489C19.3457 20.4061 19.7372 20.4955 20.095 20.6671C20.4528 20.8387 20.7676 21.088 21.0166 21.397C21.2656 21.7059 21.4424 22.0666 21.534 22.4526C21.6257 22.8386 21.6299 23.2403 21.5464 23.6282C21.4164 24.1707 21.1237 24.6606 20.7076 25.0322C20.2914 25.4038 19.7715 25.6393 19.2178 25.7071L14.2209 26.4069C13.9059 26.4521 13.6218 26.6204 13.4309 26.875C13.2401 27.1296 13.1581 27.4495 13.203 27.7645C13.2479 28.0796 13.4161 28.364 13.6707 28.5551C13.9253 28.7463 14.2454 28.8284 14.5605 28.7835L19.6643 28.0633C20.8664 27.8863 21.9652 27.2844 22.7617 26.3668C23.5582 25.4492 23.9996 24.2767 24.0058 23.0616C23.9999 22.8047 23.9739 22.5486 23.9278 22.2958L28.1793 17.8102C28.74 17.2032 29.518 16.8426 30.3436 16.8073C31.1692 16.772 31.9753 17.0648 32.5857 17.6218C33.193 18.1784 33.5573 18.9514 33.5999 19.7741C33.6426 20.5968 33.3602 21.4033 32.8137 22.0197V22.0257Z" fill="#FF002E"/>
<path d="M27.2824 10.301C27.1373 10.1246 26.9513 9.98663 26.7405 9.89909C26.5298 9.81155 26.3008 9.77717 26.0737 9.79895C24.7668 9.87561 23.5046 10.3028 22.4193 11.0359C21.334 11.7689 20.4656 12.7807 19.9051 13.9653V9.73374C20.8836 9.56686 21.7716 9.05901 22.4123 8.29993C23.053 7.54086 23.4051 6.57944 23.4064 5.58558C23.4064 3.62719 22.0458 1.97311 20.7146 0.61353C20.6376 0.534575 20.5542 0.462108 20.4653 0.396866C19.6611 2.00113 19.2302 3.76691 19.2048 5.56174C19.2079 5.65382 19.1929 5.74561 19.1606 5.83188C19.1283 5.91815 19.0794 5.9972 19.0166 6.06453C18.9537 6.13185 18.8783 6.18613 18.7945 6.22426C18.7108 6.26239 18.6203 6.28362 18.5284 6.28676C18.4364 6.28989 18.3447 6.27485 18.2586 6.2425C18.1724 6.21016 18.0935 6.16114 18.0262 6.09824C17.959 6.03535 17.9048 5.9598 17.8667 5.87593C17.8286 5.79206 17.8074 5.7015 17.8043 5.60942C17.8117 3.66645 18.2534 1.74978 19.097 0C18.5699 0.0209531 18.0699 0.239721 17.6965 0.612829C16.3639 1.97311 15.0032 3.62719 15.0032 5.58558C15.0045 6.57944 15.3566 7.54086 15.9973 8.29993C16.638 9.05901 17.5261 9.56686 18.5046 9.73374V13.966C17.9442 12.7813 17.0759 11.7692 15.9905 11.0361C14.9052 10.3029 13.6429 9.8756 12.3359 9.79895C12.1088 9.77729 11.8799 9.81173 11.6692 9.89926C11.4584 9.98679 11.2724 10.1247 11.1273 10.301C10.9831 10.4724 10.8827 10.6763 10.8348 10.8952C10.7868 11.1141 10.7928 11.3414 10.8521 11.5575C12.2799 16.7027 18.9184 16.8044 19.2006 16.8044H19.209C19.4891 16.8044 26.1304 16.7027 27.5583 11.5575C27.6172 11.3413 27.6229 11.1141 27.5749 10.8952C27.5268 10.6764 27.4264 10.4725 27.2824 10.301Z" fill="#FF002E"/>
</svg>
