<svg width="24" height="24" viewBox="0 0 24 24" fill="none" xmlns="http://www.w3.org/2000/svg">
<g id="Icon/Wallet">
<g id="Wallet">
<g id="Group 238">
<path id="Subtract" fill-rule="evenodd" clip-rule="evenodd" d="M1.99976 11C1.99976 8.23858 4.23833 6 6.99976 6H16.9998C19.6773 6 21.8634 8.10472 21.9936 10.75H17.4998C15.7048 10.75 14.2498 12.2051 14.2498 14C14.2498 15.7949 15.7048 17.25 17.4998 17.25H21.9936C21.8634 19.8953 19.6773 22 16.9998 22H6.99976C4.23833 22 1.99976 19.7614 1.99976 17V11ZM17.4998 12.25H21.9998V15.75H17.4998C16.5333 15.75 15.7498 14.9665 15.7498 14C15.7498 13.0335 16.5333 12.25 17.4998 12.25ZM17.4998 13.25C17.0855 13.25 16.7498 13.5858 16.7498 14C16.7498 14.4142 17.0855 14.75 17.4998 14.75H17.6998C18.114 14.75 18.4498 14.4142 18.4498 14C18.4498 13.5858 18.114 13.25 17.6998 13.25H17.4998Z" fill="white"/>
<path id="Subtract_2" d="M19.4875 4.99302C18.7665 3.00165 16.6603 1.716 14.4411 2.1729L5.8404 3.94363C4.04402 4.31348 2.58863 5.4977 1.82739 7.06305C3.01486 5.5053 4.88998 4.5 6.9999 4.5H16.9999C17.8811 4.5 18.7213 4.67534 19.4875 4.99302Z" fill="white"/>
</g>
</g>
</g>
</svg>
