<svg width="1280" height="1555" viewBox="0 0 1280 1555" fill="none" xmlns="http://www.w3.org/2000/svg">
<path d="M1280 -3H0V880H1280V-3Z" fill="url(#paint0_linear_502_886)"/>
<path d="M954.407 867.435C961.197 865.565 968.325 864.55 975.702 864.55C1010.54 864.55 1040.18 886.763 1051.22 917.793C1040.18 948.823 1010.54 971.036 975.702 971.036C968.325 971.036 961.197 970.021 954.407 968.151C939.973 1000.41 907.612 1022.89 869.976 1022.89C838.933 1022.89 811.472 1007.59 794.704 984.129C785.669 991.646 774.032 996.171 761.362 996.171C757.139 996.171 753.04 995.654 749.12 994.71C731.478 1016.26 704.695 1030.02 674.686 1030.02C669.999 1030.02 665.401 1029.66 660.893 1029.02C653.676 1074.99 613.866 1110.17 565.841 1110.17C546.132 1110.17 527.83 1104.21 512.576 1094.05C500.263 1105.19 483.922 1111.96 466.013 1111.96C453.592 1111.96 441.938 1108.68 431.834 1102.96C424.26 1166.23 370.408 1215.27 305.08 1215.27C291.572 1215.27 278.563 1213.15 266.339 1209.27C240.197 1241.21 200.476 1261.59 155.979 1261.59C104.746 1261.59 59.8576 1234.56 34.7313 1194.02C28.031 1196.25 20.8673 1197.46 13.4185 1197.46C8.82093 1197.46 4.33028 1197 0 1196.12V639.463C4.33028 638.59 8.82093 638.127 13.4185 638.127C20.8673 638.127 28.031 639.338 34.7313 641.565C59.8576 601.022 104.746 574 155.979 574C200.476 574 240.197 594.378 266.339 626.317C278.563 622.434 291.572 620.314 305.08 620.314C370.408 620.314 424.26 669.354 431.834 732.626C441.938 726.908 453.592 723.63 466.013 723.63C483.922 723.63 500.263 730.399 512.576 741.532C527.83 731.379 546.132 725.411 565.841 725.411C613.866 725.411 653.676 760.592 660.893 806.568C665.401 805.927 669.999 805.57 674.686 805.57C704.695 805.57 731.478 819.322 749.12 840.876C753.04 839.932 757.139 839.415 761.362 839.415C774.032 839.415 785.669 843.94 794.704 851.457C811.472 827.997 838.933 812.696 869.976 812.696C907.612 812.696 939.973 835.176 954.407 867.435Z" fill="url(#paint1_linear_502_886)"/>
<path d="M360.885 732.252C356.305 697.071 373.876 661.249 407.324 644.219C411.369 642.153 415.521 640.443 419.709 639.071C418.658 622.612 427.265 606.331 442.893 598.351C450.538 594.45 458.789 593.114 466.718 593.951C470.995 567.819 487.229 544.003 512.641 531.053C515.439 529.628 518.29 528.381 521.177 527.276C529.748 490.225 554.001 457.057 590.55 438.442C624.8 420.986 663.042 419.774 696.562 431.905C701.854 425.368 708.537 419.774 716.52 415.713C734.305 406.646 754.388 407.074 771.139 415C775.558 411.848 780.245 408.962 785.234 406.414C821.908 387.729 864.16 391.737 896.022 413.219C902.401 404.989 910.634 397.989 920.524 392.948C944.581 380.692 972.256 383.097 993.373 396.813C1032.43 385.288 1066.2 389.047 1076.15 408.534C1088.16 432.083 1061.14 470.274 1014.97 497.119C1011.83 502.035 1008.07 506.613 1003.74 510.71C1008.29 540.868 993.462 571.863 964.772 586.469C960.744 588.518 956.61 590.139 952.422 591.386C941.695 618.586 921.398 642.135 893.295 656.457C883.12 661.641 872.553 665.257 861.878 667.466C856.408 684.174 844.575 698.799 827.664 707.42C816.152 713.281 803.767 715.597 791.757 714.777C780.102 748.266 756.027 777.479 721.937 794.847C687.723 812.268 649.802 814.531 615.766 804.163C610.705 807.851 605.287 811.2 599.531 814.139C557.53 835.55 508.792 829.69 473.49 803.148C457.969 808.278 441.735 808.723 426.534 805.107C423.915 806.817 421.17 808.421 418.284 809.881C386.065 826.287 350.14 820.32 338.004 796.539C327.74 776.357 337.915 749.851 360.885 732.252Z" fill="url(#paint2_linear_502_886)"/>
<path d="M397.597 755.077C393.017 719.896 410.588 684.074 444.036 667.044C448.081 664.978 452.233 663.268 456.421 661.896C455.369 645.437 463.977 629.156 479.605 621.176C487.25 617.275 495.5 615.939 503.43 616.776C507.707 590.644 523.941 566.828 549.353 553.878C552.15 552.453 555.001 551.206 557.888 550.101C557.906 550.048 557.906 550.012 557.924 549.959C571.574 544.775 585.884 543.119 599.694 544.74C601.975 529.723 611.152 515.989 625.729 508.561C638.916 501.846 653.725 501.739 666.413 506.958C675.002 497.677 685.337 489.733 697.259 483.658C739.974 461.891 790.226 470.708 823.104 501.97C826.775 498.158 831.088 494.845 836.077 492.298C859.832 480.203 888.825 489.501 901.174 513.032C907.874 498.8 919.172 486.58 934.284 478.884C970.459 460.448 1014.74 474.823 1033.19 511.002C1045 534.159 1043.34 560.647 1031.12 581.541C1031.08 581.595 1031.06 581.63 1031.05 581.684C1030 583.465 1028.87 585.175 1027.68 586.868C1026.61 588.364 1025.47 589.825 1024.29 591.232C1024.28 591.267 1024.24 591.285 1024.22 591.321C1018.13 598.553 1010.52 604.716 1001.57 609.276C997.545 611.325 993.411 612.946 989.223 614.193C978.495 641.393 958.198 664.942 930.096 679.264C919.921 684.448 909.353 688.064 898.679 690.273C893.208 706.981 881.376 721.606 864.465 730.227C852.953 736.088 840.568 738.404 828.557 737.584C816.903 771.073 792.828 800.286 758.738 817.654C724.524 835.075 686.603 837.338 652.566 826.97C647.505 830.658 642.088 834.007 636.332 836.946C594.33 858.357 545.592 852.497 510.291 825.955C494.77 831.085 478.536 831.531 463.335 827.914C460.715 829.625 457.971 831.228 455.084 832.688C422.866 849.094 386.94 843.127 374.805 819.346C364.451 799.182 374.627 772.676 397.597 755.077Z" fill="url(#paint3_linear_502_886)"/>
<path d="M1051.51 349.953C1065.82 345.162 1080.6 345.607 1093.82 350.22C1086.55 327.74 1098.72 303.532 1121.17 295.997C1125.9 294.412 1130.69 293.735 1135.39 293.789C1136.02 253.46 1161.7 216.088 1202.13 202.532C1213.41 198.756 1224.9 197.135 1236.13 197.473C1240.73 186.162 1250.01 176.845 1262.49 172.659C1276.28 168.046 1290.73 170.771 1301.67 178.68C1303.69 176.079 1305.88 173.603 1308.23 171.27V453.038C1299.04 450.989 1290.11 447.943 1281.63 443.935C1274.66 452.076 1265.48 458.489 1254.57 462.14C1238.57 467.502 1221.91 465.899 1207.89 458.969C1199.85 464.367 1190.97 468.82 1181.33 472.044C1154.75 480.969 1127.14 479.17 1103.19 469.034C1099.79 470.922 1096.19 472.525 1092.38 473.808C1083.89 476.658 1075.25 477.638 1066.86 476.996C1066.82 476.996 1066.79 476.996 1066.75 476.979C1065.11 476.854 1063.49 476.658 1061.87 476.408C1060.05 476.123 1058.25 475.767 1056.47 475.322C1056.42 475.304 1056.38 475.286 1056.33 475.286C1035.44 470.031 1017.6 454.605 1010.24 432.677C998.839 398.494 1017.28 361.443 1051.51 349.953Z" fill="url(#paint4_linear_502_886)"/>
<path d="M35.1465 880C37.6235 863.541 66.0999 850.555 100.867 850.555C107.924 850.555 114.695 851.089 121.075 852.087C138.271 822.749 194.137 801.248 260.481 801.248C260.784 801.248 261.087 801.266 261.39 801.266C266.754 768.009 295.605 742.607 330.389 742.607C341.046 742.607 351.132 744.994 360.167 749.252C382.085 711.221 423.125 685.605 470.188 685.605C480.06 685.605 489.665 686.763 498.896 688.901C521.189 624.168 582.632 577.64 654.964 577.64C678.504 577.64 700.886 582.574 721.148 591.463C737.435 572.902 759.069 559.15 783.661 552.613C786.886 489.376 836.604 438.431 899.313 433.194C899.028 429.239 898.885 425.267 898.885 421.259C898.885 328.346 974.246 253.014 1067.2 253.014C1124.04 253.014 1174.29 281.194 1204.77 324.32C1209.95 322.592 1215.51 321.648 1221.29 321.648C1242.55 321.648 1260.85 334.313 1269.06 352.518C1275.55 351.182 1282.27 350.47 1289.14 350.47C1295.67 350.47 1302.05 351.111 1308.23 352.322V880H35.1465Z" fill="url(#paint5_linear_502_886)"/>
<path d="M353.846 829.642C347.057 827.772 339.929 826.757 332.551 826.757C297.713 826.757 268.078 848.969 257.012 880C268.078 911.031 297.713 933.243 332.551 933.243C339.929 933.243 347.057 932.228 353.846 930.358C368.298 962.617 400.659 985.097 438.295 985.097C469.338 985.097 496.799 969.796 513.567 946.336C522.602 953.853 534.238 958.378 546.908 958.378C551.132 958.378 555.23 957.861 559.151 956.917C576.775 978.453 603.559 992.223 633.567 992.223C638.254 992.223 642.852 991.866 647.36 991.225C654.577 1037.2 694.388 1072.38 742.412 1072.38C762.121 1072.38 780.423 1066.41 795.677 1056.26C807.99 1067.39 824.331 1074.16 842.24 1074.16C854.661 1074.16 866.315 1070.89 876.42 1065.17C884.011 1128.42 937.845 1177.48 1003.19 1177.48C1016.7 1177.48 1029.71 1175.36 1041.93 1171.48C1068.06 1203.41 1107.78 1223.79 1152.27 1223.79C1203.51 1223.79 1248.4 1196.77 1273.52 1156.23C1280.22 1158.45 1287.39 1159.67 1294.83 1159.67C1299.43 1159.67 1303.92 1159.2 1308.25 1158.33V601.67C1303.92 600.797 1299.43 600.334 1294.83 600.334C1287.39 600.334 1280.22 601.545 1273.52 603.772C1248.4 563.229 1203.51 536.207 1152.27 536.207C1107.78 536.207 1068.06 556.585 1041.93 588.524C1029.71 584.641 1016.7 582.521 1003.19 582.521C937.845 582.521 884.011 631.578 876.42 694.833C866.315 689.115 854.661 685.837 842.24 685.837C824.331 685.837 807.99 692.606 795.677 703.739C780.423 693.586 762.121 687.618 742.412 687.618C694.388 687.618 654.577 722.799 647.36 768.775C642.852 768.134 638.254 767.777 633.567 767.777C603.559 767.777 576.775 781.547 559.151 803.083C555.23 802.139 551.132 801.622 546.908 801.622C534.238 801.622 522.602 806.147 513.567 813.664C496.799 790.204 469.338 774.903 438.295 774.903C400.659 774.903 368.298 797.383 353.846 829.642Z" fill="url(#paint6_linear_502_886)"/>
<path d="M947.777 1051C939.4 1085.47 910.123 1112.58 872.789 1116.44C868.271 1116.92 863.782 1117.02 859.381 1116.79C854.443 1132.53 840.557 1144.63 823.105 1146.45C814.569 1147.35 806.39 1145.62 799.291 1141.99C785.904 1164.84 762.191 1181.22 733.823 1184.17C730.7 1184.49 727.591 1184.63 724.5 1184.62C724.464 1184.67 724.452 1184.7 724.416 1184.74C709.815 1184.67 695.867 1181.07 683.563 1174.59C676.034 1187.79 662.532 1197.3 646.26 1198.99C631.54 1200.52 617.684 1195.29 607.721 1185.86C596.369 1191.43 583.868 1195.13 570.56 1196.51C522.875 1201.46 479.154 1175.16 459.717 1134.17C454.921 1136.4 449.705 1137.94 444.133 1138.53C417.619 1141.27 393.909 1122.17 390.847 1095.77C379.477 1106.64 364.541 1113.98 347.673 1115.73C307.288 1119.93 271.136 1090.59 266.936 1050.2C264.238 1024.34 275.31 1000.22 294.23 985.119C294.283 985.082 294.312 985.055 294.348 985.012C295.969 983.727 297.632 982.535 299.354 981.386C300.89 980.374 302.48 979.421 304.083 978.531C304.113 978.504 304.152 978.5 304.182 978.474C312.469 973.917 321.785 970.902 331.773 969.863C336.267 969.4 340.708 969.374 345.064 969.717C364.855 948.193 392.262 933.518 423.635 930.259C434.993 929.081 446.154 929.507 456.909 931.284C468.022 917.66 484.322 908.269 503.202 906.305C516.051 904.976 528.44 907.269 539.353 912.352C562.27 885.295 595.239 866.692 633.294 862.744C671.484 858.792 707.683 870.317 735.714 892.23C741.763 890.609 748.022 889.432 754.449 888.759C801.341 883.883 844.712 906.877 868.108 944.338C884.436 945.132 899.744 950.554 912.628 959.394C915.687 958.74 918.824 958.231 922.043 957.906C958.006 954.183 989.382 972.67 992.155 999.224C994.565 1021.76 975.539 1042.84 947.777 1051Z" fill="url(#paint7_linear_502_886)"/>
<path d="M-226.122 1138.64C-213.779 1099.08 -177.624 1069.67 -133.815 1067.96C-128.513 1067.75 -123.272 1067.96 -118.159 1068.55C-111.227 1050.58 -94.1357 1037.52 -73.6548 1036.69C-63.6374 1036.29 -54.2315 1038.91 -46.2284 1043.67C-28.9146 1018.04 -0.0481382 1000.71 33.2413 999.4C36.906 999.256 40.5404 999.328 44.1429 999.568C44.1879 999.52 44.2053 999.482 44.2504 999.434C61.2656 1000.61 77.2558 1005.85 91.1141 1014.32C100.876 999.505 117.327 989.423 136.422 988.67C153.695 987.993 169.457 995.12 180.365 1006.86C194.014 1001.21 208.863 997.84 224.48 997.225C280.437 995.018 329.436 1028.94 349.03 1078.18C354.788 1075.93 360.983 1074.53 367.521 1074.26C398.634 1073.05 424.846 1097.09 426.441 1128.09C440.508 1116.26 458.468 1108.83 478.261 1108.05C525.652 1106.18 565.6 1143.08 567.478 1190.48C568.689 1220.82 553.98 1248.11 530.795 1264.3C530.731 1264.34 530.695 1264.37 530.65 1264.42C528.664 1265.79 526.637 1267.06 524.543 1268.27C522.677 1269.33 520.753 1270.32 518.817 1271.24C518.781 1271.27 518.734 1271.27 518.698 1271.3C508.696 1275.99 497.611 1278.81 485.891 1279.28C480.617 1279.48 475.439 1279.18 470.387 1278.45C445.707 1302.06 412.661 1317.12 375.846 1318.57C362.518 1319.1 349.539 1317.77 337.136 1314.89C323.162 1329.94 303.459 1339.67 281.304 1340.55C266.226 1341.14 251.955 1337.54 239.615 1330.8C210.877 1360.63 171.054 1379.85 126.398 1381.6C81.5841 1383.36 40.2494 1367.21 9.21098 1339.57C2.03928 1341.01 -5.34498 1341.92 -12.8881 1342.22C-67.9145 1344.4 -116.753 1314.35 -141.225 1268.93C-160.199 1266.79 -177.639 1259.32 -191.996 1248.05C-195.611 1248.59 -199.306 1248.95 -203.083 1249.09C-245.284 1250.74 -280.477 1226.84 -281.724 1195.68C-282.848 1169.23 -259.094 1146.08 -226.122 1138.64Z" fill="url(#paint8_linear_502_886)"/>
<defs>
<linearGradient id="paint0_linear_502_886" x1="636.052" y1="194.077" x2="647.016" y2="828.059" gradientUnits="userSpaceOnUse">
<stop stop-color="#BBE8FF"/>
<stop offset="1" stop-color="white"/>
</linearGradient>
<linearGradient id="paint1_linear_502_886" x1="526" y1="734.293" x2="525.963" y2="1103.79" gradientUnits="userSpaceOnUse">
<stop offset="0.044372" stop-color="white"/>
<stop offset="0.483324" stop-color="#CFF5FF"/>
<stop offset="1" stop-color="white"/>
</linearGradient>
<linearGradient id="paint2_linear_502_886" x1="698.492" y1="548.673" x2="679.827" y2="427.995" gradientUnits="userSpaceOnUse">
<stop stop-color="#CFF5FF"/>
<stop offset="1" stop-color="white"/>
</linearGradient>
<linearGradient id="paint3_linear_502_886" x1="687.981" y1="615.319" x2="660.547" y2="530.918" gradientUnits="userSpaceOnUse">
<stop stop-color="#CFF5FF"/>
<stop offset="1" stop-color="white"/>
</linearGradient>
<linearGradient id="paint4_linear_502_886" x1="1160.81" y1="409.545" x2="1191.49" y2="215.625" gradientUnits="userSpaceOnUse">
<stop stop-color="#CFF5FF"/>
<stop offset="1" stop-color="#F6F6F6"/>
</linearGradient>
<linearGradient id="paint5_linear_502_886" x1="923.5" y1="783.5" x2="824.055" y2="239.99" gradientUnits="userSpaceOnUse">
<stop stop-color="#D1F5FE"/>
<stop offset="1" stop-color="white"/>
</linearGradient>
<linearGradient id="paint6_linear_502_886" x1="900.005" y1="558.5" x2="887.005" y2="1178" gradientUnits="userSpaceOnUse">
<stop stop-color="white"/>
<stop offset="0.513125" stop-color="#DFF8FF"/>
<stop offset="1" stop-color="#FAFAFA"/>
</linearGradient>
<linearGradient id="paint7_linear_502_886" x1="637.001" y1="1162.5" x2="626.076" y2="835.997" gradientUnits="userSpaceOnUse">
<stop stop-color="#EAFBFF"/>
<stop offset="0.762033" stop-color="white"/>
</linearGradient>
<linearGradient id="paint8_linear_502_886" x1="144.487" y1="1031.9" x2="132.813" y2="1413.32" gradientUnits="userSpaceOnUse">
<stop stop-color="#EAFBFF"/>
<stop offset="0.762033" stop-color="white"/>
</linearGradient>
</defs>
</svg>
