<svg width="1052" height="752" viewBox="0 0 1052 752" fill="none" xmlns="http://www.w3.org/2000/svg">
<path d="M954.407 293.435C961.197 291.565 968.325 290.55 975.702 290.55C1010.54 290.55 1040.18 312.763 1051.22 343.793C1040.18 374.823 1010.54 397.036 975.702 397.036C968.325 397.036 961.197 396.021 954.407 394.151C939.973 426.41 907.612 448.89 869.976 448.89C838.933 448.89 811.472 433.589 794.704 410.129C785.669 417.646 774.032 422.171 761.362 422.171C757.139 422.171 753.04 421.654 749.12 420.71C731.478 442.264 704.695 456.016 674.686 456.016C669.999 456.016 665.401 455.659 660.893 455.018C653.676 500.994 613.866 536.174 565.841 536.174C546.132 536.174 527.83 530.207 512.576 520.054C500.263 531.187 483.922 537.956 466.013 537.956C453.592 537.956 441.938 534.678 431.834 528.96C424.26 592.232 370.408 641.272 305.08 641.272C291.572 641.272 278.563 639.152 266.339 635.269C240.197 667.208 200.476 687.586 155.979 687.586C104.746 687.586 59.8576 660.563 34.7313 620.021C28.031 622.247 20.8673 623.459 13.4185 623.459C8.82093 623.459 4.33028 622.996 0 622.123V65.4632C4.33028 64.5903 8.82093 64.1272 13.4185 64.1272C20.8673 64.1272 28.031 65.3385 34.7313 67.5651C59.8576 27.0225 104.746 0 155.979 0C200.476 0 240.197 20.3782 266.339 52.3171C278.563 48.4338 291.572 46.3141 305.08 46.3141C370.408 46.3141 424.26 95.3535 431.834 158.626C441.938 152.908 453.592 149.63 466.013 149.63C483.922 149.63 500.263 156.399 512.576 167.532C527.83 157.379 546.132 151.411 565.841 151.411C613.866 151.411 653.676 186.592 660.893 232.568C665.401 231.927 669.999 231.57 674.686 231.57C704.695 231.57 731.478 245.322 749.12 266.876C753.04 265.932 757.139 265.415 761.362 265.415C774.032 265.415 785.669 269.94 794.704 277.457C811.472 253.997 838.933 238.696 869.976 238.696C907.612 238.696 939.973 261.176 954.407 293.435Z" fill="url(#paint0_linear_2642_136)"/>
<path d="M947.776 476.999C939.399 511.473 910.122 538.581 872.788 542.444C868.27 542.917 863.781 543.02 859.38 542.794C854.442 558.53 840.556 570.627 823.104 572.454C814.568 573.345 806.389 571.625 799.29 567.992C785.903 590.838 762.19 607.224 733.822 610.17C730.699 610.494 727.59 610.632 724.499 610.624C724.463 610.668 724.451 610.701 724.415 610.744C709.814 610.673 695.866 607.073 683.562 600.594C676.034 613.786 662.531 623.301 646.259 624.991C631.539 626.515 617.683 621.29 607.72 611.858C596.368 617.429 583.867 621.126 570.559 622.507C522.874 627.459 479.153 601.161 459.716 560.167C454.92 562.404 449.704 563.945 444.133 564.528C417.618 567.272 393.908 548.17 390.846 521.772C379.476 532.643 364.54 539.983 347.672 541.73C307.287 545.925 271.135 516.588 266.935 476.197C264.237 450.341 275.309 426.22 294.229 411.119C294.282 411.082 294.311 411.055 294.347 411.012C295.968 409.727 297.631 408.535 299.354 407.386C300.889 406.374 302.479 405.421 304.082 404.531C304.112 404.504 304.151 404.5 304.181 404.474C312.468 399.917 321.784 396.902 331.772 395.863C336.266 395.4 340.707 395.374 345.063 395.717C364.854 374.193 392.261 359.518 423.634 356.259C434.992 355.081 446.153 355.507 456.908 357.284C468.021 343.66 484.321 334.269 503.201 332.305C516.05 330.976 528.439 333.269 539.352 338.352C562.269 311.295 595.238 292.692 633.293 288.744C671.483 284.792 707.682 296.317 735.713 318.23C741.762 316.609 748.021 315.432 754.448 314.759C801.34 309.883 844.711 332.877 868.107 370.338C884.435 371.132 899.743 376.554 912.627 385.394C915.686 384.74 918.823 384.231 922.042 383.906C958.005 380.183 989.381 398.67 992.154 425.224C994.564 447.762 975.538 468.836 947.776 476.999Z" fill="url(#paint1_linear_2642_136)"/>
<defs>
<linearGradient id="paint0_linear_2642_136" x1="526" y1="160.293" x2="525.963" y2="529.793" gradientUnits="userSpaceOnUse">
<stop offset="0.044372" stop-color="white"/>
<stop offset="0.483324" stop-color="#CFF5FF"/>
<stop offset="1" stop-color="white"/>
</linearGradient>
<linearGradient id="paint1_linear_2642_136" x1="637" y1="588.5" x2="626.075" y2="261.997" gradientUnits="userSpaceOnUse">
<stop stop-color="#EAFBFF"/>
<stop offset="0.762033" stop-color="white"/>
</linearGradient>
</defs>
</svg>
