<svg width="1245" height="1337" viewBox="0 0 1245 1337" fill="none" xmlns="http://www.w3.org/2000/svg">
<path d="M1016.51 179.953C1030.82 175.162 1045.6 175.607 1058.82 180.22C1051.55 157.74 1063.72 133.532 1086.17 125.997C1090.9 124.412 1095.69 123.735 1100.39 123.789C1101.02 83.4596 1126.7 46.0877 1167.13 32.532C1178.41 28.7556 1189.9 27.1346 1201.13 27.473C1205.73 16.1617 1215.01 6.84546 1227.49 2.65938C1241.28 -1.95422 1255.73 0.771184 1266.67 8.6802C1268.69 6.07949 1270.88 3.60346 1273.23 1.26994V283.038C1264.04 280.989 1255.11 277.943 1246.63 273.935C1239.66 282.076 1230.48 288.489 1219.57 292.14C1203.57 297.502 1186.91 295.899 1172.89 288.969C1164.85 294.367 1155.97 298.82 1146.33 302.044C1119.75 310.969 1092.14 309.17 1068.19 299.034C1064.79 300.922 1061.19 302.525 1057.38 303.808C1048.89 306.658 1040.25 307.638 1031.86 306.996C1031.82 306.996 1031.79 306.996 1031.75 306.979C1030.11 306.854 1028.49 306.658 1026.87 306.408C1025.05 306.123 1023.25 305.767 1021.47 305.322C1021.42 305.304 1021.38 305.286 1021.33 305.286C1000.44 300.031 982.603 284.605 975.244 262.677C963.839 228.494 982.283 191.443 1016.51 179.953Z" fill="url(#paint0_linear_2642_135)"/>
<path opacity="0.3" fill-rule="evenodd" clip-rule="evenodd" d="M65.8669 680.555C31.0999 680.555 2.62347 693.541 0.146484 710H1273.23V182.322C1267.05 181.111 1260.67 180.47 1254.14 180.47C1247.27 180.47 1240.55 181.182 1234.06 182.518C1225.85 164.313 1207.55 151.648 1186.29 151.648C1180.51 151.648 1174.95 152.592 1169.77 154.32C1139.29 111.194 1089.04 83.0142 1032.2 83.0142C939.246 83.0142 863.885 158.346 863.885 251.259C863.885 255.267 864.028 259.239 864.313 263.194C801.604 268.431 751.886 319.376 748.661 382.613C724.069 389.15 702.435 402.902 686.148 421.463C665.886 412.574 643.504 407.64 619.964 407.64C547.632 407.64 486.189 454.168 463.896 518.901C454.665 516.763 445.06 515.605 435.188 515.605C388.125 515.605 347.085 541.221 325.167 579.252C316.132 574.994 306.046 572.607 295.389 572.607C260.605 572.607 231.754 598.009 226.39 631.266C226.239 631.266 226.087 631.261 225.936 631.257C225.784 631.253 225.633 631.248 225.481 631.248C159.137 631.248 103.271 652.749 86.0749 682.087C79.6953 681.089 72.9236 680.555 65.8669 680.555ZM864.166 1156.81C801.458 1151.57 751.74 1100.62 748.514 1037.39C723.922 1030.85 702.289 1017.1 686.001 998.537C665.74 1007.43 643.358 1012.36 619.818 1012.36C547.486 1012.36 486.042 965.832 463.749 901.099C454.519 903.237 444.914 904.394 435.041 904.394C387.978 904.394 346.939 878.779 325.02 840.748C315.985 845.005 305.899 847.393 295.243 847.393C260.458 847.393 231.607 821.991 226.244 788.734C226.092 788.734 225.941 788.738 225.789 788.743C225.638 788.747 225.486 788.752 225.335 788.752C158.991 788.752 103.125 767.251 85.9284 737.913C79.5488 738.911 72.7772 739.445 65.7204 739.445C30.9535 739.445 2.47699 726.459 0 710H1273.08V1237.68C1266.9 1238.89 1260.52 1239.53 1254 1239.53C1247.12 1239.53 1240.4 1238.82 1233.91 1237.48C1225.7 1255.69 1207.4 1268.35 1186.14 1268.35C1180.37 1268.35 1174.81 1267.41 1169.62 1265.68C1139.15 1308.81 1088.9 1336.99 1032.05 1336.99C939.1 1336.99 863.739 1261.65 863.739 1168.74C863.739 1164.73 863.881 1160.76 864.166 1156.81Z" fill="url(#paint1_linear_2642_135)"/>
<path d="M318.846 659.642C312.057 657.772 304.929 656.757 297.551 656.757C262.713 656.757 233.078 678.969 222.012 710C233.078 741.031 262.713 763.243 297.551 763.243C304.929 763.243 312.057 762.228 318.846 760.358C333.298 792.617 365.659 815.097 403.295 815.097C434.338 815.097 461.799 799.796 478.567 776.336C487.602 783.853 499.238 788.378 511.908 788.378C516.132 788.378 520.23 787.861 524.151 786.917C541.775 808.453 568.559 822.223 598.567 822.223C603.254 822.223 607.852 821.866 612.36 821.225C619.577 867.201 659.388 902.382 707.412 902.382C727.121 902.382 745.423 896.414 760.677 886.261C772.99 897.394 789.331 904.163 807.24 904.163C819.661 904.163 831.315 900.885 841.42 895.167C849.011 958.422 902.845 1007.48 968.191 1007.48C981.699 1007.48 994.708 1005.36 1006.93 1001.48C1033.06 1033.41 1072.78 1053.79 1117.27 1053.79C1168.51 1053.79 1213.4 1026.77 1238.52 986.228C1245.22 988.455 1252.39 989.666 1259.83 989.666C1264.43 989.666 1268.92 989.203 1273.25 988.33V431.67C1268.92 430.797 1264.43 430.334 1259.83 430.334C1252.39 430.334 1245.22 431.545 1238.52 433.772C1213.4 393.229 1168.51 366.207 1117.27 366.207C1072.78 366.207 1033.06 386.585 1006.93 418.524C994.708 414.641 981.699 412.521 968.191 412.521C902.845 412.521 849.011 461.578 841.42 524.833C831.315 519.115 819.661 515.837 807.24 515.837C789.331 515.837 772.99 522.606 760.677 533.739C745.423 523.586 727.121 517.618 707.412 517.618C659.388 517.618 619.577 552.799 612.36 598.775C607.852 598.134 603.254 597.777 598.567 597.777C568.559 597.777 541.775 611.547 524.151 633.083C520.23 632.139 516.132 631.622 511.908 631.622C499.238 631.622 487.602 636.147 478.567 643.664C461.799 620.204 434.338 604.903 403.295 604.903C365.659 604.903 333.298 627.383 318.846 659.642Z" fill="url(#paint2_linear_2642_135)"/>
<defs>
<linearGradient id="paint0_linear_2642_135" x1="1125.81" y1="239.545" x2="1156.49" y2="45.6253" gradientUnits="userSpaceOnUse">
<stop stop-color="#CFF5FF"/>
<stop offset="1" stop-color="#F6F6F6"/>
</linearGradient>
<linearGradient id="paint1_linear_2642_135" x1="888.5" y1="613.5" x2="789.055" y2="69.99" gradientUnits="userSpaceOnUse">
<stop stop-color="#D1F5FE"/>
<stop offset="1" stop-color="white"/>
</linearGradient>
<linearGradient id="paint2_linear_2642_135" x1="865.005" y1="388.5" x2="852.005" y2="1008" gradientUnits="userSpaceOnUse">
<stop stop-color="white"/>
<stop offset="0.513125" stop-color="#DFF8FF"/>
<stop offset="1" stop-color="#FAFAFA"/>
</linearGradient>
</defs>
</svg>
