<svg width="126" height="252" viewBox="0 0 126 252" fill="none" xmlns="http://www.w3.org/2000/svg">
<path d="M57.4207 0.876016C66.9682 0.128262 76.2094 1.98327 84.6486 5.93231C79.3583 7.89224 75.2417 12.5699 74.2655 18.5491C72.8199 27.4034 78.8081 35.7589 87.6405 37.2118C89.801 37.5672 91.9317 37.4766 93.9389 37.0074C94.523 44.2787 99.9737 50.4946 107.477 51.7288C112.445 52.546 117.255 51.0053 120.77 47.9251C123.252 54.9482 124.888 62.5149 125.51 70.4537C128.484 108.425 108.145 153.762 77.7875 160.817L84.5837 170.749C86.962 173.481 88.3365 177.816 82.3465 177.455L79.4806 176.807L76.1394 175.906C90.8671 206.083 92.8388 216.822 83.2533 248.903C83.3396 250.004 82.4772 251.016 81.3785 251.102L75.3358 251.575C74.2371 251.661 73.2278 250.796 73.1415 249.695C82.8898 217.601 80.3788 207.735 65.7936 177.547L62.7923 179.401L59.6419 181.094C54.7654 181.558 54.7204 176.802 56.4962 173.339L62.3247 162.028C31.1072 159.939 3.81144 118.271 0.831169 80.2185C-2.39027 39.0864 22.894 3.58013 57.258 0.888763L57.4207 0.876016Z" fill="#FF002E"/>
</svg>
