<svg width="457" height="102" viewBox="0 0 457 102" fill="none" xmlns="http://www.w3.org/2000/svg">
<path d="M231 0.339746L222.34 9L231 17.6603L239.66 9L231 0.339746ZM231 52.8202V54.3202C231.828 54.3202 232.5 53.6487 232.5 52.8202H231ZM9 52.8202V51.3202C8.17157 51.3202 7.5 51.9918 7.5 52.8202H9ZM9 101.66L17.6603 93L9 84.3398L0.339746 93L9 101.66ZM10.5 90.991C10.5 90.1626 9.82843 89.491 9 89.491C8.17157 89.491 7.5 90.1626 7.5 90.991H10.5ZM7.5 74.9191C7.5 75.7475 8.17157 76.4191 9 76.4191C9.82843 76.4191 10.5 75.7475 10.5 74.9191H7.5ZM10.5 70.9011C10.5 70.0727 9.82843 69.4011 9 69.4011C8.17157 69.4011 7.5 70.0727 7.5 70.9011H10.5ZM7.5 54.8292C7.5 55.6576 8.17157 56.3292 9 56.3292C9.82843 56.3292 10.5 55.6576 10.5 54.8292H7.5ZM11.0182 54.3202C11.8466 54.3202 12.5182 53.6487 12.5182 52.8202C12.5182 51.9918 11.8466 51.3202 11.0182 51.3202V54.3202ZM27.1636 51.3202C26.3352 51.3202 25.6636 51.9918 25.6636 52.8202C25.6636 53.6487 26.3352 54.3202 27.1636 54.3202V51.3202ZM31.2 54.3202C32.0284 54.3202 32.7 53.6487 32.7 52.8202C32.7 51.9918 32.0284 51.3202 31.2 51.3202V54.3202ZM47.3455 51.3202C46.517 51.3202 45.8455 51.9918 45.8455 52.8202C45.8455 53.6487 46.517 54.3202 47.3455 54.3202V51.3202ZM51.3818 54.3202C52.2102 54.3202 52.8818 53.6487 52.8818 52.8202C52.8818 51.9918 52.2102 51.3202 51.3818 51.3202V54.3202ZM67.5273 51.3202C66.6988 51.3202 66.0273 51.9918 66.0273 52.8202C66.0273 53.6487 66.6988 54.3202 67.5273 54.3202V51.3202ZM71.5636 54.3202C72.3921 54.3202 73.0636 53.6487 73.0636 52.8202C73.0636 51.9918 72.3921 51.3202 71.5636 51.3202V54.3202ZM87.7091 51.3202C86.8807 51.3202 86.2091 51.9918 86.2091 52.8202C86.2091 53.6487 86.8807 54.3202 87.7091 54.3202V51.3202ZM91.7455 54.3202C92.5739 54.3202 93.2455 53.6487 93.2455 52.8202C93.2455 51.9918 92.5739 51.3202 91.7455 51.3202V54.3202ZM107.891 51.3202C107.062 51.3202 106.391 51.9918 106.391 52.8202C106.391 53.6487 107.062 54.3202 107.891 54.3202V51.3202ZM111.927 54.3202C112.756 54.3202 113.427 53.6487 113.427 52.8202C113.427 51.9918 112.756 51.3202 111.927 51.3202V54.3202ZM128.073 51.3202C127.244 51.3202 126.573 51.9918 126.573 52.8202C126.573 53.6487 127.244 54.3202 128.073 54.3202V51.3202ZM132.109 54.3202C132.938 54.3202 133.609 53.6487 133.609 52.8202C133.609 51.9918 132.938 51.3202 132.109 51.3202V54.3202ZM148.255 51.3202C147.426 51.3202 146.755 51.9918 146.755 52.8202C146.755 53.6487 147.426 54.3202 148.255 54.3202V51.3202ZM152.291 54.3202C153.119 54.3202 153.791 53.6487 153.791 52.8202C153.791 51.9918 153.119 51.3202 152.291 51.3202V54.3202ZM168.436 51.3202C167.608 51.3202 166.936 51.9918 166.936 52.8202C166.936 53.6487 167.608 54.3202 168.436 54.3202V51.3202ZM172.473 54.3202C173.301 54.3202 173.973 53.6487 173.973 52.8202C173.973 51.9918 173.301 51.3202 172.473 51.3202V54.3202ZM188.618 51.3202C187.79 51.3202 187.118 51.9918 187.118 52.8202C187.118 53.6487 187.79 54.3202 188.618 54.3202V51.3202ZM192.655 54.3202C193.483 54.3202 194.155 53.6487 194.155 52.8202C194.155 51.9918 193.483 51.3202 192.655 51.3202V54.3202ZM208.8 51.3202C207.972 51.3202 207.3 51.9918 207.3 52.8202C207.3 53.6487 207.972 54.3202 208.8 54.3202V51.3202ZM212.836 54.3202C213.665 54.3202 214.336 53.6487 214.336 52.8202C214.336 51.9918 213.665 51.3202 212.836 51.3202V54.3202ZM228.982 51.3202C228.153 51.3202 227.482 51.9918 227.482 52.8202C227.482 53.6487 228.153 54.3202 228.982 54.3202V51.3202ZM232.5 50.6292C232.5 49.8008 231.828 49.1292 231 49.1292C230.172 49.1292 229.5 49.8008 229.5 50.6292H232.5ZM229.5 33.1011C229.5 33.9296 230.172 34.6011 231 34.6011C231.828 34.6011 232.5 33.9296 232.5 33.1011H229.5ZM232.5 28.7191C232.5 27.8907 231.828 27.2191 231 27.2191C230.172 27.2191 229.5 27.8907 229.5 28.7191H232.5ZM229.5 11.191C229.5 12.0194 230.172 12.691 231 12.691C231.828 12.691 232.5 12.0194 232.5 11.191H229.5ZM10.5 93V90.991H7.5V93H10.5ZM10.5 74.9191V70.9011H7.5V74.9191H10.5ZM10.5 54.8292V52.8202H7.5V54.8292H10.5ZM9 54.3202H11.0182V51.3202H9V54.3202ZM27.1636 54.3202H31.2V51.3202H27.1636V54.3202ZM47.3455 54.3202H51.3818V51.3202H47.3455V54.3202ZM67.5273 54.3202H71.5636V51.3202H67.5273V54.3202ZM87.7091 54.3202H91.7455V51.3202H87.7091V54.3202ZM107.891 54.3202H111.927V51.3202H107.891V54.3202ZM128.073 54.3202H132.109V51.3202H128.073V54.3202ZM148.255 54.3202H152.291V51.3202H148.255V54.3202ZM168.436 54.3202H172.473V51.3202H168.436V54.3202ZM188.618 54.3202H192.655V51.3202H188.618V54.3202ZM208.8 54.3202H212.836V51.3202H208.8V54.3202ZM228.982 54.3202H231V51.3202H228.982V54.3202ZM232.5 52.8202V50.6292H229.5V52.8202H232.5ZM232.5 33.1011V28.7191H229.5V33.1011H232.5ZM232.5 11.191V9H229.5V11.191H232.5Z" fill="#47C2FF"/>
<path d="M231 0.339746L239.66 9L231 17.6603L222.34 9L231 0.339746ZM231 52.7746V54.2746C230.172 54.2746 229.5 53.6031 229.5 52.7746H231ZM448 52.7746V51.2746C448.828 51.2746 449.5 51.9462 449.5 52.7746H448ZM448 101.66L439.34 93L448 84.3397L456.66 93L448 101.66ZM446.5 90.9887C446.5 90.1603 447.172 89.4887 448 89.4887C448.828 89.4887 449.5 90.1603 449.5 90.9887H446.5ZM449.5 74.8986C449.5 75.727 448.828 76.3986 448 76.3986C447.172 76.3986 446.5 75.727 446.5 74.8986H449.5ZM446.5 70.8761C446.5 70.0476 447.172 69.3761 448 69.3761C448.828 69.3761 449.5 70.0476 449.5 70.8761H446.5ZM449.5 54.7859C449.5 55.6143 448.828 56.2859 448 56.2859C447.172 56.2859 446.5 55.6143 446.5 54.7859H449.5ZM446.027 54.2746C445.199 54.2746 444.527 53.6031 444.527 52.7746C444.527 51.9462 445.199 51.2746 446.027 51.2746V54.2746ZM430.245 51.2746C431.074 51.2746 431.745 51.9462 431.745 52.7746C431.745 53.6031 431.074 54.2746 430.245 54.2746V51.2746ZM426.3 54.2746C425.472 54.2746 424.8 53.6031 424.8 52.7746C424.8 51.9462 425.472 51.2746 426.3 51.2746V54.2746ZM410.518 51.2746C411.347 51.2746 412.018 51.9462 412.018 52.7746C412.018 53.6031 411.347 54.2746 410.518 54.2746V51.2746ZM406.573 54.2746C405.744 54.2746 405.073 53.6031 405.073 52.7746C405.073 51.9462 405.744 51.2746 406.573 51.2746V54.2746ZM390.791 51.2746C391.619 51.2746 392.291 51.9462 392.291 52.7746C392.291 53.6031 391.619 54.2746 390.791 54.2746V51.2746ZM386.845 54.2746C386.017 54.2746 385.345 53.6031 385.345 52.7746C385.345 51.9462 386.017 51.2746 386.845 51.2746V54.2746ZM371.064 51.2746C371.892 51.2746 372.564 51.9462 372.564 52.7746C372.564 53.6031 371.892 54.2746 371.064 54.2746V51.2746ZM367.118 54.2746C366.29 54.2746 365.618 53.6031 365.618 52.7746C365.618 51.9462 366.29 51.2746 367.118 51.2746V54.2746ZM351.336 51.2746C352.165 51.2746 352.836 51.9462 352.836 52.7746C352.836 53.6031 352.165 54.2746 351.336 54.2746V51.2746ZM347.391 54.2746C346.562 54.2746 345.891 53.6031 345.891 52.7746C345.891 51.9462 346.562 51.2746 347.391 51.2746V54.2746ZM331.609 51.2746C332.438 51.2746 333.109 51.9462 333.109 52.7746C333.109 53.6031 332.438 54.2746 331.609 54.2746V51.2746ZM327.664 54.2746C326.835 54.2746 326.164 53.6031 326.164 52.7746C326.164 51.9462 326.835 51.2746 327.664 51.2746V54.2746ZM311.882 51.2746C312.71 51.2746 313.382 51.9462 313.382 52.7746C313.382 53.6031 312.71 54.2746 311.882 54.2746V51.2746ZM307.936 54.2746C307.108 54.2746 306.436 53.6031 306.436 52.7746C306.436 51.9462 307.108 51.2746 307.936 51.2746V54.2746ZM292.155 51.2746C292.983 51.2746 293.655 51.9462 293.655 52.7746C293.655 53.6031 292.983 54.2746 292.155 54.2746V51.2746ZM288.209 54.2746C287.381 54.2746 286.709 53.6031 286.709 52.7746C286.709 51.9462 287.381 51.2746 288.209 51.2746V54.2746ZM272.427 51.2746C273.256 51.2746 273.927 51.9462 273.927 52.7746C273.927 53.6031 273.256 54.2746 272.427 54.2746V51.2746ZM268.482 54.2746C267.653 54.2746 266.982 53.6031 266.982 52.7746C266.982 51.9462 267.653 51.2746 268.482 51.2746V54.2746ZM252.7 51.2746C253.528 51.2746 254.2 51.9462 254.2 52.7746C254.2 53.6031 253.528 54.2746 252.7 54.2746V51.2746ZM248.755 54.2746C247.926 54.2746 247.255 53.6031 247.255 52.7746C247.255 51.9462 247.926 51.2746 248.755 51.2746V54.2746ZM232.973 51.2746C233.801 51.2746 234.473 51.9462 234.473 52.7746C234.473 53.6031 233.801 54.2746 232.973 54.2746V51.2746ZM229.5 50.5859C229.5 49.7575 230.172 49.0859 231 49.0859C231.828 49.0859 232.5 49.7575 232.5 50.5859H229.5ZM232.5 33.0761C232.5 33.9045 231.828 34.5761 231 34.5761C230.172 34.5761 229.5 33.9045 229.5 33.0761H232.5ZM229.5 28.6986C229.5 27.8702 230.172 27.1986 231 27.1986C231.828 27.1986 232.5 27.8702 232.5 28.6986H229.5ZM232.5 11.1887C232.5 12.0172 231.828 12.6887 231 12.6887C230.172 12.6887 229.5 12.0172 229.5 11.1887H232.5ZM446.5 93V90.9887H449.5V93H446.5ZM446.5 74.8986V70.8761H449.5V74.8986H446.5ZM446.5 54.7859V52.7746H449.5V54.7859H446.5ZM448 54.2746H446.027V51.2746H448V54.2746ZM430.245 54.2746H426.3V51.2746H430.245V54.2746ZM410.518 54.2746H406.573V51.2746H410.518V54.2746ZM390.791 54.2746H386.845V51.2746H390.791V54.2746ZM371.064 54.2746H367.118V51.2746H371.064V54.2746ZM351.336 54.2746H347.391V51.2746H351.336V54.2746ZM331.609 54.2746H327.664V51.2746H331.609V54.2746ZM311.882 54.2746H307.936V51.2746H311.882V54.2746ZM292.155 54.2746H288.209V51.2746H292.155V54.2746ZM272.427 54.2746H268.482V51.2746H272.427V54.2746ZM252.7 54.2746H248.755V51.2746H252.7V54.2746ZM232.973 54.2746H231V51.2746H232.973V54.2746ZM229.5 52.7746V50.5859H232.5V52.7746H229.5ZM229.5 33.0761V28.6986H232.5V33.0761H229.5ZM229.5 11.1887V9H232.5V11.1887H229.5Z" fill="#47C2FF"/>
</svg>
