<svg width="114" height="500" viewBox="0 0 114 500" fill="none" xmlns="http://www.w3.org/2000/svg">
<path opacity="0.8" d="M1 16C1 7.16345 8.16344 0 17 0H98C106.837 0 114 7.16345 114 16V250H1V16Z" fill="#FF002E"/>
<path opacity="0.8" d="M1 250H114V484C114 492.837 106.837 500 98 500H17C8.16344 500 1 492.837 1 484V250Z" fill="#205773"/>
<path fill-rule="evenodd" clip-rule="evenodd" d="M1 19.7805V71.2237L4.08195 70.626C5.75085 70.3023 7.09832 70.4444 8.12437 71.0523C9.14391 71.6414 9.9205 72.7113 10.4542 74.262L10.7275 75.0563C11.0789 76.0775 11.1886 76.9439 11.0564 77.6554C10.9439 78.3632 10.5831 78.9274 9.97384 79.3482L9.99337 79.4049C11.7856 79.6222 13.0657 80.8466 13.8336 83.0781L14.4193 84.7802C14.9465 86.312 14.9278 87.5664 14.3634 88.5434C13.8121 89.4976 12.7315 90.1308 11.1215 90.4431L6.02641 91.4313L1 76.825V83.9774L2.09862 87.1699C2.65179 88.7774 2.66575 90.096 2.14048 91.1259C1.88254 91.6163 1.50238 92.0236 1 92.3478L1 107.537L3.56299 107.039L9.42015 124.06L14.7508 123.026L15.727 125.863L7.15672 127.525L1 109.634L1 118.466C1.88825 119.072 2.57388 120.078 3.05691 121.481L3.64262 123.183C4.16977 124.715 4.15113 125.97 3.5867 126.946C3.11386 127.765 2.25163 128.347 1 128.693L1 180.162L2.89 179.796L9.72335 199.653L6.48372 200.281L1 184.346V199.707L1.52834 201.242L1 201.345V218.257L6.28235 233.607L11.613 232.573L12.5892 235.41L4.01892 237.072L1 228.299V250H21.1919C21.2041 249.974 21.2167 249.949 21.2295 249.924C21.7613 248.913 22.8028 248.257 24.3538 247.956C25.9049 247.655 27.2294 247.852 28.3273 248.547C28.917 248.912 29.4254 249.396 29.8525 250H32.2145L31.1608 246.938L34.4004 246.31L35.6703 250H37.9147L38.5236 245.51L41.7632 244.882L40.9041 250H44.5122L44.2705 249.298C43.7369 247.747 43.7261 246.468 44.2383 245.461C44.77 244.45 45.8115 243.794 47.3626 243.493C48.9136 243.192 50.2381 243.389 51.336 244.084C52.4535 244.775 53.279 245.896 53.8127 247.447L54.5351 249.546L52.1947 250H56.7589L54.1695 242.475L57.4091 241.847L60.1913 249.932L63.6665 249.258L60.8844 241.173L64.124 240.545L67.3778 250H70.8042L69.04 239.591L73.4283 238.74L79.4029 250H82.5613L78.3574 237.784L81.597 237.156L86.0171 250H88.6053L84.0233 236.685L88.0876 235.897L95.3291 247.171L95.388 247.16L91.2977 235.274L94.1839 234.714L99.4442 250H114V211.549L108.519 195.621L113.408 194.673C113.61 194.634 113.807 194.601 114 194.576V170.71L110.955 161.862L107.568 162.519L106.592 159.682L114 158.245V106.802L112.161 107.158L111.419 105.003C110.931 103.584 110.75 102.328 110.877 101.234C110.996 100.122 111.454 98.8328 112.248 97.3674C113.022 95.9059 113.486 94.6964 113.638 93.7388C113.81 92.7775 113.733 91.8241 113.408 90.8785C113.115 90.0275 112.766 89.4698 112.361 89.2054C111.969 88.9183 111.498 88.8281 110.948 88.9347C109.829 89.1518 109.494 89.9128 109.943 91.2176L110.675 93.3452L107.612 93.9393L106.948 92.0103C106.395 90.4028 106.385 89.0936 106.916 88.0826C107.442 87.0527 108.49 86.3855 110.06 86.0808C111.584 85.7854 112.897 85.9671 114 86.6259V52.6351L112.553 49.587L114 49.3064V16C114 8.2822 108.536 1.84067 101.265 0.333323L95.5705 1.43775L95.0758 1.02073e-07L92.6852 1.34476e-07C92.8073 0.327687 92.9223 0.608042 93.0303 0.841065C93.1867 1.17386 93.402 1.49522 93.6762 1.80517L90.3777 2.44494C90.1492 2.1463 89.9666 1.85894 89.8297 1.58289C89.6928 1.30683 89.4975 0.800027 89.2437 0.0624764L89.2222 1.02073e-07H85.8605L86.9319 3.11328L83.6923 3.74163L82.4047 1.02073e-07H79.9735L82.1206 4.04648L78.8809 4.67484L76.935 0.846025L76.9545 0.90276L73.2731 1.6168L74.0215 5.61737L71.0175 6.20002L69.9666 1.02073e-07L62.2818 1.0238e-07C62.8627 0.719196 63.3212 1.56713 63.6573 2.54379C64.217 4.17018 64.2244 5.50022 63.6795 6.53391C63.1542 7.56378 62.0964 8.23295 60.506 8.54142C58.9353 8.84607 57.601 8.65096 56.5031 7.95607C55.3988 7.24228 54.57 6.08164 54.0168 4.47416L53.6264 3.33947L56.6893 2.74539L57.1578 4.10702C57.6004 5.393 58.3812 5.92746 59.5004 5.7104C60.0501 5.60377 60.4104 5.3725 60.5811 5.0166C60.765 4.63798 60.7365 4.09881 60.4957 3.39908C60.2094 2.56697 59.7625 1.87696 59.1551 1.32904C58.7085 0.916805 58.0631 0.473791 57.2188 0L49.7994 1.02073e-07L50.0521 0.734313L45.6049 1.59687L47.7037 7.69584L53.2995 6.61051L54.2757 9.44724L45.4403 11.1609L41.5995 1.02073e-07H34.2558L37.5799 9.65945L42.9106 8.62552L43.8868 11.4623L35.3165 13.1245L30.8 1.02073e-07L28.3754 1.02826e-07C28.5076 0.623671 28.5289 1.17637 28.4395 1.65809C28.327 2.36583 27.9661 2.93008 27.3569 3.35085L27.3764 3.40758C29.1687 3.62483 30.4487 4.84924 31.2167 7.0808L31.8024 8.78284C32.3295 10.3147 32.3109 11.5691 31.7465 12.546C31.1952 13.5002 30.1145 14.1335 28.5045 14.4458L23.4095 15.434L18.0982 1.02073e-07H17C15.8584 1.02073e-07 14.7446 0.11957 13.6707 0.346869L21.8378 15.7388L18.5981 16.3672L16.6522 12.5384L16.6717 12.5951L12.9903 13.3092L13.7387 17.3097L10.7347 17.8924L8.15394 2.66574C6.91392 3.49003 5.79547 4.48267 4.83122 5.61104L9.16249 18.1973L5.92286 18.8257L2.56939 9.08077C2.03541 10.1924 1.6261 11.3753 1.35957 12.6112C1.45892 12.8476 1.55395 13.0977 1.64466 13.3612L2.84538 16.8504C3.04061 17.4178 3.21969 17.8773 3.38261 18.229C3.53902 18.5618 3.75434 18.8831 4.02855 19.1931L1 19.7805ZM10.6491 1.30999L12.4458 10.54L15.3615 9.97449L10.9226 1.1946C10.831 1.23224 10.7398 1.27071 10.6491 1.30999ZM21.5541 1.02073e-07L22.5979 3.03321L23.8643 2.78758C24.5122 2.66191 24.9379 2.40786 25.1415 2.02543C25.3646 1.63919 25.346 1.06784 25.0857 0.311383L24.9785 1.02073e-07H21.5541ZM114 197.584L112.735 197.829L114 201.506V197.584ZM94.3197 250L88.8134 241.475L88.7545 241.487L91.6842 250H94.3197ZM76.0398 250L72.322 242.646L72.2631 242.658L73.6923 250H76.0398ZM51.4239 250L50.6814 247.842C50.2584 246.613 49.507 246.103 48.4271 246.313C47.3472 246.522 47.0188 247.241 47.4418 248.471L47.9681 250H51.4239ZM28.6483 10.9379C28.471 11.2749 28.0977 11.4986 27.5283 11.609L25.6729 11.9689L23.5741 5.86994L25.0172 5.59003C25.7633 5.44532 26.3552 5.52216 26.793 5.82055C27.244 6.09622 27.6256 6.68793 27.938 7.59568L28.5335 9.32609C28.7808 10.0447 28.819 10.582 28.6483 10.9379ZM7.75839 78.0228C7.55488 78.4052 7.12916 78.6592 6.48123 78.7849L5.21484 79.0305L3.40888 73.7826L4.96979 73.4798C5.53918 73.3694 6.00681 73.4502 6.37269 73.7222C6.7582 73.9903 7.07461 74.4838 7.32191 75.2024L7.70263 76.3087C7.96295 77.0652 7.98153 77.6365 7.75839 78.0228ZM11.2652 86.9352C11.088 87.2722 10.7147 87.4959 10.1453 87.6064L8.28984 87.9663L6.19103 81.8673L7.63413 81.5874C8.38023 81.4427 8.97218 81.5195 9.40997 81.8179C9.8609 82.0936 10.2425 82.6853 10.5549 83.593L11.1504 85.3234C11.3977 86.0421 11.436 86.5793 11.2652 86.9352ZM14.3397 68.6364L11.1001 69.2647L17.9334 89.1219L26.5037 87.4596L25.5275 84.6229L20.1968 85.6568L14.3397 68.6364ZM24.4635 66.6728L21.2239 67.3011L28.0572 87.1583L31.2969 86.5299L24.4635 66.6728ZM34.3828 84.8722C35.5003 85.5633 36.8346 85.7584 38.3857 85.4576C39.9368 85.1567 40.9684 84.5027 41.4805 83.4956C42.0123 82.4846 42.0114 81.2038 41.4777 79.653L40.5113 76.8447L37.4484 77.4387L38.4929 80.474C38.9094 81.6844 38.5777 82.3943 37.4978 82.6037C36.418 82.8132 35.6698 82.3127 35.2533 81.1024L31.4364 70.0108C31.0133 68.7815 31.3418 68.0622 32.4216 67.8527C33.5015 67.6433 34.253 68.1532 34.676 69.3824L35.4667 71.6802L38.5296 71.0861L37.8072 68.9869C37.2736 67.4362 36.448 66.3152 35.3305 65.6242C34.2327 64.9293 32.9082 64.7323 31.3571 65.0331C29.806 65.334 28.7646 65.9899 28.2328 67.0008C27.7207 68.008 27.7314 69.2869 28.2651 70.8377L31.9355 81.5038C32.4692 83.0546 33.285 84.1774 34.3828 84.8722ZM43.0029 66.103L46.3898 65.4461L52.247 82.4665L55.4866 81.8381L49.6295 64.8177L53.0163 64.1608L52.0401 61.3241L42.0268 63.2663L43.0029 66.103ZM62.444 59.3062L53.6086 61.0198L60.442 80.877L69.2773 79.1633L68.3011 76.3266L62.7054 77.4119L60.6066 71.3129L65.0537 70.4504L64.0775 67.6136L59.6304 68.4762L57.8245 63.2282L63.4202 62.1429L62.444 59.3062ZM63.6584 59.0706L70.5606 68.081L70.315 78.962L73.3779 78.3679L73.411 70.9779L73.4699 70.9665L78.2079 77.4311L81.6243 76.7685L74.3892 67.3385L74.6142 56.9456L71.5513 57.5397L71.5192 64.3849L71.4603 64.3963L67.0747 58.408L63.6584 59.0706ZM76.4519 59.6153L79.8387 58.9584L85.6959 75.9788L88.9355 75.3504L83.0784 58.33L86.4652 57.6731L85.489 54.8364L75.4757 56.7786L76.4519 59.6153ZM103.503 58.3024L93.9018 60.1646L94.6632 62.3773L104.264 60.5151L103.503 58.3024ZM105.084 62.8979L95.4832 64.7601L96.2446 66.9728L105.846 65.1106L105.084 62.8979ZM111.493 49.7926L108.195 50.4324L111.167 56.6949L112.904 56.3579L111.493 49.7926ZM13.6868 105.076L10.4472 105.704L17.2805 125.561L20.5202 124.933L13.6868 105.076ZM23.6061 123.275C24.7236 123.966 26.0579 124.162 27.609 123.861C29.1601 123.56 30.1917 122.906 30.7038 121.899C31.2356 120.888 31.2347 119.607 30.701 118.056L29.7346 115.248L26.6717 115.842L27.7162 118.877C28.1327 120.087 27.801 120.797 26.7211 121.007C25.6413 121.216 24.8931 120.716 24.4766 119.505L20.6597 108.414C20.2366 107.185 20.5651 106.465 21.6449 106.256C22.7248 106.046 23.4763 106.556 23.8993 107.786L24.69 110.083L27.7529 109.489L27.0305 107.39C26.4969 105.839 25.6713 104.718 24.5538 104.027C23.456 103.332 22.1315 103.135 20.5804 103.436C19.0293 103.737 17.9879 104.393 17.4561 105.404C16.944 106.411 16.9547 107.69 17.4884 109.241L21.1588 119.907C21.6925 121.458 22.5083 122.58 23.6061 123.275ZM36.1684 100.715L32.1041 101.504L38.9375 121.361L41.8237 120.801L36.8354 106.305L36.8943 106.294L45.7702 120.036L49.0981 119.39L42.2648 99.533L39.3786 100.093L43.4688 111.979L43.4099 111.99L36.1684 100.715ZM52.2835 117.713C53.401 118.404 54.7451 118.597 56.3158 118.293C57.8865 117.988 58.9378 117.33 59.4696 116.319C59.9948 115.289 59.9809 113.971 59.4277 112.363L54.2148 97.2151L51.093 97.8207L56.384 113.196C56.6182 113.877 56.6402 114.397 56.4498 114.757C56.2791 115.112 55.9286 115.342 55.3985 115.445C54.8684 115.547 54.404 115.476 54.0054 115.231C53.6264 114.981 53.3197 114.516 53.0854 113.836L47.7945 98.4604L44.5548 99.0888L49.7677 114.237C50.3209 115.844 51.1595 117.003 52.2835 117.713ZM61.146 95.8708L56.5221 96.7676L63.3555 116.625L66.1828 116.076L61.009 101.042L61.0679 101.03L68.5978 115.608L71.3073 115.082L68.4896 99.5908L68.5485 99.5793L73.7223 114.614L76.7852 114.02L69.9519 94.1628L65.328 95.0596L68.1572 109.672L68.0983 109.683L61.146 95.8708ZM88.8147 97.4642L79.2136 99.3264L79.975 101.539L89.5761 99.6768L88.8147 97.4642ZM90.3961 102.06L80.795 103.922L81.5565 106.135L91.1575 104.272L90.3961 102.06ZM96.364 94.0632L99.7509 93.4063L104.964 108.554L108.203 107.926L101.37 88.069L99.1906 88.4917C99.1632 89.2031 99.0444 89.7709 98.8342 90.1949C98.6176 90.6001 98.2506 90.9335 97.7333 91.1952C97.2356 91.4532 96.5254 91.6716 95.6025 91.8506L96.364 94.0632ZM12.829 197.961C13.9726 198.667 15.3396 198.866 16.93 198.558C18.5203 198.249 19.588 197.578 20.1329 196.545C20.6778 195.511 20.6769 194.2 20.1302 192.611L16.5378 182.172C15.9912 180.583 15.146 179.436 14.0024 178.73C12.8587 178.024 11.4917 177.825 9.90138 178.133C8.31102 178.442 7.24339 179.113 6.69849 180.146C6.15359 181.18 6.15447 182.491 6.70114 184.08L10.2935 194.519C10.8402 196.108 11.6853 197.255 12.829 197.961ZM16.9589 193.438C17.408 194.743 17.0729 195.504 15.9538 195.721C14.8346 195.938 14.0505 195.394 13.6015 194.089L9.87243 183.253C9.42338 181.948 9.75843 181.187 10.8776 180.97C11.9967 180.753 12.7808 181.297 13.2299 182.602L16.9589 193.438ZM21.1725 176.25L17.1082 177.038L23.9416 196.895L26.8278 196.335L21.8394 181.84L21.8983 181.828L30.7742 195.57L34.1022 194.924L27.2689 175.067L24.3827 175.627L28.4729 187.513L28.414 187.524L21.1725 176.25ZM39.3413 172.726L34.3935 173.685L41.2269 193.543L46.1747 192.583C47.7847 192.271 48.849 191.62 49.3676 190.632C49.8863 189.644 49.869 188.346 49.3158 186.738L45.8601 176.696C45.3069 175.089 44.4847 173.947 43.3933 173.271C42.302 172.595 40.9513 172.413 39.3413 172.726ZM46.1909 189.069C46.0201 189.425 45.6697 189.655 45.1396 189.758L43.4903 190.077L38.6093 175.894L40.2586 175.574C40.7887 175.471 41.2433 175.544 41.6223 175.794C42.0209 176.039 42.3374 176.502 42.5717 177.183L46.125 187.509C46.3593 188.19 46.3813 188.71 46.1909 189.069ZM53.8708 190.001C55.0144 190.707 56.3814 190.906 57.9717 190.597C59.5621 190.289 60.6297 189.618 61.1746 188.584C61.7195 187.55 61.7187 186.239 61.172 184.651L57.5796 174.212C57.0329 172.623 56.1878 171.476 55.0441 170.769C53.9005 170.063 52.5335 169.864 50.9432 170.173C49.3528 170.481 48.2852 171.152 47.7403 172.186C47.1954 173.22 47.1962 174.531 47.7429 176.119L51.3353 186.559C51.882 188.147 52.7271 189.295 53.8708 190.001ZM58.0007 185.478C58.4497 186.783 58.1147 187.544 56.9956 187.761C55.8764 187.978 55.0923 187.434 54.6433 186.129L50.9142 175.293C50.4652 173.988 50.8002 173.227 51.9193 173.01C53.0385 172.793 53.8226 173.336 54.2716 174.641L58.0007 185.478ZM65.2896 187.816C66.3875 188.511 67.7218 188.706 69.2925 188.402C70.8829 188.093 71.9407 187.424 72.4659 186.394C73.0108 185.36 73.0034 184.03 72.4438 182.404C72.0142 181.156 71.3848 180.118 70.5554 179.29C69.726 178.463 68.4387 177.613 66.6935 176.741C65.3274 176.058 64.3308 175.444 63.7037 174.9C63.0963 174.352 62.6689 173.719 62.4216 173C61.9856 171.733 62.3075 170.995 63.3873 170.785C63.9175 170.682 64.3753 170.765 64.7608 171.033C65.1398 171.283 65.4464 171.748 65.6807 172.428L66.0322 173.45L69.0951 172.856L68.812 172.033C68.2588 170.425 67.4333 169.274 66.3354 168.579C65.2507 167.862 63.9328 167.653 62.3817 167.954C60.811 168.259 59.763 168.926 59.2377 169.956C58.7059 170.967 58.7101 172.257 59.2503 173.827C59.6473 174.981 60.2703 175.969 61.1193 176.793C61.9618 177.598 63.2458 178.438 64.9714 179.314C66.3375 179.997 67.3276 180.622 67.9415 181.189C68.549 181.737 68.9959 182.427 69.2822 183.259C69.523 183.959 69.5515 184.498 69.3676 184.877C69.1968 185.233 68.8366 185.464 68.2868 185.571C67.1677 185.788 66.3869 185.253 65.9443 183.967L65.4757 182.606L62.4128 183.2L62.8033 184.334C63.3565 185.942 64.1852 187.102 65.2896 187.816ZM76.6206 185.588C77.7642 186.294 79.1312 186.493 80.7216 186.185C82.312 185.876 83.3796 185.205 83.9245 184.172C84.4694 183.138 84.4685 181.827 83.9218 180.238L80.3295 169.799C79.7828 168.21 78.9376 167.063 77.794 166.357C76.6504 165.651 75.2834 165.452 73.693 165.76C72.1027 166.069 71.035 166.74 70.4901 167.774C69.9452 168.807 69.9461 170.118 70.4928 171.707L74.0852 182.146C74.6318 183.735 75.477 184.882 76.6206 185.588ZM80.7505 181.065C81.1996 182.37 80.8645 183.131 79.7454 183.348C78.6263 183.565 77.8422 183.021 77.3931 181.716L73.6641 170.88C73.215 169.575 73.5501 168.814 74.6692 168.597C75.7883 168.38 76.5724 168.924 77.0215 170.229L80.7505 181.065ZM85.5237 163.768L80.8999 164.665L87.7332 184.522L90.5605 183.974L85.3867 168.939L85.4456 168.928L92.9755 183.505L95.685 182.98L92.8673 167.488L92.9262 167.477L98.1 182.512L101.163 181.917L94.3296 162.06L89.7057 162.957L92.5349 177.569L92.476 177.58L85.5237 163.768ZM105.582 159.878L96.7471 161.591L103.58 181.449L112.416 179.735L111.44 176.898L105.844 177.983L103.745 171.884L108.192 171.022L107.216 168.185L102.769 169.048L100.963 163.8L106.559 162.714L105.582 159.878ZM14.7071 233.91C15.8507 234.616 17.2177 234.815 18.8081 234.506C20.3984 234.198 21.4661 233.527 22.011 232.493C22.5559 231.459 22.555 230.148 22.0083 228.56L18.4159 218.121C17.8692 216.532 17.0241 215.385 15.8805 214.678C14.7368 213.972 13.3698 213.773 11.7795 214.082C10.1891 214.39 9.12148 215.061 8.57658 216.095C8.03168 217.129 8.03256 218.44 8.57923 220.028L12.1716 230.468C12.7183 232.056 13.5634 233.204 14.7071 233.91ZM18.837 229.387C19.2861 230.692 18.951 231.453 17.8319 231.67C16.7127 231.887 15.9286 231.343 15.4796 230.038L11.7505 219.202C11.3015 217.897 11.6365 217.136 12.7557 216.919C13.8748 216.702 14.6589 217.245 15.108 218.55L18.837 229.387ZM26.4793 231.657C27.5968 232.348 28.9311 232.543 30.4822 232.242C32.0333 231.941 33.0649 231.287 33.5771 230.28C34.1088 229.269 34.1079 227.988 33.5742 226.437L32.6078 223.629L29.5449 224.223L30.5894 227.258C31.0059 228.469 30.6743 229.179 29.5944 229.388C28.5145 229.598 27.7663 229.097 27.3498 227.887L23.5329 216.795C23.1099 215.566 23.4383 214.847 24.5182 214.637C25.598 214.428 26.3495 214.938 26.7725 216.167L27.5632 218.465L30.6261 217.871L29.9038 215.771C29.3701 214.221 28.5445 213.1 27.4271 212.409C26.3292 211.714 25.0047 211.517 23.4536 211.818C21.9025 212.118 20.8611 212.774 20.3293 213.785C19.8172 214.792 19.8279 216.071 20.3616 217.622L24.0321 228.288C24.5657 229.839 25.3815 230.962 26.4793 231.657ZM37.1522 209.463L32.7639 210.314L36.2398 230.823L39.2439 230.24L38.4955 226.239L42.1769 225.525L42.1574 225.469L44.1033 229.298L47.3429 228.669L37.1522 209.463ZM36.0459 213.37L40.8666 222.905L37.951 223.47L35.987 213.381L36.0459 213.37ZM45.3209 207.879L42.0813 208.507L48.9147 228.364L57.4849 226.702L56.5087 223.865L51.1781 224.899L45.3209 207.879ZM59.3369 205.16L56.0678 205.794L66.023 225.046L70.3229 224.212L66.6113 203.749L63.6368 204.326L66.817 220.141L66.7581 220.152L59.3369 205.16ZM74.2249 202.273L69.8367 203.124L73.3126 223.632L76.3166 223.049L75.5683 219.049L79.2497 218.335L79.2301 218.278L81.1761 222.107L84.4157 221.479L74.2249 202.273ZM73.1187 206.179L77.9394 215.714L75.0238 216.28L73.0598 206.19L73.1187 206.179ZM83.9546 200.385L79.1541 201.317L85.9874 221.174L89.2271 220.545L86.2985 212.035L87.4176 211.818C88.1637 211.673 88.7458 211.752 89.164 212.054C89.6018 212.353 89.9769 212.956 90.2893 213.864L91.5388 217.495C91.7926 218.232 91.988 218.739 92.1248 219.015C92.2617 219.291 92.4444 219.578 92.6728 219.877L95.9714 219.237C95.6972 218.927 95.4818 218.606 95.3254 218.273C95.1625 217.921 94.9834 217.462 94.7882 216.895L93.5875 213.405C93.184 212.233 92.6949 211.329 92.1204 210.694C91.5654 210.055 90.8562 209.699 89.9928 209.624L89.9733 209.567C91.1982 208.745 91.456 207.303 90.7466 205.241L90.3268 204.022C89.7932 202.471 89.0166 201.401 87.997 200.812C86.971 200.204 85.6235 200.062 83.9546 200.385ZM87.7775 208.208C87.574 208.59 87.1483 208.844 86.5003 208.97L85.3223 209.198L83.3699 203.525L84.8425 203.239C85.4118 203.129 85.8795 203.21 86.2454 203.482C86.6309 203.75 86.9473 204.243 87.1946 204.962L87.7217 206.494C87.982 207.25 88.0006 207.822 87.7775 208.208ZM94.2719 198.384L91.0323 199.013L97.8657 218.87L101.105 218.241L94.2719 198.384ZM103.59 196.577L99.2016 197.428L102.677 217.937L105.682 217.354L104.933 213.353L108.615 212.639L108.595 212.583L110.541 216.411L113.781 215.783L103.59 196.577ZM102.484 200.483L107.304 210.019L104.389 210.584L102.425 200.495L102.484 200.483Z" fill="#E60029"/>
<path fill-rule="evenodd" clip-rule="evenodd" d="M1 254.974V275.584L3.78018 291.742L1 292.82V367.263L4.92291 344.915L7.58 343.884L3.42146 367.575L1 368.514V484C1 492.837 8.16344 500 17 500H98C106.837 500 114 492.837 114 484V358.205L113.051 358.573L113.188 362.841L110.336 363.947L109.963 342.015L114 340.449V324.913C113.691 325.087 113.357 325.244 112.998 325.383C111.507 325.962 110.302 325.956 109.385 325.366C108.465 324.755 107.86 323.613 107.572 321.937L107.369 320.755L110.277 319.626L110.522 321.045C110.752 322.386 111.399 322.85 112.462 322.437C112.984 322.235 113.348 321.925 113.555 321.509C113.777 321.065 113.825 320.479 113.7 319.749C113.551 318.882 113.234 318.196 112.749 317.69C112.261 317.164 111.433 316.634 110.267 316.098C108.796 315.407 107.727 314.686 107.061 313.936C106.391 313.165 105.953 312.179 105.746 310.976C105.464 309.34 105.639 307.927 106.269 306.736C106.896 305.526 107.956 304.631 109.448 304.053C110.921 303.481 112.108 303.504 113.01 304.121C113.396 304.37 113.726 304.714 114 305.154V250H88.3865L88.9811 253.456C89.266 255.111 89.0855 256.548 88.4398 257.766C87.794 258.983 86.7159 259.885 85.2056 260.471C83.6952 261.057 82.4612 261.052 81.5034 260.456C80.5456 259.861 79.9242 258.735 79.6394 257.079L78.4213 250L75.4068 250C76.1172 250.586 76.6038 251.643 76.8668 253.172L77.6706 257.843C77.9589 259.518 77.7894 260.961 77.1623 262.172C76.5318 263.363 75.4707 264.247 73.979 264.826C72.4873 265.405 71.2735 265.402 70.3378 264.819C69.3986 264.216 68.7849 263.077 68.4967 261.402L68.2169 259.776L71.1257 258.647L71.4462 260.51C71.6768 261.85 72.3235 262.314 73.3863 261.902C74.4492 261.49 74.8653 260.613 74.6347 259.273L73.836 254.631C73.602 253.271 72.9536 252.797 71.8907 253.21C70.8279 253.622 70.4135 254.508 70.6475 255.868L70.678 256.046L67.7692 257.174L66.8983 250H63.45L65.2946 260.72L66.749 260.156L67.2577 263.112L65.8033 263.677L66.4494 267.431L63.3727 268.625L62.7267 264.87L56.8531 267.149L56.3444 264.192L59.1448 250L12.2041 250C11.5484 250.883 10.6118 251.56 9.39428 252.033C7.88394 252.619 6.64987 252.614 5.69208 252.018C5.02445 251.603 4.52029 250.93 4.17962 250L1 250V251.82L3.02145 251.036L3.53016 253.992L1 254.974ZM69.911 250L70.187 252.325L70.243 252.304C70.5871 251.259 71.2156 250.491 72.1286 250L69.911 250ZM82.9591 250C82.2025 250.469 81.9248 251.288 82.1259 252.456L82.7567 256.122C82.9873 257.463 83.634 257.927 84.6969 257.514C85.7597 257.102 86.1758 256.226 85.9452 254.886L85.3144 251.219C85.2192 250.666 85.0556 250.26 84.8234 250L82.9591 250ZM114 308.752L112.057 309.506L111.874 308.442C111.751 307.732 111.533 307.27 111.217 307.056C110.899 306.822 110.488 306.803 109.984 306.998C108.959 307.396 108.56 308.255 108.787 309.576C108.916 310.325 109.222 310.952 109.707 311.458C110.211 311.957 111.046 312.474 112.212 313.01C112.897 313.324 113.493 313.648 114 313.981V308.752ZM114 349.283L112.569 344.851L112.514 344.873L112.931 355.624L114 355.209V349.283ZM6.38314 268.655L2.52337 270.152L6.08437 290.848L8.82536 289.785L6.22583 274.677L6.28177 274.655L12.5732 288.331L15.7338 287.105L12.1728 266.409L9.43179 267.472L11.5633 279.86L11.5074 279.882L6.38314 268.655ZM14.1571 268.793L17.3736 267.545L20.4258 285.285L23.5025 284.091L20.4502 266.352L23.6667 265.104L23.158 262.148L13.6484 265.837L14.1571 268.793ZM32.2036 258.639L29.127 259.832L32.688 280.528L35.7646 279.335L32.2036 258.639ZM49.1634 259.314L40.0454 262.851L40.4422 265.157L49.5602 261.62L49.1634 259.314ZM49.9875 264.103L40.8696 267.64L41.2663 269.946L50.3843 266.409L49.9875 264.103ZM60.8292 253.842L62.218 261.914L59.1413 263.107L60.7732 253.864L60.8292 253.842ZM91.8223 257.589L92.8292 257.198L92.265 261.202L93.6914 260.649L94.7311 256.114L94.2478 253.305L91.2831 254.455L91.8223 257.589ZM14.545 341.182L11.8879 342.213L7.72939 365.903L10.3865 364.873L14.545 341.182ZM23.4904 337.712L20.4138 338.906L23.9748 359.602L27.0514 358.408L25.4489 349.095L28.7493 347.815L30.3518 357.128L33.4284 355.934L29.8674 335.238L26.7908 336.432L28.2406 344.858L24.9402 346.138L23.4904 337.712ZM40.5495 331.095L32.1587 334.35L35.7197 355.045L44.1105 351.791L43.6018 348.834L38.2876 350.895L37.1939 344.539L41.4172 342.901L40.9085 339.944L36.6851 341.582L35.744 336.113L41.0582 334.051L40.5495 331.095ZM46.8784 328.64L42.3194 330.408L45.8804 351.104L48.957 349.91L47.4309 341.041L48.4937 340.629C49.2023 340.354 49.7286 340.349 50.0728 340.615C50.4355 340.874 50.6983 341.476 50.8611 342.423L51.5123 346.207C51.6445 346.976 51.7547 347.501 51.8429 347.782C51.9311 348.063 52.0599 348.349 52.2294 348.641L55.362 347.426C55.1518 347.129 54.9975 346.81 54.8992 346.47C54.7974 346.11 54.6957 345.634 54.594 345.043L53.9682 341.406C53.758 340.184 53.4316 339.27 52.9891 338.664C52.5653 338.05 51.9601 337.77 51.1736 337.823L51.1634 337.764C52.4076 336.671 52.8448 335.051 52.4752 332.902L52.2564 331.631C51.9783 330.015 51.4096 328.963 50.5501 328.477C49.6872 327.97 48.4633 328.025 46.8784 328.64ZM49.325 336.616C49.0843 337.067 48.6563 337.412 48.041 337.65L46.9222 338.084L45.9048 332.171L47.3032 331.629C47.844 331.419 48.2644 331.435 48.5644 331.676C48.8831 331.909 49.1069 332.401 49.2358 333.15L49.5105 334.746C49.6461 335.535 49.5843 336.158 49.325 336.616ZM61.9908 322.777L53.6 326.032L57.161 346.728L65.5518 343.473L65.0431 340.517L59.7289 342.578L58.6352 336.221L62.8585 334.583L62.3498 331.627L58.1265 333.265L57.1853 327.795L62.4995 325.734L61.9908 322.777ZM74.785 317.814L70.6176 319.431L70.9901 341.363L73.8429 340.257L73.7054 335.989L77.2016 334.633L77.1914 334.574L78.4579 338.467L81.5345 337.273L74.785 317.814ZM73.224 322.267L76.3547 331.965L73.5857 333.04L73.1681 322.289L73.224 322.267ZM84.0252 314.23L79.4662 315.998L83.0272 336.694L86.1038 335.501L84.5776 326.631L85.6405 326.219C86.349 325.944 86.8754 325.939 87.2195 326.205C87.5823 326.464 87.8451 327.067 88.0078 328.013L88.659 331.797C88.7913 332.566 88.9015 333.091 88.9896 333.372C89.0778 333.653 89.2066 333.94 89.3762 334.231L92.5088 333.016C92.2985 332.719 92.1443 332.4 92.0459 332.06C91.9442 331.7 91.8425 331.224 91.7407 330.633L91.115 326.997C90.9047 325.775 90.5784 324.86 90.1359 324.254C89.7121 323.64 89.1069 323.36 88.3203 323.413L88.3102 323.354C89.5543 322.261 89.9916 320.641 89.6219 318.493L89.4032 317.221C89.1251 315.605 88.5563 314.554 87.6968 314.067C86.834 313.561 85.6101 313.615 84.0252 314.23ZM86.4717 322.206C86.231 322.657 85.803 323.002 85.1877 323.24L84.0689 323.674L83.0515 317.761L84.45 317.219C84.9907 317.009 85.4111 317.025 85.7112 317.266C86.0299 317.5 86.2536 317.991 86.3825 318.74L86.6572 320.336C86.7929 321.125 86.731 321.748 86.4717 322.206ZM99.1375 308.367L90.7467 311.622L94.3077 332.318L102.699 329.063L102.19 326.107L96.8757 328.168L95.7819 321.812L100.005 320.173L99.4966 317.217L95.2732 318.855L94.3321 313.385L99.6463 311.324L99.1375 308.367ZM8.64873 402.29C9.58449 402.873 10.7982 402.875 12.2899 402.296C13.7816 401.718 14.8427 400.833 15.4732 399.642C16.1004 398.432 16.2698 396.989 15.9815 395.313L13.265 379.525L10.3003 380.676L13.0575 396.7C13.1796 397.41 13.1279 397.976 12.9025 398.4C12.6957 398.817 12.3406 399.123 11.8371 399.318C11.3337 399.513 10.915 399.508 10.581 399.301C10.2657 399.087 10.047 398.625 9.92493 397.915L7.1677 381.891L4.09108 383.084L6.80761 398.872C7.09588 400.548 7.70959 401.687 8.64873 402.29ZM18.5329 377.482L15.4562 378.675L19.0172 399.371L22.0939 398.178L18.5329 377.482ZM24.6968 375.091L20.837 376.588L24.398 397.284L27.139 396.221L24.5395 381.113L24.5954 381.091L30.8869 394.767L34.0475 393.541L30.4865 372.845L27.7455 373.908L29.877 386.296L29.821 386.318L24.6968 375.091ZM32.4708 375.229L35.6872 373.981L38.7395 391.721L41.8162 390.527L38.7639 372.788L41.9803 371.54L41.4716 368.584L31.9621 372.273L32.4708 375.229ZM47.1383 369.539L50.3547 368.292L53.407 386.031L56.4837 384.837L53.4314 367.098L56.6478 365.85L56.1391 362.894L46.6296 366.583L47.1383 369.539ZM60.7053 361.123L57.6287 362.316L61.1897 383.012L64.2663 381.818L60.7053 361.123ZM67.4007 358.525L63.0095 360.229L66.5705 380.925L69.2556 379.883L66.5594 364.213L66.6153 364.192L71.5491 378.993L74.1222 377.995L73.6636 361.457L73.7195 361.436L76.4157 377.105L79.3245 375.977L75.7635 355.281L71.3724 356.985L71.9632 372.556L71.9072 372.578L67.4007 358.525ZM86.4502 351.136L78.0594 354.391L81.6204 375.087L90.0112 371.832L89.5025 368.875L84.1883 370.936L83.0946 364.58L87.318 362.942L86.8092 359.985L82.5859 361.623L81.6448 356.154L86.9589 354.092L86.4502 351.136ZM92.273 369.85C93.1902 370.441 94.3946 370.447 95.8863 369.868C97.3966 369.282 98.4653 368.384 99.0925 367.173C99.7383 365.956 99.9153 364.499 99.6237 362.804C99.3998 361.503 98.9624 360.464 98.3114 359.686C97.6605 358.909 96.5899 358.178 95.0998 357.494C93.9336 356.959 93.0987 356.441 92.5952 355.943C92.1103 355.437 91.8035 354.81 91.6746 354.061C91.4474 352.74 91.8465 351.881 92.8721 351.483C93.3755 351.288 93.7866 351.307 94.1053 351.541C94.4206 351.755 94.6393 352.217 94.7614 352.926L94.9445 353.991L97.8534 352.862L97.7058 352.005C97.4176 350.33 96.8149 349.197 95.8978 348.606C94.9959 347.989 93.8084 347.966 92.3354 348.537C90.8437 349.116 89.7843 350.011 89.1572 351.221C88.5266 352.412 88.3521 353.825 88.6336 355.461C88.8405 356.663 89.2787 357.65 89.9483 358.42C90.6146 359.171 91.6834 359.892 93.1548 360.583C94.3211 361.119 95.1484 361.649 95.6366 362.175C96.1215 362.68 96.4385 363.367 96.5877 364.234C96.7132 364.963 96.6649 365.55 96.4429 365.993C96.2361 366.41 95.8717 366.72 95.3496 366.922C94.2867 367.335 93.64 366.871 93.4094 365.53L93.1652 364.111L90.2564 365.239L90.4599 366.422C90.7482 368.097 91.3525 369.24 92.273 369.85ZM98.3789 349.662L101.595 348.415L104.648 366.154L107.724 364.96L104.672 347.221L107.889 345.973L107.38 343.017L97.8702 346.706L98.3789 349.662Z" fill="#194459"/>
<path d="M42.3727 56H48.3727V58H44.5727V61.7H47.5927V63.7H44.5727V68H48.3727V70H42.3727V56ZM51.3384 56H54.3184L56.5984 70H54.3984L53.9984 67.22V67.26H51.4984L51.0984 70H49.0584L51.3384 56ZM53.7384 65.36L52.7584 58.44H52.7184L51.7584 65.36H53.7384ZM57.6657 56H60.9257C62.059 56 62.8857 56.2667 63.4057 56.8C63.9257 57.32 64.1857 58.1267 64.1857 59.22V60.08C64.1857 61.5333 63.7057 62.4533 62.7457 62.84V62.88C63.279 63.04 63.6524 63.3667 63.8657 63.86C64.0924 64.3533 64.2057 65.0133 64.2057 65.84V68.3C64.2057 68.7 64.219 69.0267 64.2457 69.28C64.2724 69.52 64.339 69.76 64.4457 70H62.2057C62.1257 69.7733 62.0724 69.56 62.0457 69.36C62.019 69.16 62.0057 68.8 62.0057 68.28V65.72C62.0057 65.08 61.899 64.6333 61.6857 64.38C61.4857 64.1267 61.1324 64 60.6257 64H59.8657V70H57.6657V56ZM60.6657 62C61.1057 62 61.4324 61.8867 61.6457 61.66C61.8724 61.4333 61.9857 61.0533 61.9857 60.52V59.44C61.9857 58.9333 61.8924 58.5667 61.7057 58.34C61.5324 58.1133 61.2524 58 60.8657 58H59.8657V62H60.6657ZM65.7321 56H68.4921L70.6321 64.38H70.6721V56H72.6321V70H70.3721L67.7321 59.78H67.6921V70H65.7321V56Z" fill="white"/>
<path d="M51.5251 335H53.7251V347H57.3451V349H51.5251V335ZM58.4001 335H61.6401C62.7334 335 63.5534 335.293 64.1001 335.88C64.6467 336.467 64.9201 337.327 64.9201 338.46V339.84C64.9201 340.973 64.6467 341.833 64.1001 342.42C63.5534 343.007 62.7334 343.3 61.6401 343.3H60.6001V349H58.4001V335ZM61.6401 341.3C62.0001 341.3 62.2667 341.2 62.4401 341C62.6267 340.8 62.7201 340.46 62.7201 339.98V338.32C62.7201 337.84 62.6267 337.5 62.4401 337.3C62.2667 337.1 62.0001 337 61.6401 337H60.6001V341.3H61.6401ZM23.8786 359H27.0186L28.4186 369.02H28.4586L29.8586 359H32.9986V373H30.9186V362.4H30.8786L29.2786 373H27.4386L25.8386 362.4H25.7986V373H23.8786V359ZM36.3403 359H39.3203L41.6003 373H39.4003L39.0003 370.22V370.26H36.5003L36.1003 373H34.0603L36.3403 359ZM38.7403 368.36L37.7603 361.44H37.7203L36.7603 368.36H38.7403ZM42.6677 359H45.9277C47.061 359 47.8877 359.267 48.4077 359.8C48.9277 360.32 49.1877 361.127 49.1877 362.22V363.08C49.1877 364.533 48.7077 365.453 47.7477 365.84V365.88C48.281 366.04 48.6543 366.367 48.8677 366.86C49.0943 367.353 49.2077 368.013 49.2077 368.84V371.3C49.2077 371.7 49.221 372.027 49.2477 372.28C49.2743 372.52 49.341 372.76 49.4477 373H47.2077C47.1277 372.773 47.0743 372.56 47.0477 372.36C47.021 372.16 47.0077 371.8 47.0077 371.28V368.72C47.0077 368.08 46.901 367.633 46.6877 367.38C46.4877 367.127 46.1343 367 45.6277 367H44.8677V373H42.6677V359ZM45.6677 365C46.1077 365 46.4343 364.887 46.6477 364.66C46.8743 364.433 46.9877 364.053 46.9877 363.52V362.44C46.9877 361.933 46.8943 361.567 46.7077 361.34C46.5343 361.113 46.2543 361 45.8677 361H44.8677V365H45.6677ZM50.7341 359H52.9341V364.9L55.7341 359H57.9341L55.3141 364.14L57.9741 373H55.6741L53.8141 366.76L52.9341 368.54V373H50.7341V359ZM59.0153 359H65.0153V361H61.2153V364.7H64.2353V366.7H61.2153V371H65.0153V373H59.0153V359ZM68.0009 361H65.7009V359H72.5009V361H70.2009V373H68.0009V361ZM73.5661 359H75.7661V373H73.5661V359ZM77.4138 359H80.1738L82.3138 367.38H82.3538V359H84.3138V373H82.0538L79.4138 362.78H79.3738V373H77.4138V359ZM89.0689 373.2C88.0022 373.2 87.1889 372.9 86.6289 372.3C86.0689 371.687 85.7889 370.813 85.7889 369.68V362.32C85.7889 361.187 86.0689 360.32 86.6289 359.72C87.1889 359.107 88.0022 358.8 89.0689 358.8C90.1356 358.8 90.9489 359.107 91.5089 359.72C92.0689 360.32 92.3489 361.187 92.3489 362.32V363.52H90.2689V362.18C90.2689 361.26 89.8889 360.8 89.1289 360.8C88.3689 360.8 87.9889 361.26 87.9889 362.18V369.84C87.9889 370.747 88.3689 371.2 89.1289 371.2C89.8889 371.2 90.2689 370.747 90.2689 369.84V367.1H89.1689V365.1H92.3489V369.68C92.3489 370.813 92.0689 371.687 91.5089 372.3C90.9489 372.9 90.1356 373.2 89.0689 373.2ZM29.6904 385H27.3904V383H34.1904V385H31.8904V397H29.6904V385ZM35.2555 383H38.5155C39.6489 383 40.4755 383.267 40.9955 383.8C41.5155 384.32 41.7755 385.127 41.7755 386.22V387.08C41.7755 388.533 41.2955 389.453 40.3355 389.84V389.88C40.8689 390.04 41.2422 390.367 41.4555 390.86C41.6822 391.353 41.7955 392.013 41.7955 392.84V395.3C41.7955 395.7 41.8089 396.027 41.8355 396.28C41.8622 396.52 41.9289 396.76 42.0355 397H39.7955C39.7155 396.773 39.6622 396.56 39.6355 396.36C39.6089 396.16 39.5955 395.8 39.5955 395.28V392.72C39.5955 392.08 39.4889 391.633 39.2755 391.38C39.0755 391.127 38.7222 391 38.2155 391H37.4555V397H35.2555V383ZM38.2555 389C38.6955 389 39.0222 388.887 39.2355 388.66C39.4622 388.433 39.5755 388.053 39.5755 387.52V386.44C39.5755 385.933 39.4822 385.567 39.2955 385.34C39.1222 385.113 38.8422 385 38.4555 385H37.4555V389H38.2555ZM43.322 383H49.322V385H45.522V388.7H48.542V390.7H45.522V395H49.322V397H43.322V383ZM52.2876 383H55.2676L57.5476 397H55.3476L54.9476 394.22V394.26H52.4476L52.0476 397H50.0076L52.2876 383ZM54.6876 392.36L53.7076 385.44H53.6676L52.7076 392.36H54.6876ZM61.4163 397.2C60.3497 397.2 59.543 396.9 58.9963 396.3C58.4497 395.687 58.1763 394.813 58.1763 393.68V392.88H60.2563V393.84C60.2563 394.747 60.6363 395.2 61.3963 395.2C61.7697 395.2 62.0497 395.093 62.2363 394.88C62.4363 394.653 62.5363 394.293 62.5363 393.8C62.5363 393.213 62.403 392.7 62.1363 392.26C61.8697 391.807 61.3763 391.267 60.6563 390.64C59.7497 389.84 59.1163 389.12 58.7563 388.48C58.3963 387.827 58.2163 387.093 58.2163 386.28C58.2163 385.173 58.4963 384.32 59.0563 383.72C59.6163 383.107 60.4297 382.8 61.4963 382.8C62.5497 382.8 63.343 383.107 63.8763 383.72C64.423 384.32 64.6963 385.187 64.6963 386.32V386.9H62.6163V386.18C62.6163 385.7 62.523 385.353 62.3363 385.14C62.1497 384.913 61.8763 384.8 61.5163 384.8C60.783 384.8 60.4163 385.247 60.4163 386.14C60.4163 386.647 60.5497 387.12 60.8163 387.56C61.0963 388 61.5963 388.533 62.3163 389.16C63.2363 389.96 63.8697 390.687 64.2163 391.34C64.563 391.993 64.7363 392.76 64.7363 393.64C64.7363 394.787 64.4497 395.667 63.8763 396.28C63.3163 396.893 62.4963 397.2 61.4163 397.2ZM69.1977 397.2C68.1311 397.2 67.3177 396.9 66.7577 396.3C66.1977 395.687 65.9177 394.813 65.9177 393.68V383H68.1177V393.84C68.1177 394.32 68.2111 394.667 68.3977 394.88C68.5977 395.093 68.8777 395.2 69.2377 395.2C69.5977 395.2 69.8711 395.093 70.0577 394.88C70.2577 394.667 70.3577 394.32 70.3577 393.84V383H72.4777V393.68C72.4777 394.813 72.1977 395.687 71.6377 396.3C71.0777 396.9 70.2644 397.2 69.1977 397.2ZM74.0446 383H77.3046C78.4379 383 79.2646 383.267 79.7846 383.8C80.3046 384.32 80.5646 385.127 80.5646 386.22V387.08C80.5646 388.533 80.0846 389.453 79.1246 389.84V389.88C79.6579 390.04 80.0313 390.367 80.2446 390.86C80.4713 391.353 80.5846 392.013 80.5846 392.84V395.3C80.5846 395.7 80.5979 396.027 80.6246 396.28C80.6513 396.52 80.7179 396.76 80.8246 397H78.5846C78.5046 396.773 78.4513 396.56 78.4246 396.36C78.3979 396.16 78.3846 395.8 78.3846 395.28V392.72C78.3846 392.08 78.2779 391.633 78.0646 391.38C77.8646 391.127 77.5113 391 77.0046 391H76.2446V397H74.0446V383ZM77.0446 389C77.4846 389 77.8113 388.887 78.0246 388.66C78.2513 388.433 78.3646 388.053 78.3646 387.52V386.44C78.3646 385.933 78.2713 385.567 78.0846 385.34C77.9113 385.113 77.6313 385 77.2446 385H76.2446V389H77.0446ZM83.8185 391.04L81.1585 383H83.4985L84.9985 388.14H85.0385L86.5385 383H88.6785L86.0185 391.04V397H83.8185V391.04Z" fill="white"/>
<line y1="126.25" x2="114" y2="126.25" stroke="white" stroke-width="2.5" stroke-dasharray="5 5"/>
<path d="M62.3073 199.339C62.3073 197.339 60.8467 194.606 58.199 191.642C58.0524 191.477 57.8689 191.345 57.6616 191.256C57.4544 191.166 57.2286 191.121 57.0005 191.123C56.7707 191.122 56.5434 191.168 56.3345 191.258C56.1256 191.348 55.94 191.48 55.7906 191.644C52.8921 194.84 51.4755 197.667 51.7205 199.834C51.817 200.519 52.0666 201.177 52.4529 201.765C52.8392 202.352 53.3534 202.856 53.9617 203.243C54.8222 203.907 55.8887 204.29 57.0005 204.334C58.4075 204.332 59.7564 203.806 60.7513 202.869C61.7462 201.933 62.3058 200.663 62.3073 199.339Z" fill="white"/>
<path d="M63.5581 178.867C62.4446 177.977 61.2758 177.043 60.0858 176.025C59.6346 175.639 59.0993 175.351 58.5174 175.181C57.9355 175.01 57.321 174.962 56.717 175.038C56.1316 175.111 55.5704 175.304 55.073 175.604C54.5756 175.903 54.1541 176.302 53.8383 176.771C52.1502 179.427 50.9563 182.335 50.308 185.369C50.0544 185.023 49.829 184.66 49.6337 184.282C49.4332 183.884 49.1312 183.54 48.7547 183.279C48.3782 183.018 47.9389 182.848 47.476 182.786C47.0131 182.723 46.541 182.77 46.1017 182.921C45.6625 183.072 45.2698 183.323 44.9587 183.651C42.5834 185.937 41.2667 189.016 41.2966 192.213C41.2637 195.479 42.3923 198.661 44.5027 201.254C46.6131 203.846 49.5841 205.7 52.943 206.521C54.2291 206.825 55.5495 206.983 56.8757 206.99C55.181 206.931 53.5521 206.357 52.2318 205.355C51.3173 204.75 50.5482 203.97 49.9747 203.066C49.4012 202.162 49.0359 201.155 48.9027 200.11C48.5768 197.163 50.1678 193.733 53.6315 189.914C54.047 189.456 54.5636 189.088 55.1454 188.836C55.7271 188.585 56.3601 188.455 57.0003 188.457H57.0145C57.6529 188.457 58.2835 188.589 58.8624 188.842C59.4412 189.095 59.9545 189.464 60.3663 189.923C62.5452 192.359 65.1448 195.97 65.1448 199.338C65.1416 201.279 64.3563 203.147 62.9472 204.564C61.5382 205.981 59.6103 206.842 57.5528 206.974C61.621 206.851 65.4784 205.242 68.3079 202.488C71.1373 199.734 72.7166 196.052 72.7112 192.221C72.7041 186.181 68.4654 182.794 63.5581 178.867Z" fill="white"/>
</svg>
