<svg width="319" height="541" viewBox="0 0 319 541" fill="none" xmlns="http://www.w3.org/2000/svg">
<path d="M95.4038 88.6226L100.085 80.5138L90.7222 80.5138L95.4038 88.6226ZM94.5929 64.7561L94.5929 81.3247L96.2147 81.3247L96.2147 64.7561L94.5929 64.7561Z" fill="#FF002E"/>
<path d="M78.1699 481.974C78.1699 474.809 83.9786 469 91.1439 469H267.104C274.269 469 280.078 474.809 280.078 481.974V527.383C280.078 534.548 274.269 540.357 267.104 540.357H91.1439C83.9786 540.357 78.1699 534.548 78.1699 527.383V481.974Z" fill="#FFE6EA"/>
<g clip-path="url(#clip0_206_1357)">
<path d="M127.071 511.44C127.071 509.819 125.887 507.602 123.74 505.199C123.621 505.065 123.472 504.958 123.304 504.886C123.136 504.813 122.953 504.776 122.768 504.778C122.582 504.777 122.398 504.815 122.228 504.888C122.059 504.961 121.908 505.068 121.787 505.201C119.437 507.793 118.288 510.085 118.487 511.842C118.565 512.397 118.767 512.931 119.081 513.407C119.394 513.884 119.811 514.292 120.304 514.606C121.002 515.145 121.867 515.455 122.768 515.49C123.909 515.489 125.003 515.062 125.81 514.303C126.616 513.544 127.07 512.514 127.071 511.44Z" fill="#FF002E"/>
<path d="M128.086 494.841C127.183 494.118 126.235 493.361 125.27 492.535C124.904 492.223 124.47 491.989 123.998 491.851C123.527 491.713 123.028 491.673 122.539 491.735C122.064 491.795 121.609 491.951 121.205 492.194C120.802 492.437 120.46 492.76 120.204 493.141C118.835 495.294 117.867 497.652 117.342 500.112C117.136 499.832 116.953 499.537 116.795 499.231C116.632 498.909 116.387 498.629 116.082 498.417C115.777 498.206 115.421 498.068 115.045 498.018C114.67 497.967 114.287 498.005 113.931 498.127C113.575 498.25 113.256 498.453 113.004 498.72C111.078 500.573 110.01 503.069 110.035 505.662C110.008 508.31 110.923 510.891 112.634 512.993C114.345 515.095 116.755 516.599 119.478 517.264C120.521 517.511 121.592 517.639 122.667 517.644C121.293 517.596 119.972 517.131 118.902 516.319C118.16 515.828 117.536 515.195 117.071 514.462C116.606 513.73 116.31 512.913 116.202 512.066C115.938 509.676 117.228 506.894 120.037 503.798C120.374 503.426 120.792 503.128 121.264 502.924C121.736 502.72 122.249 502.615 122.768 502.616H122.78C123.297 502.617 123.809 502.723 124.278 502.929C124.748 503.134 125.164 503.433 125.498 503.806C127.264 505.781 129.372 508.709 129.372 511.44C129.37 513.014 128.733 514.528 127.59 515.677C126.448 516.826 124.885 517.525 123.216 517.632C126.515 517.531 129.643 516.227 131.937 513.994C134.232 511.761 135.512 508.775 135.508 505.668C135.502 500.771 132.065 498.025 128.086 494.841Z" fill="#FF002E"/>
</g>
<path d="M148.544 511.062L147.074 499.031H148.715L149.596 507.603L150.718 499.031H152.194L153.322 507.603L154.101 499.031H155.749L154.368 511.062H152.543L151.476 503.064L150.369 511.062H148.544ZM157.379 511.062V499.031H161.412V500.61H159.211V504.11H161.303V505.655H159.211V509.483H161.494V511.062H157.379ZM163.268 511.062V499.031H167.301V500.61H165.1V504.11H167.191V505.655H165.1V509.483H167.383V511.062H163.268ZM169.156 511.062V499.031H170.988V504.568L172.82 499.031H174.714L172.718 504.964L174.871 511.062H172.937L171.002 505.443V511.062H169.156ZM176.289 511.062V499.031H178.121V509.503H180.439V511.062H176.289ZM182.465 511.062V506.256L180.448 499.031H182.198L183.388 503.529H183.415L184.475 499.031H186.218L184.297 506.256V511.062H182.465ZM192.458 512.566V510.7H193.443V512.566H192.458ZM192.397 500.781V499.031H193.381V500.781H192.397ZM192.711 511.041C191.886 511.041 191.273 510.807 190.872 510.337C190.471 509.868 190.271 509.1 190.271 508.034V507.37H191.973V508.198C191.973 508.644 192.028 508.984 192.137 509.216C192.246 509.449 192.424 509.565 192.67 509.565C192.907 509.565 193.083 509.485 193.197 509.326C193.311 509.166 193.368 508.89 193.368 508.498C193.368 508.271 193.333 508.05 193.265 507.835C193.201 507.621 193.099 507.411 192.957 507.206C192.821 506.997 192.643 506.794 192.424 506.598L191.501 505.764C191.077 505.381 190.761 504.969 190.551 504.527C190.341 504.08 190.237 503.588 190.237 503.05C190.237 502.18 190.439 501.544 190.845 501.143C191.255 500.737 191.861 500.535 192.663 500.535C193.183 500.535 193.614 500.633 193.955 500.828C194.297 501.02 194.552 501.332 194.721 501.765C194.89 502.198 194.974 502.779 194.974 503.508V504.069H193.354V503.392C193.354 502.941 193.301 502.599 193.197 502.367C193.096 502.134 192.923 502.018 192.677 502.018C192.436 502.018 192.258 502.086 192.144 502.223C192.03 502.355 191.968 502.59 191.959 502.927C191.955 503.109 191.978 503.289 192.028 503.467C192.078 503.64 192.155 503.811 192.26 503.98C192.369 504.144 192.511 504.306 192.684 504.465L193.655 505.347C194.165 505.807 194.541 506.288 194.783 506.789C195.029 507.291 195.152 507.833 195.152 508.416C195.152 509.278 194.956 509.932 194.564 510.378C194.172 510.82 193.554 511.041 192.711 511.041ZM197.178 511.062V499.031H201.211V500.61H199.01V504.11H201.102V505.655H199.01V509.483H201.293V511.062H197.178ZM205.596 511.199C204.972 511.199 204.461 511.066 204.065 510.802C203.673 510.538 203.384 510.146 203.197 509.626C203.01 509.107 202.917 508.464 202.917 507.699V502.196C202.917 501.503 203.008 500.911 203.19 500.418C203.372 499.926 203.662 499.548 204.058 499.284C204.455 499.019 204.974 498.887 205.617 498.887C206.1 498.887 206.508 498.962 206.84 499.113C207.173 499.263 207.442 499.482 207.647 499.769C207.852 500.051 208 500.398 208.091 500.808C208.187 501.214 208.235 501.676 208.235 502.196V507.699C208.235 508.464 208.144 509.107 207.961 509.626C207.784 510.146 207.501 510.538 207.114 510.802C206.726 511.066 206.221 511.199 205.596 511.199ZM205.596 509.613C205.824 509.613 205.995 509.544 206.109 509.408C206.223 509.271 206.298 509.064 206.334 508.786C206.375 508.503 206.396 508.148 206.396 507.719V502.114C206.396 501.59 206.346 501.186 206.246 500.904C206.15 500.617 205.94 500.473 205.617 500.473C205.284 500.473 205.058 500.612 204.94 500.89C204.821 501.163 204.762 501.569 204.762 502.107V507.719C204.762 508.157 204.78 508.517 204.817 508.799C204.858 509.077 204.938 509.282 205.056 509.414C205.179 509.547 205.359 509.613 205.596 509.613ZM210.323 511.062V499.031H212.927C213.533 499.031 214.017 499.124 214.377 499.311C214.737 499.493 214.996 499.785 215.156 500.186C215.32 500.582 215.402 501.104 215.402 501.751V502.12C215.402 502.745 215.32 503.26 215.156 503.665C214.996 504.066 214.727 504.347 214.349 504.506C214.664 504.611 214.914 504.8 215.101 505.074C215.293 505.342 215.429 505.673 215.511 506.065C215.593 506.452 215.634 506.878 215.634 507.343V507.651C215.63 508.453 215.536 509.107 215.354 509.613C215.172 510.114 214.887 510.481 214.5 510.713C214.112 510.946 213.606 511.062 212.982 511.062H210.323ZM212.155 509.64H212.804C213.046 509.64 213.237 509.588 213.378 509.483C213.524 509.373 213.629 509.193 213.693 508.943C213.757 508.692 213.789 508.35 213.789 507.917V506.947C213.789 506.363 213.732 505.939 213.618 505.675C213.508 505.406 213.278 505.272 212.927 505.272H212.155V509.64ZM212.155 503.898H212.832C212.991 503.898 213.121 503.875 213.221 503.829C213.322 503.784 213.399 503.706 213.454 503.597C213.508 503.483 213.545 503.326 213.563 503.125C213.586 502.925 213.597 502.67 213.597 502.36V501.635C213.597 501.312 213.568 501.065 213.508 500.897C213.449 500.728 213.358 500.614 213.235 500.555C213.116 500.496 212.962 500.466 212.77 500.466H212.155V503.898ZM219.999 511.199C219.374 511.199 218.864 511.066 218.467 510.802C218.076 510.538 217.786 510.146 217.599 509.626C217.412 509.107 217.319 508.464 217.319 507.699V502.196C217.319 501.503 217.41 500.911 217.592 500.418C217.775 499.926 218.064 499.548 218.461 499.284C218.857 499.019 219.377 498.887 220.019 498.887C220.502 498.887 220.91 498.962 221.243 499.113C221.576 499.263 221.844 499.482 222.049 499.769C222.255 500.051 222.403 500.398 222.494 500.808C222.59 501.214 222.637 501.676 222.637 502.196V507.699C222.637 508.464 222.546 509.107 222.364 509.626C222.186 510.146 221.904 510.538 221.516 510.802C221.129 511.066 220.623 511.199 219.999 511.199ZM219.999 509.613C220.227 509.613 220.397 509.544 220.511 509.408C220.625 509.271 220.701 509.064 220.737 508.786C220.778 508.503 220.798 508.148 220.798 507.719V502.114C220.798 501.59 220.748 501.186 220.648 500.904C220.552 500.617 220.343 500.473 220.019 500.473C219.687 500.473 219.461 500.612 219.342 500.89C219.224 501.163 219.165 501.569 219.165 502.107V507.719C219.165 508.157 219.183 508.517 219.219 508.799C219.26 509.077 219.34 509.282 219.459 509.414C219.582 509.547 219.762 509.613 219.999 509.613ZM227.661 511.062V499.031H230.265C230.872 499.031 231.355 499.124 231.715 499.311C232.075 499.493 232.334 499.785 232.494 500.186C232.658 500.582 232.74 501.104 232.74 501.751V502.12C232.74 502.745 232.658 503.26 232.494 503.665C232.334 504.066 232.066 504.347 231.687 504.506C232.002 504.611 232.252 504.8 232.439 505.074C232.631 505.342 232.767 505.673 232.849 506.065C232.931 506.452 232.972 506.878 232.972 507.343V507.651C232.968 508.453 232.874 509.107 232.692 509.613C232.51 510.114 232.225 510.481 231.838 510.713C231.45 510.946 230.944 511.062 230.32 511.062H227.661ZM229.493 509.64H230.142C230.384 509.64 230.575 509.588 230.717 509.483C230.862 509.373 230.967 509.193 231.031 508.943C231.095 508.692 231.127 508.35 231.127 507.917V506.947C231.127 506.363 231.07 505.939 230.956 505.675C230.846 505.406 230.616 505.272 230.265 505.272H229.493V509.64ZM229.493 503.898H230.17C230.329 503.898 230.459 503.875 230.559 503.829C230.66 503.784 230.737 503.706 230.792 503.597C230.846 503.483 230.883 503.326 230.901 503.125C230.924 502.925 230.935 502.67 230.935 502.36V501.635C230.935 501.312 230.906 501.065 230.846 500.897C230.787 500.728 230.696 500.614 230.573 500.555C230.455 500.496 230.3 500.466 230.108 500.466H229.493V503.898ZM237.378 511.199C236.753 511.199 236.245 511.082 235.853 510.85C235.461 510.613 235.174 510.258 234.992 509.784C234.81 509.305 234.719 508.701 234.719 507.972V499.031H236.551V507.938C236.551 508.275 236.564 508.571 236.592 508.827C236.624 509.082 236.697 509.28 236.81 509.421C236.924 509.563 237.111 509.633 237.371 509.633C237.631 509.633 237.818 509.565 237.932 509.428C238.05 509.287 238.123 509.089 238.15 508.833C238.178 508.578 238.191 508.28 238.191 507.938V499.031H240.023V507.972C240.023 508.701 239.932 509.305 239.75 509.784C239.572 510.258 239.287 510.613 238.895 510.85C238.508 511.082 238.002 511.199 237.378 511.199ZM242.159 511.062V499.031H245.187C245.816 499.031 246.286 499.154 246.596 499.4C246.906 499.646 247.108 500.006 247.204 500.48C247.304 500.954 247.354 501.533 247.354 502.216C247.354 502.923 247.282 503.479 247.136 503.884C246.994 504.285 246.703 504.554 246.261 504.691C246.47 504.727 246.646 504.814 246.787 504.951C246.928 505.083 247.042 505.279 247.129 505.538C247.215 505.794 247.277 506.124 247.313 506.53C247.354 506.931 247.375 507.423 247.375 508.006C247.375 508.052 247.375 508.179 247.375 508.389C247.375 508.599 247.375 508.847 247.375 509.134C247.38 509.417 247.384 509.699 247.389 509.982C247.393 510.264 247.4 510.506 247.409 510.706C247.418 510.907 247.43 511.025 247.443 511.062H245.611C245.598 511.039 245.586 510.923 245.577 510.713C245.573 510.499 245.566 510.228 245.557 509.9C245.552 509.572 245.548 509.218 245.543 508.84C245.543 508.462 245.543 508.091 245.543 507.726C245.543 507.357 245.543 507.031 245.543 506.748C245.543 506.388 245.516 506.117 245.461 505.935C245.411 505.748 245.315 505.618 245.174 505.545C245.037 505.472 244.839 505.429 244.579 505.415L243.991 505.381V511.062H242.159ZM243.998 503.959H244.729C244.953 503.959 245.121 503.909 245.235 503.809C245.354 503.709 245.434 503.524 245.475 503.255C245.52 502.986 245.543 502.599 245.543 502.093V502.018C245.543 501.594 245.522 501.268 245.481 501.04C245.44 500.813 245.354 500.655 245.222 500.569C245.094 500.482 244.894 500.439 244.62 500.439H243.998V503.959ZM249.36 511.062V499.031H250.796L253.346 506.249L253.216 502.968V499.031H254.863V511.062H253.565L250.946 503.59L251.049 506.748V511.062H249.36Z" fill="#FF002E"/>
<rect x="190.071" y="133.794" width="128.929" height="69.846" rx="12.974" fill="#E3F6FF"/>
<path d="M222.493 176.951C222.493 175.132 222.784 173.579 223.366 172.293C223.949 170.983 224.992 169.539 226.496 167.962C227.976 166.385 228.995 165.038 229.553 163.922C230.136 162.806 230.427 161.641 230.427 160.428C230.427 159.336 230.245 158.584 229.881 158.172C229.541 157.735 229.032 157.517 228.352 157.517C226.969 157.517 226.278 158.354 226.278 160.028V162.757H222.493V160.283C222.493 158.22 223.002 156.643 224.021 155.551C225.04 154.435 226.52 153.877 228.461 153.877C230.402 153.877 231.883 154.435 232.902 155.551C233.921 156.643 234.43 158.22 234.43 160.283C234.43 161.835 234.054 163.352 233.302 164.832C232.574 166.312 231.3 168.01 229.48 169.927C228.292 171.189 227.491 172.22 227.078 173.021C226.666 173.797 226.46 174.634 226.46 175.532V176.078H234.066V179.717H222.493V176.951Z" fill="#194459"/>
<path d="M250.684 166.854C250.06 166.854 249.552 166.738 249.16 166.505C248.768 166.268 248.481 165.913 248.299 165.439C248.116 164.96 248.025 164.357 248.025 163.627V154.686H249.857V163.593C249.857 163.931 249.871 164.227 249.898 164.482C249.93 164.737 250.003 164.935 250.117 165.077C250.231 165.218 250.418 165.289 250.677 165.289C250.937 165.289 251.124 165.22 251.238 165.083C251.357 164.942 251.429 164.744 251.457 164.489C251.484 164.234 251.498 163.935 251.498 163.593V154.686H253.33V163.627C253.33 164.357 253.239 164.96 253.056 165.439C252.879 165.913 252.594 166.268 252.202 166.505C251.815 166.738 251.309 166.854 250.684 166.854ZM257.66 166.854C257.159 166.854 256.739 166.777 256.402 166.622C256.069 166.462 255.805 166.232 255.609 165.931C255.418 165.626 255.281 165.257 255.199 164.824C255.117 164.386 255.076 163.889 255.076 163.333V162.26H256.812V163.47C256.812 164.117 256.867 164.582 256.976 164.865C257.086 165.147 257.302 165.289 257.626 165.289C257.845 165.289 258.009 165.238 258.118 165.138C258.232 165.033 258.307 164.869 258.344 164.646C258.385 164.418 258.405 164.122 258.405 163.757C258.405 163.306 258.309 162.894 258.118 162.52C257.931 162.146 257.646 161.759 257.264 161.358L256.375 160.442C256.129 160.187 255.905 159.916 255.705 159.628C255.509 159.341 255.352 159.022 255.233 158.671C255.119 158.316 255.062 157.919 255.062 157.482C255.062 156.848 255.14 156.313 255.295 155.875C255.45 155.438 255.712 155.108 256.081 154.884C256.45 154.656 256.956 154.542 257.598 154.542C258.082 154.542 258.478 154.618 258.788 154.768C259.102 154.914 259.346 155.13 259.519 155.417C259.697 155.7 259.822 156.046 259.895 156.457C259.968 156.862 260.005 157.327 260.005 157.851V158.596H258.316V157.735C258.316 157.37 258.296 157.067 258.255 156.826C258.218 156.584 258.148 156.404 258.043 156.286C257.938 156.163 257.785 156.101 257.585 156.101C257.393 156.101 257.238 156.144 257.12 156.231C257.001 156.313 256.915 156.443 256.86 156.621C256.81 156.794 256.785 157.019 256.785 157.297C256.785 157.548 256.817 157.764 256.881 157.947C256.944 158.129 257.042 158.305 257.175 158.473C257.307 158.642 257.471 158.831 257.667 159.041L258.658 160.114C259.132 160.624 259.501 161.155 259.765 161.707C260.03 162.258 260.162 162.873 260.162 163.552C260.162 164.272 260.084 164.878 259.93 165.371C259.775 165.858 259.515 166.227 259.15 166.478C258.786 166.729 258.289 166.854 257.66 166.854ZM261.874 166.717V154.686H265.907V156.265H263.706V159.765H265.798V161.31H263.706V165.138H265.989V166.717H261.874ZM267.763 166.717V154.686H270.791C271.42 154.686 271.889 154.809 272.199 155.055C272.509 155.301 272.712 155.661 272.808 156.135C272.908 156.609 272.958 157.188 272.958 157.872C272.958 158.578 272.885 159.134 272.739 159.54C272.598 159.941 272.306 160.209 271.864 160.346C272.074 160.383 272.249 160.469 272.391 160.606C272.532 160.738 272.646 160.934 272.732 161.194C272.819 161.449 272.881 161.779 272.917 162.185C272.958 162.586 272.979 163.078 272.979 163.662C272.979 163.707 272.979 163.835 272.979 164.044C272.979 164.254 272.979 164.502 272.979 164.79C272.983 165.072 272.988 165.355 272.992 165.637C272.997 165.92 273.004 166.161 273.013 166.362C273.022 166.562 273.033 166.681 273.047 166.717H271.215C271.201 166.694 271.19 166.578 271.181 166.369C271.176 166.154 271.169 165.883 271.16 165.555C271.156 165.227 271.151 164.874 271.146 164.496C271.146 164.117 271.146 163.746 271.146 163.381C271.146 163.012 271.146 162.686 271.146 162.404C271.146 162.044 271.119 161.773 271.064 161.59C271.014 161.403 270.919 161.274 270.777 161.201C270.641 161.128 270.442 161.084 270.183 161.071L269.595 161.037V166.717H267.763ZM269.602 159.615H270.333C270.556 159.615 270.725 159.565 270.839 159.464C270.957 159.364 271.037 159.18 271.078 158.911C271.124 158.642 271.146 158.254 271.146 157.749V157.673C271.146 157.25 271.126 156.924 271.085 156.696C271.044 156.468 270.957 156.311 270.825 156.224C270.698 156.138 270.497 156.094 270.224 156.094H269.602V159.615ZM277.158 166.854C276.657 166.854 276.238 166.777 275.9 166.622C275.568 166.462 275.303 166.232 275.107 165.931C274.916 165.626 274.779 165.257 274.697 164.824C274.615 164.386 274.574 163.889 274.574 163.333V162.26H276.311V163.47C276.311 164.117 276.365 164.582 276.475 164.865C276.584 165.147 276.801 165.289 277.124 165.289C277.343 165.289 277.507 165.238 277.616 165.138C277.73 165.033 277.805 164.869 277.842 164.646C277.883 164.418 277.903 164.122 277.903 163.757C277.903 163.306 277.808 162.894 277.616 162.52C277.429 162.146 277.145 161.759 276.762 161.358L275.873 160.442C275.627 160.187 275.404 159.916 275.203 159.628C275.007 159.341 274.85 159.022 274.732 158.671C274.618 158.316 274.561 157.919 274.561 157.482C274.561 156.848 274.638 156.313 274.793 155.875C274.948 155.438 275.21 155.108 275.579 154.884C275.948 154.656 276.454 154.542 277.097 154.542C277.58 154.542 277.976 154.618 278.286 154.768C278.601 154.914 278.844 155.13 279.018 155.417C279.195 155.7 279.321 156.046 279.394 156.457C279.467 156.862 279.503 157.327 279.503 157.851V158.596H277.815V157.735C277.815 157.37 277.794 157.067 277.753 156.826C277.717 156.584 277.646 156.404 277.541 156.286C277.436 156.163 277.284 156.101 277.083 156.101C276.892 156.101 276.737 156.144 276.618 156.231C276.5 156.313 276.413 156.443 276.358 156.621C276.308 156.794 276.283 157.019 276.283 157.297C276.283 157.548 276.315 157.764 276.379 157.947C276.443 158.129 276.541 158.305 276.673 158.473C276.805 158.642 276.969 158.831 277.165 159.041L278.156 160.114C278.63 160.624 278.999 161.155 279.264 161.707C279.528 162.258 279.66 162.873 279.66 163.552C279.66 164.272 279.583 164.878 279.428 165.371C279.273 165.858 279.013 166.227 278.649 166.478C278.284 166.729 277.787 166.854 277.158 166.854ZM248.114 184.717V172.686H252.147V174.265H249.946V177.765H252.038V179.31H249.946V183.138H252.229V184.717H248.114ZM254.003 184.717V172.686H255.438L257.988 179.905L257.858 176.624V172.686H259.506V184.717H258.207L255.589 177.246L255.691 180.404V184.717H254.003ZM264 184.84C263.275 184.84 262.692 184.556 262.25 183.986C261.808 183.412 261.587 182.482 261.587 181.197V175.967C261.587 175.43 261.637 174.949 261.737 174.525C261.842 174.101 262.002 173.743 262.216 173.452C262.434 173.155 262.717 172.932 263.063 172.782C263.41 172.627 263.827 172.549 264.314 172.549C264.843 172.549 265.274 172.629 265.606 172.789C265.939 172.944 266.194 173.171 266.372 173.472C266.554 173.768 266.68 174.133 266.748 174.566C266.816 174.999 266.85 175.489 266.85 176.036V176.89H265.142V175.632C265.142 175.09 265.085 174.705 264.971 174.477C264.861 174.249 264.652 174.135 264.342 174.135C264 174.135 263.763 174.27 263.631 174.539C263.499 174.803 263.433 175.275 263.433 175.954V181.169C263.433 181.926 263.487 182.468 263.597 182.796C263.711 183.12 263.945 183.282 264.301 183.282C264.647 183.282 264.891 183.115 265.032 182.783C265.178 182.445 265.251 181.885 265.251 181.101V179.481H264.328V178.148H266.85V184.717H266.03L265.75 183.535C265.65 183.949 265.435 184.271 265.107 184.499C264.784 184.726 264.415 184.84 264 184.84ZM268.282 184.717L269.998 172.686H272.418L274.243 184.717H272.534L272.247 182.571H270.306L270.046 184.717H268.282ZM270.483 181.101H272.056L271.249 175.058H271.222L270.483 181.101ZM278.02 184.84C277.295 184.84 276.712 184.556 276.27 183.986C275.828 183.412 275.607 182.482 275.607 181.197V175.967C275.607 175.43 275.657 174.949 275.757 174.525C275.862 174.101 276.021 173.743 276.235 173.452C276.454 173.155 276.737 172.932 277.083 172.782C277.429 172.627 277.846 172.549 278.334 172.549C278.863 172.549 279.293 172.629 279.626 172.789C279.959 172.944 280.214 173.171 280.392 173.472C280.574 173.768 280.699 174.133 280.768 174.566C280.836 174.999 280.87 175.489 280.87 176.036V176.89H279.161V175.632C279.161 175.09 279.104 174.705 278.99 174.477C278.881 174.249 278.671 174.135 278.361 174.135C278.02 174.135 277.783 174.27 277.65 174.539C277.518 174.803 277.452 175.275 277.452 175.954V181.169C277.452 181.926 277.507 182.468 277.616 182.796C277.73 183.12 277.965 183.282 278.32 183.282C278.667 183.282 278.911 183.115 279.052 182.783C279.198 182.445 279.271 181.885 279.271 181.101V179.481H278.348V178.148H280.87V184.717H280.05L279.77 183.535C279.669 183.949 279.455 184.271 279.127 184.499C278.803 184.726 278.434 184.84 278.02 184.84ZM283.013 184.717V172.686H287.046V174.265H284.845V177.765H286.937V179.31H284.845V183.138H287.128V184.717H283.013Z" fill="#194459"/>
<path d="M255.146 132.524L259.827 124.415L250.464 124.415L255.146 132.524ZM254.335 108.657L254.335 125.226L255.957 125.226L255.957 108.657L254.335 108.657Z" fill="#194459"/>
<path d="M180.539 338.33L185.221 330.221L175.858 330.221L180.539 338.33ZM179.728 314.463L179.728 331.032L181.35 331.032L181.35 314.463L179.728 314.463Z" fill="#194459"/>
<path d="M255.146 223.232V224.043H255.957V223.232H255.146ZM180.341 223.232V222.421H179.53V223.232H180.341ZM180.341 242.951L185.022 234.842H175.659L180.341 242.951ZM254.335 203.767V223.232H255.957V203.767H254.335ZM255.146 222.421H180.341V224.043H255.146V222.421ZM179.53 223.232V235.653H181.151V223.232H179.53Z" fill="#194459"/>
<path d="M13.0207 233L13.0207 220.969H15.2971L17.0061 229.76L18.6125 220.969H20.9025V233H19.2687V228.516L19.3371 224.401L17.717 232.946H16.2609L14.5725 224.401L14.6408 228.516V233H13.0207ZM25.7044 233.137C25.08 233.137 24.5719 233.021 24.18 232.788C23.788 232.551 23.5009 232.196 23.3186 231.722C23.1363 231.243 23.0452 230.64 23.0452 229.91V220.969H24.8772V229.876C24.8772 230.213 24.8909 230.51 24.9182 230.765C24.9501 231.02 25.0231 231.218 25.137 231.36C25.2509 231.501 25.4378 231.572 25.6975 231.572C25.9573 231.572 26.1442 231.503 26.2581 231.366C26.3766 231.225 26.4495 231.027 26.4768 230.772C26.5042 230.517 26.5179 230.218 26.5179 229.876V220.969H28.3499V229.91C28.3499 230.64 28.2587 231.243 28.0764 231.722C27.8987 232.196 27.6139 232.551 27.222 232.788C26.8346 233.021 26.3287 233.137 25.7044 233.137ZM30.4857 233V220.969H32.3177V231.442H34.6351V233H30.4857ZM36.4702 233V222.555H35.062V220.969H39.6489V222.555H38.2953V233H36.4702ZM41.1421 233V220.969H42.9741V233H41.1421ZM45.2398 233V220.969H48.0016C48.4801 220.969 48.8766 221.042 49.191 221.188C49.51 221.334 49.7607 221.55 49.943 221.837C50.1253 222.124 50.2551 222.48 50.3326 222.904C50.4101 223.323 50.4488 223.808 50.4488 224.36V224.613C50.4488 225.387 50.3805 226.048 50.2437 226.595C50.1116 227.137 49.8723 227.55 49.526 227.832C49.1796 228.115 48.692 228.256 48.0631 228.256H47.0719V233H45.2398ZM47.0719 226.745H47.7008C47.9697 226.745 48.1702 226.677 48.3023 226.54C48.4345 226.404 48.5211 226.178 48.5621 225.864C48.6077 225.545 48.6305 225.121 48.6305 224.592V224.36C48.6259 223.708 48.5689 223.216 48.4596 222.883C48.3502 222.546 48.1018 222.377 47.7145 222.377H47.0719V226.745ZM52.113 233V220.969H53.945V231.442H56.2624V233H52.113ZM57.7146 233V220.969H59.5466V233H57.7146ZM61.8123 233V220.969H65.8455V222.548H63.6444V226.048H65.7362V227.593H63.6444V231.421H65.9276V233H61.8123ZM67.7011 233V220.969H70.7294C71.3583 220.969 71.8277 221.092 72.1376 221.338C72.4475 221.584 72.6503 221.944 72.746 222.418C72.8463 222.892 72.8964 223.471 72.8964 224.155C72.8964 224.861 72.8235 225.417 72.6777 225.823C72.5364 226.224 72.2447 226.492 71.8027 226.629C72.0123 226.666 72.1877 226.752 72.329 226.889C72.4703 227.021 72.5842 227.217 72.6708 227.477C72.7574 227.732 72.8189 228.062 72.8554 228.468C72.8964 228.869 72.9169 229.361 72.9169 229.945C72.9169 229.99 72.9169 230.118 72.9169 230.327C72.9169 230.537 72.9169 230.785 72.9169 231.073C72.9215 231.355 72.926 231.638 72.9306 231.92C72.9351 232.203 72.942 232.444 72.9511 232.645C72.9602 232.845 72.9716 232.964 72.9853 233H71.1532C71.1396 232.977 71.1282 232.861 71.1191 232.652C71.1145 232.437 71.1077 232.166 71.0986 231.838C71.094 231.51 71.0894 231.157 71.0849 230.779C71.0849 230.4 71.0849 230.029 71.0849 229.664C71.0849 229.295 71.0849 228.969 71.0849 228.687C71.0849 228.327 71.0575 228.056 71.0029 227.873C70.9527 227.686 70.857 227.557 70.7157 227.484C70.579 227.411 70.3808 227.367 70.121 227.354L69.5331 227.32V233H67.7011ZM69.54 225.898H70.2714C70.4947 225.898 70.6633 225.848 70.7773 225.747C70.8958 225.647 70.9755 225.462 71.0165 225.194C71.0621 224.925 71.0849 224.537 71.0849 224.031V223.956C71.0849 223.532 71.0644 223.207 71.0234 222.979C70.9823 222.751 70.8958 222.594 70.7636 222.507C70.636 222.42 70.4355 222.377 70.162 222.377H69.54V225.898Z" fill="#FF002E"/>
<path d="M41.8044 251L41.8044 238.969H44.4089C45.015 238.969 45.4981 239.062 45.8581 239.249C46.2181 239.432 46.4779 239.723 46.6374 240.124C46.8014 240.521 46.8835 241.043 46.8835 241.69V242.059C46.8835 242.683 46.8014 243.198 46.6374 243.604C46.4779 244.005 46.209 244.285 45.8307 244.445C46.1452 244.549 46.3958 244.739 46.5827 245.012C46.7741 245.281 46.9108 245.611 46.9929 246.003C47.0749 246.391 47.1159 246.817 47.1159 247.281V247.589C47.1113 248.391 47.0179 249.045 46.8356 249.551C46.6533 250.052 46.3685 250.419 45.9811 250.652C45.5938 250.884 45.0879 251 44.4636 251H41.8044ZM43.6364 249.578H44.2858C44.5274 249.578 44.7188 249.526 44.86 249.421C45.0059 249.312 45.1107 249.132 45.1745 248.881C45.2383 248.63 45.2702 248.289 45.2702 247.856V246.885C45.2702 246.302 45.2132 245.878 45.0993 245.614C44.9899 245.345 44.7598 245.21 44.4089 245.21H43.6364V249.578ZM43.6364 243.836H44.3132C44.4727 243.836 44.6026 243.813 44.7028 243.768C44.8031 243.722 44.8805 243.645 44.9352 243.535C44.9899 243.421 45.0264 243.264 45.0446 243.064C45.0674 242.863 45.0788 242.608 45.0788 242.298V241.573C45.0788 241.25 45.0492 241.004 44.9899 240.835C44.9307 240.667 44.8395 240.553 44.7165 240.493C44.598 240.434 44.443 240.405 44.2516 240.405H43.6364V243.836ZM48.24 251L49.9558 238.969H52.3757L54.2009 251H52.492L52.2048 248.854H50.2634L50.0037 251H48.24ZM50.4412 247.384H52.0134L51.2068 241.341H51.1795L50.4412 247.384ZM57.909 251.137C57.4077 251.137 56.9885 251.059 56.6512 250.905C56.3185 250.745 56.0542 250.515 55.8582 250.214C55.6668 249.909 55.5301 249.54 55.4481 249.107C55.3661 248.669 55.325 248.172 55.325 247.616V246.543H57.0614V247.753C57.0614 248.4 57.1161 248.865 57.2254 249.148C57.3348 249.43 57.5513 249.572 57.8748 249.572C58.0936 249.572 58.2577 249.521 58.367 249.421C58.481 249.316 58.5562 249.152 58.5926 248.929C58.6336 248.701 58.6541 248.405 58.6541 248.04C58.6541 247.589 58.5584 247.177 58.367 246.803C58.1802 246.429 57.8954 246.042 57.5125 245.641L56.6239 244.725C56.3778 244.47 56.1545 244.198 55.9539 243.911C55.758 243.624 55.6008 243.305 55.4823 242.954C55.3683 242.599 55.3114 242.202 55.3114 241.765C55.3114 241.131 55.3888 240.596 55.5438 240.158C55.6987 239.721 55.9608 239.391 56.3299 239.167C56.6991 238.939 57.2049 238.825 57.8475 238.825C58.3306 238.825 58.7271 238.901 59.037 239.051C59.3514 239.197 59.5952 239.413 59.7684 239.7C59.9461 239.983 60.0715 240.329 60.1444 240.74C60.2173 241.145 60.2537 241.61 60.2537 242.134V242.879H58.5653V242.018C58.5653 241.653 58.5448 241.35 58.5037 241.109C58.4673 240.867 58.3967 240.687 58.2918 240.569C58.187 240.446 58.0343 240.384 57.8338 240.384C57.6424 240.384 57.4875 240.427 57.369 240.514C57.2505 240.596 57.1639 240.726 57.1092 240.904C57.0591 241.077 57.034 241.302 57.034 241.58C57.034 241.831 57.0659 242.047 57.1297 242.23C57.1935 242.412 57.2915 242.587 57.4237 242.756C57.5558 242.925 57.7199 243.114 57.9159 243.323L58.9071 244.397C59.381 244.907 59.7502 245.438 60.0145 245.99C60.2788 246.541 60.411 247.156 60.411 247.835C60.411 248.555 60.3335 249.161 60.1786 249.654C60.0236 250.141 59.7638 250.51 59.3993 250.761C59.0347 251.012 58.5379 251.137 57.909 251.137ZM62.123 251L62.123 238.969H66.1562V240.548H63.955V244.048H66.0468V245.593H63.955V249.421H66.2382V251H62.123ZM68.0117 251V238.969H70.7119C71.3226 238.969 71.8125 239.092 72.1816 239.338C72.5508 239.58 72.8174 239.931 72.9814 240.391C73.1501 240.851 73.2344 241.407 73.2344 242.059L73.2412 247.487C73.2412 248.275 73.1546 248.931 72.9814 249.455C72.8128 249.975 72.5394 250.362 72.1611 250.617C71.7829 250.873 71.2793 251 70.6504 251H68.0117ZM69.8438 249.578H70.4453C70.6595 249.578 70.8372 249.535 70.9785 249.448C71.1243 249.362 71.2314 249.209 71.2998 248.99C71.3727 248.767 71.4092 248.453 71.4092 248.047L71.4023 242.107C71.4023 241.491 71.3271 241.049 71.1768 240.781C71.0264 240.512 70.762 240.377 70.3838 240.377H69.8438V249.578ZM21.0833 269.137C20.4589 269.137 19.9485 269.005 19.552 268.74C19.1601 268.476 18.8707 268.084 18.6839 267.565C18.497 267.045 18.4036 266.403 18.4036 265.637V260.134C18.4036 259.441 18.4947 258.849 18.677 258.357C18.8593 257.865 19.1487 257.486 19.5452 257.222C19.9417 256.958 20.4612 256.825 21.1038 256.825C21.5869 256.825 21.9947 256.901 22.3274 257.051C22.6601 257.201 22.929 257.42 23.1341 257.707C23.3391 257.99 23.4873 258.336 23.5784 258.746C23.6741 259.152 23.722 259.615 23.722 260.134V265.637C23.722 266.403 23.6308 267.045 23.4485 267.565C23.2708 268.084 22.9882 268.476 22.6009 268.74C22.2135 269.005 21.7076 269.137 21.0833 269.137ZM21.0833 267.551C21.3111 267.551 21.482 267.483 21.596 267.346C21.7099 267.209 21.7851 267.002 21.8216 266.724C21.8626 266.441 21.8831 266.086 21.8831 265.657V260.052C21.8831 259.528 21.833 259.125 21.7327 258.842C21.637 258.555 21.4274 258.411 21.1038 258.411C20.7711 258.411 20.5455 258.55 20.427 258.828C20.3085 259.102 20.2493 259.507 20.2493 260.045V265.657C20.2493 266.095 20.2675 266.455 20.304 266.738C20.345 267.016 20.4248 267.221 20.5432 267.353C20.6663 267.485 20.8463 267.551 21.0833 267.551ZM25.8099 269V256.969H27.2455L29.7953 264.188L29.6654 260.906V256.969H31.3129V269H30.014L27.3959 261.529L27.4984 264.687V269H25.8099ZM38.6743 269.137C38.173 269.137 37.7538 269.059 37.4165 268.905C37.0838 268.745 36.8195 268.515 36.6236 268.214C36.4322 267.909 36.2954 267.54 36.2134 267.107C36.1314 266.669 36.0904 266.172 36.0904 265.616V264.543H37.8267V265.753C37.8267 266.4 37.8814 266.865 37.9907 267.148C38.1001 267.43 38.3166 267.572 38.6402 267.572C38.8589 267.572 39.023 267.521 39.1323 267.421C39.2463 267.316 39.3215 267.152 39.3579 266.929C39.3989 266.701 39.4195 266.405 39.4195 266.04C39.4195 265.589 39.3238 265.177 39.1323 264.803C38.9455 264.429 38.6607 264.042 38.2779 263.641L37.3892 262.725C37.1431 262.47 36.9198 262.198 36.7193 261.911C36.5233 261.624 36.3661 261.305 36.2476 260.954C36.1336 260.599 36.0767 260.202 36.0767 259.765C36.0767 259.131 36.1542 258.596 36.3091 258.158C36.4641 257.721 36.7261 257.391 37.0952 257.167C37.4644 256.939 37.9702 256.825 38.6128 256.825C39.0959 256.825 39.4924 256.901 39.8023 257.051C40.1167 257.197 40.3605 257.413 40.5337 257.7C40.7114 257.983 40.8368 258.329 40.9097 258.74C40.9826 259.145 41.0191 259.61 41.0191 260.134V260.879H39.3306V260.018C39.3306 259.653 39.3101 259.35 39.2691 259.109C39.2326 258.867 39.162 258.687 39.0572 258.569C38.9523 258.446 38.7997 258.384 38.5991 258.384C38.4077 258.384 38.2528 258.427 38.1343 258.514C38.0158 258.596 37.9292 258.726 37.8745 258.904C37.8244 259.077 37.7993 259.302 37.7993 259.58C37.7993 259.831 37.8312 260.047 37.895 260.23C37.9588 260.412 38.0568 260.587 38.189 260.756C38.3211 260.925 38.4852 261.114 38.6812 261.323L39.6724 262.397C40.1463 262.907 40.5155 263.438 40.7798 263.99C41.0441 264.541 41.1763 265.156 41.1763 265.835C41.1763 266.555 41.0988 267.161 40.9439 267.654C40.7889 268.141 40.5292 268.51 40.1646 268.761C39.8 269.012 39.3032 269.137 38.6743 269.137ZM43.5172 269V258.555H42.109V256.969H46.6959V258.555H45.3424V269H43.5172ZM47.0954 269L48.8112 256.969H51.2311L53.0563 269H51.3473L51.0602 266.854H49.1188L48.8591 269H47.0954ZM49.2966 265.384H50.8688L50.0622 259.341H50.0348L49.2966 265.384ZM54.5701 269V256.969H56.4021V262.506L58.2341 256.969H60.1277L58.1316 262.903L60.2849 269H58.3504L56.4158 263.381V269H54.5701ZM61.703 269V256.969H65.7362V258.548H63.535V262.048H65.6268V263.593H63.535V267.421H65.8182V269H61.703ZM67.5917 269L67.5917 256.969H70.2919C70.9026 256.969 71.3925 257.092 71.7616 257.338C72.1308 257.58 72.3974 257.931 72.5614 258.391C72.7301 258.851 72.8144 259.407 72.8144 260.059L72.8212 265.487C72.8212 266.275 72.7346 266.931 72.5614 267.455C72.3928 267.975 72.1194 268.362 71.7411 268.617C71.3629 268.873 70.8593 269 70.2304 269H67.5917ZM69.4238 267.578H70.0253C70.2395 267.578 70.4172 267.535 70.5585 267.448C70.7044 267.362 70.8114 267.209 70.8798 266.99C70.9527 266.767 70.9892 266.453 70.9892 266.047L70.9823 260.107C70.9823 259.491 70.9072 259.049 70.7568 258.781C70.6064 258.512 70.342 258.377 69.9638 258.377H69.4238L69.4238 267.578ZM44.3405 287L42.4743 274.969H44.2175L45.0036 280.404L45.4889 284.232H45.5368L45.9538 280.404L46.61 274.969H48.319L46.6032 287H44.3405ZM49.0466 287L50.7625 274.969H53.1824L55.0076 287H53.2986L53.0115 284.854H51.0701L50.8103 287H49.0466ZM51.2478 283.384H52.8201L52.0134 277.341H51.9861L51.2478 283.384ZM56.5213 287V274.969H58.3534V285.442H60.6707V287H56.5213ZM64.6523 287.137C64.0279 287.137 63.5198 287.021 63.1279 286.788C62.7359 286.551 62.4488 286.196 62.2665 285.722C62.0842 285.243 61.9931 284.64 61.9931 283.91V274.969H63.8251V283.876C63.8251 284.213 63.8388 284.51 63.8661 284.765C63.898 285.02 63.971 285.218 64.0849 285.36C64.1988 285.501 64.3857 285.572 64.6454 285.572C64.9052 285.572 65.092 285.503 65.206 285.366C65.3245 285.225 65.3974 285.027 65.4247 284.772C65.4521 284.517 65.4657 284.218 65.4657 283.876V274.969H67.2978V283.91C67.2978 284.64 67.2066 285.243 67.0243 285.722C66.8466 286.196 66.5618 286.551 66.1698 286.788C65.7825 287.021 65.2766 287.137 64.6523 287.137ZM69.4336 287V274.969H73.4668V276.548H71.2656V280.048H73.3574V281.593H71.2656V285.421H73.5488V287H69.4336Z" fill="#55636A"/>
<rect x="22.22" width="146.487" height="64.87" rx="12.974" fill="#FFE6EA"/>
<path fill-rule="evenodd" clip-rule="evenodd" d="M63.2726 45.351C69.7529 44.614 74.7874 39.1124 74.7874 32.4349C74.7874 25.2552 68.9671 19.4349 61.7874 19.4349C54.6077 19.4349 48.7874 25.2552 48.7874 32.4349C48.7874 39.6146 54.6077 45.4349 61.7874 45.4349C61.9385 45.4349 62.0891 45.4324 62.239 45.4272C62.1584 44.4659 61.8164 43.4717 61.2483 42.0202L60.9331 42.1818L60.6042 42.3262C60.112 42.3344 60.1449 41.8593 60.3499 41.5275L61.0225 40.4441C57.9117 39.9914 55.5043 35.6188 55.5043 31.7972C55.5043 27.6663 58.3157 24.3197 61.7792 24.3197H61.7956C62.7579 24.3197 63.669 24.5772 64.4834 25.0373C63.9381 25.1916 63.489 25.6263 63.3443 26.2155C63.1301 27.088 63.6644 27.9689 64.5377 28.183C64.7514 28.2353 64.9655 28.243 65.1703 28.2118C65.1717 28.9422 65.669 29.6053 66.411 29.7871C66.9022 29.9075 67.3961 29.7913 67.7723 29.5114C67.966 30.2318 68.0705 30.9999 68.0705 31.7972C68.0705 35.6107 65.6774 39.9771 62.581 40.4441L63.1839 41.4886C63.4007 41.7798 63.5044 42.2233 62.9071 42.1404L62.6251 42.0534L62.2975 41.9373C62.8664 43.3738 63.1979 44.3799 63.2726 45.351Z" fill="#FF002E"/>
<path d="M89.3047 39.558C88.5801 39.558 87.9967 39.2732 87.5547 38.7035C87.1126 38.1293 86.8916 37.1996 86.8916 35.9144V30.6849C86.8916 30.1472 86.9417 29.6664 87.042 29.2426C87.1468 28.8187 87.3063 28.461 87.5205 28.1693C87.7393 27.8731 88.0218 27.6498 88.3682 27.4994C88.7145 27.3444 89.1315 27.267 89.6191 27.267C90.1478 27.267 90.5785 27.3467 90.9111 27.5062C91.2438 27.6612 91.499 27.889 91.6768 28.1898C91.859 28.486 91.9844 28.8506 92.0527 29.2836C92.1211 29.7165 92.1553 30.2064 92.1553 30.7533V31.6078H90.4463V30.35C90.4463 29.8077 90.3893 29.4226 90.2754 29.1947C90.166 28.9668 89.9564 28.8529 89.6465 28.8529C89.3047 28.8529 89.0677 28.9873 88.9355 29.2562C88.8034 29.5205 88.7373 29.9922 88.7373 30.6713V35.8871C88.7373 36.6436 88.792 37.1859 88.9014 37.514C89.0153 37.8376 89.25 37.9994 89.6055 37.9994C89.9518 37.9994 90.1956 37.833 90.3369 37.5004C90.4827 37.1631 90.5557 36.6026 90.5557 35.8187V34.1986H89.6328V32.8656H92.1553V39.4349H91.335L91.0547 38.2523C90.9544 38.667 90.7402 38.9883 90.4121 39.2162C90.0885 39.4441 89.7194 39.558 89.3047 39.558ZM94.2979 39.4349V27.4037H98.3311V28.9828H96.13V32.4828H98.2218V34.0277H96.13V37.8558H98.4132V39.4349H94.2979ZM100.816 39.4349V28.9896H99.4074V27.4037H103.994V28.9896H102.641V39.4349H100.816ZM110.248 40.9388V39.0726H111.233V40.9388H110.248ZM110.187 29.1537V27.4037H111.171V29.1537H110.187ZM110.501 39.4144C109.676 39.4144 109.063 39.1797 108.662 38.7103C108.261 38.2409 108.061 37.473 108.061 36.4066V35.7435H109.763V36.5707C109.763 37.0173 109.818 37.3568 109.927 37.5892C110.036 37.8217 110.214 37.9379 110.46 37.9379C110.697 37.9379 110.873 37.8581 110.987 37.6986C111.101 37.5391 111.158 37.2634 111.158 36.8715C111.158 36.6436 111.123 36.4226 111.055 36.2084C110.991 35.9942 110.889 35.7845 110.747 35.5795C110.611 35.3698 110.433 35.167 110.214 34.9711L109.291 34.1371C108.868 33.7543 108.551 33.3418 108.341 32.8998C108.131 32.4532 108.027 31.961 108.027 31.4232C108.027 30.5528 108.229 29.917 108.635 29.516C109.045 29.1104 109.651 28.9076 110.453 28.9076C110.973 28.9076 111.404 29.0056 111.745 29.2015C112.087 29.3929 112.342 29.7051 112.511 30.1381C112.68 30.571 112.764 31.1521 112.764 31.8812V32.4418H111.144V31.765C111.144 31.3138 111.091 30.972 110.987 30.7396C110.886 30.5072 110.713 30.391 110.467 30.391C110.226 30.391 110.048 30.4594 109.934 30.5961C109.82 30.7282 109.758 30.9629 109.749 31.3002C109.745 31.4825 109.768 31.6625 109.818 31.8402C109.868 32.0134 109.945 32.1843 110.05 32.3529C110.159 32.517 110.301 32.6788 110.474 32.8383L111.445 33.7201C111.955 34.1804 112.331 34.6612 112.573 35.1625C112.819 35.6638 112.942 36.2061 112.942 36.7894C112.942 37.6508 112.746 38.3047 112.354 38.7513C111.962 39.1934 111.344 39.4144 110.501 39.4144ZM114.968 39.4349V27.4037H119.001V28.9828H116.8V32.4828H118.892V34.0277H116.8V37.8558H119.083V39.4349H114.968ZM123.386 39.5717C122.762 39.5717 122.251 39.4395 121.855 39.1752C121.463 38.9108 121.174 38.5189 120.987 37.9994C120.8 37.4799 120.707 36.8373 120.707 36.0717V30.5687C120.707 29.876 120.798 29.2836 120.98 28.7914C121.162 28.2992 121.452 27.9209 121.848 27.6566C122.245 27.3923 122.764 27.2601 123.407 27.2601C123.89 27.2601 124.298 27.3353 124.63 27.4857C124.963 27.6361 125.232 27.8549 125.437 28.142C125.642 28.4245 125.79 28.7709 125.881 29.181C125.977 29.5866 126.025 30.0492 126.025 30.5687V36.0717C126.025 36.8373 125.934 37.4799 125.751 37.9994C125.574 38.5189 125.291 38.9108 124.904 39.1752C124.516 39.4395 124.011 39.5717 123.386 39.5717ZM123.386 37.9857C123.614 37.9857 123.785 37.9174 123.899 37.7806C124.013 37.6439 124.088 37.4366 124.124 37.1586C124.166 36.876 124.186 36.5205 124.186 36.0922V30.4867C124.186 29.9626 124.136 29.5593 124.036 29.2767C123.94 28.9896 123.73 28.8461 123.407 28.8461C123.074 28.8461 122.848 28.9851 122.73 29.2631C122.611 29.5365 122.552 29.9421 122.552 30.4799V36.0922C122.552 36.5297 122.57 36.8897 122.607 37.1722C122.648 37.4502 122.728 37.6553 122.846 37.7875C122.969 37.9196 123.149 37.9857 123.386 37.9857ZM128.113 39.4349V27.4037H130.717C131.323 27.4037 131.807 27.4971 132.167 27.684C132.527 27.8663 132.786 28.1579 132.946 28.559C133.11 28.9554 133.192 29.4773 133.192 30.1244V30.4935C133.192 31.1179 133.11 31.6329 132.946 32.0385C132.786 32.4395 132.517 32.7198 132.139 32.8793C132.454 32.9841 132.704 33.1732 132.891 33.4467C133.083 33.7155 133.219 34.0459 133.301 34.4379C133.383 34.8252 133.424 35.2513 133.424 35.7162V36.0238C133.42 36.8259 133.326 37.4799 133.144 37.9857C132.962 38.487 132.677 38.8539 132.29 39.0863C131.902 39.3187 131.396 39.4349 130.772 39.4349H128.113ZM129.945 38.0131H130.594C130.836 38.0131 131.027 37.9607 131.169 37.8558C131.314 37.7465 131.419 37.5664 131.483 37.3158C131.547 37.0651 131.579 36.7233 131.579 36.2904V35.3197C131.579 34.7364 131.522 34.3125 131.408 34.0482C131.298 33.7793 131.068 33.6449 130.717 33.6449H129.945V38.0131ZM129.945 32.2709H130.622C130.781 32.2709 130.911 32.2481 131.011 32.2025C131.112 32.1569 131.189 32.0795 131.244 31.9701C131.298 31.8562 131.335 31.6989 131.353 31.4984C131.376 31.2979 131.387 31.0427 131.387 30.7328V30.0082C131.387 29.6846 131.358 29.4385 131.298 29.2699C131.239 29.1013 131.148 28.9873 131.025 28.9281C130.906 28.8689 130.752 28.8392 130.56 28.8392H129.945V32.2709ZM137.789 39.5717C137.164 39.5717 136.654 39.4395 136.257 39.1752C135.866 38.9108 135.576 38.5189 135.389 37.9994C135.202 37.4799 135.109 36.8373 135.109 36.0717V30.5687C135.109 29.876 135.2 29.2836 135.382 28.7914C135.565 28.2992 135.854 27.9209 136.251 27.6566C136.647 27.3923 137.167 27.2601 137.809 27.2601C138.292 27.2601 138.7 27.3353 139.033 27.4857C139.366 27.6361 139.634 27.8549 139.839 28.142C140.045 28.4245 140.193 28.7709 140.284 29.181C140.38 29.5866 140.427 30.0492 140.427 30.5687V36.0717C140.427 36.8373 140.336 37.4799 140.154 37.9994C139.976 38.5189 139.694 38.9108 139.306 39.1752C138.919 39.4395 138.413 39.5717 137.789 39.5717ZM137.789 37.9857C138.017 37.9857 138.187 37.9174 138.301 37.7806C138.415 37.6439 138.491 37.4366 138.527 37.1586C138.568 36.876 138.589 36.5205 138.589 36.0922V30.4867C138.589 29.9626 138.538 29.5593 138.438 29.2767C138.342 28.9896 138.133 28.8461 137.809 28.8461C137.477 28.8461 137.251 28.9851 137.132 29.2631C137.014 29.5365 136.955 29.9421 136.955 30.4799V36.0922C136.955 36.5297 136.973 36.8897 137.009 37.1722C137.05 37.4502 137.13 37.6553 137.249 37.7875C137.372 37.9196 137.552 37.9857 137.789 37.9857Z" fill="#FF002E"/>
<rect x="22.22" y="88.3854" width="145.957" height="64.87" rx="12.974" fill="#FFE6EA"/>
<path d="M78.1944 123.718L71.5344 130.991C70.7235 131.875 69.7376 132.581 68.6393 133.064C67.541 133.546 66.3543 133.795 65.1546 133.794H61.4683C60.5507 133.794 59.6707 133.43 59.0219 132.781C58.3731 132.132 58.0085 131.252 58.0085 130.335V126.01C58.0085 125.092 58.3731 124.212 59.0219 123.564C59.6707 122.915 60.5507 122.55 61.4683 122.55H68.2035C68.4894 122.551 68.7716 122.615 69.0294 122.739C69.2872 122.863 69.5141 123.042 69.6935 123.265C69.8729 123.487 70.0003 123.747 70.0663 124.026C70.1324 124.304 70.1354 124.593 70.0752 124.873C69.9816 125.264 69.7707 125.617 69.4708 125.884C69.1709 126.152 68.7963 126.322 68.3973 126.371L64.7965 126.875C64.5696 126.908 64.3649 127.029 64.2273 127.212C64.0898 127.396 64.0307 127.626 64.0631 127.853C64.0954 128.08 64.2167 128.285 64.4001 128.423C64.5836 128.561 64.8142 128.62 65.0413 128.588L68.719 128.069C69.5852 127.941 70.3771 127.507 70.951 126.846C71.5249 126.185 71.843 125.34 71.8475 124.464C71.8432 124.279 71.8244 124.095 71.7913 123.913L74.8548 120.68C75.2588 120.243 75.8195 119.983 76.4144 119.958C77.0093 119.932 77.5901 120.143 78.03 120.545C78.4677 120.946 78.7301 121.503 78.7609 122.095C78.7916 122.688 78.5882 123.269 78.1944 123.714V123.718Z" fill="#FF002E"/>
<path d="M74.2083 115.269C74.1038 115.142 73.9697 115.043 73.8179 114.98C73.666 114.917 73.501 114.892 73.3373 114.907C72.3956 114.963 71.4861 115.271 70.704 115.799C69.922 116.327 69.2962 117.056 68.8923 117.91V114.86C69.5974 114.74 70.2373 114.374 70.699 113.827C71.1607 113.28 71.4144 112.588 71.4153 111.871C71.4153 110.46 70.4349 109.268 69.4756 108.289C69.4201 108.232 69.36 108.179 69.296 108.132C68.7165 109.288 68.406 110.561 68.3877 111.854C68.3899 111.921 68.3791 111.987 68.3559 112.049C68.3326 112.111 68.2973 112.168 68.252 112.216C68.2068 112.265 68.1524 112.304 68.092 112.332C68.0317 112.359 67.9665 112.374 67.9003 112.377C67.834 112.379 67.7679 112.368 67.7058 112.345C67.6438 112.321 67.5869 112.286 67.5384 112.241C67.49 112.195 67.4509 112.141 67.4235 112.081C67.396 112.02 67.3807 111.955 67.3785 111.889C67.3838 110.488 67.7021 109.107 68.31 107.846C67.9301 107.862 67.5699 108.019 67.3008 108.288C66.3405 109.268 65.3601 110.46 65.3601 111.871C65.361 112.588 65.6147 113.28 66.0764 113.827C66.5381 114.374 67.178 114.74 67.8831 114.86V117.91C67.4793 117.056 66.8536 116.327 66.0715 115.799C65.2895 115.271 64.3799 114.963 63.4381 114.907C63.2744 114.892 63.1094 114.917 62.9576 114.98C62.8058 115.043 62.6717 115.142 62.5671 115.269C62.4632 115.393 62.3909 115.54 62.3563 115.697C62.3218 115.855 62.3261 116.019 62.3688 116.175C63.3977 119.882 68.1813 119.955 68.3847 119.955H68.3907C68.5926 119.955 73.3782 119.882 74.4071 116.175C74.4496 116.019 74.4537 115.855 74.4191 115.697C74.3844 115.54 74.3121 115.393 74.2083 115.269Z" fill="#FF002E"/>
<path d="M94.9456 127.957C94.4443 127.957 94.025 127.88 93.6877 127.725C93.3551 127.565 93.0907 127.335 92.8948 127.034C92.7034 126.729 92.5667 126.36 92.4846 125.927C92.4026 125.489 92.3616 124.993 92.3616 124.437V123.363H94.0979V124.573C94.0979 125.22 94.1526 125.685 94.262 125.968C94.3713 126.25 94.5878 126.392 94.9114 126.392C95.1301 126.392 95.2942 126.342 95.4036 126.241C95.5175 126.137 95.5927 125.972 95.6292 125.749C95.6702 125.521 95.6907 125.225 95.6907 124.86C95.6907 124.409 95.595 123.997 95.4036 123.623C95.2167 123.249 94.9319 122.862 94.5491 122.461L93.6604 121.545C93.4143 121.29 93.191 121.019 92.9905 120.732C92.7945 120.444 92.6373 120.125 92.5188 119.775C92.4049 119.419 92.3479 119.023 92.3479 118.585C92.3479 117.952 92.4254 117.416 92.5803 116.979C92.7353 116.541 92.9973 116.211 93.3665 115.987C93.7356 115.76 94.2415 115.646 94.884 115.646C95.3671 115.646 95.7636 115.721 96.0735 115.871C96.3879 116.017 96.6318 116.234 96.8049 116.521C96.9827 116.803 97.108 117.15 97.1809 117.56C97.2538 117.965 97.2903 118.43 97.2903 118.954V119.699H95.6018V118.838C95.6018 118.473 95.5813 118.17 95.5403 117.929C95.5038 117.687 95.4332 117.507 95.3284 117.389C95.2236 117.266 95.0709 117.204 94.8704 117.204C94.679 117.204 94.524 117.248 94.4055 117.334C94.287 117.416 94.2004 117.546 94.1458 117.724C94.0956 117.897 94.0706 118.123 94.0706 118.401C94.0706 118.651 94.1025 118.868 94.1663 119.05C94.2301 119.232 94.328 119.408 94.4602 119.576C94.5924 119.745 94.7564 119.934 94.9524 120.144L95.9436 121.217C96.4176 121.727 96.7867 122.258 97.051 122.81C97.3153 123.361 97.4475 123.976 97.4475 124.655C97.4475 125.375 97.37 125.982 97.2151 126.474C97.0601 126.961 96.8004 127.331 96.4358 127.581C96.0712 127.832 95.5745 127.957 94.9456 127.957ZM99.7884 127.82V117.375H98.3802V115.789H102.967V117.375H101.614V127.82H99.7884ZM103.367 127.82L105.082 115.789H107.502L109.328 127.82H107.619L107.331 125.674H105.39L105.13 127.82H103.367ZM105.568 124.204H107.14L106.333 118.161H106.306L105.568 124.204ZM110.841 127.82V115.789H112.673V121.326L114.505 115.789H116.399L114.403 121.723L116.556 127.82H114.622L112.687 122.201V127.82H110.841ZM118.015 127.82V115.789H119.847V127.82H118.015ZM122.113 127.82V115.789H123.548L126.098 123.008L125.968 119.727V115.789H127.616V127.82H126.317L123.699 120.349L123.801 123.507V127.82H122.113ZM132.11 127.943C131.385 127.943 130.802 127.659 130.36 127.089C129.918 126.515 129.697 125.585 129.697 124.3V119.07C129.697 118.533 129.747 118.052 129.847 117.628C129.952 117.204 130.112 116.846 130.326 116.555C130.545 116.259 130.827 116.035 131.174 115.885C131.52 115.73 131.937 115.652 132.425 115.652C132.953 115.652 133.384 115.732 133.717 115.892C134.049 116.047 134.304 116.275 134.482 116.575C134.664 116.872 134.79 117.236 134.858 117.669C134.926 118.102 134.961 118.592 134.961 119.139V119.993H133.252V118.735C133.252 118.193 133.195 117.808 133.081 117.58C132.971 117.352 132.762 117.238 132.452 117.238C132.11 117.238 131.873 117.373 131.741 117.642C131.609 117.906 131.543 118.378 131.543 119.057V124.273C131.543 125.029 131.597 125.571 131.707 125.9C131.821 126.223 132.055 126.385 132.411 126.385C132.757 126.385 133.001 126.219 133.142 125.886C133.288 125.549 133.361 124.988 133.361 124.204V122.584H132.438V121.251H134.961V127.82H134.14L133.86 126.638C133.76 127.053 133.546 127.374 133.218 127.602C132.894 127.83 132.525 127.943 132.11 127.943Z" fill="#FF002E"/>
<rect x="190.071" y="37.3002" width="128.929" height="69.846" rx="12.974" fill="#E3F6FF"/>
<path d="M214.67 63.7884H210.485V60.9497C211.625 60.9497 212.535 60.8526 213.215 60.6585C213.918 60.4644 214.476 60.149 214.889 59.7122C215.301 59.2512 215.665 58.5961 215.98 57.7469H218.674V83.2231H214.67V63.7884Z" fill="#194459"/>
<path d="M234.614 70.2231V58.1919H236.446V63.0591H238.087V58.1919H239.919V70.2231H238.087V64.6313H236.446V70.2231H234.614ZM242.143 70.2231V58.1919H246.177V59.771H243.975V63.271H246.067V64.8159H243.975V68.644H246.259V70.2231H242.143ZM247.321 70.2231L249.037 58.1919H251.457L253.282 70.2231H251.573L251.286 68.0767H249.345L249.085 70.2231H247.321ZM249.522 66.6069H251.095L250.288 60.564H250.261L249.522 66.6069ZM254.796 70.2231V58.1919H257.824C258.453 58.1919 258.923 58.3149 259.232 58.561C259.542 58.8071 259.745 59.1672 259.841 59.6411C259.941 60.1151 259.991 60.6938 259.991 61.3774C259.991 62.0838 259.918 62.6398 259.772 63.0454C259.631 63.4465 259.34 63.7153 258.897 63.8521C259.107 63.8885 259.283 63.9751 259.424 64.1118C259.565 64.244 259.679 64.4399 259.766 64.6997C259.852 64.9549 259.914 65.2853 259.95 65.6909C259.991 66.092 260.012 66.5841 260.012 67.1675C260.012 67.2131 260.012 67.3407 260.012 67.5503C260.012 67.7599 260.012 68.0083 260.012 68.2954C260.016 68.578 260.021 68.8605 260.025 69.1431C260.03 69.4256 260.037 69.6672 260.046 69.8677C260.055 70.0682 260.066 70.1867 260.08 70.2231H258.248C258.234 70.2004 258.223 70.0841 258.214 69.8745C258.209 69.6603 258.202 69.3892 258.193 69.061C258.189 68.7329 258.184 68.3797 258.18 68.0015C258.18 67.6232 258.18 67.2518 258.18 66.8872C258.18 66.5181 258.18 66.1922 258.18 65.9097C258.18 65.5496 258.152 65.2785 258.098 65.0962C258.048 64.9093 257.952 64.7795 257.811 64.7065C257.674 64.6336 257.476 64.5903 257.216 64.5767L256.628 64.5425V70.2231H254.796ZM256.635 63.1206H257.366C257.59 63.1206 257.758 63.0705 257.872 62.9702C257.991 62.87 258.07 62.6854 258.111 62.4165C258.157 62.1476 258.18 61.7603 258.18 61.2544V61.1792C258.18 60.7554 258.159 60.4295 258.118 60.2017C258.077 59.9738 257.991 59.8166 257.858 59.73C257.731 59.6434 257.53 59.6001 257.257 59.6001H256.635V63.1206ZM262.626 70.2231V59.7778H261.218V58.1919H265.805V59.7778H264.451V70.2231H262.626ZM267.257 70.2231V58.1919H269.861C270.468 58.1919 270.951 58.2853 271.311 58.4722C271.671 58.6545 271.93 58.9461 272.09 59.3472C272.254 59.7437 272.336 60.2655 272.336 60.9126V61.2817C272.336 61.9061 272.254 62.4211 272.09 62.8267C271.93 63.2277 271.662 63.508 271.283 63.6675C271.598 63.7723 271.848 63.9614 272.035 64.2349C272.227 64.5037 272.363 64.8341 272.445 65.2261C272.527 65.6134 272.569 66.0396 272.569 66.5044V66.812C272.564 67.6141 272.471 68.2681 272.288 68.7739C272.106 69.2752 271.821 69.6421 271.434 69.8745C271.046 70.1069 270.541 70.2231 269.916 70.2231H267.257ZM269.089 68.8013H269.738C269.98 68.8013 270.171 68.7489 270.313 68.644C270.458 68.5347 270.563 68.3547 270.627 68.104C270.691 67.8534 270.723 67.5116 270.723 67.0786V66.1079C270.723 65.5246 270.666 65.1007 270.552 64.8364C270.443 64.5675 270.212 64.4331 269.861 64.4331H269.089V68.8013ZM269.089 63.0591H269.766C269.925 63.0591 270.055 63.0363 270.155 62.9907C270.256 62.9451 270.333 62.8677 270.388 62.7583C270.443 62.6444 270.479 62.4871 270.497 62.2866C270.52 62.0861 270.531 61.8309 270.531 61.521V60.7964C270.531 60.4728 270.502 60.2267 270.443 60.0581C270.383 59.8895 270.292 59.7756 270.169 59.7163C270.051 59.6571 269.896 59.6274 269.704 59.6274H269.089V63.0591ZM274.404 70.2231V58.1919H278.437V59.771H276.236V63.271H278.327V64.8159H276.236V68.644H278.519V70.2231H274.404ZM279.581 70.2231L281.297 58.1919H283.717L285.542 70.2231H283.833L283.546 68.0767H281.605L281.345 70.2231H279.581ZM281.783 66.6069H283.355L282.548 60.564H282.521L281.783 66.6069ZM287.343 70.2231V59.7778H285.935V58.1919H290.522V59.7778H289.168V70.2231H287.343ZM233.903 88.2231L235.619 76.1919H238.039L239.864 88.2231H238.155L237.868 86.0767H235.927L235.667 88.2231H233.903ZM236.104 84.6069H237.677L236.87 78.564H236.843L236.104 84.6069ZM243.64 88.3462C242.916 88.3462 242.333 88.0614 241.89 87.4917C241.448 86.9175 241.227 85.9878 241.227 84.7026V79.4731C241.227 78.9354 241.278 78.4546 241.378 78.0308C241.483 77.6069 241.642 77.2492 241.856 76.9575C242.075 76.6613 242.358 76.438 242.704 76.2876C243.05 76.1326 243.467 76.0552 243.955 76.0552C244.484 76.0552 244.914 76.1349 245.247 76.2944C245.58 76.4494 245.835 76.6772 246.013 76.978C246.195 77.2743 246.32 77.6388 246.389 78.0718C246.457 78.5047 246.491 78.9946 246.491 79.5415V80.396H244.782V79.1382C244.782 78.5959 244.725 78.2108 244.611 77.9829C244.502 77.755 244.292 77.6411 243.982 77.6411C243.64 77.6411 243.403 77.7756 243.271 78.0444C243.139 78.3088 243.073 78.7804 243.073 79.4595V84.6753C243.073 85.4318 243.128 85.9741 243.237 86.3022C243.351 86.6258 243.586 86.7876 243.941 86.7876C244.288 86.7876 244.531 86.6213 244.673 86.2886C244.819 85.9513 244.891 85.3908 244.891 84.6069V82.9868H243.969V81.6538H246.491V88.2231H245.671L245.39 87.0405C245.29 87.4552 245.076 87.7765 244.748 88.0044C244.424 88.2323 244.055 88.3462 243.64 88.3462ZM250.896 88.3462C250.172 88.3462 249.588 88.0614 249.146 87.4917C248.704 86.9175 248.483 85.9878 248.483 84.7026V79.4731C248.483 78.9354 248.533 78.4546 248.634 78.0308C248.739 77.6069 248.898 77.2492 249.112 76.9575C249.331 76.6613 249.614 76.438 249.96 76.2876C250.306 76.1326 250.723 76.0552 251.211 76.0552C251.739 76.0552 252.17 76.1349 252.503 76.2944C252.836 76.4494 253.091 76.6772 253.268 76.978C253.451 77.2743 253.576 77.6388 253.644 78.0718C253.713 78.5047 253.747 78.9946 253.747 79.5415V80.396H252.038V79.1382C252.038 78.5959 251.981 78.2108 251.867 77.9829C251.758 77.755 251.548 77.6411 251.238 77.6411C250.896 77.6411 250.659 77.7756 250.527 78.0444C250.395 78.3088 250.329 78.7804 250.329 79.4595V84.6753C250.329 85.4318 250.384 85.9741 250.493 86.3022C250.607 86.6258 250.842 86.7876 251.197 86.7876C251.544 86.7876 251.787 86.6213 251.929 86.2886C252.074 85.9513 252.147 85.3908 252.147 84.6069V82.9868H251.225V81.6538H253.747V88.2231H252.927L252.646 87.0405C252.546 87.4552 252.332 87.7765 252.004 88.0044C251.68 88.2323 251.311 88.3462 250.896 88.3462ZM255.89 88.2231V76.1919H258.918C259.547 76.1919 260.016 76.3149 260.326 76.561C260.636 76.8071 260.839 77.1672 260.935 77.6411C261.035 78.1151 261.085 78.6938 261.085 79.3774C261.085 80.0838 261.012 80.6398 260.866 81.0454C260.725 81.4465 260.433 81.7153 259.991 81.8521C260.201 81.8885 260.376 81.9751 260.518 82.1118C260.659 82.244 260.773 82.4399 260.859 82.6997C260.946 82.9549 261.007 83.2853 261.044 83.6909C261.085 84.092 261.105 84.5841 261.105 85.1675C261.105 85.2131 261.105 85.3407 261.105 85.5503C261.105 85.7599 261.105 86.0083 261.105 86.2954C261.11 86.578 261.115 86.8605 261.119 87.1431C261.124 87.4256 261.131 87.6672 261.14 87.8677C261.149 88.0682 261.16 88.1867 261.174 88.2231H259.342C259.328 88.2004 259.317 88.0841 259.308 87.8745C259.303 87.6603 259.296 87.3892 259.287 87.061C259.283 86.7329 259.278 86.3797 259.273 86.0015C259.273 85.6232 259.273 85.2518 259.273 84.8872C259.273 84.5181 259.273 84.1922 259.273 83.9097C259.273 83.5496 259.246 83.2785 259.191 83.0962C259.141 82.9093 259.046 82.7795 258.904 82.7065C258.768 82.6336 258.569 82.5903 258.31 82.5767L257.722 82.5425V88.2231H255.89ZM257.729 81.1206H258.46C258.683 81.1206 258.852 81.0705 258.966 80.9702C259.084 80.87 259.164 80.6854 259.205 80.4165C259.251 80.1476 259.273 79.7603 259.273 79.2544V79.1792C259.273 78.7554 259.253 78.4295 259.212 78.2017C259.171 77.9738 259.084 77.8166 258.952 77.73C258.825 77.6434 258.624 77.6001 258.351 77.6001H257.729V81.1206ZM263.091 88.2231V76.1919H267.124V77.771H264.923V81.271H267.015V82.8159H264.923V86.644H267.206V88.2231H263.091ZM271.242 88.3462C270.518 88.3462 269.934 88.0614 269.492 87.4917C269.05 86.9175 268.829 85.9878 268.829 84.7026V79.4731C268.829 78.9354 268.879 78.4546 268.98 78.0308C269.084 77.6069 269.244 77.2492 269.458 76.9575C269.677 76.6613 269.959 76.438 270.306 76.2876C270.652 76.1326 271.069 76.0552 271.557 76.0552C272.085 76.0552 272.516 76.1349 272.849 76.2944C273.181 76.4494 273.437 76.6772 273.614 76.978C273.797 77.2743 273.922 77.6388 273.99 78.0718C274.059 78.5047 274.093 78.9946 274.093 79.5415V80.396H272.384V79.1382C272.384 78.5959 272.327 78.2108 272.213 77.9829C272.104 77.755 271.894 77.6411 271.584 77.6411C271.242 77.6411 271.005 77.7756 270.873 78.0444C270.741 78.3088 270.675 78.7804 270.675 79.4595V84.6753C270.675 85.4318 270.73 85.9741 270.839 86.3022C270.953 86.6258 271.188 86.7876 271.543 86.7876C271.889 86.7876 272.133 86.6213 272.275 86.2886C272.42 85.9513 272.493 85.3908 272.493 84.6069V82.9868H271.57V81.6538H274.093V88.2231H273.273L272.992 87.0405C272.892 87.4552 272.678 87.7765 272.35 88.0044C272.026 88.2323 271.657 88.3462 271.242 88.3462ZM275.525 88.2231L277.24 76.1919H279.66L281.486 88.2231H279.777L279.489 86.0767H277.548L277.288 88.2231H275.525ZM277.726 84.6069H279.298L278.491 78.564H278.464L277.726 84.6069ZM283.286 88.2231V77.7778H281.878V76.1919H286.465V77.7778H285.112V88.2231H283.286ZM290.447 88.3599C289.822 88.3599 289.312 88.2277 288.915 87.9634C288.523 87.6991 288.234 87.3071 288.047 86.7876C287.86 86.2681 287.767 85.6255 287.767 84.8599V79.3569C287.767 78.6642 287.858 78.0718 288.04 77.5796C288.223 77.0874 288.512 76.7091 288.909 76.4448C289.305 76.1805 289.825 76.0483 290.467 76.0483C290.95 76.0483 291.358 76.1235 291.691 76.2739C292.023 76.4243 292.292 76.6431 292.497 76.9302C292.703 77.2127 292.851 77.5591 292.942 77.9692C293.037 78.3748 293.085 78.8374 293.085 79.3569V84.8599C293.085 85.6255 292.994 86.2681 292.812 86.7876C292.634 87.3071 292.352 87.6991 291.964 87.9634C291.577 88.2277 291.071 88.3599 290.447 88.3599ZM290.447 86.7739C290.675 86.7739 290.845 86.7056 290.959 86.5688C291.073 86.4321 291.148 86.2248 291.185 85.9468C291.226 85.6642 291.246 85.3088 291.246 84.8804V79.2749C291.246 78.7508 291.196 78.3475 291.096 78.0649C291 77.7778 290.791 77.6343 290.467 77.6343C290.134 77.6343 289.909 77.7733 289.79 78.0513C289.672 78.3247 289.613 78.7303 289.613 79.2681V84.8804C289.613 85.3179 289.631 85.6779 289.667 85.9604C289.708 86.2384 289.788 86.4435 289.907 86.5757C290.03 86.7078 290.21 86.7739 290.447 86.7739ZM295.173 88.2231V76.1919H298.202C298.831 76.1919 299.3 76.3149 299.61 76.561C299.92 76.8071 300.123 77.1672 300.218 77.6411C300.318 78.1151 300.369 78.6938 300.369 79.3774C300.369 80.0838 300.296 80.6398 300.15 81.0454C300.009 81.4465 299.717 81.7153 299.275 81.8521C299.485 81.8885 299.66 81.9751 299.801 82.1118C299.943 82.244 300.056 82.4399 300.143 82.6997C300.23 82.9549 300.291 83.2853 300.328 83.6909C300.369 84.092 300.389 84.5841 300.389 85.1675C300.389 85.2131 300.389 85.3407 300.389 85.5503C300.389 85.7599 300.389 86.0083 300.389 86.2954C300.394 86.578 300.398 86.8605 300.403 87.1431C300.407 87.4256 300.414 87.6672 300.423 87.8677C300.432 88.0682 300.444 88.1867 300.457 88.2231H298.625C298.612 88.2004 298.6 88.0841 298.591 87.8745C298.587 87.6603 298.58 87.3892 298.571 87.061C298.566 86.7329 298.562 86.3797 298.557 86.0015C298.557 85.6232 298.557 85.2518 298.557 84.8872C298.557 84.5181 298.557 84.1922 298.557 83.9097C298.557 83.5496 298.53 83.2785 298.475 83.0962C298.425 82.9093 298.329 82.7795 298.188 82.7065C298.051 82.6336 297.853 82.5903 297.593 82.5767L297.005 82.5425V88.2231H295.173ZM297.012 81.1206H297.744C297.967 81.1206 298.136 81.0705 298.249 80.9702C298.368 80.87 298.448 80.6854 298.489 80.4165C298.534 80.1476 298.557 79.7603 298.557 79.2544V79.1792C298.557 78.7554 298.537 78.4295 298.496 78.2017C298.455 77.9738 298.368 77.8166 298.236 77.73C298.108 77.6434 297.908 77.6001 297.634 77.6001H297.012V81.1206Z" fill="#194459"/>
<rect x="110.605" y="243.263" width="139.47" height="69.846" rx="12.974" fill="#E3F6FF"/>
<path d="M136.031 289.549C134.066 289.549 132.574 289.004 131.555 287.912C130.56 286.82 130.063 285.255 130.063 283.217V281.142H133.848V283.399C133.848 285.073 134.539 285.91 135.922 285.91C136.602 285.91 137.111 285.704 137.451 285.291C137.815 284.855 137.997 284.102 137.997 283.035V280.96C137.997 279.796 137.79 278.971 137.378 278.486C136.966 277.976 136.298 277.721 135.376 277.721H134.03V274.082H135.485C136.286 274.082 136.881 273.876 137.269 273.463C137.681 273.051 137.888 272.359 137.888 271.389V269.532C137.888 268.659 137.706 268.016 137.342 267.604C136.978 267.191 136.492 266.985 135.886 266.985C134.6 266.985 133.957 267.773 133.957 269.35V271.025H130.172V269.678C130.172 267.64 130.669 266.075 131.664 264.983C132.683 263.891 134.139 263.345 136.031 263.345C137.948 263.345 139.404 263.891 140.399 264.983C141.394 266.051 141.891 267.604 141.891 269.642V270.552C141.891 271.935 141.66 273.051 141.199 273.9C140.738 274.725 140.023 275.319 139.052 275.683V275.756C140.095 276.144 140.848 276.775 141.309 277.648C141.77 278.522 142 279.638 142 280.997V283.253C142 285.291 141.491 286.856 140.472 287.948C139.477 289.016 137.997 289.549 136.031 289.549Z" fill="#194459"/>
<path d="M156.784 276.346L155.314 264.315H156.955L157.837 272.887L158.958 264.315H160.435L161.562 272.887L162.342 264.315H163.989L162.608 276.346H160.783L159.717 268.348L158.609 276.346H156.784ZM165.619 276.346V264.315H169.652V265.894H167.451V269.394H169.543V270.939H167.451V274.767H169.734V276.346H165.619ZM176.911 276.483C176.328 276.483 175.843 276.349 175.455 276.08C175.068 275.811 174.776 275.419 174.58 274.904C174.389 274.384 174.293 273.758 174.293 273.024V267.781C174.293 267.229 174.339 266.733 174.43 266.291C174.521 265.849 174.669 265.47 174.874 265.156C175.079 264.841 175.353 264.6 175.695 264.431C176.036 264.263 176.458 264.178 176.959 264.178C177.415 264.178 177.802 264.254 178.121 264.404C178.445 264.55 178.707 264.762 178.907 265.04C179.113 265.318 179.261 265.655 179.352 266.051C179.448 266.443 179.495 266.885 179.495 267.378V269.032H177.725V267.494C177.725 266.901 177.675 266.466 177.574 266.188C177.474 265.906 177.274 265.764 176.973 265.764C176.64 265.764 176.417 265.917 176.303 266.222C176.194 266.523 176.139 266.945 176.139 267.487V273.106C176.139 273.525 176.162 273.869 176.207 274.138C176.257 274.403 176.339 274.599 176.453 274.726C176.567 274.849 176.727 274.911 176.932 274.911C177.242 274.911 177.451 274.765 177.561 274.473C177.67 274.182 177.725 273.719 177.725 273.086V271.363H179.523V273.065C179.523 273.826 179.434 274.462 179.256 274.972C179.078 275.478 178.796 275.856 178.408 276.107C178.026 276.358 177.527 276.483 176.911 276.483ZM184.024 276.483C183.399 276.483 182.889 276.351 182.493 276.087C182.101 275.822 181.811 275.43 181.624 274.911C181.437 274.391 181.344 273.749 181.344 272.983V267.48C181.344 266.787 181.435 266.195 181.618 265.703C181.8 265.211 182.089 264.832 182.486 264.568C182.882 264.304 183.402 264.172 184.044 264.172C184.527 264.172 184.935 264.247 185.268 264.397C185.601 264.547 185.869 264.766 186.075 265.053C186.28 265.336 186.428 265.682 186.519 266.092C186.615 266.498 186.662 266.961 186.662 267.48V272.983C186.662 273.749 186.571 274.391 186.389 274.911C186.211 275.43 185.929 275.822 185.541 276.087C185.154 276.351 184.648 276.483 184.024 276.483ZM184.024 274.897C184.252 274.897 184.423 274.829 184.536 274.692C184.65 274.555 184.726 274.348 184.762 274.07C184.803 273.787 184.824 273.432 184.824 273.004V267.398C184.824 266.874 184.773 266.471 184.673 266.188C184.577 265.901 184.368 265.757 184.044 265.757C183.712 265.757 183.486 265.896 183.368 266.174C183.249 266.448 183.19 266.853 183.19 267.391V273.004C183.19 273.441 183.208 273.801 183.244 274.084C183.285 274.362 183.365 274.567 183.484 274.699C183.607 274.831 183.787 274.897 184.024 274.897ZM191.321 276.483C190.696 276.483 190.188 276.367 189.796 276.134C189.404 275.897 189.117 275.542 188.935 275.068C188.753 274.589 188.662 273.986 188.662 273.256V264.315H190.494V273.222C190.494 273.56 190.507 273.856 190.535 274.111C190.566 274.366 190.639 274.564 190.753 274.706C190.867 274.847 191.054 274.918 191.314 274.918C191.574 274.918 191.76 274.849 191.874 274.713C191.993 274.571 192.066 274.373 192.093 274.118C192.121 273.863 192.134 273.564 192.134 273.222V264.315H193.966V273.256C193.966 273.986 193.875 274.589 193.693 275.068C193.515 275.542 193.23 275.897 192.838 276.134C192.451 276.367 191.945 276.483 191.321 276.483ZM196.102 276.346V264.315H197.538L200.087 271.534L199.958 268.253V264.315H201.605V276.346H200.306L197.688 268.875L197.791 272.033V276.346H196.102ZM204.465 276.346V265.901H203.057V264.315H207.644V265.901H206.291V276.346H204.465ZM155.943 294.346V282.315H157.775V294.346H155.943ZM160.041 294.346V282.315H161.477L164.026 289.534L163.897 286.253V282.315H165.544V294.346H164.245L161.627 286.875L161.73 290.033V294.346H160.041ZM168.404 294.346V283.901H166.996V282.315H171.583V283.901H170.23V294.346H168.404ZM173.035 294.346V282.315H177.069V283.894H174.867V287.394H176.959V288.939H174.867V292.767H177.151V294.346H173.035ZM178.924 294.346V282.315H181.952C182.581 282.315 183.051 282.438 183.361 282.684C183.671 282.93 183.873 283.29 183.969 283.764C184.069 284.238 184.119 284.817 184.119 285.501C184.119 286.207 184.047 286.763 183.901 287.169C183.759 287.57 183.468 287.839 183.026 287.975C183.235 288.012 183.411 288.098 183.552 288.235C183.693 288.367 183.807 288.563 183.894 288.823C183.98 289.078 184.042 289.408 184.078 289.814C184.119 290.215 184.14 290.707 184.14 291.291C184.14 291.336 184.14 291.464 184.14 291.673C184.14 291.883 184.14 292.131 184.14 292.419C184.145 292.701 184.149 292.984 184.154 293.266C184.158 293.549 184.165 293.79 184.174 293.991C184.183 294.191 184.195 294.31 184.208 294.346H182.376C182.363 294.324 182.351 294.207 182.342 293.998C182.338 293.783 182.331 293.512 182.322 293.184C182.317 292.856 182.312 292.503 182.308 292.125C182.308 291.746 182.308 291.375 182.308 291.01C182.308 290.641 182.308 290.315 182.308 290.033C182.308 289.673 182.281 289.402 182.226 289.219C182.176 289.033 182.08 288.903 181.939 288.83C181.802 288.757 181.604 288.714 181.344 288.7L180.756 288.666V294.346H178.924ZM180.763 287.244H181.494C181.718 287.244 181.886 287.194 182 287.093C182.119 286.993 182.199 286.809 182.24 286.54C182.285 286.271 182.308 285.883 182.308 285.378V285.302C182.308 284.879 182.287 284.553 182.246 284.325C182.205 284.097 182.119 283.94 181.987 283.853C181.859 283.767 181.659 283.723 181.385 283.723H180.763V287.244ZM185.414 294.346L187.13 282.315H189.55L191.375 294.346H189.666L189.379 292.2H187.438L187.178 294.346H185.414ZM187.616 290.73H189.188L188.381 284.687H188.354L187.616 290.73ZM195.357 294.483C194.774 294.483 194.288 294.349 193.901 294.08C193.513 293.811 193.222 293.419 193.026 292.904C192.834 292.384 192.739 291.758 192.739 291.024V285.781C192.739 285.229 192.784 284.733 192.875 284.291C192.967 283.849 193.115 283.47 193.32 283.156C193.525 282.841 193.798 282.6 194.14 282.431C194.482 282.263 194.903 282.178 195.405 282.178C195.86 282.178 196.248 282.254 196.567 282.404C196.89 282.55 197.152 282.762 197.353 283.04C197.558 283.318 197.706 283.655 197.797 284.051C197.893 284.443 197.941 284.885 197.941 285.378V287.032H196.17V285.494C196.17 284.901 196.12 284.466 196.02 284.188C195.92 283.906 195.719 283.764 195.418 283.764C195.086 283.764 194.862 283.917 194.749 284.222C194.639 284.523 194.584 284.945 194.584 285.487V291.106C194.584 291.525 194.607 291.869 194.653 292.138C194.703 292.403 194.785 292.599 194.899 292.726C195.013 292.849 195.172 292.911 195.377 292.911C195.687 292.911 195.897 292.765 196.006 292.473C196.116 292.182 196.17 291.719 196.17 291.086V289.363H197.968V291.065C197.968 291.826 197.879 292.462 197.702 292.972C197.524 293.478 197.241 293.856 196.854 294.107C196.471 294.358 195.972 294.483 195.357 294.483ZM200.569 294.346V283.901H199.161V282.315H203.748V283.901H202.394V294.346H200.569ZM205.241 294.346V282.315H207.073V294.346H205.241ZM211.868 294.483C211.244 294.483 210.733 294.351 210.337 294.087C209.945 293.822 209.655 293.43 209.468 292.911C209.282 292.391 209.188 291.749 209.188 290.983V285.48C209.188 284.787 209.279 284.195 209.462 283.703C209.644 283.211 209.933 282.832 210.33 282.568C210.726 282.304 211.246 282.172 211.888 282.172C212.371 282.172 212.779 282.247 213.112 282.397C213.445 282.547 213.714 282.766 213.919 283.053C214.124 283.336 214.272 283.682 214.363 284.092C214.459 284.498 214.507 284.961 214.507 285.48V290.983C214.507 291.749 214.415 292.391 214.233 292.911C214.055 293.43 213.773 293.822 213.385 294.087C212.998 294.351 212.492 294.483 211.868 294.483ZM211.868 292.897C212.096 292.897 212.267 292.829 212.381 292.692C212.495 292.555 212.57 292.348 212.606 292.07C212.647 291.787 212.668 291.432 212.668 291.004V285.398C212.668 284.874 212.618 284.471 212.517 284.188C212.422 283.901 212.212 283.757 211.888 283.757C211.556 283.757 211.33 283.896 211.212 284.174C211.093 284.448 211.034 284.853 211.034 285.391V291.004C211.034 291.441 211.052 291.801 211.089 292.084C211.13 292.362 211.209 292.567 211.328 292.699C211.451 292.831 211.631 292.897 211.868 292.897ZM216.595 294.346V282.315H218.03L220.58 289.534L220.45 286.253V282.315H222.097V294.346H220.799L218.18 286.875L218.283 290.033V294.346H216.595ZM226.523 294.483C226.022 294.483 225.603 294.406 225.266 294.251C224.933 294.091 224.669 293.861 224.473 293.56C224.281 293.255 224.144 292.886 224.062 292.453C223.98 292.015 223.939 291.519 223.939 290.963V289.889H225.676V291.099C225.676 291.746 225.73 292.211 225.84 292.494C225.949 292.776 226.166 292.918 226.489 292.918C226.708 292.918 226.872 292.867 226.981 292.767C227.095 292.662 227.17 292.498 227.207 292.275C227.248 292.047 227.268 291.751 227.268 291.386C227.268 290.935 227.173 290.523 226.981 290.149C226.794 289.775 226.51 289.388 226.127 288.987L225.238 288.071C224.992 287.816 224.769 287.545 224.568 287.257C224.372 286.97 224.215 286.651 224.097 286.3C223.983 285.945 223.926 285.548 223.926 285.111C223.926 284.477 224.003 283.942 224.158 283.505C224.313 283.067 224.575 282.737 224.944 282.513C225.313 282.285 225.819 282.172 226.462 282.172C226.945 282.172 227.341 282.247 227.651 282.397C227.966 282.543 228.21 282.759 228.383 283.047C228.56 283.329 228.686 283.675 228.759 284.086C228.832 284.491 228.868 284.956 228.868 285.48V286.225H227.18V285.364C227.18 284.999 227.159 284.696 227.118 284.455C227.082 284.213 227.011 284.033 226.906 283.915C226.801 283.792 226.649 283.73 226.448 283.73C226.257 283.73 226.102 283.773 225.983 283.86C225.865 283.942 225.778 284.072 225.724 284.25C225.673 284.423 225.648 284.648 225.648 284.926C225.648 285.177 225.68 285.394 225.744 285.576C225.808 285.758 225.906 285.934 226.038 286.102C226.17 286.271 226.334 286.46 226.53 286.67L227.521 287.743C227.995 288.253 228.364 288.784 228.629 289.336C228.893 289.887 229.025 290.502 229.025 291.181C229.025 291.901 228.948 292.507 228.793 293C228.638 293.487 228.378 293.856 228.014 294.107C227.649 294.358 227.152 294.483 226.523 294.483Z" fill="#194459"/>
<rect x="108.983" y="338.135" width="141.092" height="69.846" rx="12.974" fill="#E3F6FF"/>
<path d="M138.672 379.436H131.029V375.796L138.308 358.582H142.676V375.796H144.568V379.436H142.676V384.058H138.672V379.436ZM138.672 375.796V365.86H138.599L134.669 375.796H138.672Z" fill="#194459"/>
<path d="M160.094 371.194C159.47 371.194 158.962 371.078 158.57 370.846C158.178 370.609 157.891 370.253 157.708 369.779C157.526 369.301 157.435 368.697 157.435 367.968V359.026H159.267V367.934C159.267 368.271 159.281 368.567 159.308 368.822C159.34 369.078 159.413 369.276 159.527 369.417C159.641 369.558 159.828 369.629 160.087 369.629C160.347 369.629 160.534 369.561 160.648 369.424C160.766 369.283 160.839 369.084 160.867 368.829C160.894 368.574 160.908 368.276 160.908 367.934V359.026H162.74V367.968C162.74 368.697 162.649 369.301 162.466 369.779C162.289 370.253 162.004 370.609 161.612 370.846C161.224 371.078 160.719 371.194 160.094 371.194ZM167.07 371.194C166.569 371.194 166.149 371.117 165.812 370.962C165.479 370.803 165.215 370.572 165.019 370.272C164.828 369.966 164.691 369.597 164.609 369.164C164.527 368.727 164.486 368.23 164.486 367.674V366.601H166.222V367.811C166.222 368.458 166.277 368.923 166.386 369.205C166.496 369.488 166.712 369.629 167.036 369.629C167.254 369.629 167.419 369.579 167.528 369.479C167.642 369.374 167.717 369.21 167.753 368.986C167.795 368.759 167.815 368.462 167.815 368.098C167.815 367.647 167.719 367.234 167.528 366.86C167.341 366.487 167.056 366.099 166.673 365.698L165.785 364.782C165.539 364.527 165.315 364.256 165.115 363.969C164.919 363.682 164.762 363.363 164.643 363.012C164.529 362.656 164.472 362.26 164.472 361.822C164.472 361.189 164.55 360.653 164.705 360.216C164.86 359.778 165.122 359.448 165.491 359.225C165.86 358.997 166.366 358.883 167.008 358.883C167.491 358.883 167.888 358.958 168.198 359.109C168.512 359.254 168.756 359.471 168.929 359.758C169.107 360.04 169.232 360.387 169.305 360.797C169.378 361.203 169.415 361.667 169.415 362.192V362.937H167.726V362.075C167.726 361.711 167.706 361.408 167.665 361.166C167.628 360.925 167.558 360.745 167.453 360.626C167.348 360.503 167.195 360.442 166.995 360.442C166.803 360.442 166.648 360.485 166.53 360.571C166.411 360.653 166.325 360.783 166.27 360.961C166.22 361.134 166.195 361.36 166.195 361.638C166.195 361.888 166.227 362.105 166.291 362.287C166.354 362.47 166.452 362.645 166.585 362.814C166.717 362.982 166.881 363.171 167.077 363.381L168.068 364.454C168.542 364.965 168.911 365.496 169.175 366.047C169.44 366.598 169.572 367.214 169.572 367.893C169.572 368.613 169.494 369.219 169.339 369.711C169.184 370.199 168.925 370.568 168.56 370.818C168.196 371.069 167.699 371.194 167.07 371.194ZM171.284 371.058V359.026H175.317V360.606H173.116V364.106H175.208V365.651H173.116V369.479H175.399V371.058H171.284ZM177.173 371.058V359.026H180.201C180.83 359.026 181.299 359.15 181.609 359.396C181.919 359.642 182.122 360.002 182.218 360.476C182.318 360.95 182.368 361.528 182.368 362.212C182.368 362.918 182.295 363.474 182.149 363.88C182.008 364.281 181.716 364.55 181.274 364.687C181.484 364.723 181.659 364.81 181.801 364.946C181.942 365.079 182.056 365.275 182.142 365.534C182.229 365.79 182.29 366.12 182.327 366.526C182.368 366.927 182.388 367.419 182.388 368.002C182.388 368.048 182.388 368.175 182.388 368.385C182.388 368.595 182.388 368.843 182.388 369.13C182.393 369.413 182.398 369.695 182.402 369.978C182.407 370.26 182.413 370.502 182.423 370.702C182.432 370.903 182.443 371.021 182.457 371.058H180.625C180.611 371.035 180.6 370.919 180.591 370.709C180.586 370.495 180.579 370.224 180.57 369.896C180.566 369.568 180.561 369.214 180.556 368.836C180.556 368.458 180.556 368.086 180.556 367.722C180.556 367.353 180.556 367.027 180.556 366.744C180.556 366.384 180.529 366.113 180.474 365.931C180.424 365.744 180.329 365.614 180.187 365.541C180.051 365.468 179.852 365.425 179.593 365.411L179.005 365.377V371.058H177.173ZM179.011 363.955H179.743C179.966 363.955 180.135 363.905 180.249 363.805C180.367 363.705 180.447 363.52 180.488 363.251C180.534 362.982 180.556 362.595 180.556 362.089V362.014C180.556 361.59 180.536 361.264 180.495 361.036C180.454 360.808 180.367 360.651 180.235 360.565C180.107 360.478 179.907 360.435 179.634 360.435H179.011V363.955ZM186.568 371.194C186.067 371.194 185.648 371.117 185.31 370.962C184.978 370.803 184.713 370.572 184.517 370.272C184.326 369.966 184.189 369.597 184.107 369.164C184.025 368.727 183.984 368.23 183.984 367.674V366.601H185.721V367.811C185.721 368.458 185.775 368.923 185.885 369.205C185.994 369.488 186.21 369.629 186.534 369.629C186.753 369.629 186.917 369.579 187.026 369.479C187.14 369.374 187.215 369.21 187.252 368.986C187.293 368.759 187.313 368.462 187.313 368.098C187.313 367.647 187.218 367.234 187.026 366.86C186.839 366.487 186.555 366.099 186.172 365.698L185.283 364.782C185.037 364.527 184.814 364.256 184.613 363.969C184.417 363.682 184.26 363.363 184.141 363.012C184.027 362.656 183.971 362.26 183.971 361.822C183.971 361.189 184.048 360.653 184.203 360.216C184.358 359.778 184.62 359.448 184.989 359.225C185.358 358.997 185.864 358.883 186.507 358.883C186.99 358.883 187.386 358.958 187.696 359.109C188.011 359.254 188.254 359.471 188.428 359.758C188.605 360.04 188.731 360.387 188.804 360.797C188.876 361.203 188.913 361.667 188.913 362.192V362.937H187.224V362.075C187.224 361.711 187.204 361.408 187.163 361.166C187.126 360.925 187.056 360.745 186.951 360.626C186.846 360.503 186.694 360.442 186.493 360.442C186.302 360.442 186.147 360.485 186.028 360.571C185.91 360.653 185.823 360.783 185.768 360.961C185.718 361.134 185.693 361.36 185.693 361.638C185.693 361.888 185.725 362.105 185.789 362.287C185.853 362.47 185.951 362.645 186.083 362.814C186.215 362.982 186.379 363.171 186.575 363.381L187.566 364.454C188.04 364.965 188.409 365.496 188.674 366.047C188.938 366.598 189.07 367.214 189.07 367.893C189.07 368.613 188.993 369.219 188.838 369.711C188.683 370.199 188.423 370.568 188.058 370.818C187.694 371.069 187.197 371.194 186.568 371.194ZM195.98 371.181C195.256 371.181 194.673 370.896 194.23 370.326C193.788 369.752 193.567 368.822 193.567 367.537V362.308C193.567 361.77 193.617 361.289 193.718 360.865C193.823 360.442 193.982 360.084 194.196 359.792C194.415 359.496 194.698 359.273 195.044 359.122C195.39 358.967 195.807 358.89 196.295 358.89C196.824 358.89 197.254 358.97 197.587 359.129C197.92 359.284 198.175 359.512 198.353 359.813C198.535 360.109 198.66 360.473 198.728 360.906C198.797 361.339 198.831 361.829 198.831 362.376V363.231H197.122V361.973C197.122 361.43 197.065 361.045 196.951 360.818C196.842 360.59 196.632 360.476 196.322 360.476C195.98 360.476 195.743 360.61 195.611 360.879C195.479 361.143 195.413 361.615 195.413 362.294V367.51C195.413 368.266 195.468 368.809 195.577 369.137C195.691 369.46 195.926 369.622 196.281 369.622C196.628 369.622 196.871 369.456 197.013 369.123C197.159 368.786 197.231 368.225 197.231 367.442V365.821H196.309V364.488H198.831V371.058H198.011L197.73 369.875C197.63 370.29 197.416 370.611 197.088 370.839C196.764 371.067 196.395 371.181 195.98 371.181ZM200.974 371.058V359.026H205.007V360.606H202.806V364.106H204.898V365.651H202.806V369.479H205.089V371.058H200.974ZM207.491 371.058V360.612H206.083V359.026H210.67V360.612H209.317V371.058H207.491ZM157.524 389.058V377.026H160.128C160.735 377.026 161.218 377.12 161.578 377.307C161.938 377.489 162.197 377.781 162.357 378.182C162.521 378.578 162.603 379.1 162.603 379.747V380.116C162.603 380.741 162.521 381.256 162.357 381.661C162.197 382.062 161.929 382.343 161.55 382.502C161.865 382.607 162.115 382.796 162.302 383.069C162.494 383.338 162.63 383.669 162.712 384.061C162.794 384.448 162.835 384.874 162.835 385.339V385.647C162.831 386.449 162.737 387.103 162.555 387.609C162.373 388.11 162.088 388.477 161.701 388.709C161.313 388.942 160.807 389.058 160.183 389.058H157.524ZM159.356 387.636H160.005C160.247 387.636 160.438 387.583 160.58 387.479C160.725 387.369 160.83 387.189 160.894 386.939C160.958 386.688 160.99 386.346 160.99 385.913V384.943C160.99 384.359 160.933 383.935 160.819 383.671C160.709 383.402 160.479 383.268 160.128 383.268H159.356V387.636ZM159.356 381.894H160.033C160.192 381.894 160.322 381.871 160.422 381.825C160.523 381.78 160.6 381.702 160.655 381.593C160.709 381.479 160.746 381.322 160.764 381.121C160.787 380.921 160.798 380.665 160.798 380.356V379.631C160.798 379.307 160.769 379.061 160.709 378.893C160.65 378.724 160.559 378.61 160.436 378.551C160.318 378.492 160.163 378.462 159.971 378.462H159.356V381.894ZM167.241 389.194C166.616 389.194 166.108 389.078 165.716 388.846C165.324 388.609 165.037 388.253 164.855 387.779C164.673 387.301 164.582 386.697 164.582 385.968V377.026H166.414V385.934C166.414 386.271 166.427 386.567 166.455 386.822C166.487 387.078 166.559 387.276 166.673 387.417C166.787 387.558 166.974 387.629 167.234 387.629C167.494 387.629 167.681 387.561 167.795 387.424C167.913 387.283 167.986 387.084 168.013 386.829C168.041 386.574 168.054 386.276 168.054 385.934V377.026H169.886V385.968C169.886 386.697 169.795 387.301 169.613 387.779C169.435 388.253 169.15 388.609 168.758 388.846C168.371 389.078 167.865 389.194 167.241 389.194ZM172.022 389.058V377.026H175.05C175.679 377.026 176.149 377.15 176.459 377.396C176.769 377.642 176.971 378.002 177.067 378.476C177.167 378.95 177.217 379.528 177.217 380.212C177.217 380.918 177.145 381.474 176.999 381.88C176.857 382.281 176.566 382.55 176.124 382.687C176.333 382.723 176.509 382.81 176.65 382.946C176.791 383.079 176.905 383.275 176.992 383.534C177.078 383.79 177.14 384.12 177.176 384.526C177.217 384.927 177.238 385.419 177.238 386.002C177.238 386.048 177.238 386.175 177.238 386.385C177.238 386.595 177.238 386.843 177.238 387.13C177.243 387.413 177.247 387.695 177.252 387.978C177.256 388.26 177.263 388.502 177.272 388.702C177.281 388.903 177.293 389.021 177.306 389.058H175.474C175.461 389.035 175.449 388.919 175.44 388.709C175.436 388.495 175.429 388.224 175.42 387.896C175.415 387.568 175.41 387.214 175.406 386.836C175.406 386.458 175.406 386.086 175.406 385.722C175.406 385.353 175.406 385.027 175.406 384.744C175.406 384.384 175.379 384.113 175.324 383.931C175.274 383.744 175.178 383.614 175.037 383.541C174.9 383.468 174.702 383.425 174.442 383.411L173.854 383.377V389.058H172.022ZM173.861 381.955H174.592C174.816 381.955 174.984 381.905 175.098 381.805C175.217 381.705 175.297 381.52 175.338 381.251C175.383 380.982 175.406 380.595 175.406 380.089V380.014C175.406 379.59 175.385 379.264 175.344 379.036C175.303 378.808 175.217 378.651 175.085 378.565C174.957 378.478 174.757 378.435 174.483 378.435H173.861V381.955ZM179.223 389.058V377.026H180.659L183.209 384.245L183.079 380.964V377.026H184.726V389.058H183.427L180.809 381.586L180.912 384.744V389.058H179.223ZM189.893 389.058V377.026H192.655C193.134 377.026 193.53 377.099 193.845 377.245C194.164 377.391 194.414 377.608 194.597 377.895C194.779 378.182 194.909 378.537 194.986 378.961C195.064 379.38 195.102 379.866 195.102 380.417V380.67C195.102 381.445 195.034 382.106 194.897 382.652C194.765 383.195 194.526 383.607 194.18 383.89C193.833 384.172 193.346 384.314 192.717 384.314H191.725V389.058H189.893ZM191.725 382.803H192.354C192.623 382.803 192.824 382.734 192.956 382.598C193.088 382.461 193.175 382.235 193.216 381.921C193.261 381.602 193.284 381.178 193.284 380.65V380.417C193.28 379.765 193.223 379.273 193.113 378.941C193.004 378.603 192.755 378.435 192.368 378.435H191.725V382.803ZM199.296 389.194C198.672 389.194 198.161 389.062 197.765 388.798C197.373 388.534 197.083 388.142 196.896 387.622C196.71 387.103 196.616 386.46 196.616 385.694V380.192C196.616 379.499 196.707 378.906 196.89 378.414C197.072 377.922 197.361 377.544 197.758 377.279C198.154 377.015 198.674 376.883 199.316 376.883C199.799 376.883 200.207 376.958 200.54 377.109C200.873 377.259 201.142 377.478 201.347 377.765C201.552 378.047 201.7 378.394 201.791 378.804C201.887 379.209 201.935 379.672 201.935 380.192V385.694C201.935 386.46 201.843 387.103 201.661 387.622C201.483 388.142 201.201 388.534 200.813 388.798C200.426 389.062 199.92 389.194 199.296 389.194ZM199.296 387.609C199.524 387.609 199.695 387.54 199.809 387.403C199.923 387.267 199.998 387.059 200.034 386.781C200.075 386.499 200.096 386.143 200.096 385.715V380.109C200.096 379.585 200.046 379.182 199.945 378.9C199.85 378.612 199.64 378.469 199.316 378.469C198.984 378.469 198.758 378.608 198.64 378.886C198.521 379.159 198.462 379.565 198.462 380.103V385.715C198.462 386.152 198.48 386.512 198.517 386.795C198.558 387.073 198.637 387.278 198.756 387.41C198.879 387.542 199.059 387.609 199.296 387.609ZM204.064 389.058V377.026H205.896V389.058H204.064ZM208.161 389.058V377.026H209.597L212.147 384.245L212.017 380.964V377.026H213.664V389.058H212.365L209.747 381.586L209.85 384.744V389.058H208.161ZM216.525 389.058V378.612H215.116V377.026H219.703V378.612H218.35V389.058H216.525ZM223.35 389.194C222.849 389.194 222.429 389.117 222.092 388.962C221.759 388.803 221.495 388.572 221.299 388.272C221.108 387.966 220.971 387.597 220.889 387.164C220.807 386.727 220.766 386.23 220.766 385.674V384.601H222.502V385.811C222.502 386.458 222.557 386.923 222.666 387.205C222.776 387.488 222.992 387.629 223.316 387.629C223.534 387.629 223.699 387.579 223.808 387.479C223.922 387.374 223.997 387.21 224.033 386.986C224.075 386.759 224.095 386.462 224.095 386.098C224.095 385.647 223.999 385.234 223.808 384.86C223.621 384.487 223.336 384.099 222.953 383.698L222.065 382.782C221.819 382.527 221.595 382.256 221.395 381.969C221.199 381.682 221.042 381.363 220.923 381.012C220.809 380.656 220.752 380.26 220.752 379.822C220.752 379.189 220.83 378.653 220.985 378.216C221.14 377.778 221.402 377.448 221.771 377.225C222.14 376.997 222.646 376.883 223.288 376.883C223.771 376.883 224.168 376.958 224.478 377.109C224.792 377.254 225.036 377.471 225.209 377.758C225.387 378.04 225.512 378.387 225.585 378.797C225.658 379.203 225.695 379.667 225.695 380.192V380.937H224.006V380.075C224.006 379.711 223.986 379.408 223.945 379.166C223.908 378.925 223.838 378.745 223.733 378.626C223.628 378.503 223.475 378.442 223.275 378.442C223.083 378.442 222.928 378.485 222.81 378.571C222.691 378.653 222.605 378.783 222.55 378.961C222.5 379.134 222.475 379.36 222.475 379.638C222.475 379.888 222.507 380.105 222.571 380.287C222.634 380.47 222.732 380.645 222.865 380.814C222.997 380.982 223.161 381.171 223.357 381.381L224.348 382.454C224.822 382.965 225.191 383.496 225.455 384.047C225.72 384.598 225.852 385.214 225.852 385.893C225.852 386.613 225.774 387.219 225.619 387.711C225.464 388.199 225.205 388.568 224.84 388.818C224.476 389.069 223.979 389.194 223.35 389.194Z" fill="#194459"/>
<path d="M176.215 409.624C176.243 412.012 178.201 413.925 180.59 413.897C182.978 413.869 184.891 411.911 184.863 409.522C184.836 407.134 182.877 405.221 180.489 405.249C178.1 405.277 176.187 407.235 176.215 409.624ZM176.676 449.051C176.704 451.439 178.662 453.352 181.051 453.324C183.439 453.297 185.352 451.338 185.324 448.95C185.296 446.561 183.338 444.648 180.949 444.676C178.561 444.704 176.648 446.662 176.676 449.051ZM179.728 409.582L179.745 410.991L181.366 410.972L181.35 409.564L179.728 409.582ZM179.778 413.807L179.811 416.623L181.432 416.604L181.399 413.788L179.778 413.807ZM179.843 419.439L179.876 422.255L181.498 422.237L181.465 419.42L179.843 419.439ZM179.909 425.072L179.942 427.888L181.564 427.869L181.531 425.053L179.909 425.072ZM179.975 430.704L180.008 433.52L181.63 433.501L181.597 430.685L179.975 430.704ZM180.041 436.337L180.074 439.153L181.696 439.134L181.663 436.318L180.041 436.337ZM180.107 441.969L180.14 444.785L181.761 444.766L181.729 441.95L180.107 441.969ZM180.173 447.601L180.189 449.01L181.811 448.991L181.794 447.582L180.173 447.601Z" fill="#FF002E"/>
<path d="M91.0791 159.866C91.0791 162.254 93.0154 164.19 95.4038 164.19C97.7923 164.19 99.7285 162.254 99.7285 159.866C99.7285 157.477 97.7923 155.541 95.4038 155.541C93.0154 155.541 91.0791 157.477 91.0791 159.866ZM95.4038 373.951H94.5929V374.762H95.4038V373.951ZM104.972 373.951C104.972 376.34 106.908 378.276 109.296 378.276C111.685 378.276 113.621 376.34 113.621 373.951C113.621 371.563 111.685 369.627 109.296 369.627C106.908 369.627 104.972 371.563 104.972 373.951ZM94.5929 159.866V161.274H96.2147V159.866H94.5929ZM94.5929 164.091V166.908H96.2147V164.091H94.5929ZM94.5929 169.725V172.542H96.2147V169.725H94.5929ZM94.5929 175.359V178.176H96.2147V175.359H94.5929ZM94.5929 180.993V183.81H96.2147V180.993H94.5929ZM94.5929 186.626V189.443H96.2147V186.626H94.5929ZM94.5929 192.26V195.077H96.2147V192.26H94.5929ZM94.5929 197.894V200.711H96.2147V197.894H94.5929ZM94.5929 203.528V206.345H96.2147V203.528H94.5929ZM94.5929 209.162V211.979H96.2147V209.162H94.5929ZM94.5929 214.796V217.613H96.2147V214.796H94.5929ZM94.5929 220.429V223.246H96.2147V220.429H94.5929ZM94.5929 226.063V228.88H96.2147V226.063H94.5929ZM94.5929 231.697V234.514H96.2147V231.697H94.5929ZM94.5929 237.331V240.148H96.2147V237.331H94.5929ZM94.5929 242.965V245.782H96.2147V242.965H94.5929ZM94.5929 248.599V251.416H96.2147V248.599H94.5929ZM94.5929 254.232V257.049H96.2147V254.232H94.5929ZM94.5929 259.866V262.683H96.2147V259.866H94.5929ZM94.5929 265.5V268.317H96.2147V265.5H94.5929ZM94.5929 271.134V273.951H96.2147V271.134H94.5929ZM94.5929 276.768V279.585H96.2147V276.768H94.5929ZM94.5929 282.402V285.219H96.2147V282.402H94.5929ZM94.5929 288.035V290.852H96.2147V288.035H94.5929ZM94.5929 293.669V296.486H96.2147V293.669H94.5929ZM94.5929 299.303V302.12H96.2147V299.303H94.5929ZM94.5929 304.937V307.754H96.2147V304.937H94.5929ZM94.5929 310.571V313.388H96.2147V310.571H94.5929ZM94.5929 316.205V319.022H96.2147V316.205H94.5929ZM94.5929 321.839V324.656H96.2147V321.839H94.5929ZM94.5929 327.472V330.289H96.2147V327.472H94.5929ZM94.5929 333.106V335.923H96.2147V333.106H94.5929ZM94.5929 338.74V341.557H96.2147V338.74H94.5929ZM94.5929 344.374V347.191H96.2147V344.374H94.5929ZM94.5929 350.008V352.825H96.2147V350.008H94.5929ZM94.5929 355.642V358.459H96.2147V355.642H94.5929ZM94.5929 361.276V364.092H96.2147V361.276H94.5929ZM94.5929 366.909V369.726H96.2147V366.909H94.5929ZM94.5929 372.543V373.951H96.2147V372.543H94.5929ZM95.4038 374.762H97.1404V373.141H95.4038V374.762ZM100.613 374.762H104.087V373.141H100.613V374.762ZM107.56 374.762H109.296V373.141H107.56V374.762Z" fill="#FF002E"/>
<defs>
<clipPath id="clip0_206_1357">
<rect width="27.5697" height="25.948" fill="white" transform="translate(108.983 491.705)"/>
</clipPath>
</defs>
</svg>
