<svg width="519" height="699" viewBox="0 0 519 699" fill="none" xmlns="http://www.w3.org/2000/svg">
<path d="M97.9199 118.196L104.157 107.393L91.6829 107.393L97.9199 118.196ZM96.8396 86.4002L96.8396 108.474L99.0002 108.474L99.0002 86.4002L96.8396 86.4002Z" fill="#FF002E"/>
<path d="M50.8799 621.125C50.8799 611.579 58.6184 603.84 68.1644 603.84H302.586C312.132 603.84 319.87 611.579 319.87 621.125V681.621C319.87 691.167 312.132 698.905 302.586 698.905H68.1645C58.6185 698.905 50.8799 691.167 50.8799 681.621V621.125Z" fill="#FFE6EA"/>
<g clip-path="url(#clip0_1731_183)">
<path d="M116.029 660.381C116.029 658.221 114.451 655.268 111.591 652.066C111.432 651.888 111.234 651.746 111.01 651.649C110.786 651.552 110.542 651.503 110.296 651.505C110.048 651.504 109.802 651.554 109.576 651.651C109.351 651.749 109.15 651.891 108.989 652.069C105.858 655.521 104.327 658.575 104.592 660.915C104.696 661.656 104.966 662.366 105.383 663.001C105.801 663.636 106.356 664.18 107.013 664.599C107.943 665.316 109.095 665.729 110.296 665.777C111.816 665.775 113.273 665.206 114.348 664.195C115.423 663.183 116.027 661.812 116.029 660.381Z" fill="#FF002E"/>
<path d="M117.38 638.266C116.177 637.304 114.915 636.295 113.629 635.195C113.142 634.778 112.564 634.467 111.935 634.283C111.306 634.099 110.642 634.046 109.99 634.129C109.358 634.208 108.751 634.416 108.214 634.74C107.677 635.064 107.221 635.494 106.88 636.002C105.057 638.871 103.767 642.012 103.066 645.289C102.792 644.916 102.549 644.523 102.338 644.115C102.121 643.686 101.795 643.313 101.388 643.031C100.982 642.749 100.507 642.566 100.007 642.499C99.507 642.431 98.997 642.481 98.5225 642.645C98.048 642.808 97.6237 643.079 97.2877 643.434C94.7216 645.903 93.2992 649.229 93.3316 652.683C93.2961 656.211 94.5152 659.649 96.795 662.449C99.0749 665.25 102.284 667.253 105.913 668.139C107.302 668.468 108.729 668.639 110.161 668.646C108.331 668.582 106.571 667.963 105.145 666.88C104.157 666.226 103.326 665.383 102.706 664.407C102.087 663.431 101.692 662.343 101.548 661.214C101.196 658.031 102.915 654.325 106.657 650.199C107.106 649.704 107.664 649.307 108.292 649.035C108.921 648.763 109.604 648.623 110.296 648.625H110.311C111.001 648.626 111.682 648.768 112.308 649.041C112.933 649.315 113.487 649.714 113.932 650.209C116.286 652.841 119.094 656.742 119.094 660.38C119.091 662.477 118.243 664.494 116.72 666.025C115.198 667.556 113.116 668.487 110.893 668.629C115.288 668.496 119.455 666.758 122.511 663.783C125.568 660.808 127.274 656.83 127.268 652.691C127.261 646.166 122.682 642.508 117.38 638.266Z" fill="#FF002E"/>
</g>
<path d="M142.569 660.561L140.554 644.061H142.804L144.013 655.817L145.55 644.061H147.575L149.122 655.817L150.191 644.061H152.45L150.557 660.561H148.054L146.591 649.592L145.072 660.561H142.569ZM154.686 660.561V644.061H160.217V646.227H157.198V651.027H160.067V653.145H157.198V658.395H160.33V660.561H154.686ZM162.762 660.561V644.061H168.293V646.227H165.274V651.027H168.143V653.145H165.274V658.395H168.406V660.561H162.762ZM170.838 660.561V644.061H173.35V651.655L175.863 644.061H178.46L175.722 652.198L178.675 660.561H176.022L173.369 652.855V660.561H170.838ZM180.62 660.561V644.061H183.133V658.423H186.311V660.561H180.62ZM189.09 660.561V653.97L186.324 644.061H188.724L190.355 650.23H190.393L191.846 644.061H194.237L191.602 653.97V660.561H189.09ZM202.795 662.623V660.064H204.145V662.623H202.795ZM202.711 646.461V644.061H204.061V646.461H202.711ZM203.142 660.533C202.011 660.533 201.17 660.211 200.62 659.567C200.07 658.923 199.795 657.87 199.795 656.408V655.498H202.129V656.633C202.129 657.245 202.204 657.711 202.354 658.03C202.504 658.348 202.748 658.508 203.086 658.508C203.411 658.508 203.651 658.398 203.807 658.18C203.964 657.961 204.042 657.583 204.042 657.045C204.042 656.733 203.995 656.43 203.901 656.136C203.814 655.842 203.673 655.555 203.479 655.273C203.292 654.986 203.048 654.708 202.748 654.439L201.482 653.295C200.901 652.77 200.467 652.205 200.179 651.598C199.892 650.986 199.748 650.311 199.748 649.573C199.748 648.38 200.026 647.508 200.582 646.958C201.145 646.402 201.976 646.123 203.076 646.123C203.789 646.123 204.379 646.258 204.848 646.527C205.317 646.789 205.667 647.217 205.898 647.811C206.129 648.405 206.245 649.202 206.245 650.202V650.97H204.023V650.042C204.023 649.423 203.951 648.955 203.807 648.636C203.67 648.317 203.432 648.158 203.095 648.158C202.764 648.158 202.52 648.252 202.364 648.439C202.207 648.62 202.123 648.942 202.111 649.405C202.104 649.655 202.136 649.902 202.204 650.145C202.273 650.383 202.379 650.617 202.523 650.848C202.673 651.073 202.867 651.295 203.104 651.514L204.436 652.723C205.136 653.355 205.651 654.014 205.982 654.702C206.32 655.389 206.489 656.133 206.489 656.933C206.489 658.114 206.22 659.011 205.682 659.623C205.145 660.23 204.298 660.533 203.142 660.533ZM209.268 660.561V644.061H214.799V646.227H211.78V651.027H214.649V653.145H211.78V658.395H214.912V660.561H209.268ZM220.813 660.748C219.956 660.748 219.256 660.567 218.713 660.205C218.175 659.842 217.778 659.305 217.522 658.592C217.266 657.88 217.138 656.998 217.138 655.948V648.402C217.138 647.452 217.263 646.639 217.513 645.964C217.763 645.289 218.159 644.77 218.703 644.408C219.247 644.045 219.959 643.864 220.841 643.864C221.503 643.864 222.063 643.967 222.519 644.173C222.975 644.38 223.344 644.68 223.625 645.073C223.906 645.461 224.109 645.936 224.234 646.498C224.366 647.055 224.431 647.689 224.431 648.402V655.948C224.431 656.998 224.306 657.88 224.056 658.592C223.813 659.305 223.425 659.842 222.894 660.205C222.363 660.567 221.669 660.748 220.813 660.748ZM220.813 658.573C221.125 658.573 221.359 658.48 221.516 658.292C221.672 658.105 221.775 657.82 221.825 657.439C221.881 657.052 221.909 656.564 221.909 655.977V648.289C221.909 647.57 221.841 647.017 221.703 646.63C221.572 646.236 221.284 646.039 220.841 646.039C220.384 646.039 220.075 646.23 219.913 646.611C219.75 646.986 219.669 647.542 219.669 648.28V655.977C219.669 656.577 219.694 657.07 219.744 657.458C219.8 657.839 219.909 658.12 220.072 658.302C220.241 658.483 220.488 658.573 220.813 658.573ZM227.295 660.561V644.061H230.867C231.698 644.061 232.36 644.189 232.854 644.445C233.348 644.695 233.704 645.095 233.923 645.645C234.148 646.189 234.26 646.905 234.26 647.792V648.298C234.26 649.155 234.148 649.861 233.923 650.417C233.704 650.967 233.335 651.352 232.817 651.57C233.248 651.714 233.592 651.973 233.848 652.348C234.11 652.717 234.298 653.17 234.41 653.708C234.523 654.239 234.579 654.823 234.579 655.461V655.883C234.573 656.983 234.445 657.88 234.195 658.573C233.945 659.261 233.554 659.764 233.023 660.083C232.492 660.402 231.798 660.561 230.942 660.561H227.295ZM229.807 658.611H230.698C231.029 658.611 231.292 658.539 231.485 658.395C231.685 658.245 231.829 657.998 231.917 657.655C232.004 657.311 232.048 656.842 232.048 656.248V654.917C232.048 654.117 231.97 653.536 231.814 653.173C231.664 652.805 231.348 652.62 230.867 652.62H229.807V658.611ZM229.807 650.736H230.735C230.954 650.736 231.132 650.705 231.27 650.642C231.407 650.58 231.514 650.473 231.589 650.323C231.664 650.167 231.714 649.952 231.739 649.677C231.77 649.402 231.785 649.052 231.785 648.627V647.633C231.785 647.189 231.745 646.852 231.664 646.62C231.582 646.389 231.457 646.233 231.289 646.152C231.126 646.07 230.914 646.03 230.651 646.03H229.807V650.736ZM240.565 660.748C239.708 660.748 239.008 660.567 238.465 660.205C237.927 659.842 237.53 659.305 237.274 658.592C237.018 657.88 236.89 656.998 236.89 655.948V648.402C236.89 647.452 237.015 646.639 237.265 645.964C237.515 645.289 237.911 644.77 238.455 644.408C238.999 644.045 239.711 643.864 240.593 643.864C241.255 643.864 241.815 643.967 242.271 644.173C242.727 644.38 243.096 644.68 243.377 645.073C243.658 645.461 243.861 645.936 243.986 646.498C244.118 647.055 244.183 647.689 244.183 648.402V655.948C244.183 656.998 244.058 657.88 243.808 658.592C243.565 659.305 243.177 659.842 242.646 660.205C242.115 660.567 241.421 660.748 240.565 660.748ZM240.565 658.573C240.877 658.573 241.111 658.48 241.268 658.292C241.424 658.105 241.527 657.82 241.577 657.439C241.633 657.052 241.661 656.564 241.661 655.977V648.289C241.661 647.57 241.593 647.017 241.455 646.63C241.324 646.236 241.036 646.039 240.593 646.039C240.136 646.039 239.827 646.23 239.665 646.611C239.502 646.986 239.421 647.542 239.421 648.28V655.977C239.421 656.577 239.446 657.07 239.496 657.458C239.552 657.839 239.661 658.12 239.824 658.302C239.993 658.483 240.24 658.573 240.565 658.573ZM251.073 660.561V644.061H254.645C255.476 644.061 256.138 644.189 256.632 644.445C257.126 644.695 257.482 645.095 257.701 645.645C257.926 646.189 258.038 646.905 258.038 647.792V648.298C258.038 649.155 257.926 649.861 257.701 650.417C257.482 650.967 257.113 651.352 256.595 651.57C257.026 651.714 257.37 651.973 257.626 652.348C257.888 652.717 258.076 653.17 258.188 653.708C258.301 654.239 258.357 654.823 258.357 655.461V655.883C258.351 656.983 258.223 657.88 257.973 658.573C257.723 659.261 257.332 659.764 256.801 660.083C256.27 660.402 255.576 660.561 254.72 660.561H251.073ZM253.585 658.611H254.476C254.807 658.611 255.07 658.539 255.263 658.395C255.463 658.245 255.607 657.998 255.695 657.655C255.782 657.311 255.826 656.842 255.826 656.248V654.917C255.826 654.117 255.748 653.536 255.592 653.173C255.442 652.805 255.126 652.62 254.645 652.62H253.585V658.611ZM253.585 650.736H254.513C254.732 650.736 254.91 650.705 255.048 650.642C255.185 650.58 255.292 650.473 255.367 650.323C255.442 650.167 255.492 649.952 255.517 649.677C255.548 649.402 255.563 649.052 255.563 648.627V647.633C255.563 647.189 255.523 646.852 255.442 646.62C255.36 646.389 255.235 646.233 255.067 646.152C254.904 646.07 254.692 646.03 254.429 646.03H253.585V650.736ZM264.399 660.748C263.543 660.748 262.846 660.589 262.308 660.27C261.771 659.945 261.377 659.458 261.127 658.808C260.877 658.152 260.752 657.323 260.752 656.323V644.061H263.264V656.277C263.264 656.739 263.283 657.145 263.321 657.495C263.364 657.845 263.464 658.117 263.621 658.311C263.777 658.505 264.033 658.602 264.389 658.602C264.746 658.602 265.002 658.508 265.158 658.32C265.321 658.127 265.421 657.855 265.458 657.505C265.496 657.155 265.514 656.745 265.514 656.277V644.061H268.027V656.323C268.027 657.323 267.902 658.152 267.652 658.808C267.408 659.458 267.018 659.945 266.48 660.27C265.949 660.589 265.255 660.748 264.399 660.748ZM270.956 660.561V644.061H275.109C275.972 644.061 276.615 644.23 277.04 644.567C277.465 644.905 277.744 645.398 277.875 646.048C278.012 646.698 278.081 647.492 278.081 648.43C278.081 649.398 277.981 650.161 277.781 650.717C277.587 651.267 277.187 651.636 276.581 651.823C276.869 651.873 277.109 651.992 277.303 652.18C277.497 652.361 277.653 652.63 277.772 652.986C277.89 653.336 277.975 653.789 278.025 654.345C278.081 654.895 278.109 655.57 278.109 656.37C278.109 656.433 278.109 656.608 278.109 656.895C278.109 657.183 278.109 657.523 278.109 657.917C278.115 658.305 278.122 658.692 278.128 659.08C278.134 659.467 278.144 659.798 278.156 660.073C278.169 660.348 278.184 660.511 278.203 660.561H275.69C275.672 660.53 275.656 660.37 275.644 660.083C275.637 659.789 275.628 659.417 275.615 658.967C275.609 658.517 275.603 658.033 275.597 657.514C275.597 656.995 275.597 656.486 275.597 655.986C275.597 655.48 275.597 655.033 275.597 654.645C275.597 654.152 275.559 653.78 275.484 653.53C275.415 653.273 275.284 653.095 275.09 652.995C274.903 652.895 274.631 652.836 274.275 652.817L273.469 652.77V660.561H270.956ZM273.478 650.82H274.481C274.787 650.82 275.019 650.752 275.175 650.614C275.337 650.477 275.447 650.223 275.503 649.855C275.565 649.486 275.597 648.955 275.597 648.261V648.158C275.597 647.577 275.569 647.13 275.512 646.817C275.456 646.505 275.337 646.289 275.156 646.17C274.981 646.052 274.706 645.992 274.331 645.992H273.478V650.82ZM280.832 660.561V644.061H282.801L286.298 653.961L286.12 649.461V644.061H288.379V660.561H286.598L283.007 650.314L283.148 654.645V660.561H280.832Z" fill="#FF002E"/>
<rect x="346.828" y="178.247" width="171.765" height="93.052" rx="17.2845" fill="#E3F6FF"/>
<path d="M390.039 247.773V245.433C390.039 243.993 390.189 242.583 390.489 241.203C390.804 239.823 391.276 238.42 391.906 236.995C392.536 235.57 393.324 234.07 394.269 232.495L398.184 225.993C398.454 225.543 398.694 225.078 398.904 224.598C399.129 224.103 399.316 223.563 399.466 222.978C399.616 222.393 399.729 221.733 399.804 220.998C399.894 220.248 399.939 219.393 399.939 218.433C399.939 216.978 399.849 215.853 399.669 215.058C399.504 214.263 399.256 213.708 398.926 213.393C398.611 213.078 398.229 212.92 397.779 212.92C397.329 212.92 396.916 213.063 396.541 213.348C396.181 213.618 395.896 214.173 395.686 215.013C395.476 215.838 395.371 217.098 395.371 218.793V223.81H389.611V221.38C389.611 218.53 389.799 216.085 390.174 214.045C390.564 212.005 391.351 210.445 392.536 209.365C393.721 208.27 395.521 207.723 397.936 207.723C399.811 207.723 401.311 208.218 402.436 209.208C403.561 210.198 404.379 211.525 404.889 213.19C405.399 214.84 405.654 216.67 405.654 218.68C405.654 219.91 405.541 221.065 405.316 222.145C405.106 223.225 404.814 224.245 404.439 225.205C404.064 226.15 403.636 227.043 403.156 227.883L399.511 234.363C399.031 235.233 398.551 236.118 398.071 237.018C397.606 237.918 397.171 238.863 396.766 239.853C396.376 240.843 396.046 241.908 395.776 243.048H404.911V247.773H390.039Z" fill="#194459"/>
<path d="M428.035 221.96C427.179 221.96 426.482 221.801 425.945 221.482C425.407 221.157 425.013 220.67 424.763 220.02C424.513 219.364 424.388 218.535 424.388 217.535V205.273H426.901V217.489C426.901 217.951 426.92 218.357 426.957 218.707C427.001 219.057 427.101 219.329 427.257 219.523C427.413 219.717 427.67 219.814 428.026 219.814C428.382 219.814 428.638 219.72 428.795 219.532C428.957 219.339 429.057 219.067 429.095 218.717C429.132 218.367 429.151 217.957 429.151 217.489V205.273H431.663V217.535C431.663 218.535 431.538 219.364 431.288 220.02C431.045 220.67 430.654 221.157 430.116 221.482C429.585 221.801 428.891 221.96 428.035 221.96ZM437.602 221.96C436.914 221.96 436.339 221.854 435.877 221.642C435.421 221.423 435.058 221.107 434.789 220.695C434.527 220.276 434.339 219.77 434.227 219.176C434.114 218.576 434.058 217.895 434.058 217.132V215.66H436.439V217.32C436.439 218.207 436.514 218.845 436.664 219.232C436.814 219.62 437.111 219.814 437.555 219.814C437.855 219.814 438.08 219.745 438.23 219.607C438.386 219.464 438.489 219.239 438.539 218.932C438.596 218.62 438.624 218.214 438.624 217.714C438.624 217.095 438.492 216.529 438.23 216.017C437.974 215.504 437.583 214.973 437.058 214.423L435.839 213.167C435.502 212.817 435.196 212.445 434.921 212.051C434.652 211.657 434.436 211.22 434.274 210.739C434.117 210.251 434.039 209.707 434.039 209.107C434.039 208.239 434.146 207.504 434.358 206.904C434.571 206.304 434.93 205.851 435.436 205.545C435.942 205.232 436.636 205.076 437.517 205.076C438.18 205.076 438.724 205.179 439.149 205.385C439.58 205.585 439.914 205.882 440.152 206.276C440.396 206.664 440.567 207.139 440.667 207.701C440.767 208.257 440.817 208.895 440.817 209.614V210.635H438.502V209.454C438.502 208.954 438.474 208.539 438.417 208.207C438.367 207.876 438.271 207.629 438.127 207.467C437.983 207.298 437.774 207.214 437.499 207.214C437.236 207.214 437.024 207.273 436.861 207.392C436.699 207.504 436.58 207.682 436.505 207.926C436.436 208.164 436.402 208.473 436.402 208.854C436.402 209.198 436.446 209.495 436.533 209.745C436.621 209.995 436.755 210.235 436.936 210.467C437.117 210.698 437.342 210.957 437.611 211.245L438.971 212.717C439.621 213.417 440.127 214.145 440.489 214.901C440.852 215.657 441.033 216.501 441.033 217.432C441.033 218.42 440.927 219.251 440.714 219.926C440.502 220.595 440.146 221.101 439.646 221.445C439.146 221.789 438.464 221.96 437.602 221.96ZM443.381 221.773V205.273H448.912V207.439H445.893V212.239H448.762V214.357H445.893V219.607H449.025V221.773H443.381ZM451.457 221.773V205.273H455.61C456.473 205.273 457.116 205.442 457.541 205.779C457.966 206.117 458.244 206.61 458.376 207.26C458.513 207.91 458.582 208.704 458.582 209.642C458.582 210.61 458.482 211.373 458.282 211.929C458.088 212.479 457.688 212.848 457.082 213.035C457.369 213.085 457.61 213.204 457.804 213.392C457.998 213.573 458.154 213.842 458.273 214.198C458.391 214.548 458.476 215.001 458.526 215.557C458.582 216.107 458.61 216.782 458.61 217.582C458.61 217.645 458.61 217.82 458.61 218.107C458.61 218.395 458.61 218.735 458.61 219.129C458.616 219.517 458.623 219.904 458.629 220.292C458.635 220.679 458.644 221.01 458.657 221.285C458.669 221.56 458.685 221.723 458.704 221.773H456.191C456.173 221.742 456.157 221.582 456.144 221.295C456.138 221.001 456.129 220.629 456.116 220.179C456.11 219.729 456.104 219.245 456.098 218.726C456.098 218.207 456.098 217.698 456.098 217.198C456.098 216.692 456.098 216.245 456.098 215.857C456.098 215.364 456.06 214.992 455.985 214.742C455.916 214.485 455.785 214.307 455.591 214.207C455.404 214.107 455.132 214.048 454.776 214.029L453.969 213.982V221.773H451.457ZM453.979 212.032H454.982C455.288 212.032 455.519 211.964 455.676 211.826C455.838 211.689 455.948 211.435 456.004 211.067C456.066 210.698 456.098 210.167 456.098 209.473V209.37C456.098 208.789 456.069 208.342 456.013 208.029C455.957 207.717 455.838 207.501 455.657 207.382C455.482 207.264 455.207 207.204 454.832 207.204H453.979V212.032ZM464.342 221.96C463.655 221.96 463.08 221.854 462.617 221.642C462.161 221.423 461.799 221.107 461.53 220.695C461.267 220.276 461.08 219.77 460.967 219.176C460.855 218.576 460.799 217.895 460.799 217.132V215.66H463.18V217.32C463.18 218.207 463.255 218.845 463.405 219.232C463.555 219.62 463.852 219.814 464.295 219.814C464.595 219.814 464.82 219.745 464.97 219.607C465.127 219.464 465.23 219.239 465.28 218.932C465.336 218.62 465.364 218.214 465.364 217.714C465.364 217.095 465.233 216.529 464.97 216.017C464.714 215.504 464.324 214.973 463.799 214.423L462.58 213.167C462.242 212.817 461.936 212.445 461.661 212.051C461.392 211.657 461.177 211.22 461.014 210.739C460.858 210.251 460.78 209.707 460.78 209.107C460.78 208.239 460.886 207.504 461.099 206.904C461.311 206.304 461.67 205.851 462.177 205.545C462.683 205.232 463.377 205.076 464.258 205.076C464.92 205.076 465.464 205.179 465.889 205.385C466.32 205.585 466.655 205.882 466.892 206.276C467.136 206.664 467.308 207.139 467.408 207.701C467.508 208.257 467.558 208.895 467.558 209.614V210.635H465.242V209.454C465.242 208.954 465.214 208.539 465.158 208.207C465.108 207.876 465.011 207.629 464.867 207.467C464.724 207.298 464.514 207.214 464.239 207.214C463.977 207.214 463.764 207.273 463.602 207.392C463.439 207.504 463.32 207.682 463.245 207.926C463.177 208.164 463.142 208.473 463.142 208.854C463.142 209.198 463.186 209.495 463.274 209.745C463.361 209.995 463.495 210.235 463.677 210.467C463.858 210.698 464.083 210.957 464.352 211.245L465.711 212.717C466.361 213.417 466.867 214.145 467.23 214.901C467.592 215.657 467.774 216.501 467.774 217.432C467.774 218.42 467.667 219.251 467.455 219.926C467.242 220.595 466.886 221.101 466.386 221.445C465.886 221.789 465.205 221.96 464.342 221.96ZM424.51 246.773V230.273H430.041V232.439H427.023V237.239H429.891V239.357H427.023V244.607H430.154V246.773H424.51ZM432.586 246.773V230.273H434.555L438.052 240.173L437.874 235.673V230.273H440.133V246.773H438.352L434.761 236.526L434.902 240.857V246.773H432.586ZM446.297 246.942C445.303 246.942 444.503 246.551 443.897 245.77C443.29 244.982 442.987 243.707 442.987 241.945V234.773C442.987 234.035 443.056 233.376 443.193 232.795C443.337 232.214 443.556 231.723 443.85 231.323C444.15 230.917 444.537 230.61 445.012 230.404C445.487 230.192 446.059 230.085 446.728 230.085C447.453 230.085 448.043 230.195 448.5 230.414C448.956 230.626 449.306 230.939 449.55 231.351C449.8 231.757 449.972 232.257 450.065 232.851C450.159 233.445 450.206 234.117 450.206 234.867V236.039H447.862V234.314C447.862 233.57 447.784 233.042 447.628 232.729C447.478 232.417 447.19 232.26 446.765 232.26C446.297 232.26 445.972 232.445 445.79 232.814C445.609 233.176 445.518 233.823 445.518 234.754V241.907C445.518 242.945 445.593 243.689 445.743 244.139C445.9 244.582 446.222 244.804 446.709 244.804C447.184 244.804 447.518 244.576 447.712 244.12C447.912 243.657 448.012 242.889 448.012 241.814V239.592H446.747V237.764H450.206V246.773H449.081L448.697 245.151C448.559 245.72 448.265 246.16 447.815 246.473C447.372 246.785 446.865 246.942 446.297 246.942ZM452.169 246.773L454.523 230.273H457.841L460.344 246.773H458.001L457.607 243.829H454.944L454.588 246.773H452.169ZM455.188 241.814H457.344L456.238 233.526H456.201L455.188 241.814ZM465.524 246.942C464.53 246.942 463.73 246.551 463.124 245.77C462.517 244.982 462.214 243.707 462.214 241.945V234.773C462.214 234.035 462.283 233.376 462.42 232.795C462.564 232.214 462.783 231.723 463.077 231.323C463.377 230.917 463.764 230.61 464.239 230.404C464.714 230.192 465.286 230.085 465.955 230.085C466.68 230.085 467.27 230.195 467.727 230.414C468.183 230.626 468.533 230.939 468.777 231.351C469.027 231.757 469.199 232.257 469.292 232.851C469.386 233.445 469.433 234.117 469.433 234.867V236.039H467.089V234.314C467.089 233.57 467.011 233.042 466.855 232.729C466.705 232.417 466.417 232.26 465.992 232.26C465.524 232.26 465.199 232.445 465.017 232.814C464.836 233.176 464.745 233.823 464.745 234.754V241.907C464.745 242.945 464.82 243.689 464.97 244.139C465.127 244.582 465.449 244.804 465.936 244.804C466.411 244.804 466.745 244.576 466.939 244.12C467.139 243.657 467.239 242.889 467.239 241.814V239.592H465.974V237.764H469.433V246.773H468.308L467.924 245.151C467.786 245.72 467.492 246.16 467.042 246.473C466.599 246.785 466.092 246.942 465.524 246.942ZM472.371 246.773V230.273H477.903V232.439H474.884V237.239H477.753V239.357H474.884V244.607H478.015V246.773H472.371Z" fill="#194459"/>
<path d="M433.524 176.554L439.761 165.751L427.287 165.751L433.524 176.554ZM432.444 144.758L432.444 166.831L434.605 166.831L434.605 144.758L432.444 144.758Z" fill="#194459"/>
<path d="M334.08 449.396L340.317 438.593L327.843 438.593L334.08 449.396ZM333 417.6L333 439.674L335.16 439.674L335.16 417.6L333 417.6Z" fill="#194459"/>
<path d="M433.523 297.4V298.48H434.604V297.4H433.523ZM333.864 297.4V296.32H332.784V297.4H333.864ZM333.864 323.67L340.101 312.867H327.627L333.864 323.67ZM432.443 271.467V297.4H434.604V271.467H432.443ZM433.523 296.32H333.864V298.48H433.523V296.32ZM332.784 297.4V313.947H334.945V297.4H332.784Z" fill="#194459"/>
<path d="M4.14976 345.2L4.14976 328.7H7.27164L9.61539 340.756L11.8185 328.7H14.9591L14.9591 345.2H12.7185V339.05L12.8123 333.406L10.5904 345.125H8.59351L6.27789 333.406L6.37164 339.05L6.37164 345.2H4.14976ZM21.5445 345.388C20.6883 345.388 19.9914 345.228 19.4539 344.91C18.9164 344.585 18.5226 344.097 18.2726 343.447C18.0226 342.791 17.8976 341.963 17.8976 340.963L17.8976 328.7H20.4101L20.4101 340.916C20.4101 341.378 20.4289 341.785 20.4664 342.135C20.5101 342.485 20.6101 342.756 20.7664 342.95C20.9226 343.144 21.1789 343.241 21.5351 343.241C21.8914 343.241 22.1476 343.147 22.3039 342.96C22.4664 342.766 22.5664 342.494 22.6039 342.144C22.6414 341.794 22.6601 341.385 22.6601 340.916L22.6601 328.7H25.1726L25.1726 340.963C25.1726 341.963 25.0476 342.791 24.7976 343.447C24.5539 344.097 24.1633 344.585 23.6258 344.91C23.0945 345.228 22.4008 345.388 21.5445 345.388ZM28.1018 345.2L28.1018 328.7H30.6143L30.6143 343.063H33.7924V345.2H28.1018ZM36.309 345.2V330.875H34.3778L34.3778 328.7H40.6684L40.6684 330.875H38.8121V345.2H36.309ZM42.7163 345.2L42.7163 328.7H45.2288L45.2288 345.2H42.7163ZM48.336 345.2L48.336 328.7H52.1235C52.7798 328.7 53.3235 328.8 53.7548 329C54.1923 329.2 54.536 329.497 54.786 329.891C55.036 330.285 55.2141 330.772 55.3204 331.353C55.4266 331.928 55.4798 332.594 55.4798 333.35V333.697C55.4798 334.76 55.386 335.666 55.1985 336.416C55.0173 337.16 54.6891 337.725 54.2141 338.113C53.7391 338.5 53.0704 338.694 52.2079 338.694H50.8485V345.2H48.336ZM50.8485 336.622H51.711C52.0798 336.622 52.3548 336.528 52.536 336.341C52.7173 336.153 52.836 335.844 52.8923 335.413C52.9548 334.975 52.986 334.394 52.986 333.669V333.35C52.9798 332.456 52.9016 331.781 52.7516 331.325C52.6016 330.863 52.261 330.631 51.7298 330.631H50.8485V336.622ZM57.762 345.2L57.762 328.7H60.2745L60.2745 343.063H63.4526V345.2H57.762ZM65.4443 345.2V328.7H67.9568V345.2H65.4443ZM71.064 345.2V328.7H76.5953V330.866H73.5765V335.666H76.4453V337.785H73.5765V343.035H76.7078V345.2H71.064ZM79.14 345.2V328.7H83.2931C84.1556 328.7 84.7994 328.869 85.2244 329.206C85.6494 329.544 85.9275 330.038 86.0588 330.688C86.1963 331.338 86.265 332.131 86.265 333.069C86.265 334.038 86.165 334.8 85.965 335.356C85.7713 335.906 85.3713 336.275 84.765 336.463C85.0525 336.513 85.2931 336.631 85.4869 336.819C85.6806 337 85.8369 337.269 85.9556 337.625C86.0744 337.975 86.1588 338.428 86.2088 338.985C86.265 339.535 86.2931 340.21 86.2931 341.01C86.2931 341.072 86.2931 341.247 86.2931 341.535C86.2931 341.822 86.2931 342.163 86.2931 342.556C86.2994 342.944 86.3056 343.331 86.3119 343.719C86.3181 344.106 86.3275 344.438 86.34 344.713C86.3525 344.988 86.3681 345.15 86.3869 345.2H83.8744C83.8556 345.169 83.84 345.01 83.8275 344.722C83.8213 344.428 83.8119 344.056 83.7994 343.606C83.7931 343.156 83.7869 342.672 83.7806 342.153C83.7806 341.635 83.7806 341.125 83.7806 340.625C83.7806 340.119 83.7806 339.672 83.7806 339.285C83.7806 338.791 83.7431 338.419 83.6681 338.169C83.5994 337.913 83.4681 337.735 83.2744 337.635C83.0869 337.535 82.815 337.475 82.4588 337.456L81.6525 337.41V345.2H79.14ZM81.6619 335.46H82.665C82.9713 335.46 83.2025 335.391 83.3588 335.253C83.5213 335.116 83.6306 334.863 83.6869 334.494C83.7494 334.125 83.7806 333.594 83.7806 332.9V332.797C83.7806 332.216 83.7525 331.769 83.6963 331.456C83.64 331.144 83.5213 330.928 83.34 330.81C83.165 330.691 82.89 330.631 82.515 330.631H81.6619V335.46Z" fill="#FF002E"/>
<path d="M93.042 345.2V328.7H96.6139C97.4451 328.7 98.1076 328.828 98.6014 329.085C99.0951 329.335 99.4514 329.735 99.6701 330.285C99.8951 330.828 100.008 331.544 100.008 332.431V332.938C100.008 333.794 99.8951 334.5 99.6701 335.056C99.4514 335.606 99.0826 335.991 98.5639 336.21C98.9951 336.353 99.3389 336.613 99.5951 336.988C99.8576 337.356 100.045 337.81 100.158 338.347C100.27 338.878 100.326 339.463 100.326 340.1V340.522C100.32 341.622 100.192 342.519 99.942 343.213C99.692 343.9 99.3014 344.403 98.7701 344.722C98.2389 345.041 97.5451 345.2 96.6889 345.2H93.042ZM95.5545 343.25H96.4451C96.7764 343.25 97.0389 343.178 97.2326 343.035C97.4326 342.885 97.5764 342.638 97.6639 342.294C97.7514 341.95 97.7951 341.481 97.7951 340.888V339.556C97.7951 338.756 97.717 338.175 97.5608 337.813C97.4108 337.444 97.0951 337.26 96.6139 337.26H95.5545V343.25ZM95.5545 335.375H96.4826C96.7014 335.375 96.8795 335.344 97.017 335.281C97.1545 335.219 97.2608 335.113 97.3358 334.963C97.4108 334.806 97.4608 334.591 97.4858 334.316C97.517 334.041 97.5326 333.691 97.5326 333.266V332.272C97.5326 331.828 97.492 331.491 97.4108 331.26C97.3295 331.028 97.2045 330.872 97.0358 330.791C96.8733 330.71 96.6608 330.669 96.3983 330.669H95.5545V335.375ZM101.868 345.2L104.221 328.7H107.54L110.043 345.2H107.699L107.306 342.256H104.643L104.287 345.2H101.868ZM104.887 340.241H107.043L105.937 331.953H105.899L104.887 340.241ZM115.128 345.388C114.441 345.388 113.866 345.281 113.403 345.069C112.947 344.85 112.585 344.535 112.316 344.122C112.053 343.703 111.866 343.197 111.753 342.603C111.641 342.003 111.585 341.322 111.585 340.56V339.088H113.966V340.747C113.966 341.635 114.041 342.272 114.191 342.66C114.341 343.047 114.638 343.241 115.082 343.241C115.382 343.241 115.607 343.172 115.757 343.035C115.913 342.891 116.016 342.666 116.066 342.36C116.122 342.047 116.15 341.641 116.15 341.141C116.15 340.522 116.019 339.956 115.757 339.444C115.5 338.931 115.11 338.4 114.585 337.85L113.366 336.594C113.028 336.244 112.722 335.872 112.447 335.478C112.178 335.085 111.963 334.647 111.8 334.166C111.644 333.678 111.566 333.135 111.566 332.535C111.566 331.666 111.672 330.931 111.885 330.331C112.097 329.731 112.457 329.278 112.963 328.972C113.469 328.66 114.163 328.503 115.044 328.503C115.707 328.503 116.25 328.606 116.675 328.813C117.107 329.013 117.441 329.31 117.678 329.703C117.922 330.091 118.094 330.566 118.194 331.128C118.294 331.685 118.344 332.322 118.344 333.041V334.063H116.028V332.881C116.028 332.381 116 331.966 115.944 331.635C115.894 331.303 115.797 331.056 115.653 330.894C115.51 330.725 115.3 330.641 115.025 330.641C114.763 330.641 114.55 330.7 114.388 330.819C114.225 330.931 114.107 331.11 114.032 331.353C113.963 331.591 113.928 331.9 113.928 332.281C113.928 332.625 113.972 332.922 114.06 333.172C114.147 333.422 114.282 333.663 114.463 333.894C114.644 334.125 114.869 334.385 115.138 334.672L116.497 336.144C117.147 336.844 117.653 337.572 118.016 338.328C118.378 339.085 118.56 339.928 118.56 340.86C118.56 341.847 118.453 342.678 118.241 343.353C118.028 344.022 117.672 344.528 117.172 344.872C116.672 345.216 115.991 345.388 115.128 345.388ZM120.908 345.2V328.7H126.439V330.866H123.42V335.666H126.289V337.785H123.42V343.035H126.551V345.2H120.908ZM128.984 345.2V328.7H132.687C133.524 328.7 134.196 328.869 134.702 329.206C135.209 329.538 135.574 330.019 135.799 330.65C136.03 331.281 136.146 332.044 136.146 332.938L136.155 340.381C136.155 341.463 136.037 342.363 135.799 343.081C135.568 343.794 135.193 344.325 134.674 344.675C134.155 345.025 133.465 345.2 132.602 345.2H128.984ZM131.496 343.25H132.321C132.615 343.25 132.859 343.191 133.052 343.072C133.252 342.953 133.399 342.744 133.493 342.444C133.593 342.138 133.643 341.706 133.643 341.15L133.634 333.003C133.634 332.16 133.53 331.553 133.324 331.185C133.118 330.816 132.755 330.631 132.237 330.631H131.496V343.25ZM17.007 370.388C16.1508 370.388 15.4508 370.206 14.907 369.844C14.3695 369.481 13.9726 368.944 13.7164 368.231C13.4601 367.519 13.332 366.638 13.332 365.588V358.041C13.332 357.091 13.457 356.278 13.707 355.603C13.957 354.928 14.3539 354.41 14.8976 354.047C15.4414 353.685 16.1539 353.503 17.0351 353.503C17.6976 353.503 18.257 353.606 18.7133 353.813C19.1695 354.019 19.5383 354.319 19.8195 354.713C20.1008 355.1 20.3039 355.575 20.4289 356.138C20.5601 356.694 20.6258 357.328 20.6258 358.041L20.6258 365.588C20.6258 366.638 20.5008 367.519 20.2508 368.231C20.007 368.944 19.6195 369.481 19.0883 369.844C18.557 370.206 17.8633 370.388 17.007 370.388ZM17.007 368.213C17.3195 368.213 17.5539 368.119 17.7101 367.931C17.8664 367.744 17.9695 367.46 18.0195 367.078C18.0758 366.691 18.1039 366.203 18.1039 365.616L18.1039 357.928C18.1039 357.21 18.0351 356.656 17.8976 356.269C17.7664 355.875 17.4789 355.678 17.0351 355.678C16.5789 355.678 16.2695 355.869 16.107 356.25C15.9445 356.625 15.8633 357.181 15.8633 357.919V365.616C15.8633 366.216 15.8883 366.71 15.9383 367.097C15.9945 367.478 16.1039 367.76 16.2664 367.941C16.4351 368.122 16.682 368.213 17.007 368.213ZM23.4893 370.2L23.4893 353.7H25.458L28.9549 363.6L28.7768 359.1V353.7H31.0361L31.0361 370.2H29.2549L25.6643 359.953L25.8049 364.285V370.2H23.4893ZM41.1319 370.388C40.4444 370.388 39.8694 370.281 39.4069 370.069C38.9506 369.85 38.5881 369.535 38.3194 369.122C38.0569 368.703 37.8694 368.197 37.7569 367.603C37.6444 367.003 37.5881 366.322 37.5881 365.56V364.088H39.9694V365.747C39.9694 366.635 40.0444 367.272 40.1944 367.66C40.3444 368.047 40.6413 368.241 41.085 368.241C41.385 368.241 41.61 368.172 41.76 368.035C41.9163 367.891 42.0194 367.666 42.0694 367.36C42.1256 367.047 42.1538 366.641 42.1538 366.141C42.1538 365.522 42.0225 364.956 41.76 364.444C41.5038 363.931 41.1131 363.4 40.5881 362.85L39.3694 361.594C39.0319 361.244 38.7256 360.872 38.4506 360.478C38.1819 360.085 37.9663 359.647 37.8038 359.166C37.6475 358.678 37.5694 358.135 37.5694 357.535C37.5694 356.666 37.6756 355.931 37.8881 355.331C38.1006 354.731 38.46 354.278 38.9663 353.972C39.4725 353.66 40.1663 353.503 41.0475 353.503C41.71 353.503 42.2538 353.606 42.6788 353.813C43.11 354.013 43.4444 354.31 43.6819 354.703C43.9256 355.091 44.0975 355.566 44.1975 356.128C44.2975 356.685 44.3475 357.322 44.3475 358.041V359.063H42.0319V357.881C42.0319 357.381 42.0038 356.966 41.9475 356.635C41.8975 356.303 41.8006 356.056 41.6569 355.894C41.5131 355.725 41.3038 355.641 41.0288 355.641C40.7663 355.641 40.5538 355.7 40.3913 355.819C40.2288 355.931 40.11 356.11 40.035 356.353C39.9663 356.591 39.9319 356.9 39.9319 357.281C39.9319 357.625 39.9756 357.922 40.0631 358.172C40.1506 358.422 40.285 358.663 40.4663 358.894C40.6475 359.125 40.8725 359.385 41.1413 359.672L42.5006 361.144C43.1506 361.844 43.6569 362.572 44.0194 363.328C44.3819 364.085 44.5631 364.928 44.5631 365.86C44.5631 366.847 44.4569 367.678 44.2444 368.353C44.0319 369.022 43.6756 369.528 43.1756 369.872C42.6756 370.216 41.9944 370.388 41.1319 370.388ZM47.7735 370.2V355.875H45.8423V353.7H52.1329V355.875H50.2766V370.2H47.7735ZM52.6808 370.2L55.0339 353.7H58.3526L60.8558 370.2H58.512L58.1183 367.256H55.4558L55.0995 370.2H52.6808ZM55.6995 365.241H57.8558L56.7495 356.953H56.712L55.6995 365.241ZM62.9318 370.2V353.7H65.4443V361.294L67.9568 353.7H70.5536L67.8161 361.838L70.7693 370.2H68.1161L65.463 362.494V370.2H62.9318ZM72.714 370.2V353.7H78.2453V355.866H75.2265V360.666H78.0953V362.785H75.2265V368.035H78.3578V370.2H72.714ZM80.79 370.2V353.7H84.4931C85.3306 353.7 86.0025 353.869 86.5088 354.206C87.015 354.538 87.3806 355.019 87.6056 355.65C87.8369 356.281 87.9525 357.044 87.9525 357.938L87.9619 365.381C87.9619 366.463 87.8431 367.363 87.6056 368.081C87.3744 368.794 86.9994 369.325 86.4806 369.675C85.9619 370.025 85.2713 370.2 84.4088 370.2H80.79ZM83.3025 368.25H84.1275C84.4213 368.25 84.665 368.191 84.8588 368.072C85.0588 367.953 85.2056 367.744 85.2994 367.444C85.3994 367.138 85.4494 366.706 85.4494 366.15L85.44 358.003C85.44 357.16 85.3369 356.553 85.1306 356.185C84.9244 355.816 84.5619 355.631 84.0431 355.631H83.3025V368.25ZM96.5201 370.2L93.9608 353.7H96.3514L97.4295 361.153L98.0951 366.403H98.1608L98.7326 361.153L99.6326 353.7H101.976L99.6233 370.2H96.5201ZM102.974 370.2L105.327 353.7H108.646L111.149 370.2H108.806L108.412 367.256H105.749L105.393 370.2H102.974ZM105.993 365.241H108.149L107.043 356.953H107.006L105.993 365.241ZM113.225 370.2V353.7H115.738V368.063H118.916V370.2H113.225ZM124.376 370.388C123.52 370.388 122.823 370.228 122.286 369.91C121.748 369.585 121.354 369.097 121.104 368.447C120.854 367.791 120.729 366.963 120.729 365.963V353.7H123.242V365.916C123.242 366.378 123.261 366.785 123.298 367.135C123.342 367.485 123.442 367.756 123.598 367.95C123.754 368.144 124.011 368.241 124.367 368.241C124.723 368.241 124.979 368.147 125.136 367.96C125.298 367.766 125.398 367.494 125.436 367.144C125.473 366.794 125.492 366.385 125.492 365.916V353.7H128.004V365.963C128.004 366.963 127.879 367.791 127.629 368.447C127.386 369.097 126.995 369.585 126.458 369.91C125.926 370.228 125.233 370.388 124.376 370.388ZM130.934 370.2V353.7H136.465V355.866H133.446V360.666H136.315V362.785H133.446V368.035H136.577V370.2H130.934Z" fill="#55636A"/>
<rect width="195.156" height="86.4227" rx="17.2845" fill="#FFE6EA"/>
<path fill-rule="evenodd" clip-rule="evenodd" d="M53.9909 60.3797C62.6045 59.3999 69.2963 52.0871 69.2963 43.2113C69.2963 33.6679 61.5598 25.9313 52.0163 25.9313C42.4728 25.9313 34.7363 33.6679 34.7363 43.2113C34.7363 52.7548 42.4728 60.4913 52.0163 60.4913C52.2174 60.4913 52.4176 60.4879 52.617 60.4811C52.5099 59.2032 52.0553 57.8817 51.3001 55.9524L50.8811 56.1672L50.444 56.3591C49.7898 56.37 49.8334 55.7385 50.106 55.2974L51 53.8573C46.8651 53.2557 43.6651 47.4435 43.6651 42.3636C43.6651 36.8727 47.4021 32.4244 52.0058 32.4244H52.0276C53.3067 32.4244 54.5179 32.7666 55.6004 33.3782C54.8755 33.5833 54.2786 34.1612 54.0863 34.9443C53.8015 36.1041 54.5117 37.275 55.6726 37.5595C55.9566 37.6291 56.2412 37.6392 56.5134 37.5978C56.5153 38.5687 57.1763 39.4501 58.1625 39.6918C58.8155 39.8518 59.472 39.6974 59.9721 39.3252C60.2295 40.2829 60.3684 41.3038 60.3684 42.3636C60.3684 47.4326 57.1874 53.2366 53.0716 53.8573L53.873 55.2457C54.1611 55.6329 54.299 56.2223 53.5051 56.1121L53.1303 55.9965L52.6948 55.8422C53.451 57.7517 53.8916 59.089 53.9909 60.3797Z" fill="#FF002E"/>
<path d="M88.7608 52.8801C87.767 52.8801 86.967 52.4895 86.3608 51.7082C85.7545 50.9207 85.4514 49.6457 85.4514 47.8832V40.7114C85.4514 39.9739 85.5202 39.3145 85.6577 38.7332C85.8014 38.152 86.0202 37.6614 86.3139 37.2614C86.6139 36.8551 87.0014 36.5489 87.4764 36.3426C87.9514 36.1301 88.5233 36.0239 89.192 36.0239C89.917 36.0239 90.5077 36.1332 90.9639 36.352C91.4202 36.5645 91.7702 36.877 92.0139 37.2895C92.2639 37.6957 92.4358 38.1957 92.5295 38.7895C92.6233 39.3832 92.6702 40.0551 92.6702 40.8051V41.977H90.3264V40.252C90.3264 39.5082 90.2483 38.9801 90.092 38.6676C89.942 38.3551 89.6545 38.1989 89.2295 38.1989C88.7608 38.1989 88.4358 38.3832 88.2545 38.752C88.0733 39.1145 87.9827 39.7614 87.9827 40.6926V47.8457C87.9827 48.8832 88.0577 49.627 88.2077 50.077C88.3639 50.5207 88.6858 50.7426 89.1733 50.7426C89.6483 50.7426 89.9827 50.5145 90.1764 50.0582C90.3764 49.5957 90.4764 48.827 90.4764 47.752V45.5301H89.2108V43.702H92.6702V52.7114H91.5452L91.1608 51.0895C91.0233 51.6582 90.7295 52.0989 90.2795 52.4114C89.8358 52.7239 89.3295 52.8801 88.7608 52.8801ZM95.6087 52.7114V36.2114H101.14V38.377H98.1212V43.177H100.99V45.2957H98.1212V50.5457H101.252V52.7114H95.6087ZM104.547 52.7114V38.3864H102.616V36.2114H108.907V38.3864H107.05V52.7114H104.547ZM117.484 54.7739V52.2145H118.834V54.7739H117.484ZM117.399 38.6114V36.2114H118.749V38.6114H117.399ZM117.83 52.6832C116.699 52.6832 115.859 52.3614 115.309 51.7176C114.759 51.0739 114.484 50.0207 114.484 48.5582V47.6489H116.818V48.7832C116.818 49.3957 116.893 49.8614 117.043 50.1801C117.193 50.4989 117.437 50.6582 117.774 50.6582C118.099 50.6582 118.34 50.5489 118.496 50.3301C118.652 50.1114 118.73 49.7332 118.73 49.1957C118.73 48.8832 118.684 48.5801 118.59 48.2864C118.502 47.9926 118.362 47.7051 118.168 47.4239C117.98 47.1364 117.737 46.8582 117.437 46.5895L116.171 45.4457C115.59 44.9207 115.155 44.3551 114.868 43.7489C114.58 43.1364 114.437 42.4614 114.437 41.7239C114.437 40.5301 114.715 39.6582 115.271 39.1082C115.834 38.552 116.665 38.2739 117.765 38.2739C118.477 38.2739 119.068 38.4082 119.537 38.677C120.005 38.9395 120.355 39.3676 120.587 39.9614C120.818 40.5551 120.934 41.352 120.934 42.352V43.1207H118.712V42.1926C118.712 41.5739 118.64 41.1051 118.496 40.7864C118.359 40.4676 118.121 40.3082 117.784 40.3082C117.452 40.3082 117.209 40.402 117.052 40.5895C116.896 40.7707 116.812 41.0926 116.799 41.5551C116.793 41.8051 116.824 42.052 116.893 42.2957C116.962 42.5332 117.068 42.7676 117.212 42.9989C117.362 43.2239 117.555 43.4457 117.793 43.6645L119.124 44.8739C119.824 45.5051 120.34 46.1645 120.671 46.852C121.009 47.5395 121.177 48.2832 121.177 49.0832C121.177 50.2645 120.909 51.1614 120.371 51.7739C119.834 52.3801 118.987 52.6832 117.83 52.6832ZM123.956 52.7114V36.2114H129.488V38.377H126.469V43.177H129.338V45.2957H126.469V50.5457H129.6V52.7114H123.956ZM135.501 52.8989C134.645 52.8989 133.945 52.7176 133.401 52.3551C132.864 51.9926 132.467 51.4551 132.211 50.7426C131.954 50.0301 131.826 49.1489 131.826 48.0989V40.552C131.826 39.602 131.951 38.7895 132.201 38.1145C132.451 37.4395 132.848 36.9207 133.392 36.5582C133.936 36.1957 134.648 36.0145 135.529 36.0145C136.192 36.0145 136.751 36.1176 137.207 36.3239C137.664 36.5301 138.032 36.8301 138.314 37.2239C138.595 37.6114 138.798 38.0864 138.923 38.6489C139.054 39.2051 139.12 39.8395 139.12 40.552V48.0989C139.12 49.1489 138.995 50.0301 138.745 50.7426C138.501 51.4551 138.114 51.9926 137.582 52.3551C137.051 52.7176 136.357 52.8989 135.501 52.8989ZM135.501 50.7239C135.814 50.7239 136.048 50.6301 136.204 50.4426C136.361 50.2551 136.464 49.9707 136.514 49.5895C136.57 49.202 136.598 48.7145 136.598 48.127V40.4395C136.598 39.7207 136.529 39.1676 136.392 38.7801C136.261 38.3864 135.973 38.1895 135.529 38.1895C135.073 38.1895 134.764 38.3801 134.601 38.7614C134.439 39.1364 134.357 39.6926 134.357 40.4301V48.127C134.357 48.727 134.382 49.2207 134.432 49.6082C134.489 49.9895 134.598 50.2707 134.761 50.452C134.929 50.6332 135.176 50.7239 135.501 50.7239ZM141.983 52.7114V36.2114H145.555C146.387 36.2114 147.049 36.3395 147.543 36.5957C148.037 36.8457 148.393 37.2457 148.612 37.7957C148.837 38.3395 148.949 39.0551 148.949 39.9426V40.4489C148.949 41.3051 148.837 42.0114 148.612 42.5676C148.393 43.1176 148.024 43.502 147.505 43.7207C147.937 43.8645 148.28 44.1239 148.537 44.4989C148.799 44.8676 148.987 45.3207 149.099 45.8582C149.212 46.3895 149.268 46.9739 149.268 47.6114V48.0332C149.262 49.1332 149.133 50.0301 148.883 50.7239C148.633 51.4114 148.243 51.9145 147.712 52.2332C147.18 52.552 146.487 52.7114 145.63 52.7114H141.983ZM144.496 50.7614H145.387C145.718 50.7614 145.98 50.6895 146.174 50.5457C146.374 50.3957 146.518 50.1489 146.605 49.8051C146.693 49.4614 146.737 48.9926 146.737 48.3989V47.0676C146.737 46.2676 146.658 45.6864 146.502 45.3239C146.352 44.9551 146.037 44.7707 145.555 44.7707H144.496V50.7614ZM144.496 42.8864H145.424C145.643 42.8864 145.821 42.8551 145.958 42.7926C146.096 42.7301 146.202 42.6239 146.277 42.4739C146.352 42.3176 146.402 42.102 146.427 41.827C146.458 41.552 146.474 41.202 146.474 40.777V39.7832C146.474 39.3395 146.433 39.002 146.352 38.7707C146.271 38.5395 146.146 38.3832 145.977 38.302C145.815 38.2207 145.602 38.1801 145.34 38.1801H144.496V42.8864ZM155.253 52.8989C154.397 52.8989 153.697 52.7176 153.153 52.3551C152.616 51.9926 152.219 51.4551 151.963 50.7426C151.706 50.0301 151.578 49.1489 151.578 48.0989V40.552C151.578 39.602 151.703 38.7895 151.953 38.1145C152.203 37.4395 152.6 36.9207 153.144 36.5582C153.688 36.1957 154.4 36.0145 155.281 36.0145C155.944 36.0145 156.503 36.1176 156.959 36.3239C157.416 36.5301 157.784 36.8301 158.066 37.2239C158.347 37.6114 158.55 38.0864 158.675 38.6489C158.806 39.2051 158.872 39.8395 158.872 40.552V48.0989C158.872 49.1489 158.747 50.0301 158.497 50.7426C158.253 51.4551 157.866 51.9926 157.334 52.3551C156.803 52.7176 156.109 52.8989 155.253 52.8989ZM155.253 50.7239C155.566 50.7239 155.8 50.6301 155.956 50.4426C156.113 50.2551 156.216 49.9707 156.266 49.5895C156.322 49.202 156.35 48.7145 156.35 48.127V40.4395C156.35 39.7207 156.281 39.1676 156.144 38.7801C156.013 38.3864 155.725 38.1895 155.281 38.1895C154.825 38.1895 154.516 38.3801 154.353 38.7614C154.191 39.1364 154.109 39.6926 154.109 40.4301V48.127C154.109 48.727 154.134 49.2207 154.184 49.6082C154.241 49.9895 154.35 50.2707 154.513 50.452C154.681 50.6332 154.928 50.7239 155.253 50.7239Z" fill="#FF002E"/>
<rect x="70.0798" y="117.751" width="194.451" height="97.4505" rx="17.2845" fill="#FFE6EA"/>
<path d="M143.46 170.336L134.587 180.026C133.507 181.204 132.193 182.144 130.73 182.787C129.267 183.43 127.686 183.762 126.088 183.761H121.177C119.954 183.761 118.782 183.275 117.917 182.411C117.053 181.546 116.567 180.374 116.567 179.152V173.39C116.567 172.168 117.053 170.995 117.917 170.131C118.782 169.266 119.954 168.781 121.177 168.781H130.15C130.53 168.782 130.906 168.867 131.25 169.032C131.593 169.197 131.896 169.436 132.135 169.733C132.374 170.029 132.543 170.376 132.631 170.746C132.719 171.117 132.723 171.502 132.643 171.875C132.518 172.396 132.237 172.866 131.838 173.223C131.438 173.579 130.939 173.805 130.408 173.871L125.611 174.542C125.308 174.586 125.036 174.747 124.852 174.992C124.669 175.236 124.59 175.543 124.634 175.846C124.677 176.148 124.838 176.421 125.083 176.605C125.327 176.788 125.634 176.867 125.937 176.824L130.836 176.133C131.99 175.963 133.045 175.385 133.81 174.504C134.574 173.623 134.998 172.497 135.004 171.331C134.999 171.084 134.974 170.838 134.929 170.596L139.011 166.29C139.549 165.707 140.296 165.361 141.089 165.327C141.881 165.293 142.655 165.574 143.241 166.109C143.824 166.643 144.174 167.385 144.215 168.175C144.256 168.965 143.984 169.739 143.46 170.331V170.336Z" fill="#FF002E"/>
<path d="M138.15 159.081C138.011 158.911 137.832 158.779 137.63 158.695C137.427 158.611 137.208 158.578 136.989 158.599C135.735 158.672 134.523 159.082 133.481 159.786C132.439 160.49 131.606 161.461 131.068 162.598V158.536C132.007 158.376 132.859 157.888 133.475 157.16C134.09 156.431 134.428 155.508 134.429 154.554C134.429 152.674 133.123 151.086 131.845 149.781C131.771 149.705 131.691 149.635 131.605 149.573C130.833 151.113 130.42 152.808 130.395 154.531C130.398 154.619 130.384 154.707 130.353 154.79C130.322 154.873 130.275 154.949 130.215 155.014C130.154 155.078 130.082 155.13 130.001 155.167C129.921 155.204 129.834 155.224 129.746 155.227C129.658 155.23 129.57 155.216 129.487 155.185C129.404 155.153 129.328 155.106 129.264 155.046C129.199 154.986 129.147 154.913 129.111 154.833C129.074 154.752 129.054 154.665 129.051 154.577C129.058 152.712 129.482 150.872 130.292 149.192C129.786 149.212 129.306 149.422 128.947 149.78C127.668 151.086 126.362 152.674 126.362 154.554C126.363 155.508 126.701 156.431 127.316 157.16C127.931 157.888 128.784 158.376 129.723 158.536V162.599C129.185 161.462 128.352 160.49 127.31 159.786C126.268 159.082 125.056 158.672 123.801 158.599C123.583 158.578 123.363 158.611 123.161 158.695C122.959 158.779 122.78 158.911 122.641 159.081C122.502 159.245 122.406 159.441 122.36 159.651C122.314 159.861 122.32 160.079 122.377 160.287C123.747 165.226 130.12 165.324 130.391 165.324H130.399C130.668 165.324 137.044 165.226 138.415 160.287C138.471 160.079 138.477 159.861 138.431 159.651C138.384 159.441 138.288 159.245 138.15 159.081Z" fill="#FF002E"/>
<path d="M165.899 176.164C165.211 176.164 164.636 176.058 164.174 175.845C163.717 175.626 163.355 175.311 163.086 174.898C162.824 174.479 162.636 173.973 162.524 173.379C162.411 172.779 162.355 172.098 162.355 171.336V169.864H164.736V171.523C164.736 172.411 164.811 173.048 164.961 173.436C165.111 173.823 165.408 174.017 165.852 174.017C166.152 174.017 166.377 173.948 166.527 173.811C166.683 173.667 166.786 173.442 166.836 173.136C166.892 172.823 166.921 172.417 166.921 171.917C166.921 171.298 166.789 170.733 166.527 170.22C166.271 169.708 165.88 169.176 165.355 168.626L164.136 167.37C163.799 167.02 163.492 166.648 163.217 166.254C162.949 165.861 162.733 165.423 162.571 164.942C162.414 164.454 162.336 163.911 162.336 163.311C162.336 162.442 162.442 161.708 162.655 161.108C162.867 160.508 163.227 160.054 163.733 159.748C164.239 159.436 164.933 159.279 165.814 159.279C166.477 159.279 167.021 159.383 167.446 159.589C167.877 159.789 168.211 160.086 168.449 160.479C168.692 160.867 168.864 161.342 168.964 161.904C169.064 162.461 169.114 163.098 169.114 163.817V164.839H166.799V163.658C166.799 163.158 166.771 162.742 166.714 162.411C166.664 162.079 166.567 161.833 166.424 161.67C166.28 161.501 166.071 161.417 165.796 161.417C165.533 161.417 165.321 161.476 165.158 161.595C164.996 161.708 164.877 161.886 164.802 162.129C164.733 162.367 164.699 162.676 164.699 163.058C164.699 163.401 164.742 163.698 164.83 163.948C164.917 164.198 165.052 164.439 165.233 164.67C165.414 164.901 165.639 165.161 165.908 165.448L167.267 166.92C167.917 167.62 168.424 168.348 168.786 169.104C169.149 169.861 169.33 170.704 169.33 171.636C169.33 172.623 169.224 173.454 169.011 174.129C168.799 174.798 168.442 175.304 167.942 175.648C167.442 175.992 166.761 176.164 165.899 176.164ZM172.54 175.976V161.651H170.609V159.476H176.9V161.651H175.043V175.976H172.54ZM177.448 175.976L179.801 159.476H183.119L185.623 175.976H183.279L182.885 173.033H180.223L179.866 175.976H177.448ZM180.466 171.017H182.623L181.516 162.729H181.479L180.466 171.017ZM187.699 175.976V159.476H190.211V167.07L192.724 159.476H195.32L192.583 167.614L195.536 175.976H192.883L190.23 168.27V175.976H187.699ZM197.537 175.976V159.476H200.05V175.976H197.537ZM203.157 175.976V159.476H205.126L208.622 169.376L208.444 164.876V159.476H210.704V175.976H208.922L205.332 165.729L205.472 170.061V175.976H203.157ZM216.867 176.145C215.873 176.145 215.073 175.754 214.467 174.973C213.861 174.186 213.558 172.911 213.558 171.148V163.976C213.558 163.239 213.627 162.579 213.764 161.998C213.908 161.417 214.127 160.926 214.42 160.526C214.72 160.12 215.108 159.814 215.583 159.608C216.058 159.395 216.63 159.289 217.298 159.289C218.023 159.289 218.614 159.398 219.07 159.617C219.527 159.829 219.877 160.142 220.12 160.554C220.37 160.961 220.542 161.461 220.636 162.054C220.73 162.648 220.777 163.32 220.777 164.07V165.242H218.433V163.517C218.433 162.773 218.355 162.245 218.198 161.933C218.048 161.62 217.761 161.464 217.336 161.464C216.867 161.464 216.542 161.648 216.361 162.017C216.18 162.379 216.089 163.026 216.089 163.958V171.111C216.089 172.148 216.164 172.892 216.314 173.342C216.47 173.786 216.792 174.008 217.28 174.008C217.755 174.008 218.089 173.779 218.283 173.323C218.483 172.861 218.583 172.092 218.583 171.017V168.795H217.317V166.967H220.777V175.976H219.652L219.267 174.354C219.13 174.923 218.836 175.364 218.386 175.676C217.942 175.989 217.436 176.145 216.867 176.145Z" fill="#FF002E"/>
<rect x="346.828" y="49.6931" width="171.765" height="93.052" rx="17.2845" fill="#E3F6FF"/>
<path d="M376.849 119.219V87.0891C376.489 87.5091 376.031 87.8691 375.476 88.1691C374.921 88.4541 374.329 88.6716 373.699 88.8216C373.084 88.9566 372.499 89.0241 371.944 89.0241V84.5466C372.739 84.4266 373.534 84.1716 374.329 83.7816C375.139 83.3766 375.881 82.8291 376.556 82.1391C377.231 81.4491 377.779 80.6091 378.199 79.6191H382.879V119.219H376.849Z" fill="#194459"/>
<path d="M403.01 93.2191V76.7191H405.523V83.3941H407.773V76.7191H410.285V93.2191H407.773V85.5504H405.523V93.2191H403.01ZM413.336 93.2191V76.7191H418.867V78.8847H415.849V83.6847H418.717V85.8035H415.849V91.0535H418.98V93.2191H413.336ZM420.437 93.2191L422.79 76.7191H426.109L428.612 93.2191H426.268L425.875 90.2754H423.212L422.856 93.2191H420.437ZM423.456 88.2597H425.612L424.506 79.9722H424.468L423.456 88.2597ZM430.688 93.2191V76.7191H434.841C435.704 76.7191 436.348 76.8879 436.773 77.2254C437.198 77.5629 437.476 78.0566 437.607 78.7066C437.744 79.3566 437.813 80.1504 437.813 81.0879C437.813 82.0566 437.713 82.8191 437.513 83.3754C437.319 83.9254 436.919 84.2941 436.313 84.4816C436.601 84.5316 436.841 84.6504 437.035 84.8379C437.229 85.0191 437.385 85.2879 437.504 85.6441C437.623 85.9941 437.707 86.4472 437.757 87.0035C437.813 87.5535 437.841 88.2285 437.841 89.0285C437.841 89.091 437.841 89.266 437.841 89.5535C437.841 89.841 437.841 90.1816 437.841 90.5754C437.848 90.9629 437.854 91.3504 437.86 91.7379C437.866 92.1254 437.876 92.4566 437.888 92.7316C437.901 93.0066 437.916 93.1691 437.935 93.2191H435.423C435.404 93.1879 435.388 93.0285 435.376 92.741C435.369 92.4472 435.36 92.0754 435.348 91.6254C435.341 91.1754 435.335 90.691 435.329 90.1722C435.329 89.6535 435.329 89.1441 435.329 88.6441C435.329 88.1379 435.329 87.691 435.329 87.3035C435.329 86.8097 435.291 86.4379 435.216 86.1879C435.148 85.9316 435.016 85.7535 434.823 85.6535C434.635 85.5535 434.363 85.4941 434.007 85.4754L433.201 85.4285V93.2191H430.688ZM433.21 83.4785H434.213C434.519 83.4785 434.751 83.4097 434.907 83.2722C435.069 83.1347 435.179 82.8816 435.235 82.5129C435.298 82.1441 435.329 81.6129 435.329 80.9191V80.816C435.329 80.2347 435.301 79.7879 435.244 79.4754C435.188 79.1629 435.069 78.9472 434.888 78.8285C434.713 78.7097 434.438 78.6504 434.063 78.6504H433.21V83.4785ZM441.427 93.2191V78.8941H439.495V76.7191H445.786V78.8941H443.93V93.2191H441.427ZM447.778 93.2191V76.7191H451.35C452.181 76.7191 452.843 76.8472 453.337 77.1035C453.831 77.3535 454.187 77.7535 454.406 78.3035C454.631 78.8472 454.743 79.5629 454.743 80.4504V80.9566C454.743 81.8129 454.631 82.5191 454.406 83.0754C454.187 83.6254 453.818 84.0097 453.3 84.2285C453.731 84.3722 454.075 84.6316 454.331 85.0066C454.593 85.3754 454.781 85.8285 454.893 86.366C455.006 86.8972 455.062 87.4816 455.062 88.1191V88.541C455.056 89.641 454.928 90.5379 454.678 91.2316C454.428 91.9191 454.037 92.4222 453.506 92.741C452.975 93.0597 452.281 93.2191 451.425 93.2191H447.778ZM450.29 91.2691H451.181C451.512 91.2691 451.775 91.1972 451.968 91.0535C452.168 90.9035 452.312 90.6566 452.4 90.3129C452.487 89.9691 452.531 89.5004 452.531 88.9066V87.5754C452.531 86.7754 452.453 86.1941 452.296 85.8316C452.146 85.4629 451.831 85.2785 451.35 85.2785H450.29V91.2691ZM450.29 83.3941H451.218C451.437 83.3941 451.615 83.3629 451.753 83.3004C451.89 83.2379 451.996 83.1316 452.071 82.9816C452.146 82.8254 452.196 82.6097 452.221 82.3347C452.253 82.0597 452.268 81.7097 452.268 81.2847V80.291C452.268 79.8472 452.228 79.5097 452.146 79.2785C452.065 79.0472 451.94 78.891 451.771 78.8097C451.609 78.7285 451.396 78.6879 451.134 78.6879H450.29V83.3941ZM457.579 93.2191V76.7191H463.11V78.8847H460.091V83.6847H462.96V85.8035H460.091V91.0535H463.222V93.2191H457.579ZM464.68 93.2191L467.033 76.7191H470.352L472.855 93.2191H470.511L470.117 90.2754H467.455L467.098 93.2191H464.68ZM467.698 88.2597H469.855L468.748 79.9722H468.711L467.698 88.2597ZM475.324 93.2191V78.8941H473.393V76.7191H479.684V78.8941H477.828V93.2191H475.324ZM402.035 118.219L404.388 101.719H407.707L410.21 118.219H407.866L407.473 115.275H404.81L404.454 118.219H402.035ZM405.054 113.26H407.21L406.104 104.972H406.066L405.054 113.26ZM415.389 118.388C414.396 118.388 413.596 117.997 412.989 117.216C412.383 116.428 412.08 115.153 412.08 113.391V106.219C412.08 105.482 412.149 104.822 412.286 104.241C412.43 103.66 412.649 103.169 412.942 102.769C413.242 102.363 413.63 102.057 414.105 101.85C414.58 101.638 415.152 101.532 415.821 101.532C416.546 101.532 417.136 101.641 417.592 101.86C418.049 102.072 418.399 102.385 418.642 102.797C418.892 103.203 419.064 103.703 419.158 104.297C419.252 104.891 419.299 105.563 419.299 106.313V107.485H416.955V105.76C416.955 105.016 416.877 104.488 416.721 104.175C416.571 103.863 416.283 103.707 415.858 103.707C415.389 103.707 415.064 103.891 414.883 104.26C414.702 104.622 414.611 105.269 414.611 106.2V113.353C414.611 114.391 414.686 115.135 414.836 115.585C414.992 116.028 415.314 116.25 415.802 116.25C416.277 116.25 416.611 116.022 416.805 115.566C417.005 115.103 417.105 114.335 417.105 113.26V111.038H415.839V109.21H419.299V118.219H418.174L417.789 116.597C417.652 117.166 417.358 117.607 416.908 117.919C416.464 118.232 415.958 118.388 415.389 118.388ZM425.34 118.388C424.347 118.388 423.547 117.997 422.94 117.216C422.334 116.428 422.031 115.153 422.031 113.391V106.219C422.031 105.482 422.1 104.822 422.237 104.241C422.381 103.66 422.6 103.169 422.893 102.769C423.193 102.363 423.581 102.057 424.056 101.85C424.531 101.638 425.103 101.532 425.772 101.532C426.497 101.532 427.087 101.641 427.543 101.86C428 102.072 428.35 102.385 428.593 102.797C428.843 103.203 429.015 103.703 429.109 104.297C429.203 104.891 429.25 105.563 429.25 106.313V107.485H426.906V105.76C426.906 105.016 426.828 104.488 426.672 104.175C426.522 103.863 426.234 103.707 425.809 103.707C425.34 103.707 425.015 103.891 424.834 104.26C424.653 104.622 424.562 105.269 424.562 106.2V113.353C424.562 114.391 424.637 115.135 424.787 115.585C424.943 116.028 425.265 116.25 425.753 116.25C426.228 116.25 426.562 116.022 426.756 115.566C426.956 115.103 427.056 114.335 427.056 113.26V111.038H425.79V109.21H429.25V118.219H428.125L427.74 116.597C427.603 117.166 427.309 117.607 426.859 117.919C426.415 118.232 425.909 118.388 425.34 118.388ZM432.188 118.219V101.719H436.341C437.204 101.719 437.848 101.888 438.273 102.225C438.698 102.563 438.976 103.057 439.107 103.707C439.244 104.357 439.313 105.15 439.313 106.088C439.313 107.057 439.213 107.819 439.013 108.375C438.819 108.925 438.419 109.294 437.813 109.482C438.101 109.532 438.341 109.65 438.535 109.838C438.729 110.019 438.885 110.288 439.004 110.644C439.123 110.994 439.207 111.447 439.257 112.003C439.313 112.553 439.341 113.228 439.341 114.028C439.341 114.091 439.341 114.266 439.341 114.553C439.341 114.841 439.341 115.182 439.341 115.575C439.348 115.963 439.354 116.35 439.36 116.738C439.366 117.125 439.376 117.457 439.388 117.732C439.401 118.007 439.416 118.169 439.435 118.219H436.923C436.904 118.188 436.888 118.028 436.876 117.741C436.869 117.447 436.86 117.075 436.848 116.625C436.841 116.175 436.835 115.691 436.829 115.172C436.829 114.653 436.829 114.144 436.829 113.644C436.829 113.138 436.829 112.691 436.829 112.303C436.829 111.81 436.791 111.438 436.716 111.188C436.648 110.932 436.516 110.753 436.323 110.653C436.135 110.553 435.863 110.494 435.507 110.475L434.701 110.428V118.219H432.188ZM434.71 108.478H435.713C436.019 108.478 436.251 108.41 436.407 108.272C436.569 108.135 436.679 107.882 436.735 107.513C436.798 107.144 436.829 106.613 436.829 105.919V105.816C436.829 105.235 436.801 104.788 436.744 104.475C436.688 104.163 436.569 103.947 436.388 103.828C436.213 103.71 435.938 103.65 435.563 103.65H434.71V108.478ZM442.064 118.219V101.719H447.595V103.885H444.577V108.685H447.445V110.803H444.577V116.053H447.708V118.219H442.064ZM453.243 118.388C452.25 118.388 451.45 117.997 450.843 117.216C450.237 116.428 449.934 115.153 449.934 113.391V106.219C449.934 105.482 450.003 104.822 450.14 104.241C450.284 103.66 450.503 103.169 450.796 102.769C451.096 102.363 451.484 102.057 451.959 101.85C452.434 101.638 453.006 101.532 453.675 101.532C454.4 101.532 454.99 101.641 455.446 101.86C455.903 102.072 456.253 102.385 456.496 102.797C456.746 103.203 456.918 103.703 457.012 104.297C457.106 104.891 457.153 105.563 457.153 106.313V107.485H454.809V105.76C454.809 105.016 454.731 104.488 454.575 104.175C454.425 103.863 454.137 103.707 453.712 103.707C453.243 103.707 452.918 103.891 452.737 104.26C452.556 104.622 452.465 105.269 452.465 106.2V113.353C452.465 114.391 452.54 115.135 452.69 115.585C452.846 116.028 453.168 116.25 453.656 116.25C454.131 116.25 454.465 116.022 454.659 115.566C454.859 115.103 454.959 114.335 454.959 113.26V111.038H453.693V109.21H457.153V118.219H456.028L455.643 116.597C455.506 117.166 455.212 117.607 454.762 117.919C454.318 118.232 453.812 118.388 453.243 118.388ZM459.116 118.219L461.469 101.719H464.788L467.291 118.219H464.947L464.554 115.275H461.891L461.535 118.219H459.116ZM462.135 113.26H464.291L463.185 104.972H463.147L462.135 113.26ZM469.761 118.219V103.894H467.83V101.719H474.12V103.894H472.264V118.219H469.761ZM479.581 118.407C478.724 118.407 478.024 118.225 477.481 117.863C476.943 117.5 476.546 116.963 476.29 116.25C476.034 115.538 475.906 114.657 475.906 113.607V106.06C475.906 105.11 476.031 104.297 476.281 103.622C476.531 102.947 476.928 102.428 477.471 102.066C478.015 101.703 478.728 101.522 479.609 101.522C480.271 101.522 480.831 101.625 481.287 101.832C481.743 102.038 482.112 102.338 482.393 102.732C482.674 103.119 482.878 103.594 483.003 104.157C483.134 104.713 483.199 105.347 483.199 106.06V113.607C483.199 114.657 483.074 115.538 482.824 116.25C482.581 116.963 482.193 117.5 481.662 117.863C481.131 118.225 480.437 118.407 479.581 118.407ZM479.581 116.232C479.893 116.232 480.128 116.138 480.284 115.95C480.44 115.763 480.543 115.478 480.593 115.097C480.649 114.71 480.678 114.222 480.678 113.635V105.947C480.678 105.228 480.609 104.675 480.471 104.288C480.34 103.894 480.053 103.697 479.609 103.697C479.153 103.697 478.843 103.888 478.681 104.269C478.518 104.644 478.437 105.2 478.437 105.938V113.635C478.437 114.235 478.462 114.728 478.512 115.116C478.568 115.497 478.678 115.778 478.84 115.96C479.009 116.141 479.256 116.232 479.581 116.232ZM486.063 118.219V101.719H490.216C491.079 101.719 491.722 101.888 492.147 102.225C492.572 102.563 492.85 103.057 492.982 103.707C493.119 104.357 493.188 105.15 493.188 106.088C493.188 107.057 493.088 107.819 492.888 108.375C492.694 108.925 492.294 109.294 491.688 109.482C491.975 109.532 492.216 109.65 492.41 109.838C492.604 110.019 492.76 110.288 492.879 110.644C492.997 110.994 493.082 111.447 493.132 112.003C493.188 112.553 493.216 113.228 493.216 114.028C493.216 114.091 493.216 114.266 493.216 114.553C493.216 114.841 493.216 115.182 493.216 115.575C493.222 115.963 493.229 116.35 493.235 116.738C493.241 117.125 493.25 117.457 493.263 117.732C493.275 118.007 493.291 118.169 493.31 118.219H490.797C490.779 118.188 490.763 118.028 490.75 117.741C490.744 117.447 490.735 117.075 490.722 116.625C490.716 116.175 490.71 115.691 490.704 115.172C490.704 114.653 490.704 114.144 490.704 113.644C490.704 113.138 490.704 112.691 490.704 112.303C490.704 111.81 490.666 111.438 490.591 111.188C490.522 110.932 490.391 110.753 490.197 110.653C490.01 110.553 489.738 110.494 489.382 110.475L488.575 110.428V118.219H486.063ZM488.585 108.478H489.588C489.894 108.478 490.125 108.41 490.282 108.272C490.444 108.135 490.554 107.882 490.61 107.513C490.672 107.144 490.704 106.613 490.704 105.919V105.816C490.704 105.235 490.675 104.788 490.619 104.475C490.563 104.163 490.444 103.947 490.263 103.828C490.088 103.71 489.813 103.65 489.438 103.65H488.585V108.478Z" fill="#194459"/>
<rect x="240.96" y="324.085" width="185.809" height="93.052" rx="17.2845" fill="#E3F6FF"/>
<path d="M274.742 394.061C271.667 394.061 269.529 393.146 268.329 391.316C267.144 389.471 266.552 386.681 266.552 382.946V380.359H272.199V383.104C272.199 384.439 272.259 385.534 272.379 386.389C272.499 387.244 272.754 387.874 273.144 388.279C273.534 388.684 274.134 388.886 274.944 388.886C275.739 388.886 276.339 388.646 276.744 388.166C277.149 387.671 277.419 386.936 277.554 385.961C277.704 384.971 277.779 383.741 277.779 382.271C277.779 380.546 277.682 379.151 277.487 378.086C277.292 377.006 276.932 376.219 276.407 375.724C275.882 375.229 275.124 374.981 274.134 374.981H272.424V370.391H274.089C275.049 370.391 275.792 370.181 276.317 369.761C276.857 369.326 277.232 368.644 277.442 367.714C277.667 366.769 277.779 365.531 277.779 364.001C277.779 362.591 277.674 361.511 277.464 360.761C277.254 360.011 276.947 359.494 276.542 359.209C276.137 358.909 275.649 358.759 275.079 358.759C274.404 358.759 273.872 358.939 273.482 359.299C273.092 359.644 272.814 360.206 272.649 360.986C272.499 361.751 272.424 362.771 272.424 364.046V365.239H266.597V364.001C266.597 360.461 267.219 357.836 268.464 356.126C269.709 354.416 271.869 353.561 274.944 353.561C277.944 353.561 280.142 354.431 281.537 356.171C282.932 357.911 283.629 360.521 283.629 364.001C283.629 366.086 283.307 367.886 282.662 369.401C282.017 370.901 280.982 371.914 279.557 372.439C280.607 372.919 281.432 373.624 282.032 374.554C282.632 375.484 283.059 376.601 283.314 377.906C283.569 379.196 283.697 380.659 283.697 382.294C283.697 386.149 283.014 389.074 281.649 391.069C280.299 393.064 277.997 394.061 274.742 394.061Z" fill="#194459"/>
<path d="M303.56 367.845L301.544 351.345H303.794L305.003 363.101L306.541 351.345H308.566L310.113 363.101L311.182 351.345H313.441L311.547 367.845H309.044L307.582 356.876L306.063 367.845H303.56ZM315.676 367.845V351.345H321.208V353.511H318.189V358.311H321.058V360.43H318.189V365.68H321.32V367.845H315.676ZM331.163 368.033C330.363 368.033 329.697 367.848 329.166 367.48C328.635 367.111 328.235 366.573 327.966 365.867C327.703 365.155 327.572 364.295 327.572 363.289V356.098C327.572 355.342 327.635 354.661 327.76 354.055C327.885 353.448 328.088 352.93 328.369 352.498C328.65 352.067 329.025 351.736 329.494 351.505C329.963 351.273 330.541 351.158 331.228 351.158C331.853 351.158 332.385 351.261 332.822 351.467C333.266 351.667 333.625 351.958 333.9 352.339C334.181 352.72 334.385 353.183 334.51 353.726C334.641 354.264 334.706 354.87 334.706 355.545V357.814H332.278V355.705C332.278 354.892 332.21 354.295 332.072 353.914C331.935 353.526 331.66 353.333 331.247 353.333C330.791 353.333 330.485 353.542 330.328 353.961C330.178 354.373 330.103 354.951 330.103 355.695V363.401C330.103 363.976 330.135 364.448 330.197 364.817C330.266 365.18 330.378 365.448 330.535 365.623C330.691 365.792 330.91 365.876 331.191 365.876C331.616 365.876 331.903 365.676 332.053 365.276C332.203 364.876 332.278 364.242 332.278 363.373V361.011H334.744V363.345C334.744 364.389 334.622 365.261 334.378 365.961C334.135 366.655 333.747 367.173 333.216 367.517C332.691 367.861 332.006 368.033 331.163 368.033ZM340.917 368.033C340.061 368.033 339.361 367.851 338.817 367.489C338.279 367.126 337.882 366.589 337.626 365.876C337.37 365.164 337.242 364.283 337.242 363.233V355.686C337.242 354.736 337.367 353.923 337.617 353.248C337.867 352.573 338.264 352.055 338.807 351.692C339.351 351.33 340.064 351.148 340.945 351.148C341.607 351.148 342.167 351.251 342.623 351.458C343.079 351.664 343.448 351.964 343.729 352.358C344.011 352.745 344.214 353.22 344.339 353.783C344.47 354.339 344.536 354.973 344.536 355.686V363.233C344.536 364.283 344.411 365.164 344.161 365.876C343.917 366.589 343.529 367.126 342.998 367.489C342.467 367.851 341.773 368.033 340.917 368.033ZM340.917 365.858C341.229 365.858 341.464 365.764 341.62 365.576C341.776 365.389 341.879 365.105 341.929 364.723C341.986 364.336 342.014 363.848 342.014 363.261V355.573C342.014 354.855 341.945 354.301 341.807 353.914C341.676 353.52 341.389 353.323 340.945 353.323C340.489 353.323 340.179 353.514 340.017 353.895C339.854 354.27 339.773 354.826 339.773 355.564V363.261C339.773 363.861 339.798 364.355 339.848 364.742C339.904 365.123 340.014 365.405 340.176 365.586C340.345 365.767 340.592 365.858 340.917 365.858ZM350.924 368.033C350.068 368.033 349.371 367.873 348.833 367.555C348.296 367.23 347.902 366.742 347.652 366.092C347.402 365.436 347.277 364.608 347.277 363.608V351.345H349.79V363.561C349.79 364.023 349.808 364.43 349.846 364.78C349.89 365.13 349.99 365.401 350.146 365.595C350.302 365.789 350.558 365.886 350.915 365.886C351.271 365.886 351.527 365.792 351.683 365.605C351.846 365.411 351.946 365.139 351.983 364.789C352.021 364.439 352.04 364.03 352.04 363.561V351.345H354.552V363.608C354.552 364.608 354.427 365.436 354.177 366.092C353.933 366.742 353.543 367.23 353.005 367.555C352.474 367.873 351.78 368.033 350.924 368.033ZM357.481 367.845V351.345H359.45L362.947 361.245L362.769 356.745V351.345H365.028V367.845H363.247L359.656 357.598L359.797 361.93V367.845H357.481ZM368.951 367.845V353.52H367.02V351.345H373.31V353.52H371.454V367.845H368.951ZM302.407 392.845V376.345H304.919V392.845H302.407ZM308.026 392.845V376.345H309.995L313.492 386.245L313.314 381.745V376.345H315.573V392.845H313.792L310.201 382.598L310.342 386.93V392.845H308.026ZM319.496 392.845V378.52H317.565V376.345H323.855V378.52H321.999V392.845H319.496ZM325.847 392.845V376.345H331.378V378.511H328.36V383.311H331.228V385.43H328.36V390.68H331.491V392.845H325.847ZM333.923 392.845V376.345H338.076C338.939 376.345 339.582 376.514 340.007 376.851C340.432 377.189 340.711 377.683 340.842 378.333C340.979 378.983 341.048 379.776 341.048 380.714C341.048 381.683 340.948 382.445 340.748 383.001C340.554 383.551 340.154 383.92 339.548 384.108C339.836 384.158 340.076 384.276 340.27 384.464C340.464 384.645 340.62 384.914 340.739 385.27C340.857 385.62 340.942 386.073 340.992 386.63C341.048 387.18 341.076 387.855 341.076 388.655C341.076 388.717 341.076 388.892 341.076 389.18C341.076 389.467 341.076 389.808 341.076 390.201C341.082 390.589 341.089 390.976 341.095 391.364C341.101 391.751 341.111 392.083 341.123 392.358C341.136 392.633 341.151 392.795 341.17 392.845H338.657C338.639 392.814 338.623 392.655 338.611 392.367C338.604 392.073 338.595 391.701 338.582 391.251C338.576 390.801 338.57 390.317 338.564 389.798C338.564 389.28 338.564 388.77 338.564 388.27C338.564 387.764 338.564 387.317 338.564 386.93C338.564 386.436 338.526 386.064 338.451 385.814C338.382 385.558 338.251 385.38 338.057 385.28C337.87 385.18 337.598 385.12 337.242 385.101L336.436 385.055V392.845H333.923ZM336.445 383.105H337.448C337.754 383.105 337.986 383.036 338.142 382.898C338.304 382.761 338.414 382.508 338.47 382.139C338.532 381.77 338.564 381.239 338.564 380.545V380.442C338.564 379.861 338.536 379.414 338.479 379.101C338.423 378.789 338.304 378.573 338.123 378.455C337.948 378.336 337.673 378.276 337.298 378.276H336.445V383.105ZM342.824 392.845L345.177 376.345H348.496L350.999 392.845H348.655L348.262 389.901H345.599L345.243 392.845H342.824ZM345.843 387.886H347.999L346.893 379.598H346.855L345.843 387.886ZM356.459 393.033C355.659 393.033 354.994 392.848 354.463 392.48C353.931 392.111 353.531 391.573 353.263 390.867C353 390.155 352.869 389.295 352.869 388.289V381.098C352.869 380.342 352.931 379.661 353.056 379.055C353.181 378.448 353.384 377.93 353.666 377.498C353.947 377.067 354.322 376.736 354.791 376.505C355.259 376.273 355.838 376.158 356.525 376.158C357.15 376.158 357.681 376.261 358.119 376.467C358.563 376.667 358.922 376.958 359.197 377.339C359.478 377.72 359.681 378.183 359.806 378.726C359.938 379.264 360.003 379.87 360.003 380.545V382.814H357.575V380.705C357.575 379.892 357.506 379.295 357.369 378.914C357.231 378.526 356.956 378.333 356.544 378.333C356.088 378.333 355.781 378.542 355.625 378.961C355.475 379.373 355.4 379.951 355.4 380.695V388.401C355.4 388.976 355.431 389.448 355.494 389.817C355.563 390.18 355.675 390.448 355.831 390.623C355.988 390.792 356.206 390.876 356.488 390.876C356.913 390.876 357.2 390.676 357.35 390.276C357.5 389.876 357.575 389.242 357.575 388.373V386.011H360.041V388.345C360.041 389.389 359.919 390.261 359.675 390.961C359.431 391.655 359.044 392.173 358.513 392.517C357.988 392.861 357.303 393.033 356.459 393.033ZM363.607 392.845V378.52H361.676V376.345H367.967V378.52H366.11V392.845H363.607ZM370.015 392.845V376.345H372.527V392.845H370.015ZM379.103 393.033C378.247 393.033 377.547 392.851 377.003 392.489C376.466 392.126 376.069 391.589 375.812 390.876C375.556 390.164 375.428 389.283 375.428 388.233V380.686C375.428 379.736 375.553 378.923 375.803 378.248C376.053 377.573 376.45 377.055 376.994 376.692C377.537 376.33 378.25 376.148 379.131 376.148C379.794 376.148 380.353 376.251 380.809 376.458C381.266 376.664 381.634 376.964 381.916 377.358C382.197 377.745 382.4 378.22 382.525 378.783C382.656 379.339 382.722 379.973 382.722 380.686V388.233C382.722 389.283 382.597 390.164 382.347 390.876C382.103 391.589 381.716 392.126 381.184 392.489C380.653 392.851 379.959 393.033 379.103 393.033ZM379.103 390.858C379.416 390.858 379.65 390.764 379.806 390.576C379.962 390.389 380.066 390.105 380.116 389.723C380.172 389.336 380.2 388.848 380.2 388.261V380.573C380.2 379.855 380.131 379.301 379.994 378.914C379.862 378.52 379.575 378.323 379.131 378.323C378.675 378.323 378.366 378.514 378.203 378.895C378.041 379.27 377.959 379.826 377.959 380.564V388.261C377.959 388.861 377.984 389.355 378.034 389.742C378.091 390.123 378.2 390.405 378.362 390.586C378.531 390.767 378.778 390.858 379.103 390.858ZM385.585 392.845V376.345H387.554L391.051 386.245L390.873 381.745V376.345H393.132V392.845H391.351L387.76 382.598L387.901 386.93V392.845H385.585ZM399.202 393.033C398.514 393.033 397.939 392.926 397.477 392.714C397.021 392.495 396.658 392.18 396.389 391.767C396.127 391.348 395.939 390.842 395.827 390.248C395.714 389.648 395.658 388.967 395.658 388.205V386.733H398.039V388.392C398.039 389.28 398.114 389.917 398.264 390.305C398.414 390.692 398.711 390.886 399.155 390.886C399.455 390.886 399.68 390.817 399.83 390.68C399.986 390.536 400.089 390.311 400.139 390.005C400.196 389.692 400.224 389.286 400.224 388.786C400.224 388.167 400.093 387.601 399.83 387.089C399.574 386.576 399.183 386.045 398.658 385.495L397.439 384.239C397.102 383.889 396.796 383.517 396.521 383.123C396.252 382.73 396.036 382.292 395.874 381.811C395.718 381.323 395.639 380.78 395.639 380.18C395.639 379.311 395.746 378.576 395.958 377.976C396.171 377.376 396.53 376.923 397.036 376.617C397.543 376.305 398.236 376.148 399.118 376.148C399.78 376.148 400.324 376.251 400.749 376.458C401.18 376.658 401.514 376.955 401.752 377.348C401.996 377.736 402.168 378.211 402.268 378.773C402.368 379.33 402.418 379.967 402.418 380.686V381.708H400.102V380.526C400.102 380.026 400.074 379.611 400.018 379.28C399.968 378.948 399.871 378.701 399.727 378.539C399.583 378.37 399.374 378.286 399.099 378.286C398.836 378.286 398.624 378.345 398.461 378.464C398.299 378.576 398.18 378.755 398.105 378.998C398.036 379.236 398.002 379.545 398.002 379.926C398.002 380.27 398.046 380.567 398.133 380.817C398.221 381.067 398.355 381.308 398.536 381.539C398.718 381.77 398.943 382.03 399.211 382.317L400.571 383.789C401.221 384.489 401.727 385.217 402.089 385.973C402.452 386.73 402.633 387.573 402.633 388.505C402.633 389.492 402.527 390.323 402.314 390.998C402.102 391.667 401.746 392.173 401.246 392.517C400.746 392.861 400.064 393.033 399.202 393.033Z" fill="#194459"/>
<rect x="188.687" y="450.478" width="187.969" height="93.052" rx="17.2845" fill="#E3F6FF"/>
<path d="M228.117 520.004V513.029H218.352V508.597L227.059 480.404H233.494V508.169H236.554V513.029H233.494V520.004H228.117ZM223.009 508.169H228.117V488.617L223.009 508.169Z" fill="#194459"/>
<path d="M257.923 494.192C257.067 494.192 256.37 494.033 255.833 493.714C255.295 493.389 254.902 492.901 254.652 492.251C254.402 491.595 254.277 490.767 254.277 489.767V477.504H256.789V489.72C256.789 490.183 256.808 490.589 256.845 490.939C256.889 491.289 256.989 491.561 257.145 491.754C257.302 491.948 257.558 492.045 257.914 492.045C258.27 492.045 258.527 491.951 258.683 491.764C258.845 491.57 258.945 491.298 258.983 490.948C259.02 490.598 259.039 490.189 259.039 489.72V477.504H261.552V489.767C261.552 490.767 261.427 491.595 261.177 492.251C260.933 492.901 260.542 493.389 260.005 493.714C259.473 494.033 258.78 494.192 257.923 494.192ZM267.49 494.192C266.803 494.192 266.228 494.086 265.765 493.873C265.309 493.654 264.946 493.339 264.678 492.926C264.415 492.508 264.228 492.001 264.115 491.408C264.003 490.808 263.946 490.126 263.946 489.364V487.892H266.328V489.551C266.328 490.439 266.403 491.076 266.553 491.464C266.703 491.851 266.999 492.045 267.443 492.045C267.743 492.045 267.968 491.976 268.118 491.839C268.274 491.695 268.378 491.47 268.428 491.164C268.484 490.851 268.512 490.445 268.512 489.945C268.512 489.326 268.381 488.761 268.118 488.248C267.862 487.736 267.471 487.204 266.946 486.654L265.728 485.398C265.39 485.048 265.084 484.676 264.809 484.283C264.54 483.889 264.324 483.451 264.162 482.97C264.006 482.483 263.928 481.939 263.928 481.339C263.928 480.47 264.034 479.736 264.246 479.136C264.459 478.536 264.818 478.083 265.324 477.776C265.831 477.464 266.524 477.308 267.406 477.308C268.068 477.308 268.612 477.411 269.037 477.617C269.468 477.817 269.803 478.114 270.04 478.508C270.284 478.895 270.456 479.37 270.556 479.933C270.656 480.489 270.706 481.126 270.706 481.845V482.867H268.39V481.686C268.39 481.186 268.362 480.77 268.306 480.439C268.256 480.108 268.159 479.861 268.015 479.698C267.871 479.529 267.662 479.445 267.387 479.445C267.124 479.445 266.912 479.504 266.749 479.623C266.587 479.736 266.468 479.914 266.393 480.158C266.324 480.395 266.29 480.704 266.29 481.086C266.29 481.429 266.334 481.726 266.421 481.976C266.509 482.226 266.643 482.467 266.824 482.698C267.006 482.929 267.231 483.189 267.499 483.476L268.859 484.948C269.509 485.648 270.015 486.376 270.378 487.133C270.74 487.889 270.921 488.733 270.921 489.664C270.921 490.651 270.815 491.483 270.603 492.158C270.39 492.826 270.034 493.333 269.534 493.676C269.034 494.02 268.353 494.192 267.49 494.192ZM273.269 494.004V477.504H278.8V479.67H275.782V484.47H278.65V486.589H275.782V491.839H278.913V494.004H273.269ZM281.345 494.004V477.504H285.498C286.361 477.504 287.005 477.673 287.43 478.011C287.855 478.348 288.133 478.842 288.264 479.492C288.401 480.142 288.47 480.936 288.47 481.873C288.47 482.842 288.37 483.604 288.17 484.161C287.976 484.711 287.576 485.079 286.97 485.267C287.258 485.317 287.498 485.436 287.692 485.623C287.886 485.804 288.042 486.073 288.161 486.429C288.28 486.779 288.364 487.233 288.414 487.789C288.47 488.339 288.498 489.014 288.498 489.814C288.498 489.876 288.498 490.051 288.498 490.339C288.498 490.626 288.498 490.967 288.498 491.361C288.505 491.748 288.511 492.136 288.517 492.523C288.523 492.911 288.533 493.242 288.545 493.517C288.558 493.792 288.573 493.954 288.592 494.004H286.08C286.061 493.973 286.045 493.814 286.033 493.526C286.026 493.233 286.017 492.861 286.005 492.411C285.998 491.961 285.992 491.476 285.986 490.958C285.986 490.439 285.986 489.929 285.986 489.429C285.986 488.923 285.986 488.476 285.986 488.089C285.986 487.595 285.948 487.223 285.873 486.973C285.805 486.717 285.673 486.539 285.48 486.439C285.292 486.339 285.02 486.279 284.664 486.261L283.858 486.214V494.004H281.345ZM283.867 484.264H284.87C285.176 484.264 285.408 484.195 285.564 484.058C285.726 483.92 285.836 483.667 285.892 483.298C285.955 482.929 285.986 482.398 285.986 481.704V481.601C285.986 481.02 285.958 480.573 285.901 480.261C285.845 479.948 285.726 479.733 285.545 479.614C285.37 479.495 285.095 479.436 284.72 479.436H283.867V484.264ZM294.231 494.192C293.543 494.192 292.968 494.086 292.506 493.873C292.049 493.654 291.687 493.339 291.418 492.926C291.156 492.508 290.968 492.001 290.856 491.408C290.743 490.808 290.687 490.126 290.687 489.364V487.892H293.068V489.551C293.068 490.439 293.143 491.076 293.293 491.464C293.443 491.851 293.74 492.045 294.184 492.045C294.484 492.045 294.709 491.976 294.859 491.839C295.015 491.695 295.118 491.47 295.168 491.164C295.224 490.851 295.252 490.445 295.252 489.945C295.252 489.326 295.121 488.761 294.859 488.248C294.602 487.736 294.212 487.204 293.687 486.654L292.468 485.398C292.131 485.048 291.824 484.676 291.549 484.283C291.281 483.889 291.065 483.451 290.902 482.97C290.746 482.483 290.668 481.939 290.668 481.339C290.668 480.47 290.774 479.736 290.987 479.136C291.199 478.536 291.559 478.083 292.065 477.776C292.571 477.464 293.265 477.308 294.146 477.308C294.809 477.308 295.352 477.411 295.777 477.617C296.209 477.817 296.543 478.114 296.781 478.508C297.024 478.895 297.196 479.37 297.296 479.933C297.396 480.489 297.446 481.126 297.446 481.845V482.867H295.131V481.686C295.131 481.186 295.102 480.77 295.046 480.439C294.996 480.108 294.899 479.861 294.756 479.698C294.612 479.529 294.402 479.445 294.127 479.445C293.865 479.445 293.652 479.504 293.49 479.623C293.327 479.736 293.209 479.914 293.134 480.158C293.065 480.395 293.031 480.704 293.031 481.086C293.031 481.429 293.074 481.726 293.162 481.976C293.249 482.226 293.384 482.467 293.565 482.698C293.746 482.929 293.971 483.189 294.24 483.476L295.599 484.948C296.249 485.648 296.756 486.376 297.118 487.133C297.481 487.889 297.662 488.733 297.662 489.664C297.662 490.651 297.556 491.483 297.343 492.158C297.131 492.826 296.774 493.333 296.274 493.676C295.774 494.02 295.093 494.192 294.231 494.192ZM307.139 494.173C306.145 494.173 305.345 493.783 304.739 493.001C304.133 492.214 303.829 490.939 303.829 489.176V482.004C303.829 481.267 303.898 480.608 304.036 480.026C304.179 479.445 304.398 478.954 304.692 478.554C304.992 478.148 305.379 477.842 305.854 477.636C306.329 477.423 306.901 477.317 307.57 477.317C308.295 477.317 308.886 477.426 309.342 477.645C309.798 477.858 310.148 478.17 310.392 478.583C310.642 478.989 310.814 479.489 310.908 480.083C311.001 480.676 311.048 481.348 311.048 482.098V483.27H308.704V481.545C308.704 480.801 308.626 480.273 308.47 479.961C308.32 479.648 308.033 479.492 307.608 479.492C307.139 479.492 306.814 479.676 306.633 480.045C306.451 480.408 306.361 481.054 306.361 481.986V489.139C306.361 490.176 306.436 490.92 306.586 491.37C306.742 491.814 307.064 492.036 307.551 492.036C308.026 492.036 308.361 491.808 308.554 491.351C308.754 490.889 308.854 490.12 308.854 489.045V486.823H307.589V484.995H311.048V494.004H309.923L309.539 492.383C309.401 492.951 309.108 493.392 308.658 493.704C308.214 494.017 307.708 494.173 307.139 494.173ZM313.987 494.004V477.504H319.518V479.67H316.499V484.47H319.368V486.589H316.499V491.839H319.63V494.004H313.987ZM322.925 494.004V479.679H320.994V477.504H327.285V479.679H325.428V494.004H322.925ZM254.398 519.004V502.504H257.97C258.802 502.504 259.464 502.633 259.958 502.889C260.452 503.139 260.808 503.539 261.027 504.089C261.252 504.633 261.364 505.348 261.364 506.236V506.742C261.364 507.598 261.252 508.304 261.027 508.861C260.808 509.411 260.439 509.795 259.92 510.014C260.352 510.158 260.695 510.417 260.952 510.792C261.214 511.161 261.402 511.614 261.514 512.151C261.627 512.683 261.683 513.267 261.683 513.904V514.326C261.677 515.426 261.548 516.323 261.298 517.017C261.048 517.704 260.658 518.208 260.127 518.526C259.595 518.845 258.902 519.004 258.045 519.004H254.398ZM256.911 517.054H257.802C258.133 517.054 258.395 516.983 258.589 516.839C258.789 516.689 258.933 516.442 259.02 516.098C259.108 515.754 259.152 515.286 259.152 514.692V513.361C259.152 512.561 259.073 511.979 258.917 511.617C258.767 511.248 258.452 511.064 257.97 511.064H256.911V517.054ZM256.911 509.179H257.839C258.058 509.179 258.236 509.148 258.373 509.086C258.511 509.023 258.617 508.917 258.692 508.767C258.767 508.611 258.817 508.395 258.842 508.12C258.873 507.845 258.889 507.495 258.889 507.07V506.076C258.889 505.633 258.848 505.295 258.767 505.064C258.686 504.833 258.561 504.676 258.392 504.595C258.23 504.514 258.017 504.473 257.755 504.473H256.911V509.179ZM267.724 519.192C266.868 519.192 266.171 519.033 265.634 518.714C265.096 518.389 264.703 517.901 264.453 517.251C264.203 516.595 264.078 515.767 264.078 514.767V502.504H266.59V514.72C266.59 515.183 266.609 515.589 266.646 515.939C266.69 516.289 266.79 516.561 266.946 516.754C267.103 516.948 267.359 517.045 267.715 517.045C268.071 517.045 268.328 516.951 268.484 516.764C268.646 516.57 268.746 516.298 268.784 515.948C268.821 515.598 268.84 515.189 268.84 514.72V502.504H271.353V514.767C271.353 515.767 271.228 516.595 270.978 517.251C270.734 517.901 270.343 518.389 269.806 518.714C269.274 519.033 268.581 519.192 267.724 519.192ZM274.282 519.004V502.504H278.435C279.297 502.504 279.941 502.673 280.366 503.011C280.791 503.348 281.069 503.842 281.2 504.492C281.338 505.142 281.407 505.936 281.407 506.873C281.407 507.842 281.307 508.604 281.107 509.161C280.913 509.711 280.513 510.079 279.907 510.267C280.194 510.317 280.435 510.436 280.629 510.623C280.822 510.804 280.979 511.073 281.097 511.429C281.216 511.779 281.3 512.233 281.35 512.789C281.407 513.339 281.435 514.014 281.435 514.814C281.435 514.876 281.435 515.051 281.435 515.339C281.435 515.626 281.435 515.967 281.435 516.361C281.441 516.748 281.447 517.136 281.454 517.523C281.46 517.911 281.469 518.242 281.482 518.517C281.494 518.792 281.51 518.954 281.529 519.004H279.016C278.997 518.973 278.982 518.814 278.969 518.526C278.963 518.233 278.954 517.861 278.941 517.411C278.935 516.961 278.929 516.476 278.922 515.958C278.922 515.439 278.922 514.929 278.922 514.429C278.922 513.923 278.922 513.476 278.922 513.089C278.922 512.595 278.885 512.223 278.81 511.973C278.741 511.717 278.61 511.539 278.416 511.439C278.229 511.339 277.957 511.279 277.6 511.261L276.794 511.214V519.004H274.282ZM276.804 509.264H277.807C278.113 509.264 278.344 509.195 278.5 509.058C278.663 508.92 278.772 508.667 278.829 508.298C278.891 507.929 278.922 507.398 278.922 506.704V506.601C278.922 506.02 278.894 505.573 278.838 505.261C278.782 504.948 278.663 504.733 278.482 504.614C278.307 504.495 278.032 504.436 277.657 504.436H276.804V509.264ZM284.158 519.004V502.504H286.126L289.623 512.404L289.445 507.904V502.504H291.705V519.004H289.923L286.333 508.758L286.473 513.089V519.004H284.158ZM298.791 519.004V502.504H302.578C303.235 502.504 303.778 502.604 304.21 502.804C304.647 503.004 304.991 503.301 305.241 503.695C305.491 504.089 305.669 504.576 305.775 505.158C305.882 505.733 305.935 506.398 305.935 507.154V507.501C305.935 508.564 305.841 509.47 305.653 510.22C305.472 510.964 305.144 511.529 304.669 511.917C304.194 512.304 303.525 512.498 302.663 512.498H301.303V519.004H298.791ZM301.303 510.426H302.166C302.535 510.426 302.81 510.333 302.991 510.145C303.172 509.958 303.291 509.648 303.347 509.217C303.41 508.779 303.441 508.198 303.441 507.473V507.154C303.435 506.261 303.357 505.586 303.207 505.129C303.057 504.667 302.716 504.436 302.185 504.436H301.303V510.426ZM311.686 519.192C310.829 519.192 310.129 519.011 309.586 518.648C309.048 518.286 308.651 517.748 308.395 517.036C308.139 516.323 308.011 515.442 308.011 514.392V506.845C308.011 505.895 308.136 505.083 308.386 504.408C308.636 503.733 309.033 503.214 309.576 502.851C310.12 502.489 310.833 502.308 311.714 502.308C312.376 502.308 312.936 502.411 313.392 502.617C313.848 502.823 314.217 503.123 314.498 503.517C314.779 503.904 314.983 504.379 315.108 504.942C315.239 505.498 315.304 506.133 315.304 506.845V514.392C315.304 515.442 315.179 516.323 314.929 517.036C314.686 517.748 314.298 518.286 313.767 518.648C313.236 519.011 312.542 519.192 311.686 519.192ZM311.686 517.017C311.998 517.017 312.233 516.923 312.389 516.736C312.545 516.548 312.648 516.264 312.698 515.883C312.754 515.495 312.783 515.008 312.783 514.42V506.733C312.783 506.014 312.714 505.461 312.576 505.073C312.445 504.679 312.158 504.483 311.714 504.483C311.258 504.483 310.948 504.673 310.786 505.054C310.623 505.429 310.542 505.986 310.542 506.723V514.42C310.542 515.02 310.567 515.514 310.617 515.901C310.673 516.283 310.783 516.564 310.945 516.745C311.114 516.926 311.361 517.017 311.686 517.017ZM318.224 519.004V502.504H320.737V519.004H318.224ZM323.844 519.004V502.504H325.813L329.31 512.404L329.131 507.904V502.504H331.391V519.004H329.61L326.019 508.758L326.16 513.089V519.004H323.844ZM335.314 519.004V504.679H333.382V502.504H339.673V504.679H337.817V519.004H335.314ZM344.674 519.192C343.987 519.192 343.412 519.086 342.949 518.873C342.493 518.654 342.13 518.339 341.862 517.926C341.599 517.508 341.412 517.001 341.299 516.408C341.187 515.808 341.13 515.126 341.13 514.364V512.892H343.512V514.551C343.512 515.439 343.587 516.076 343.737 516.464C343.887 516.851 344.183 517.045 344.627 517.045C344.927 517.045 345.152 516.976 345.302 516.839C345.458 516.695 345.562 516.47 345.612 516.164C345.668 515.851 345.696 515.445 345.696 514.945C345.696 514.326 345.565 513.761 345.302 513.248C345.046 512.736 344.655 512.204 344.13 511.654L342.912 510.398C342.574 510.048 342.268 509.676 341.993 509.283C341.724 508.889 341.508 508.451 341.346 507.97C341.19 507.483 341.112 506.939 341.112 506.339C341.112 505.47 341.218 504.736 341.43 504.136C341.643 503.536 342.002 503.083 342.508 502.776C343.015 502.464 343.708 502.308 344.59 502.308C345.252 502.308 345.796 502.411 346.221 502.617C346.652 502.817 346.987 503.114 347.224 503.508C347.468 503.895 347.64 504.37 347.74 504.933C347.84 505.489 347.89 506.126 347.89 506.845V507.867H345.574V506.686C345.574 506.186 345.546 505.77 345.49 505.439C345.44 505.108 345.343 504.861 345.199 504.698C345.055 504.529 344.846 504.445 344.571 504.445C344.308 504.445 344.096 504.504 343.933 504.623C343.771 504.736 343.652 504.914 343.577 505.158C343.508 505.395 343.474 505.704 343.474 506.086C343.474 506.429 343.518 506.726 343.605 506.976C343.693 507.226 343.827 507.467 344.008 507.698C344.19 507.929 344.415 508.189 344.683 508.476L346.043 509.948C346.693 510.648 347.199 511.376 347.562 512.133C347.924 512.889 348.105 513.733 348.105 514.664C348.105 515.651 347.999 516.483 347.787 517.158C347.574 517.826 347.218 518.333 346.718 518.676C346.218 519.02 345.537 519.192 344.674 519.192Z" fill="#194459"/>
<path d="M164.833 212.98C164.833 216.162 167.413 218.742 170.595 218.742C173.777 218.742 176.356 216.162 176.356 212.98C176.356 209.798 173.777 207.219 170.595 207.219C167.413 207.219 164.833 209.798 164.833 212.98ZM170.595 498.195H169.515V499.275H170.595V498.195ZM183.342 498.195C183.342 501.377 185.921 503.957 189.103 503.957C192.285 503.957 194.865 501.377 194.865 498.195C194.865 495.013 192.285 492.434 189.103 492.434C185.921 492.434 183.342 495.013 183.342 498.195ZM169.515 212.98V214.857H171.675V212.98H169.515ZM169.515 218.61V222.363H171.675V218.61H169.515ZM169.515 226.115V229.868H171.675V226.115H169.515ZM169.515 233.621V237.374H171.675V233.621H169.515ZM169.515 241.127V244.879H171.675V241.127H169.515ZM169.515 248.632V252.385H171.675V248.632H169.515ZM169.515 256.138V259.891H171.675V256.138H169.515ZM169.515 263.644V267.396H171.675V263.644H169.515ZM169.515 271.149V274.902H171.675V271.149H169.515ZM169.515 278.655V282.408H171.675V278.655H169.515ZM169.515 286.161V289.913H171.675V286.161H169.515ZM169.515 293.666V297.419H171.675V293.666H169.515ZM169.515 301.172V304.925H171.675V301.172H169.515ZM169.515 308.677V312.43H171.675V308.677H169.515ZM169.515 316.183V319.936H171.675V316.183H169.515ZM169.515 323.689V327.442H171.675V323.689H169.515ZM169.515 331.194V334.947H171.675V331.194H169.515ZM169.515 338.7V342.453H171.675V338.7H169.515ZM169.515 346.206V349.959H171.675V346.206H169.515ZM169.515 353.711V357.464H171.675V353.711H169.515ZM169.515 361.217V364.97H171.675V361.217H169.515ZM169.515 368.723V372.475H171.675V368.723H169.515ZM169.515 376.228V379.981H171.675V376.228H169.515ZM169.515 383.734V387.487H171.675V383.734H169.515ZM169.515 391.24V394.992H171.675V391.24H169.515ZM169.515 398.745V402.498H171.675V398.745H169.515ZM169.515 406.251V410.004H171.675V406.251H169.515ZM169.515 413.757V417.509H171.675V413.757H169.515ZM169.515 421.262V425.015H171.675V421.262H169.515ZM169.515 428.768V432.521H171.675V428.768H169.515ZM169.515 436.273V440.026H171.675V436.273H169.515ZM169.515 443.779V447.532H171.675V443.779H169.515ZM169.515 451.285V455.038H171.675V451.285H169.515ZM169.515 458.79V462.543H171.675V458.79H169.515ZM169.515 466.296V470.049H171.675V466.296H169.515ZM169.515 473.802V477.555H171.675V473.802H169.515ZM169.515 481.307V485.06H171.675V481.307H169.515ZM169.515 488.813V492.566H171.675V488.813H169.515ZM169.515 496.319V498.195H171.675V496.319H169.515ZM170.595 499.275H172.908V497.115H170.595V499.275ZM177.536 499.275H182.163V497.115H177.536V499.275ZM186.79 499.275H189.103V497.115H186.79V499.275Z" fill="#FF002E"/>
<path d="M279.178 544.32C279.178 547.502 281.757 550.082 284.939 550.082C288.121 550.082 290.701 547.502 290.701 544.32C290.701 541.138 288.121 538.559 284.939 538.559C281.757 538.559 279.178 541.138 279.178 544.32ZM284.939 570.253V571.333H286.019V570.253H284.939ZM185.28 570.253V569.173H184.2V570.253H185.28ZM179.519 596.523C179.519 599.705 182.098 602.284 185.28 602.284C188.462 602.284 191.042 599.705 191.042 596.523C191.042 593.341 188.462 590.761 185.28 590.761C182.098 590.761 179.519 593.341 179.519 596.523ZM186.36 596.523V594.333H184.2V596.523H186.36ZM186.36 589.955V585.577H184.2V589.955H186.36ZM186.36 581.199V576.82H184.2V581.199H186.36ZM186.36 572.442V570.253H184.2V572.442H186.36ZM185.28 571.333H187.356V569.173H185.28V571.333ZM191.509 571.333H195.661V569.173H191.509V571.333ZM199.814 571.333H203.966V569.173H199.814V571.333ZM208.119 571.333H212.271V569.173H208.119V571.333ZM216.423 571.333H220.576V569.173H216.423V571.333ZM224.728 571.333H228.881V569.173H224.728V571.333ZM233.033 571.333H237.186V569.173H233.033V571.333ZM241.338 571.333H245.491V569.173H241.338V571.333ZM249.643 571.333H253.796V569.173H249.643V571.333ZM257.948 571.333H262.101V569.173H257.948V571.333ZM266.253 571.333H270.405V569.173H266.253V571.333ZM274.558 571.333H278.71V569.173H274.558V571.333ZM282.863 571.333H284.939V569.173H282.863V571.333ZM286.019 570.253V568.092H283.859V570.253H286.019ZM286.019 563.77V559.448H283.859V563.77H286.019ZM286.019 555.126V550.803H283.859V555.126H286.019ZM286.019 546.481V544.32H283.859V546.481H286.019Z" fill="#FF002E"/>
<defs>
<clipPath id="clip0_1731_183">
<rect width="36.7296" height="34.5691" fill="white" transform="translate(91.9312 634.088)"/>
</clipPath>
</defs>
</svg>
