<svg width="180" height="60" viewBox="0 0 180 60" fill="none" xmlns="http://www.w3.org/2000/svg">
<path fill-rule="evenodd" clip-rule="evenodd" d="M27.4882 16.6207C30.6356 20.4974 34.0913 25.3678 34.6502 26.1555C34.68 26.1975 34.7016 26.2279 34.7145 26.2459C35.0124 26.6639 35.2584 26.9746 35.4452 27.2105C35.8599 27.7343 35.9829 27.8897 35.7355 28.0325C35.5359 28.1476 35.33 28.1856 35.1246 28.1856C34.8922 28.1856 34.6304 28.072 34.4397 27.8885C34.305 27.7588 33.383 26.3999 32.1276 24.4229C31.167 22.9102 30.3631 21.6554 30.3411 21.6344C30.2904 21.5858 30.2913 21.5874 32.0296 24.744C33.1211 26.726 33.8678 28.1908 33.8678 28.2845C33.8678 28.4751 33.8165 28.5753 33.5848 28.8375C33.1986 29.2749 33.0259 29.7663 32.9013 30.7831C32.7616 31.923 32.3686 32.7283 31.2798 34.1064C30.6424 34.9132 30.5381 35.061 30.3773 35.3862C30.1747 35.7957 30.119 36.025 30.0964 36.542C30.0725 37.0888 30.119 37.4419 30.2836 37.9645C30.4277 38.4221 30.5781 38.7244 30.9625 39.3287C31.2943 39.8502 31.4854 40.2377 31.4854 40.3894C31.4854 40.51 31.5081 40.5102 32.0222 40.3924C33.2526 40.1103 34.2517 39.6145 34.8136 39.0067C35.1614 38.6305 35.243 38.4228 35.2457 37.9073C35.2474 37.5701 35.2357 37.4996 35.1459 37.3056C34.9997 36.9897 34.7336 36.7273 34.147 36.3204C33.3784 35.7871 33.0501 35.3578 32.9594 34.7675C32.885 34.2831 32.9713 33.9413 33.3965 33.0369C33.8366 32.1008 33.9457 31.7019 34.0195 30.7582C34.0671 30.1486 34.1331 29.9082 34.3057 29.7152C34.4857 29.514 34.6477 29.4458 35.0932 29.384C35.8195 29.2833 36.2819 29.0926 36.662 28.7372C36.9918 28.4288 37.1298 28.1316 37.151 27.6843L37.167 27.3453L36.9828 27.1272C36.3154 26.3376 27.0413 16 27.0003 16C26.9915 16 27.2111 16.2794 27.4882 16.6207ZM31.86 37.1607C32.0109 36.8894 31.9307 36.5409 31.6783 36.3705C31.4398 36.2096 31.0694 36.2854 31.0694 36.4951C31.0694 36.5591 31.1043 36.6056 31.1829 36.6467C31.3152 36.7159 31.3248 36.7935 31.2207 36.9523C31.1152 37.1132 31.1237 37.2545 31.2447 37.3505C31.4396 37.5055 31.7155 37.4203 31.86 37.1607ZM36.4014 22.3726C36.1037 22.3257 36.0912 22.3202 36.2313 22.2984C36.4998 22.2565 37.1337 22.3136 37.5706 22.419C38.5906 22.665 39.5186 23.2953 40.5093 24.4147L40.7725 24.7121L41.149 24.6507C42.7352 24.392 44.3488 24.5976 45.6984 25.2303C46.0697 25.4044 46.6551 25.7509 46.7282 25.8399C46.7514 25.8683 46.7943 26.051 46.8232 26.2459C46.9235 26.9203 46.8734 27.4372 46.67 27.8233C46.5595 28.0334 46.5534 28.1 46.6277 28.2798C46.687 28.4232 46.8525 28.5294 47.0164 28.5292C47.3518 28.5287 47.7127 27.9785 47.88 27.2129L47.9465 26.9088L48.0781 27.0601C48.8 27.8903 49.3671 29.0223 49.4645 29.8281L49.4898 30.0382L49.3685 29.8472C49.1596 29.5186 48.9499 29.2948 48.6811 29.1144C48.1967 28.7891 47.6845 28.6784 46.3281 28.6059C45.1031 28.5404 44.4098 28.4342 43.7223 28.2066C42.5525 27.8196 41.9629 27.3042 40.5733 25.4541C39.9562 24.6323 39.5748 24.1777 39.1953 23.8116C38.3331 22.9796 37.4859 22.5433 36.4014 22.3726ZM47.0045 24.2073C47.0353 23.6567 47.1089 23.2935 47.2569 22.9618C47.3154 22.8305 47.3703 22.7231 47.3787 22.7231C47.3872 22.7231 47.3617 22.82 47.3221 22.9384C47.2146 23.2603 47.1969 23.7006 47.271 24.2128C47.365 24.8628 47.4186 24.9566 48.0954 25.6587C48.4129 25.988 48.7823 26.4033 48.9161 26.5817L49.1596 26.9059L48.9161 26.6742C48.6185 26.3908 47.9339 25.8382 47.7827 25.7592C47.6812 25.7062 47.6661 25.7071 47.6036 25.7703C47.546 25.8285 47.5338 25.916 47.5258 26.3295C47.5133 26.9741 47.4268 27.3878 47.2179 27.8014C47.1049 28.0252 47.087 27.9774 47.1893 27.7249C47.2657 27.5363 47.2734 27.4534 47.2729 26.8295C47.2717 25.5758 47.125 25.2744 46.2649 24.7581C46.0471 24.6273 45.688 24.4387 45.4671 24.3389C45.2464 24.2392 45.0709 24.1523 45.0772 24.1458C45.1016 24.1212 45.9404 24.3696 46.278 24.5014C46.7802 24.6974 46.863 24.7228 46.924 24.6992C46.9648 24.6833 46.9847 24.5625 47.0045 24.2073ZM36.0824 23.2449C36.0014 24.2128 36.3754 25.5075 36.9798 26.352C37.4483 27.0066 38.1746 27.5153 38.7108 27.5645C39.0619 27.5966 39.1674 27.4851 39.0085 27.2497C38.788 26.9228 38.5168 26.4196 38.4451 26.2042C38.4005 26.0703 38.3036 25.675 38.2297 25.3256C37.9776 24.1328 37.7298 23.6683 37.1574 23.3155C36.9488 23.1869 36.5033 23.0187 36.245 22.9708L36.1074 22.9453L36.0824 23.2449ZM46.2714 32.637C43.4468 31.4828 42.4519 30.481 42.4519 28.7906C42.4519 28.5419 42.4605 28.3384 42.4707 28.3384C42.4811 28.3384 42.5903 28.4205 42.7135 28.5208C43.2863 28.987 43.9277 29.1862 45.7034 29.449C46.7481 29.6038 47.3361 29.7287 47.8786 29.9113C49.6026 30.4915 50.6692 31.669 50.9236 33.273C50.9975 33.739 50.9542 34.6129 50.8343 35.0735C50.7397 35.4374 50.451 36.093 50.3744 36.1182C50.3532 36.1252 50.3323 36.0426 50.3269 35.9303C50.2979 35.328 49.998 34.7417 49.4944 34.3025C48.9218 33.8031 48.1524 33.4056 46.2714 32.637ZM44.152 32.51C44.1916 32.6298 44.2531 32.9027 44.2884 33.1164C44.5147 34.4829 43.8079 35.5869 42.433 36.0147C42.2875 36.0599 41.7142 36.1739 41.159 36.2676C40.0351 36.4575 39.5335 36.592 39.0297 36.8384C38.6723 37.0131 38.2396 37.2747 38.2654 37.3007C38.2736 37.3091 38.3552 37.2894 38.4466 37.2568C39.082 37.0304 39.7892 36.9131 40.8637 36.8564C41.2901 36.834 41.7751 36.7981 41.9415 36.7769C42.8987 36.6545 43.5622 36.3594 44.0781 35.8265C44.3652 35.5299 44.5363 35.2537 44.6743 34.8641C44.7617 34.617 44.7735 34.5252 44.7741 34.0874C44.7749 33.6413 44.7643 33.5597 44.6695 33.2852C44.5455 32.9255 44.3992 32.6555 44.2138 32.4444L44.08 32.292L44.152 32.51ZM45.5833 35.4502C45.2079 34.6314 45.1218 33.8409 45.3274 33.1038C45.3494 33.0249 45.3847 32.9604 45.4061 32.9604C45.4274 32.9604 45.5158 33.0091 45.6029 33.0684C45.7757 33.1866 46.1226 33.3856 47.0466 33.8968C48.1998 34.5348 48.8572 35.0288 49.3042 35.5934C49.6958 36.0876 49.938 36.6506 50.0546 37.3371C50.1207 37.726 50.082 38.6617 49.9837 39.0533C49.6737 40.288 48.9531 41.2577 47.9255 41.8237C47.7749 41.9066 47.6397 41.9746 47.625 41.975C47.6105 41.9753 47.6653 41.8338 47.747 41.6603C48.0927 40.9269 48.132 40.2135 47.8707 39.4195C47.7106 38.9333 47.3843 38.34 46.7254 37.3372C45.9595 36.1715 45.7716 35.8612 45.5833 35.4502ZM38.5142 38.1356C37.3262 38.3314 36.022 38.9694 34.9739 39.8676L34.6618 40.135L34.936 40.1785C36.3672 40.4052 36.7526 40.6063 37.7453 41.6441C38.3166 42.2412 38.5095 42.3742 38.9833 42.4969C39.6793 42.6772 40.3653 42.3459 40.6006 41.7159C40.7058 41.4343 40.6917 40.9682 40.5711 40.7341C40.2842 40.1767 39.4483 39.9965 39.0441 40.4048C38.7074 40.7449 38.8055 41.2572 39.2243 41.3453C39.3201 41.3656 39.3174 41.3613 39.1998 41.3073C39.0166 41.2232 38.937 41.1066 38.9359 40.9211C38.9336 40.486 39.4241 40.2418 39.8805 40.4507C40.2146 40.6038 40.3473 40.8037 40.3473 41.1542C40.3473 41.694 39.8947 42.1007 39.3679 42.0342C39.0863 41.9986 38.742 41.8158 38.5573 41.604C38.0927 41.0709 38.2737 40.2295 38.9224 39.9067C39.4162 39.6611 40.0727 39.7216 40.5817 40.0598C41.1666 40.4486 41.4153 40.8038 41.9191 41.9698C42.0831 42.3495 42.2942 42.7769 42.388 42.9196C42.8652 43.6445 43.437 44 44.1256 44C44.5055 44 44.7912 43.9296 45.1507 43.7475C45.4178 43.612 45.7964 43.3548 45.7691 43.3272C45.7614 43.3194 45.6506 43.3544 45.5229 43.4049C44.771 43.7025 44.0066 43.6821 43.5627 43.3523C43.2831 43.1447 43.0577 42.7311 42.9418 42.2139C42.9217 42.1244 42.8555 41.7291 42.7946 41.3353C42.6403 40.3373 42.4921 39.8887 42.1465 39.3738C41.7929 38.8471 41.1132 38.4051 40.3532 38.2077C39.8791 38.0845 39.0262 38.051 38.5142 38.1356ZM36.8504 30.4194C36.953 30.0349 37.2844 29.6681 37.6254 29.5619C37.8422 29.4943 38.2903 29.5375 38.501 29.6461C38.9093 29.8569 39.2058 30.3367 39.1414 30.6832C39.063 31.1055 38.388 31.4435 37.6116 31.4491C37.215 31.4518 37.0685 31.3978 36.9171 31.1926C36.8233 31.0655 36.7878 30.654 36.8504 30.4194ZM38.3967 29.7967C38.6004 29.9229 38.6527 30.1095 38.533 30.2821C38.4505 30.4011 38.1952 30.5141 38.0086 30.5141C37.7283 30.5141 37.4225 30.3121 37.4225 30.1271C37.4225 29.7553 38.0089 29.5563 38.3967 29.7967ZM99.2574 30.8612C98.6239 28.7443 99.6686 26.9885 101.897 26.4242C102.537 26.2623 105.431 26.3354 105.927 26.526C106.109 26.5958 106.188 26.8639 106.19 27.4149C106.191 27.8488 106.238 28.3758 106.295 28.586C106.38 28.9045 106.33 28.9672 105.995 28.9621C105.693 28.9574 105.51 28.7792 105.254 28.2401C104.846 27.3791 104.352 27.1052 103.201 27.102C101.731 27.0977 100.655 28.0921 100.83 29.2936C100.944 30.0755 101.722 30.8448 103.467 31.9024C105.127 32.9085 106.096 33.7358 106.482 34.4771C107.514 36.4588 106.633 38.5796 104.332 39.6481C103.152 40.1966 101.173 40.2533 99.7816 39.7786L98.8906 39.4745V38.0442C98.8906 36.7488 98.9214 36.6137 99.2152 36.6137C99.4611 36.6137 99.5672 36.7769 99.6535 37.2883C99.8682 38.5599 100.83 39.3319 102.2 39.3319C103.542 39.3319 104.48 38.5953 104.839 37.2596C104.992 36.6905 104.966 36.4807 104.662 35.853C104.298 35.1004 103.672 34.601 101.544 33.3678C100.364 32.6834 99.5288 31.7683 99.2574 30.8612ZM57.5487 27.2693C57.2584 27.2693 57.1451 27.174 57.1451 26.9295C57.1451 26.6058 57.2584 26.5897 59.5333 26.5897C61.6449 26.5897 61.9151 26.6216 61.8667 26.8651C61.8364 27.0166 61.5446 27.2268 61.2179 27.3323L60.6239 27.5241L60.5732 31.8565C60.5392 34.7474 60.587 36.4151 60.7166 36.8684C61.1018 38.2168 62.2769 38.9922 63.9348 38.9922C65.089 38.9922 65.7633 38.7211 66.6103 37.9159C67.5215 37.0503 67.6668 36.2278 67.6639 31.9531C67.6611 27.7365 67.588 27.3885 66.6867 27.3011C66.2766 27.2611 66.1392 27.1651 66.1392 26.9188C66.1392 26.6116 66.2745 26.5897 68.1755 26.5897C70.0987 26.5897 70.2118 26.6086 70.2118 26.9295C70.2118 27.1388 70.0978 27.2703 69.9148 27.2718C69.1289 27.2788 69.1145 27.3539 69.0087 31.9775C68.899 36.7789 68.7964 37.3474 67.828 38.5235C67.5487 38.8628 66.8826 39.3555 66.3478 39.6185C65.4765 40.0469 65.1993 40.0961 63.6785 40.0933C62.2766 40.0904 61.834 40.0224 61.133 39.7018C60.1098 39.2338 59.4444 38.6281 58.9537 37.7179C58.6113 37.0826 58.582 36.7388 58.5028 32.4341C58.4119 27.5068 58.368 27.2693 57.5487 27.2693ZM73.4281 27.2693C73.0402 27.2693 72.927 27.1925 72.927 26.9295C72.927 26.6109 73.0354 26.5906 74.6663 26.6036L76.4058 26.6176L77.2381 27.5805C77.6955 28.1101 79.187 29.7668 80.5521 31.2618C81.9174 32.757 83.4848 34.4962 84.0351 35.1269C84.5856 35.7578 85.1036 36.2738 85.1864 36.2738C85.2715 36.2738 85.3139 34.492 85.2836 32.1813L85.23 28.0889L84.7538 27.6791C84.492 27.4536 84.0913 27.2693 83.863 27.2693C83.5595 27.2693 83.4483 27.1769 83.4483 26.9247C83.4483 26.5929 83.5349 26.5819 85.7815 26.6274C87.6919 26.6661 88.1149 26.7197 88.1149 26.9225C88.1149 27.0671 87.8786 27.2188 87.5476 27.2866C87.2358 27.3505 86.892 27.4912 86.784 27.5992C86.6446 27.7387 86.5736 29.5422 86.5391 33.8186L86.4904 39.8416H85.9986C85.5752 39.8416 85.0712 39.3629 82.3766 36.4012C80.655 34.5089 78.6455 32.2599 77.911 31.4036C77.1764 30.5471 76.5181 29.8398 76.4482 29.8321C76.2512 29.8099 76.2988 37.4618 76.5003 38.1882C76.6574 38.7542 76.7654 38.8516 77.4328 39.0304C77.9703 39.1743 78.1877 39.3203 78.1877 39.5371C78.1877 39.8155 77.9828 39.8416 75.8119 39.8416C73.602 39.8416 73.4361 39.8194 73.4361 39.5231C73.4361 39.3062 73.596 39.1726 73.9375 39.1042C74.9737 38.8967 75.0425 38.5674 75.1006 33.5339C75.1332 30.7148 75.0854 28.7423 74.9743 28.3293C74.779 27.603 74.2923 27.2693 73.4281 27.2693ZM91.222 27.2693C90.8584 27.2693 90.7453 27.1886 90.7453 26.9295C90.7453 26.6048 90.8584 26.5897 93.2907 26.5897C95.7229 26.5897 95.8362 26.6048 95.8362 26.9295C95.8362 27.1787 95.7229 27.2693 95.4119 27.2693C95.1786 27.2693 94.8319 27.4253 94.6414 27.6159C94.3053 27.9525 94.2966 28.1198 94.3445 33.3214C94.3911 38.3991 94.4111 38.6929 94.7231 38.9211C94.9043 39.0537 95.2288 39.1621 95.4443 39.1621C95.7229 39.1621 95.8362 39.26 95.8362 39.5019C95.8362 39.8266 95.7229 39.8416 93.2907 39.8416C90.9163 39.8416 90.7453 39.8202 90.7453 39.5236C90.7453 39.2844 90.9118 39.1788 91.4175 39.0978C92.4217 38.9371 92.473 38.6079 92.4104 32.7345C92.3604 28.031 92.3389 27.7377 92.028 27.5102C91.8467 27.3777 91.4841 27.2693 91.222 27.2693ZM108.978 27.2693C108.746 27.2693 108.569 27.14 108.514 26.9295C108.429 26.6009 108.509 26.5897 110.955 26.5897C113.371 26.5897 113.485 26.6048 113.485 26.9295C113.485 27.1906 113.371 27.2693 112.996 27.2693C111.928 27.2693 111.952 27.4636 113.569 31.9068C114.392 34.1685 115.191 36.3169 115.344 36.681L115.624 37.3432L116.92 33.8777C118.445 29.7986 118.644 29.0442 118.385 28.3002C118.204 27.7817 117.502 27.2693 116.972 27.2693C116.822 27.2693 116.709 27.1232 116.709 26.9295C116.709 26.6043 116.822 26.5897 119.339 26.5897C121.856 26.5897 121.97 26.6043 121.97 26.9295C121.97 27.1713 121.856 27.2693 121.578 27.2693C120.864 27.2693 120.55 27.6502 120.652 28.3903C120.758 29.1521 123.676 37.3399 123.799 37.2174C123.998 37.0181 127.23 28.2039 127.23 27.8604C127.23 27.4487 126.942 27.2693 126.283 27.2693C125.986 27.2693 125.873 27.1757 125.873 26.9295C125.873 26.6086 125.986 26.5897 127.909 26.5897C129.636 26.5897 129.945 26.6298 129.945 26.8534C129.945 26.9985 129.734 27.191 129.475 27.2812C128.893 27.4842 128.747 27.7159 128.018 29.5931C127.697 30.4174 126.694 32.9974 125.789 35.3259C124.883 37.6548 124.104 39.6617 124.056 39.7858C124.008 39.91 123.728 40.0116 123.432 40.0116H122.895L121.676 36.826C121.006 35.0741 120.214 32.9984 119.916 32.2135C119.406 30.8686 119.363 30.8101 119.172 31.194C119.06 31.4183 118.254 33.4977 117.382 35.8149L115.795 40.0282L115.203 39.9774L114.611 39.9266L112.353 33.9935C111.091 30.6787 109.931 27.8857 109.724 27.6648C109.52 27.4472 109.184 27.2693 108.978 27.2693ZM142.909 27.3413C142.881 27.2768 142.881 27.0449 142.881 27.0449C142.881 27.0449 142.875 26.9612 142.909 26.9166C142.944 26.8721 142.957 26.8709 143.081 26.859L143.083 26.8589C143.541 26.8151 144.46 26.7414 145.227 26.7078C145.297 26.7047 145.375 26.7011 145.46 26.6973L145.462 26.6972L145.463 26.6971L145.464 26.6971C146.308 26.6586 147.819 26.6071 148.857 26.6593C150.85 26.7593 152.267 27.7269 152.75 29.3259C153.233 30.9249 152.977 32.4258 152.319 33.3812C151.661 34.3366 150.554 35.1592 148.714 35.1057C147.195 35.0615 146.789 34.7758 146.464 34.5475C146.395 34.4992 146.33 34.4535 146.259 34.4133V36.4524C146.275 37.8431 146.287 38.511 146.394 38.7583C146.539 39.0911 146.865 39.2962 147.501 39.4534C147.501 39.4534 147.789 39.5211 147.863 39.5934C147.937 39.6657 147.937 39.8262 147.937 39.8262C147.937 39.8262 147.952 39.9762 147.893 40.0527C147.833 40.1292 147.718 40.1139 147.718 40.1139L144.901 40.0911L143.203 40.0866C143.203 40.0866 143.025 40.1209 142.958 40.0489C142.891 39.9768 142.897 39.8266 142.897 39.8266C142.897 39.8266 142.912 39.6647 142.99 39.5923C143.068 39.5198 143.358 39.4389 143.358 39.4389C144.013 39.2541 144.297 39.0587 144.445 38.6905C144.565 38.3936 144.566 37.8432 144.565 33.3513C144.563 29.0915 144.557 28.2968 144.46 28.0683C144.316 27.73 143.956 27.6404 143.443 27.5128L143.443 27.5127C143.341 27.4874 143.233 27.4606 143.12 27.4301C143.12 27.4301 142.938 27.4059 142.909 27.3413ZM151.11 30.8173C151.11 31.5158 151.098 32.6094 150.358 33.3084C149.618 34.0075 148.161 34.1988 147.172 34.0042C146.86 33.9429 146.681 33.8483 146.544 33.7754L146.53 33.7681L146.277 33.6342L146.262 31.1799C146.253 29.6422 146.269 28.6403 146.305 28.4971C146.338 27.6862 147.529 27.5854 148.11 27.6154C150.599 27.6154 151.038 29.722 151.11 30.8173ZM135.095 26.6849C135.095 26.6849 134.974 26.7317 134.789 26.8019L134.125 27.1467L133.646 28.3468C133.383 29.0069 132.902 30.2186 132.577 31.0395C131.985 32.5346 131.594 33.5169 131.182 34.5422C131.061 34.8438 130.695 35.7622 130.37 36.5831C130.044 37.4038 129.719 38.185 129.646 38.319C129.634 38.3413 129.622 38.3653 129.608 38.3906C129.426 38.7345 129.11 39.3319 128.551 39.4222C128.551 39.4222 128.244 39.4526 128.13 39.5654C128.016 39.6785 128.027 39.7708 128.027 39.7708V39.9131C128.027 39.9131 128.038 39.982 128.102 40.0163C128.166 40.0507 128.254 40.0527 128.254 40.0527L130.297 40.0294H132.41C132.41 40.0294 132.559 40.0469 132.617 39.9989C132.674 39.9509 132.69 39.8797 132.69 39.8797V39.7299C132.69 39.7299 132.661 39.5674 132.577 39.504C132.494 39.4407 132.18 39.3973 132.18 39.3973C131.334 39.2856 131.189 38.643 131.293 38.0652C131.345 37.7812 131.684 36.731 132.067 35.6737L132.2 35.3083L134.413 35.2913C135.63 35.2819 136.681 35.2882 136.748 35.3054C136.844 35.3298 136.979 35.6042 137.374 36.5816C137.972 38.0625 138.02 38.2429 137.888 38.52C137.88 38.5369 137.871 38.5554 137.862 38.5755C137.737 38.8435 137.496 39.3641 136.888 39.4171C136.888 39.4171 136.565 39.4283 136.485 39.5252C136.405 39.6223 136.422 39.7338 136.422 39.7338V39.8821C136.422 39.8821 136.444 39.969 136.485 40.0034C136.526 40.0378 136.596 40.0291 136.596 40.0291L138.605 40.0146L141.43 40.0145C141.43 40.0145 141.54 40.0263 141.571 39.9836C141.601 39.9408 141.607 39.8904 141.607 39.8904V39.6935C141.607 39.6935 141.595 39.5888 141.54 39.531C141.486 39.4734 141.12 39.4125 141.12 39.4125C140.652 39.3367 140.419 38.9487 140.245 38.6598C140.201 38.586 140.161 38.5188 140.121 38.4649C140.041 38.3547 139.754 37.7513 139.529 37.1709C139.304 36.5906 138.797 35.2795 138.401 34.2576C138.006 33.2358 137.454 31.8103 137.176 31.09C136.897 30.3696 136.367 28.9989 135.998 28.044C135.937 27.8873 135.883 27.7465 135.834 27.6205L135.834 27.6199C135.587 26.9787 135.487 26.7199 135.46 26.6849C135.371 26.5711 135.095 26.6849 135.095 26.6849ZM134.964 30.587C134.875 30.3693 134.718 29.9787 134.615 29.719C134.429 29.2471 134.358 29.1384 134.3 29.2359C134.283 29.2644 134.166 29.5869 134.04 29.9527C133.221 32.3211 132.85 33.3876 132.775 33.5885C132.728 33.7149 132.69 33.845 132.69 33.8779C132.69 33.9156 133.357 33.9376 134.498 33.9376C135.492 33.9376 136.305 33.9252 136.305 33.91C136.305 33.8949 136.217 33.6688 136.108 33.4075C136 33.1461 135.735 32.4937 135.519 31.9577C135.303 31.4216 135.053 30.8049 134.964 30.587Z" fill="#FF007A"/>
</svg>
