<svg width="180" height="60" viewBox="0 0 180 60" fill="none" xmlns="http://www.w3.org/2000/svg">
<g clip-path="url(#clip0_1781_137)">
<path d="M62.189 32.4808C62.0264 30.604 60.543 28.8856 58.5009 28.8856C56.4536 28.8856 55.0109 30.604 54.8077 32.4808H62.189ZM63.0221 32.8374C63.017 33.0602 62.829 33.2385 62.6004 33.2385H54.8077C55.0058 35.1153 56.4536 36.8337 58.5009 36.8337C59.8979 36.8337 60.9342 36.3187 61.7114 35.2292C61.7826 35.1104 61.9096 35.041 62.0518 35.0361C62.2601 35.0311 62.4328 35.1896 62.4379 35.3926V35.4124C62.4379 35.4818 62.4176 35.5511 62.3769 35.6056C61.5895 36.9327 60.0249 37.5864 58.5009 37.5864C55.8796 37.5864 54 35.2936 54 32.8572C54 30.4158 55.8694 28.1279 58.5009 28.1279C61.1323 28.1279 63.0119 30.396 63.0221 32.8374Z" fill="#4A4644"/>
<path d="M72.4963 28.3112C72.7096 28.3161 72.8773 28.4845 72.8824 28.6875C72.8874 28.8906 72.7249 29.0589 72.5166 29.0639H70.4033V37.0714C70.4033 37.2794 70.2306 37.4478 70.0172 37.4478C69.8039 37.4428 69.6362 37.2744 69.6312 37.0714V29.0689H67.6195C67.4112 29.0738 67.2385 28.9153 67.2334 28.7123V28.6925C67.2334 28.4845 67.4061 28.3161 67.6195 28.3161H69.6312V25.3944C69.6312 25.1963 69.7836 25.023 69.9817 24.9933C70.195 24.9636 70.3881 25.1121 70.4135 25.3152C70.4135 25.335 70.4186 25.3498 70.4135 25.3696V28.3161L72.4963 28.3112Z" fill="#4A4644"/>
<path d="M85.2471 32.1836V37.0317C85.242 37.2397 85.0693 37.4031 84.861 37.4081C84.6527 37.413 84.48 37.2546 84.4749 37.0515V32.1836C84.4749 30.5445 83.525 28.9202 81.6555 28.9202C79.2578 28.9202 78.2214 30.9605 78.3637 33.0552C78.3637 33.1146 78.3891 33.3523 78.3891 33.387V37.0169C78.3891 37.215 78.2417 37.3883 78.0385 37.418C77.8252 37.4477 77.6321 37.2991 77.6067 37.0961C77.6067 37.0763 77.6017 37.0565 77.6067 37.0416V21.1059C77.6067 20.8979 77.7795 20.7295 77.9928 20.7295C78.2062 20.7344 78.3738 20.9028 78.3789 21.1059V30.1087C79.0495 28.94 80.2483 28.1477 81.6453 28.1477C83.9415 28.1527 85.2471 30.1087 85.2471 32.1836Z" fill="#4A4644"/>
<path d="M98.3992 32.4808C98.2367 30.604 96.7533 28.8856 94.7111 28.8856C92.6639 28.8856 91.2212 30.604 91.0231 32.4808H98.3992ZM99.2425 32.8374C99.2374 33.0602 99.0495 33.2385 98.8209 33.2385H91.0281C91.2263 35.1153 92.6741 36.8337 94.7162 36.8337C96.1132 36.8337 97.1495 36.3187 97.9268 35.2292C98.003 35.1104 98.13 35.041 98.2671 35.0361C98.4754 35.0311 98.6481 35.1896 98.6532 35.3926V35.4124C98.6532 35.4818 98.6329 35.5511 98.5923 35.6056C97.8049 36.9327 96.2402 37.5864 94.7162 37.5864C92.0949 37.5864 90.2153 35.2936 90.2153 32.8572C90.2153 30.4158 92.0848 28.1279 94.7162 28.1279C97.3273 28.1279 99.2323 30.396 99.2425 32.8374Z" fill="#4A4644"/>
<path d="M108.823 28.6677C108.839 28.8806 108.676 29.0639 108.458 29.0787C106.166 29.4105 105.13 31.2329 105.13 33.3524V36.9872C105.13 37.1853 104.983 37.3586 104.78 37.3883C104.566 37.418 104.373 37.2695 104.348 37.0664C104.343 37.0466 104.343 37.0268 104.343 37.012V28.7271C104.343 28.529 104.495 28.3557 104.693 28.326C104.902 28.2963 105.095 28.4449 105.125 28.6479C105.125 28.6677 105.13 28.6826 105.125 28.7024V30.3861C105.77 29.3214 107.055 28.3112 108.392 28.3112C108.6 28.3112 108.823 28.4498 108.823 28.6677Z" fill="#4A4644"/>
<path d="M120.797 32.4808C120.629 30.604 119.151 28.8856 117.104 28.8856C115.062 28.8856 113.614 30.604 113.416 32.4808H120.797ZM121.63 32.8374C121.625 33.0602 121.437 33.2385 121.209 33.2385H113.416C113.614 35.1153 115.062 36.8337 117.104 36.8337C118.501 36.8337 119.537 36.3187 120.314 35.2292C120.386 35.1104 120.513 35.041 120.655 35.0361C120.863 35.0311 121.036 35.1896 121.041 35.3926V35.4124C121.041 35.4818 121.021 35.5511 120.98 35.6056C120.193 36.9327 118.628 37.5864 117.104 37.5864C114.483 37.5864 112.603 35.2936 112.603 32.8572C112.603 30.4158 114.472 28.1279 117.104 28.1279C119.74 28.1279 121.62 30.396 121.63 32.8374Z" fill="#4A4644"/>
<path d="M134.228 28.7569V37.0764C134.223 37.2843 134.051 37.4478 133.842 37.4527C133.634 37.4577 133.461 37.2992 133.456 37.0962V35.4966C132.811 36.7446 131.668 37.6508 130.215 37.6508C127.899 37.6508 126.619 35.6947 126.619 33.6198V28.7519C126.619 28.5439 126.791 28.3756 127.005 28.3756C127.218 28.3805 127.386 28.5489 127.391 28.7519V33.6198C127.391 35.2589 128.341 36.8832 130.21 36.8832C132.831 36.8832 133.451 34.4914 133.451 31.842V28.7371C133.456 28.5241 133.634 28.3558 133.853 28.3607C133.898 28.3607 133.939 28.3706 133.98 28.3855C134.132 28.4498 134.228 28.5984 134.228 28.7569Z" fill="#4A4644"/>
<path d="M153.959 32.149V37.0169C153.954 37.2249 153.781 37.3883 153.573 37.3933C153.365 37.3982 153.192 37.2398 153.187 37.0367V32.149C153.187 30.5099 152.237 28.9054 150.368 28.9054C148.016 28.9054 147.127 31.3567 147.127 33.2583V37.0169C147.122 37.2249 146.949 37.3883 146.741 37.3933C146.532 37.3982 146.36 37.2398 146.354 37.0367V32.149C146.354 30.5099 145.404 28.9054 143.535 28.9054C141.163 28.9054 140.187 30.7278 140.269 33.1543C140.269 33.2137 140.294 33.3128 140.269 33.3474V37.0021C140.269 37.2002 140.121 37.3735 139.918 37.4032C139.705 37.4329 139.512 37.2843 139.486 37.0813C139.481 37.0615 139.481 37.0417 139.481 37.0268V28.7272C139.481 28.5291 139.634 28.3557 139.832 28.326C140.045 28.2963 140.238 28.4449 140.264 28.6479C140.264 28.6677 140.269 28.6826 140.264 28.7024V30.089C140.934 28.9203 142.133 28.1527 143.53 28.1527C145.115 28.1527 146.349 29.1382 146.857 30.5693C147.503 29.1481 148.762 28.1527 150.373 28.1527C152.659 28.1527 153.959 30.089 153.959 32.149Z" fill="#4A4644"/>
<path d="M27.0405 30.7872L36.7941 15V26.469L27.0405 30.7872Z" fill="#979491"/>
<path d="M36.7941 36.4128L27.0405 30.7872L36.7941 26.469V36.4128Z" fill="#464341"/>
<path d="M46.5579 30.7872L36.7942 26.469V15L46.5579 30.7872Z" fill="#433F3E"/>
<path d="M36.7942 36.4128V26.469L46.5579 30.7872L36.7942 36.4128Z" fill="#2D2B29"/>
<path d="M36.7941 46.0001L27.0405 32.5997L36.7941 38.2104V46.0001Z" fill="#979491"/>
<path d="M36.7942 46.0001V38.2104L46.5579 32.5997L36.7942 46.0001Z" fill="#433F3E"/>
</g>
<defs>
<clipPath id="clip0_1781_137">
<rect width="127" height="31" fill="white" transform="translate(27 15)"/>
</clipPath>
</defs>
</svg>
