<svg width="180" height="60" viewBox="0 0 180 60" fill="none" xmlns="http://www.w3.org/2000/svg">
<path d="M79.7797 26.2547C79.465 24.9958 78.6585 24.091 77.0652 24.091C74.7244 24.091 73.7606 26.1564 73.7606 28.2414C73.7606 30.3265 74.7441 32.3919 77.0652 32.3919C78.7569 32.3919 79.6814 31.133 79.8388 29.5397H81.7075C81.5501 32.1559 79.7011 33.9459 77.0652 33.9459C73.7999 33.9459 71.8525 31.3494 71.8525 28.2414C71.8525 25.1335 73.7999 22.537 77.0652 22.537C79.524 22.5567 81.4517 23.9139 81.6878 26.2547H79.7797ZM82.8483 29.7364C82.8483 27.3169 84.304 25.5859 86.8218 25.5859C89.3396 25.5859 90.7952 27.3169 90.7952 29.7364C90.7952 32.1559 89.3396 33.9065 86.8218 33.9065C84.304 33.9065 82.8483 32.1559 82.8483 29.7364ZM89.0642 29.7364C89.0642 28.3791 88.3757 26.9628 86.8218 26.9628C85.2678 26.9628 84.5793 28.3791 84.5793 29.7364C84.5793 31.0936 85.2678 32.5296 86.8218 32.5296C88.3757 32.5296 89.0642 31.1133 89.0642 29.7364ZM92.2902 22.7927H94.0212V24.445H92.2902V22.7927ZM92.2902 25.8023H94.0212V33.6902H92.2902V25.8023ZM95.9292 25.8023H97.5815V26.9628L97.6209 27.0022C98.1323 26.1367 99.0568 25.5859 100.08 25.6056C101.791 25.6056 102.873 26.5301 102.873 28.2808V33.6902H101.142V28.7332C101.103 27.4939 100.63 26.9628 99.6076 26.9628C98.447 26.9628 97.6995 27.8677 97.6995 29.0282V33.6902H95.9685V25.8023H95.9292ZM114.439 33.6902H113.22L112.925 32.4116C111.902 33.5721 110.977 33.9459 109.64 33.9459C106.374 33.9459 104.427 31.3494 104.427 28.2414C104.427 25.1335 106.374 22.537 109.64 22.537C112.02 22.537 114.026 23.7959 114.301 26.2547H112.433C112.256 24.8188 110.997 24.091 109.62 24.091C107.279 24.091 106.315 26.1564 106.315 28.2414C106.315 30.3265 107.299 32.3919 109.62 32.3919C111.567 32.4312 112.649 31.251 112.669 29.402H109.777V27.9464H114.419L114.439 33.6902ZM117.626 30.1888C117.626 31.428 118.295 32.5296 119.75 32.5296C120.753 32.5296 121.363 32.0968 121.678 31.2117H123.33C122.956 32.9427 121.481 33.9065 119.75 33.9065C117.272 33.9065 115.895 32.1755 115.895 29.7561C115.895 27.5136 117.37 25.5859 119.711 25.5859C122.189 25.5859 123.724 27.8284 123.429 30.1888H117.626ZM121.678 29.0479C121.619 27.9464 120.871 26.9628 119.691 26.9628C118.491 26.9628 117.665 27.8677 117.606 29.0479H121.678ZM130.077 28.4381C129.939 27.4743 129.231 26.9628 128.267 26.9628C127.363 26.9628 126.104 27.4349 126.104 29.8347C126.104 31.1527 126.674 32.5296 128.189 32.5296C129.192 32.5296 129.9 31.8608 130.057 30.7199H131.788C131.474 32.7656 130.215 33.8869 128.169 33.8869C125.691 33.8869 124.333 32.1362 124.333 29.8151C124.333 27.4349 125.632 25.5662 128.228 25.5662C130.057 25.5662 131.611 26.4908 131.788 28.4185H130.077V28.4381ZM133.283 22.7927H135.014V28.9889L138.162 25.8023H140.306L137.277 28.6939L140.581 33.6902H138.457L136.037 29.8544L134.995 30.8576V33.6902H133.264V22.7927H133.283ZM141.053 29.7364C141.053 27.3169 142.509 25.5859 145.027 25.5859C147.564 25.5859 149 27.3169 149 29.7364C149 32.1559 147.545 33.9065 145.027 33.9065C142.509 33.9065 141.053 32.1559 141.053 29.7364ZM147.289 29.7364C147.289 28.3791 146.6 26.9628 145.046 26.9628C143.492 26.9628 142.804 28.3791 142.804 29.7364C142.804 31.0936 143.492 32.5296 145.046 32.5296C146.6 32.5296 147.289 31.1133 147.289 29.7364Z" fill="#595959"/>
<path d="M62.1941 29.5397C62.2138 35.8539 58.4568 41.5584 52.6343 43.9975C46.8118 46.4367 40.1042 45.1384 35.6193 40.6929C31.1345 36.2474 29.7772 29.5397 32.1573 23.6976C34.5374 17.8555 40.2222 14.0394 46.5168 14C55.1521 13.9804 62.1548 20.9241 62.1941 29.5397Z" fill="#8DC63F"/>
<path d="M61.0335 29.5397C61.0531 35.3818 57.5715 40.6535 52.1817 42.9156C46.792 45.1777 40.5958 43.9581 36.4454 39.8667C32.2949 35.7555 31.036 29.5593 33.2391 24.1696C35.4422 18.7602 40.6942 15.2392 46.5166 15.1999C54.5029 15.1605 60.9941 21.5731 61.0335 29.5397Z" fill="#F9E988"/>
<path d="M46.8708 16.1244C47.7954 15.967 48.7199 15.967 49.6444 16.1244C50.5689 16.2621 51.4737 16.5768 52.2999 17.0095C53.1261 17.462 53.8342 18.0717 54.5423 18.6422C55.2505 19.2126 55.9586 19.8028 56.6274 20.4519C57.3159 21.0813 57.906 21.8091 58.3978 22.596C58.9092 23.3828 59.3223 24.2286 59.637 25.0941C60.2468 26.8644 60.4435 28.7725 60.1484 30.5822H60.0501C59.755 28.7725 59.3419 27.0612 58.6928 25.4285C58.3978 24.6023 58.024 23.7959 57.6306 23.0287C57.1979 22.2616 56.7454 21.4944 56.234 20.7863C55.7226 20.0585 55.0734 19.4093 54.3456 18.8782C53.6178 18.3471 52.772 18.0127 51.9655 17.698C51.159 17.3833 50.3329 17.0489 49.487 16.7932C48.6412 16.5571 47.7757 16.3604 46.8708 16.1834V16.1244Z" fill="white"/>
<path d="M53.913 24.4451C52.8704 24.15 51.7885 23.7173 50.687 23.2845C50.628 23.0091 50.3723 22.6747 49.8805 22.242C49.1724 21.6125 47.8151 21.6322 46.6545 21.9076C45.376 21.6125 44.0974 21.4945 42.8778 21.7896C32.9049 24.5434 38.5503 31.2314 34.8916 37.9784C35.403 39.0799 41.0288 45.5318 49.1527 43.8008C49.1527 43.8008 46.3792 37.1325 52.654 33.9263C57.7487 31.3297 61.4074 26.4908 53.913 24.4451Z" fill="#8BC53F"/>
<path d="M46.6543 21.9076C47.3821 21.9666 50.0179 22.8125 50.6867 23.2845C50.1163 21.6519 48.2279 21.4355 46.6543 21.9076Z" fill="#009345"/>
<path d="M55.1521 28.8315C55.1521 29.3626 54.503 29.638 54.1292 29.2643C53.7555 28.8905 54.0112 28.2414 54.5423 28.2218C54.8767 28.2414 55.1521 28.4971 55.1521 28.8315ZM47.3429 26.058C47.3429 27.1792 46.6545 28.2021 45.6119 28.6348C44.5694 29.0676 43.3695 28.8315 42.563 28.025C41.7565 27.2186 41.5205 26.0187 41.9532 24.9761C42.386 23.9336 43.4088 23.2451 44.53 23.2451C45.2775 23.2451 45.9857 23.5402 46.4971 24.0516C47.0479 24.6024 47.3429 25.3105 47.3429 26.058Z" fill="white"/>
<path d="M46.5166 26.0777C46.5166 26.8645 46.0445 27.5923 45.297 27.8873C44.5692 28.1824 43.7234 28.025 43.1529 27.4546C42.5825 26.8841 42.4251 26.058 42.7202 25.3105C43.0152 24.5827 43.743 24.0909 44.5299 24.0909C45.6314 24.1106 46.5166 24.9958 46.5166 26.0777Z" fill="#58595B"/>
<path d="M57.4142 30.0708C55.1521 31.6641 52.5753 32.864 48.9362 32.864C47.2249 32.864 46.8905 31.0543 45.7496 31.9395C45.1595 32.3919 43.1138 33.4147 41.4811 33.3557C39.8485 33.2771 37.2126 32.3132 36.4848 28.8512C36.1897 32.3329 36.0521 34.89 34.7341 37.8209C37.3306 41.9911 43.5268 45.1974 49.1526 43.8204C48.5428 39.5913 52.2409 35.4605 54.3063 33.3557C55.1127 32.5296 56.6274 31.2313 57.4142 30.0708Z" fill="#8BC53F"/>
<path d="M57.3159 30.1692C56.6078 30.8183 55.7816 31.2904 54.9358 31.7035C54.0703 32.1166 53.1851 32.4313 52.2606 32.687C51.3361 32.9231 50.3723 33.1001 49.4084 33.0214C48.4249 32.9427 47.4414 32.6083 46.7922 31.8805L46.8316 31.8412C47.6184 32.3526 48.5429 32.5296 49.4478 32.569C50.3723 32.5887 51.2968 32.5296 52.2016 32.3526C53.1065 32.1559 54.0113 31.8805 54.8768 31.5265C55.7423 31.1724 56.5881 30.7593 57.3356 30.1692H57.3159Z" fill="#58595B"/>
</svg>
