<svg width="180" height="60" viewBox="0 0 180 60" fill="none" xmlns="http://www.w3.org/2000/svg">
<path d="M37.7366 32.1713C37.294 32.4418 36.7776 32.491 36.3842 32.2697C35.8924 31.9746 35.5973 31.3107 35.5973 30.4009V27.6224C35.5973 26.2946 35.081 25.3356 34.1958 25.0897C32.6959 24.6471 31.5648 26.4913 31.1468 27.1798L28.4912 31.4337V26.1962C28.4666 24.9914 28.0731 24.2783 27.3355 24.057C26.8437 23.9095 26.106 23.9832 25.393 25.0652L19.467 34.5565C18.6802 33.0565 18.2622 31.3845 18.2622 29.6879C18.2622 23.9587 22.8603 19.3114 28.4912 19.3114C34.122 19.3114 38.7201 23.9587 38.7201 29.6879V29.7125V29.737C38.7693 30.8435 38.4251 31.7287 37.7366 32.1713ZM40.9823 29.6879V29.6633V29.6387C40.9577 22.68 35.3515 17 28.4912 17C21.6063 17 16 22.68 16 29.6879C16 36.6711 21.6063 42.3757 28.4912 42.3757C31.6631 42.3757 34.663 41.1709 36.9743 38.9825C37.4415 38.5399 37.4661 37.8268 37.0235 37.3596C36.6055 36.8924 35.8924 36.8678 35.4252 37.2858C35.4252 37.2858 35.4252 37.2858 35.4006 37.3104C33.5319 39.0808 31.0238 40.089 28.442 40.089C25.4175 40.089 22.7128 38.7612 20.844 36.6465L26.1798 28.0896V32.0484C26.1798 33.9417 26.9175 34.5565 27.5322 34.7286C28.1469 34.9007 29.0813 34.7778 30.0894 33.1795L33.0155 28.4338C33.1139 28.2863 33.1876 28.1388 33.286 28.0404V30.4501C33.286 32.2205 33.9991 33.6467 35.2285 34.3352C36.335 34.9745 37.7366 34.9007 38.8923 34.1876C40.3184 33.2533 41.0807 31.6304 40.9823 29.6879ZM58.3912 25.3602C58.6863 25.5323 58.9568 25.9504 58.9568 26.3192C58.9568 26.9093 58.465 27.4011 57.8995 27.4011C57.7519 27.4011 57.629 27.3519 57.506 27.3273C56.8421 26.8356 56.0061 26.5159 55.1209 26.5159C53.0309 26.5159 51.6047 28.2125 51.6047 30.3272C51.6047 32.4418 53.0555 34.1139 55.1209 34.1139C56.1536 34.1139 57.088 33.6959 57.7765 33.032C57.9486 32.909 58.1699 32.8352 58.3912 32.8352C58.9568 32.8352 59.3994 33.2778 59.3994 33.8434C59.3994 34.2122 59.1781 34.5319 58.9076 34.704C57.8995 35.5646 56.5471 36.1302 55.1455 36.1302C51.9489 36.1302 49.3425 33.4991 49.3425 30.2534C49.3425 27.0077 51.9489 24.3767 55.1455 24.3767C56.3258 24.3521 57.4569 24.7209 58.3912 25.3602ZM64.2434 27.8191C66.4318 27.8191 68.2514 29.6633 68.2514 31.95C68.2514 34.2122 66.4072 36.1547 64.2434 36.1547C61.9566 36.1547 60.0633 34.2368 60.0633 31.95C60.0633 29.6633 61.9566 27.8191 64.2434 27.8191ZM64.2188 34.1139C65.1778 34.1139 65.9892 33.2041 65.9892 31.9746C65.9892 30.7452 65.1778 29.9583 64.2188 29.9583C63.1861 29.9583 62.3255 30.7206 62.3255 31.9746C62.3255 33.1795 63.1861 34.1139 64.2188 34.1139ZM69.6284 34.8761V29.0731C69.6284 28.4338 70.1201 27.9175 70.7594 27.9175C71.3742 27.9175 71.8905 28.4338 71.8905 29.0731V34.8761C71.8905 35.5154 71.3742 36.0318 70.7594 36.0318C70.1447 36.0318 69.6284 35.4908 69.6284 34.8761ZM69.4562 25.7291C69.4562 24.9668 70.0464 24.3767 70.7594 24.3767C71.4971 24.3767 72.0872 24.9914 72.0872 25.7291C72.0872 26.4667 71.4971 27.0569 70.7594 27.0569C70.0218 27.0323 69.4562 26.4421 69.4562 25.7291ZM76.2182 31.7287V34.8761C76.2182 35.5154 75.7018 36.0318 75.0871 36.0318C74.4724 36.0318 73.956 35.5154 73.956 34.8761V28.8027C73.956 28.3109 74.3494 27.9175 74.8412 27.9175C75.333 27.9175 75.7018 28.3355 75.7018 28.8027C76.6116 27.9421 77.423 27.8191 78.1853 27.8191C80.4475 27.8191 81.4556 29.5157 81.4556 31.4583V34.8761C81.4556 35.5154 80.9392 36.0318 80.3245 36.0318C79.7098 36.0318 79.1934 35.5154 79.1934 34.8761V31.7287C79.1934 30.7452 79.0705 29.9092 77.6443 29.9092C76.6362 29.9092 76.2182 30.7452 76.2182 31.7287ZM88.7831 32.9336C88.5126 32.9336 88.3405 32.8107 88.193 32.6385L85.562 29.7862V34.8761C85.562 35.5154 85.0456 36.0318 84.4309 36.0318C83.8161 36.0318 83.2998 35.5154 83.2998 34.8761V24.7947C83.3735 24.6226 83.5457 24.4996 83.7178 24.4996C83.9145 24.4996 84.0866 24.6717 84.2096 24.7947L88.4143 29.5157C88.5372 29.6633 88.6847 29.737 88.7831 29.737C88.8569 29.737 89.029 29.6633 89.1519 29.5157L93.3566 24.7947C93.4796 24.6717 93.6271 24.4996 93.8484 24.4996C94.0451 24.4996 94.2172 24.6226 94.2664 24.7947V34.8761C94.2664 35.5154 93.7746 36.0318 93.1353 36.0318C92.5206 36.0318 92.0042 35.5154 92.0042 34.8761V29.7862L89.3732 32.6385C89.1765 32.8107 89.0044 32.9336 88.7831 32.9336ZM99.6514 34.1139C100.66 34.1139 101.52 33.2041 101.52 31.9746C101.52 30.7452 100.635 29.9338 99.6514 29.9338C98.6678 29.9338 97.8564 30.7698 97.8564 31.9746C97.8564 33.1549 98.6432 34.1139 99.6514 34.1139ZM102.061 35.1466L102.012 34.8761C101.569 35.7367 100.168 36.1302 99.2825 36.1302C97.1679 36.1302 95.5942 34.2122 95.5942 31.9255C95.5942 29.6633 97.1925 27.7945 99.4055 27.7945C99.7743 27.7945 101.053 27.8929 102.037 29.0486L102.086 28.7781C102.086 28.2863 102.455 27.8929 102.946 27.8929C103.438 27.8929 103.831 28.3109 103.831 28.7781V35.122C103.831 35.6138 103.438 36.0072 102.946 36.0072C102.43 36.0318 102.061 35.6138 102.061 35.1466ZM110.052 29.9092H109.807C108.38 29.9829 108.11 30.7944 108.11 31.7287V34.8761C108.11 35.5154 107.594 36.0318 106.979 36.0318C106.364 36.0318 105.848 35.5154 105.848 34.8761V28.8027C105.848 28.3109 106.241 27.9175 106.733 27.9175C107.225 27.9175 107.594 28.3355 107.594 28.8027C108.43 28.0158 109.118 27.8437 109.807 27.8191H110.028C110.569 27.8191 111.061 28.2863 111.061 28.8764C111.085 29.4174 110.593 29.9092 110.052 29.9092ZM118.782 34.3352C118.88 34.5073 118.954 34.6794 118.954 34.8761C118.954 35.4663 118.413 36.0072 117.823 36.0072C117.429 36.0072 117.085 35.7121 116.814 35.3679L114.208 32.3435V34.8515C114.208 35.4908 113.692 36.0072 113.077 36.0072C112.462 36.0072 111.946 35.4908 111.946 34.8515V25.6307C111.946 24.9914 112.438 24.475 113.077 24.475C113.716 24.475 114.208 24.9914 114.208 25.6307V31.3845L116.814 28.5076C117.085 28.2125 117.405 27.8929 117.798 27.8929C118.364 27.8929 118.88 28.4092 118.88 28.9994C118.88 29.1715 118.831 29.3682 118.732 29.5157L116.667 31.7779L118.782 34.3352ZM123.208 29.9338C122.593 29.9338 121.585 30.2534 121.585 31.2124H124.855C124.83 30.2534 123.798 29.9338 123.208 29.9338ZM126.158 32.6631H121.585C121.585 34.0155 122.888 34.2368 123.453 34.2368C123.871 34.2368 124.462 34.163 124.929 33.9417C125.076 33.8434 125.298 33.7696 125.519 33.7696C126.011 33.7696 126.429 34.1876 126.429 34.704C126.429 35.0482 126.207 35.3433 125.937 35.5154C125.248 36.0318 124.339 36.1547 123.478 36.1547C121.191 36.1547 119.298 34.9253 119.298 32.0484C119.298 29.7862 120.454 27.8191 123.158 27.8191C125.347 27.8191 126.994 29.2453 127.043 31.7779C127.043 32.2451 126.65 32.6631 126.158 32.6631ZM132.453 36.1302H131.838C130.117 36.1302 129.109 35.3679 129.109 32.6877V29.9092H128.519C127.978 29.9092 127.511 29.4174 127.511 28.8764C127.511 28.2863 128.002 27.8191 128.519 27.8191H129.109V25.6799C129.109 25.0406 129.601 24.5242 130.24 24.5242C130.855 24.5242 131.371 25.0406 131.371 25.6799V27.8191H132.305C132.846 27.8191 133.314 28.2863 133.314 28.8764C133.314 29.4174 132.822 29.9092 132.305 29.9092H131.371V32.2451C131.371 33.7942 131.445 34.1139 132.133 34.1139H132.453C132.994 34.1139 133.461 34.5565 133.461 35.122C133.461 35.663 132.994 36.1302 132.453 36.1302ZM143.395 25.3602C143.69 25.5323 143.961 25.9504 143.961 26.3192C143.961 26.9093 143.469 27.4011 142.903 27.4011C142.756 27.4011 142.633 27.3519 142.51 27.3273C141.846 26.8356 141.01 26.5159 140.125 26.5159C138.035 26.5159 136.608 28.2125 136.608 30.3272C136.608 32.4418 138.059 34.1139 140.125 34.1139C141.157 34.1139 142.092 33.6959 142.78 33.032C142.952 32.909 143.174 32.8352 143.395 32.8352C143.961 32.8352 144.403 33.2778 144.403 33.8434C144.403 34.2122 144.182 34.5319 143.911 34.704C142.903 35.5646 141.551 36.1302 140.149 36.1302C136.953 36.1302 134.346 33.4991 134.346 30.2534C134.346 27.0077 136.953 24.3767 140.149 24.3767C141.33 24.3521 142.485 24.7209 143.395 25.3602ZM149.124 34.1139C150.132 34.1139 150.993 33.2041 150.993 31.9746C150.993 30.7452 150.108 29.9338 149.124 29.9338C148.116 29.9338 147.329 30.7698 147.329 31.9746C147.329 33.1549 148.141 34.1139 149.124 34.1139ZM151.534 35.1466L151.485 34.8761C151.042 35.7367 149.641 36.1302 148.755 36.1302C146.641 36.1302 145.067 34.2122 145.067 31.9255C145.067 29.6633 146.665 27.7945 148.878 27.7945C149.247 27.7945 150.526 27.8929 151.509 29.0486L151.559 28.7781C151.559 28.2863 151.927 27.8929 152.419 27.8929C152.911 27.8929 153.304 28.3109 153.304 28.7781V35.122C153.304 35.6138 152.911 36.0072 152.419 36.0072C151.903 36.0318 151.534 35.6138 151.534 35.1466ZM159.476 34.1139C160.484 34.1139 161.271 33.1549 161.271 31.9746C161.271 30.7452 160.46 29.9338 159.476 29.9338C158.468 29.9338 157.607 30.7452 157.607 31.9746C157.607 33.2041 158.468 34.1139 159.476 34.1139ZM157.607 35.4663V38.3432C157.607 38.9825 157.091 39.4988 156.476 39.4988C155.862 39.4988 155.345 38.9825 155.345 38.3432V28.8027C155.345 28.3109 155.739 27.9175 156.23 27.9175C156.722 27.9175 157.091 28.3355 157.091 28.901C157.927 28.0404 158.96 27.8191 159.747 27.8191C161.935 27.8191 163.558 29.6633 163.558 31.95C163.558 34.2122 162.009 36.1547 159.87 36.1547C159.206 36.1302 158.222 35.9334 157.607 35.4663Z" fill="#17181B"/>
</svg>
