<svg width="20" height="40" viewBox="0 0 20 40" fill="none" xmlns="http://www.w3.org/2000/svg">
<path d="M9.87955 0C11.3907 0 12.8215 0.409163 14.1004 1.14061C13.2441 1.38584 12.5389 2.07687 12.3116 3.01344C11.9751 4.40035 12.8142 5.80051 14.1857 6.14078C14.5212 6.22402 14.8575 6.23612 15.179 6.18661C15.1813 7.34758 15.9622 8.40157 17.1273 8.69064C17.8987 8.88203 18.6743 8.69734 19.2652 8.2523C19.5692 9.39747 19.7333 10.6184 19.7333 11.8857C19.7333 17.9474 15.9754 24.8881 11.1129 25.6303L12.0596 27.2906C12.6554 28.3356 12.3205 28.6221 11.2997 28.6221H10.6782C12.6232 33.5932 12.7906 34.7033 10.8875 39.6745C10.8875 39.8503 10.7393 40 10.5654 40H9.60905C9.43516 40 9.28703 39.8503 9.28703 39.6745C11.2159 34.7033 11.0002 33.5932 9.07772 28.6221H8.00862C7.23577 28.6351 7.28729 27.8799 7.60931 27.3525L8.66553 25.6303C3.7805 24.9109 0 17.9604 0 11.8857C0 5.31944 4.41488 0 9.85379 0H9.87955Z" fill="black"/>
</svg>
