<svg width="100" height="120" viewBox="0 0 100 120" fill="none" xmlns="http://www.w3.org/2000/svg">
<g id="logo-eobo-vr" opacity="0.2">
<g id="Group 1140">
<g id="eobo">
<path id="Vector" d="M99.5875 107.348C99.5875 109.367 99.2781 111.174 98.6594 112.77C98.0406 114.333 97.1613 115.652 96.0214 116.727C94.9141 117.802 93.5789 118.616 92.0157 119.169C90.4524 119.723 88.7101 120 86.7886 120C84.8672 120 83.1248 119.707 81.5616 119.121C79.9984 118.534 78.6468 117.704 77.507 116.629C76.3997 115.522 75.5367 114.187 74.9179 112.624C74.2991 111.06 73.9897 109.302 73.9897 107.348C73.9897 105.426 74.2991 103.684 74.9179 102.121C75.5367 100.557 76.3997 99.2384 77.507 98.1637C78.6468 97.0564 79.9984 96.2097 81.5616 95.6235C83.1248 95.0372 84.8672 94.7441 86.7886 94.7441C88.7101 94.7441 90.4524 95.0535 92.0157 95.6723C93.5789 96.2585 94.9141 97.1053 96.0214 98.2125C97.1613 99.2873 98.0406 100.606 98.6594 102.169C99.2781 103.733 99.5875 105.459 99.5875 107.348ZM82.4898 107.348C82.4898 109.334 82.8643 110.865 83.6133 111.94C84.3949 112.982 85.4697 113.503 86.8375 113.503C88.2053 113.503 89.2474 112.965 89.9639 111.891C90.713 110.816 91.0875 109.302 91.0875 107.348C91.0875 105.394 90.713 103.896 89.9639 102.853C89.2149 101.779 88.1564 101.241 86.7886 101.241C85.4208 101.241 84.3624 101.779 83.6133 102.853C82.8643 103.896 82.4898 105.394 82.4898 107.348Z" fill="white"/>
<path id="Vector_2" d="M49.7185 87.4165C50.0442 87.3188 50.5652 87.2211 51.2817 87.1234C51.9982 86.9931 52.731 86.928 53.48 86.928C54.1965 86.928 54.8315 86.9768 55.3852 87.0745C55.9714 87.1722 56.4599 87.3676 56.8507 87.6607C57.2415 87.9538 57.5346 88.3609 57.73 88.882C57.9254 89.3705 58.0231 90.0219 58.0231 90.836V95.6234C58.8373 95.2977 59.6026 95.0698 60.3191 94.9395C61.0682 94.8092 61.8823 94.7441 62.7616 94.7441C64.3249 94.7441 65.8067 95.0209 67.2071 95.5746C68.6074 96.1282 69.845 96.9424 70.9197 98.0171C71.9944 99.0592 72.8412 100.362 73.4599 101.925C74.0787 103.488 74.3881 105.296 74.3881 107.348C74.3881 109.464 74.0624 111.321 73.4111 112.917C72.7923 114.48 71.913 115.782 70.7732 116.825C69.6333 117.867 68.2329 118.665 66.572 119.218C64.9436 119.739 63.1362 120 61.1496 120C59.0001 120 57.1764 119.739 55.6783 119.218C54.1802 118.73 52.9101 118.111 51.8679 117.362C50.435 116.352 49.7185 115.05 49.7185 113.454V87.4165ZM61.1496 113.454C62.6477 113.454 63.8038 112.949 64.618 111.94C65.4647 110.897 65.8881 109.367 65.8881 107.348C65.8881 105.296 65.4647 103.765 64.618 102.756C63.7712 101.746 62.6314 101.241 61.1984 101.241C60.5471 101.241 59.9772 101.306 59.4886 101.437C59.0327 101.567 58.5279 101.762 57.9743 102.023V112.672C58.3325 112.9 58.7559 113.096 59.2444 113.259C59.7655 113.389 60.4005 113.454 61.1496 113.454Z" fill="white"/>
<path id="Vector_3" d="M48.9889 107.348C48.9889 109.367 48.6795 111.174 48.0607 112.77C47.4419 114.333 46.5626 115.652 45.4228 116.727C44.3155 117.802 42.9802 118.616 41.417 119.169C39.8538 119.723 38.1115 120 36.19 120C34.2685 120 32.5262 119.707 30.963 119.121C29.3997 118.534 28.0482 117.704 26.9084 116.629C25.8011 115.522 24.9381 114.187 24.3193 112.624C23.7005 111.06 23.3911 109.302 23.3911 107.348C23.3911 105.426 23.7005 103.684 24.3193 102.121C24.9381 100.557 25.8011 99.2384 26.9084 98.1637C28.0482 97.0564 29.3997 96.2097 30.963 95.6235C32.5262 95.0372 34.2685 94.7441 36.19 94.7441C38.1115 94.7441 39.8538 95.0535 41.417 95.6723C42.9802 96.2585 44.3155 97.1053 45.4228 98.2125C46.5626 99.2873 47.4419 100.606 48.0607 102.169C48.6795 103.733 48.9889 105.459 48.9889 107.348ZM31.8911 107.348C31.8911 109.334 32.2657 110.865 33.0147 111.94C33.7963 112.982 34.871 113.503 36.2388 113.503C37.6067 113.503 38.6488 112.965 39.3653 111.891C40.1143 110.816 40.4889 109.302 40.4889 107.348C40.4889 105.394 40.1143 103.896 39.3653 102.853C38.6163 101.779 37.5578 101.241 36.19 101.241C34.8222 101.241 33.7637 101.779 33.0147 102.853C32.2657 103.896 31.8911 105.394 31.8911 107.348Z" fill="white"/>
<path id="Vector_4" d="M13.5805 120C11.659 120 9.86784 119.739 8.20692 119.218C6.57856 118.665 5.14561 117.851 3.90806 116.776C2.70307 115.701 1.74234 114.35 1.02586 112.721C0.341955 111.093 0 109.188 0 107.006C0 104.856 0.341955 103.016 1.02586 101.486C1.74234 99.9223 2.67051 98.6522 3.81036 97.6752C4.9502 96.6656 6.25289 95.9328 7.71841 95.4769C9.18393 94.9884 10.682 94.7441 12.2127 94.7441C13.9387 94.7441 15.502 95.0047 16.9023 95.5258C18.3353 96.0468 19.5566 96.7633 20.5661 97.6752C21.6083 98.5871 22.4062 99.6781 22.9598 100.948C23.546 102.218 23.8391 103.602 23.8391 105.1C23.8391 106.208 23.5298 107.055 22.911 107.641C22.2922 108.227 21.4292 108.601 20.3219 108.764L8.25577 110.572C8.61401 111.646 9.34677 112.461 10.4541 113.014C11.5613 113.535 12.8315 113.796 14.2644 113.796C15.5997 113.796 16.8535 113.633 18.0259 113.307C19.2309 112.949 20.2079 112.542 20.957 112.086C21.478 112.412 21.9177 112.868 22.2759 113.454C22.6342 114.04 22.8133 114.659 22.8133 115.31C22.8133 116.776 22.1294 117.867 20.7616 118.583C19.7194 119.137 18.547 119.511 17.2443 119.707C15.9416 119.902 14.7203 120 13.5805 120ZM12.2127 100.802C11.4311 100.802 10.7472 100.932 10.1609 101.192C9.60731 101.453 9.15137 101.795 8.79313 102.218C8.43489 102.609 8.15807 103.065 7.96267 103.586C7.79983 104.075 7.70213 104.579 7.66956 105.1L16.023 103.733C15.9253 103.081 15.5671 102.43 14.9483 101.779C14.3295 101.127 13.4177 100.802 12.2127 100.802Z" fill="white"/>
</g>
<path id="Subtract" d="M49.9236 0C52.818 0 55.5587 0.773883 58.0083 2.15733C56.3681 2.62116 55.0173 3.92815 54.5821 5.69955C53.9376 8.32273 55.5447 10.971 58.1717 11.6145C58.8143 11.772 59.4584 11.7949 60.0743 11.7012C60.0787 13.8971 61.5744 15.8905 63.8061 16.4373C65.2837 16.7993 66.7692 16.45 67.901 15.6082C68.4833 17.7742 68.7977 20.0834 68.7977 22.4804C68.7977 33.9454 61.5996 47.0728 52.286 48.4767L54.0994 51.6169C54.7515 52.4926 55.0634 53.8258 53.267 53.5766L52.4188 53.3149L51.4333 52.9661C55.1588 62.3683 55.4995 65.6372 51.8542 75.0394C51.8542 75.3719 51.5705 75.6551 51.2374 75.6551H49.4055C49.0725 75.6551 48.7887 75.3719 48.7887 75.0394C52.4833 65.6372 51.9596 62.6175 48.2773 53.2153L47.3292 53.7012L46.34 54.1353C44.8597 54.1599 44.9584 52.7314 45.5752 51.7339L47.5983 48.4767C38.2415 47.1159 31.0002 33.97 31.0002 22.4804C31.0002 10.0611 39.4566 0 49.8743 0H49.9236Z" fill="white"/>
</g>
</g>
</svg>
