<svg width="122" height="40" viewBox="0 0 122 40" fill="none" xmlns="http://www.w3.org/2000/svg">
<g id="logo-eobo-hr">
<g id="Group 1116">
<g id="eobo">
<path id="Vector" d="M121.066 19.9505C121.066 21.7779 120.786 23.4138 120.226 24.8581C119.666 26.2729 118.871 27.4667 117.839 28.4394C116.837 29.4121 115.628 30.149 114.213 30.65C112.799 31.1511 111.222 31.4017 109.483 31.4017C107.744 31.4017 106.167 31.1364 104.752 30.6058C103.337 30.0753 102.114 29.3236 101.082 28.3509C100.08 27.3488 99.2989 26.1403 98.7389 24.7255C98.1788 23.3107 97.8988 21.719 97.8988 19.9505C97.8988 18.2114 98.1788 16.6345 98.7389 15.2196C99.2989 13.8048 100.08 12.6111 101.082 11.6384C102.114 10.6362 103.337 9.86985 104.752 9.3393C106.167 8.80874 107.744 8.54346 109.483 8.54346C111.222 8.54346 112.799 8.82347 114.213 9.38351C115.628 9.91407 116.837 10.6804 117.839 11.6826C118.871 12.6553 119.666 13.849 120.226 15.2639C120.786 16.6787 121.066 18.2409 121.066 19.9505ZM105.592 19.9505C105.592 21.7485 105.931 23.1338 106.609 24.1065C107.316 25.0497 108.289 25.5213 109.527 25.5213C110.765 25.5213 111.708 25.035 112.357 24.0623C113.034 23.0896 113.373 21.719 113.373 19.9505C113.373 18.1819 113.034 16.8261 112.357 15.8828C111.679 14.9102 110.721 14.4238 109.483 14.4238C108.245 14.4238 107.287 14.9102 106.609 15.8828C105.931 16.8261 105.592 18.1819 105.592 19.9505Z" fill="black"/>
<path id="Vector_2" d="M75.9321 1.91137C76.2269 1.82294 76.6985 1.73452 77.3469 1.64609C77.9954 1.52819 78.6586 1.46924 79.3365 1.46924C79.985 1.46924 80.5598 1.51345 81.0609 1.60188C81.5914 1.6903 82.0335 1.86716 82.3872 2.13244C82.741 2.39771 83.0062 2.76616 83.1831 3.23776C83.3599 3.6799 83.4484 4.26941 83.4484 5.00629V9.33918C84.1853 9.04442 84.8779 8.83809 85.5264 8.72019C86.2043 8.60229 86.9412 8.54334 87.737 8.54334C89.1519 8.54334 90.493 8.79388 91.7604 9.29497C93.0279 9.79605 94.1479 10.5329 95.1206 11.5056C96.0933 12.4488 96.8597 13.6279 97.4197 15.0427C97.9798 16.4575 98.2598 18.0934 98.2598 19.9503C98.2598 21.8662 97.965 23.5463 97.3755 24.9906C96.8155 26.4055 96.0196 27.5845 94.988 28.5277C93.9564 29.4709 92.6889 30.1931 91.1857 30.6941C89.7119 31.1657 88.076 31.4015 86.278 31.4015C84.3326 31.4015 82.682 31.1657 81.3261 30.6941C79.9703 30.252 78.8207 29.692 77.8775 29.014C76.5806 28.1003 75.9321 26.9213 75.9321 25.477V1.91137ZM86.278 25.477C87.6339 25.477 88.6803 25.0201 89.4171 24.1064C90.1835 23.1632 90.5667 21.7778 90.5667 19.9503C90.5667 18.0934 90.1835 16.708 89.4171 15.7943C88.6508 14.8806 87.6191 14.4237 86.3222 14.4237C85.7327 14.4237 85.2169 14.4826 84.7748 14.6005C84.3621 14.7184 83.9052 14.8953 83.4042 15.1311V24.7696C83.7284 24.9759 84.1116 25.1527 84.5537 25.3001C85.0253 25.418 85.6001 25.477 86.278 25.477Z" fill="black"/>
<path id="Vector_3" d="M75.2717 19.9505C75.2717 21.7779 74.9917 23.4138 74.4316 24.8581C73.8716 26.2729 73.0758 27.4667 72.0441 28.4394C71.042 29.4121 69.8335 30.149 68.4187 30.65C67.0038 31.1511 65.4269 31.4017 63.6879 31.4017C61.9488 31.4017 60.3719 31.1364 58.957 30.6058C57.5422 30.0753 56.319 29.3236 55.2874 28.3509C54.2852 27.3488 53.5041 26.1403 52.9441 24.7255C52.384 23.3107 52.104 21.719 52.104 19.9505C52.104 18.2114 52.384 16.6345 52.9441 15.2196C53.5041 13.8048 54.2852 12.6111 55.2874 11.6384C56.319 10.6362 57.5422 9.86985 58.957 9.3393C60.3719 8.80874 61.9488 8.54346 63.6879 8.54346C65.4269 8.54346 67.0038 8.82347 68.4187 9.38351C69.8335 9.91407 71.042 10.6804 72.0441 11.6826C73.0758 12.6553 73.8716 13.849 74.4316 15.2639C74.9917 16.6787 75.2717 18.2409 75.2717 19.9505ZM59.7971 19.9505C59.7971 21.7485 60.1361 23.1338 60.814 24.1065C61.5214 25.0497 62.4941 25.5213 63.7321 25.5213C64.97 25.5213 65.9132 25.035 66.5617 24.0623C67.2396 23.0896 67.5786 21.719 67.5786 19.9505C67.5786 18.1819 67.2396 16.8261 66.5617 15.8828C65.8838 14.9102 64.9258 14.4238 63.6879 14.4238C62.4499 14.4238 61.4919 14.9102 60.814 15.8828C60.1361 16.8261 59.7971 18.1819 59.7971 19.9505Z" fill="black"/>
<path id="Vector_4" d="M43.2244 31.4017C41.4853 31.4017 39.8642 31.1659 38.3609 30.6942C36.8871 30.1932 35.5902 29.4563 34.4702 28.4836C33.3796 27.5109 32.51 26.2877 31.8616 24.8139C31.2426 23.3401 30.9331 21.6158 30.9331 19.641C30.9331 17.6956 31.2426 16.0302 31.8616 14.6449C32.51 13.2301 33.3501 12.0805 34.3817 11.1962C35.4134 10.2825 36.5924 9.61931 37.9188 9.20665C39.2452 8.76452 40.601 8.54346 41.9864 8.54346C43.5486 8.54346 44.9634 8.77926 46.2309 9.25087C47.5278 9.72248 48.6331 10.3709 49.5468 11.1962C50.4901 12.0216 51.2122 13.009 51.7133 14.1585C52.2438 15.3081 52.5091 16.5608 52.5091 17.9166C52.5091 18.9188 52.2291 19.6852 51.6691 20.2157C51.109 20.7463 50.3279 21.0853 49.3258 21.2326L38.4051 22.8685C38.7294 23.8412 39.3926 24.5781 40.3947 25.0792C41.3969 25.5508 42.5464 25.7866 43.8433 25.7866C45.0518 25.7866 46.1866 25.6392 47.2478 25.3445C48.3384 25.0202 49.2226 24.6518 49.9005 24.2391C50.3722 24.5339 50.7701 24.9465 51.0943 25.4771C51.4185 26.0077 51.5807 26.5677 51.5807 27.1572C51.5807 28.4836 50.9617 29.471 49.7237 30.1195C48.7805 30.6206 47.7194 30.9595 46.5403 31.1364C45.3613 31.3132 44.256 31.4017 43.2244 31.4017ZM41.9864 14.0259C41.279 14.0259 40.66 14.1438 40.1294 14.3796C39.6284 14.6154 39.2157 14.9249 38.8915 15.3081C38.5672 15.6618 38.3167 16.0744 38.1398 16.546C37.9925 16.9882 37.904 17.445 37.8746 17.9166L45.435 16.6787C45.3466 16.0892 45.0224 15.4997 44.4623 14.9102C43.9023 14.3206 43.077 14.0259 41.9864 14.0259Z" fill="black"/>
</g>
<path id="Subtract" d="M9.87955 0C11.3907 0 12.8215 0.409163 14.1004 1.14061C13.2441 1.38584 12.5389 2.07687 12.3116 3.01344C11.9751 4.40035 12.8142 5.80051 14.1857 6.14078C14.5212 6.22402 14.8575 6.23612 15.179 6.18661C15.1813 7.34758 15.9622 8.40157 17.1273 8.69064C17.8987 8.88203 18.6743 8.69734 19.2652 8.2523C19.5692 9.39747 19.7333 10.6184 19.7333 11.8857C19.7333 17.9474 15.9754 24.8881 11.1129 25.6303L12.0596 27.2906C12.6554 28.3356 12.3205 28.6221 11.2997 28.6221H10.6782C12.6232 33.5932 12.7906 34.7033 10.8875 39.6745C10.8875 39.8503 10.7393 40 10.5654 40H9.60905C9.43516 40 9.28703 39.8503 9.28703 39.6745C11.2159 34.7033 11.0002 33.5932 9.07772 28.6221H8.00862C7.23577 28.6351 7.28729 27.8799 7.60931 27.3525L8.66553 25.6303C3.7805 24.9109 0 17.9604 0 11.8857C0 5.31944 4.41488 0 9.85379 0H9.87955Z" fill="black"/>
</g>
</g>
</svg>
