<svg width="32" height="32" viewBox="0 0 32 32" fill="none" xmlns="http://www.w3.org/2000/svg">
<g clip-path="url(#clip0_237_11154)">
<path d="M16 0C24.837 0 32 7.163 32 16C32 24.837 24.837 32 16 32C7.163 32 0 24.837 0 16C0 7.163 7.163 0 16 0ZM15.829 8H9.277V13.194H7V15.055H9.277V17.008H7V18.868H9.277V24H15.829C19.769 24 22.767 21.905 23.92 18.869H26V17.009H24.376C24.416 16.679 24.436 16.341 24.436 15.999V15.953C24.436 15.649 24.42 15.349 24.389 15.055H26V13.195H23.959C22.835 10.114 19.814 8 15.829 8ZM21.913 18.869C20.906 20.944 18.742 22.331 15.829 22.331H11.109V18.869H21.913ZM22.477 15.055C22.519 15.362 22.541 15.677 22.541 15.999V16.044C22.541 16.373 22.518 16.694 22.474 17.008H11.108V15.055H22.478H22.477ZM15.83 9.666C18.756 9.666 20.927 11.09 21.928 13.194H11.108V9.666H15.828H15.83Z" fill="black"/>
</g>
<defs>
<clipPath id="clip0_237_11154">
<rect width="32" height="32" fill="white"/>
</clipPath>
</defs>
</svg>
