<svg width="51" height="51" viewBox="0 0 51 51" fill="none" xmlns="http://www.w3.org/2000/svg">
<g id="social-icon-telegram" clip-path="url(#clip0_246_109)">
<path id="Vector" d="M25.6946 50.2778C39.5784 50.2778 50.8334 39.0227 50.8334 25.1389C50.8334 11.2551 39.5784 0 25.6946 0C11.8107 0 0.555664 11.2551 0.555664 25.1389C0.555664 39.0227 11.8107 50.2778 25.6946 50.2778Z" fill="black"/>
<path id="Vector_2" fill-rule="evenodd" clip-rule="evenodd" d="M11.9351 24.8736C19.2636 21.6807 24.1505 19.5757 26.5956 18.5587C33.5769 15.6549 35.0276 15.1505 35.9731 15.1338C36.1811 15.1302 36.646 15.1817 36.9472 15.4261C37.2016 15.6325 37.2715 15.9113 37.305 16.1069C37.3385 16.3026 37.3802 16.7483 37.347 17.0965C36.9687 21.0716 35.3317 30.718 34.4989 35.1701C34.1465 37.054 33.4527 37.6856 32.7809 37.7474C31.3211 37.8818 30.2125 36.7826 28.7986 35.8558C26.586 34.4054 25.3361 33.5026 23.1884 32.0873C20.7064 30.4517 22.3154 29.5528 23.7299 28.0836C24.1 27.6991 30.5322 21.8486 30.6567 21.3178C30.6723 21.2515 30.6867 21.004 30.5397 20.8734C30.3928 20.7427 30.1758 20.7874 30.0193 20.823C29.7973 20.8733 26.2628 23.2095 19.4155 27.8316C18.4122 28.5205 17.5035 28.8562 16.6893 28.8386C15.7917 28.8192 14.0651 28.3311 12.7816 27.9139C11.2073 27.4021 9.95601 27.1316 10.065 26.2625C10.1217 25.8098 10.7451 25.3468 11.9351 24.8736Z" fill="white"/>
</g>
<defs>
<clipPath id="clip0_246_109">
<rect width="50.2778" height="50.2778" fill="white" transform="translate(0.555664)"/>
</clipPath>
</defs>
</svg>
