<svg width="40" height="40" viewBox="0 0 40 40" fill="none" xmlns="http://www.w3.org/2000/svg">
<g id="social-icon-discord">
<circle id="Ellipse 8" cx="20" cy="20" r="20" fill="#F3F3F3" fill-opacity="0.5"/>
<path id="Vector" d="M28.4711 12.0103C26.9131 11.2954 25.2424 10.7687 23.4955 10.4671C23.4637 10.4613 23.4319 10.4758 23.4155 10.5049C23.2007 10.8871 22.9627 11.3856 22.796 11.7775C20.9171 11.4962 19.0479 11.4962 17.2076 11.7775C17.0409 11.3769 16.7943 10.8871 16.5784 10.5049C16.562 10.4768 16.5303 10.4622 16.4984 10.4671C14.7526 10.7678 13.0818 11.2945 11.5229 12.0103C11.5094 12.0161 11.4978 12.0258 11.4901 12.0384C8.3211 16.7729 7.45298 21.391 7.87885 25.9518C7.88078 25.9741 7.8933 25.9954 7.91064 26.009C10.0015 27.5445 12.0268 28.4766 14.0145 29.0945C14.0463 29.1042 14.08 29.0925 14.1003 29.0663C14.5705 28.4242 14.9896 27.7472 15.349 27.0352C15.3702 26.9935 15.3499 26.944 15.3066 26.9276C14.6418 26.6754 14.0087 26.3679 13.3998 26.0187C13.3516 25.9906 13.3478 25.9217 13.3921 25.8887C13.5202 25.7927 13.6484 25.6928 13.7707 25.5919C13.7929 25.5735 13.8237 25.5696 13.8498 25.5812C17.8503 27.4077 22.1813 27.4077 26.1345 25.5812C26.1606 25.5686 26.1914 25.5725 26.2145 25.5909C26.3369 25.6918 26.4651 25.7927 26.5942 25.8887C26.6385 25.9217 26.6356 25.9906 26.5874 26.0187C25.9785 26.3747 25.3454 26.6754 24.6796 26.9266C24.6363 26.9431 24.617 26.9935 24.6382 27.0352C25.0053 27.7462 25.4244 28.4232 25.886 29.0654C25.9052 29.0925 25.9399 29.1042 25.9717 29.0945C27.9691 28.4766 29.9944 27.5445 32.0852 26.009C32.1035 25.9954 32.1151 25.975 32.117 25.9527C32.6267 20.6799 31.2633 16.0997 28.5029 12.0394C28.4961 12.0258 28.4846 12.0161 28.4711 12.0103ZM15.9464 23.1747C14.742 23.1747 13.7495 22.069 13.7495 20.711C13.7495 19.353 14.7227 18.2473 15.9464 18.2473C17.1796 18.2473 18.1625 19.3627 18.1432 20.711C18.1432 22.069 17.17 23.1747 15.9464 23.1747ZM24.0688 23.1747C22.8644 23.1747 21.872 22.069 21.872 20.711C21.872 19.353 22.8451 18.2473 24.0688 18.2473C25.3021 18.2473 26.2849 19.3627 26.2656 20.711C26.2656 22.069 25.3021 23.1747 24.0688 23.1747Z" fill="black"/>
</g>
</svg>
