<svg width="51" height="51" viewBox="0 0 51 51" fill="none" xmlns="http://www.w3.org/2000/svg">
<g id="social-icon-discord">
<circle id="Ellipse 8" cx="25.1389" cy="25.1389" r="25.1389" fill="black"/>
<path id="Vector" d="M35.7869 15.0963C33.8286 14.1977 31.7285 13.5357 29.5329 13.1565C29.4929 13.1492 29.4529 13.1675 29.4323 13.204C29.1622 13.6844 28.8631 14.3111 28.6536 14.8036C26.292 14.4501 23.9425 14.4501 21.6293 14.8036C21.4198 14.3001 21.1098 13.6844 20.8385 13.204C20.8179 13.1687 20.7779 13.1504 20.7379 13.1565C18.5435 13.5345 16.4434 14.1965 14.4839 15.0963C14.4669 15.1036 14.4524 15.1158 14.4427 15.1316C10.4595 21.0825 9.36828 26.8872 9.90358 32.6199C9.90601 32.6479 9.92175 32.6748 9.94355 32.6918C12.5716 34.6218 15.1173 35.7935 17.6158 36.5701C17.6558 36.5823 17.6981 36.5677 17.7236 36.5347C18.3146 35.7276 18.8414 34.8766 19.2931 33.9817C19.3198 33.9293 19.2943 33.8671 19.2398 33.8464C18.4042 33.5294 17.6085 33.1429 16.8431 32.704C16.7825 32.6687 16.7777 32.5821 16.8334 32.5406C16.9945 32.4199 17.1556 32.2943 17.3094 32.1675C17.3372 32.1444 17.376 32.1395 17.4087 32.1541C22.4371 34.4499 27.8809 34.4499 32.85 32.1541C32.8827 32.1383 32.9215 32.1432 32.9505 32.1663C33.1044 32.2931 33.2654 32.4199 33.4277 32.5406C33.4834 32.5821 33.4798 32.6687 33.4192 32.704C32.6538 33.1514 31.8581 33.5294 31.0213 33.8452C30.9668 33.8659 30.9425 33.9293 30.9692 33.9817C31.4306 34.8754 31.9574 35.7264 32.5375 36.5335C32.5618 36.5677 32.6053 36.5823 32.6453 36.5701C35.1559 35.7935 37.7016 34.6218 40.3296 32.6918C40.3527 32.6748 40.3672 32.6491 40.3696 32.6211C41.0103 25.9935 39.2966 20.2364 35.8268 15.1328C35.8183 15.1158 35.8038 15.1036 35.7869 15.0963ZM20.044 29.1293C18.5301 29.1293 17.2827 27.7394 17.2827 26.0325C17.2827 24.3256 18.5059 22.9358 20.044 22.9358C21.5942 22.9358 22.8295 24.3378 22.8053 26.0325C22.8053 27.7394 21.5821 29.1293 20.044 29.1293ZM30.2534 29.1293C28.7396 29.1293 27.4922 27.7394 27.4922 26.0325C27.4922 24.3256 28.7153 22.9358 30.2534 22.9358C31.8036 22.9358 33.0389 24.3378 33.0147 26.0325C33.0147 27.7394 31.8036 29.1293 30.2534 29.1293Z" fill="white"/>
</g>
</svg>
